<svg width="968" height="722" viewBox="0 0 968 722" fill="none" xmlns="http://www.w3.org/2000/svg">
<path d="M968 633.846H0V634.33H968V633.846Z" fill="#EBEBEB"/>
<path d="M871.007 664.997H806.887V665.481H871.007V664.997Z" fill="#EBEBEB"/>
<path d="M641.242 670.262H624.419V670.746H641.242V670.262Z" fill="#EBEBEB"/>
<path d="M804.952 647.031H767.8V647.515H804.952V647.031Z" fill="#EBEBEB"/>
<path d="M185.178 650.283H101.562V650.767H185.178V650.283Z" fill="#EBEBEB"/>
<path d="M214.681 650.283H202.427V650.767H214.681V650.283Z" fill="#EBEBEB"/>
<path d="M435.89 658.453H254.526V658.937H435.89V658.453Z" fill="#EBEBEB"/>
<path d="M458.834 547.501H85.0114C82.0829 547.496 79.2761 546.329 77.2072 544.256C75.1382 542.184 73.9762 539.375 73.9762 536.446V10.9578C74.0017 8.04606 75.175 5.26201 77.2412 3.21031C79.3073 1.15862 82.0996 0.00498789 85.0114 0H458.834C461.766 0 464.577 1.16467 466.65 3.23781C468.724 5.31094 469.888 8.12271 469.888 11.0546V536.446C469.888 539.378 468.724 542.19 466.65 544.263C464.577 546.336 461.766 547.501 458.834 547.501ZM85.0114 0.387201C82.2113 0.39233 79.5276 1.50827 77.5494 3.49008C75.5712 5.47189 74.4602 8.15762 74.4602 10.9578V536.446C74.4602 539.246 75.5712 541.932 77.5494 543.914C79.5276 545.896 82.2113 547.012 85.0114 547.017H458.834C461.636 547.012 464.321 545.896 466.303 543.915C468.284 541.934 469.399 539.248 469.404 536.446V10.9578C469.399 8.15585 468.284 5.47015 466.303 3.4889C464.321 1.50764 461.636 0.392319 458.834 0.387201H85.0114Z" fill="#EBEBEB"/>
<path d="M877.61 547.501H503.768C500.838 547.496 498.029 546.329 495.957 544.257C493.885 542.185 492.718 539.377 492.713 536.446V10.9578C492.744 8.0443 493.921 5.26026 495.991 3.2091C498.06 1.15794 500.854 0.00493349 503.768 0H877.61C880.518 0.0100759 883.305 1.16595 885.367 3.21711C887.429 5.26826 888.6 8.04941 888.625 10.9578V536.446C888.625 539.371 887.466 542.177 885.401 544.249C883.337 546.321 880.535 547.491 877.61 547.501ZM503.768 0.387201C500.966 0.392319 498.28 1.50764 496.299 3.4889C494.318 5.47015 493.202 8.15585 493.197 10.9578V536.446C493.202 539.248 494.318 541.934 496.299 543.915C498.28 545.896 500.966 547.012 503.768 547.017H877.61C880.411 547.012 883.097 545.896 885.078 543.915C887.06 541.934 888.175 539.248 888.18 536.446V10.9578C888.175 8.15585 887.06 5.47015 885.078 3.4889C883.097 1.50764 880.411 0.392319 877.61 0.387201H503.768Z" fill="#EBEBEB"/>
<path d="M695.043 353.339H651.87V371.712H695.043V353.339Z" fill="#FAFAFA"/>
<path d="M642.808 353.339H599.636V371.712H642.808V353.339Z" fill="#FAFAFA"/>
<path d="M590.578 353.339H547.406V371.712H590.578V353.339Z" fill="#FAFAFA"/>
<path d="M721.162 378.914H677.989V397.286H721.162V378.914Z" fill="#FAFAFA"/>
<path d="M668.927 378.914H625.755V397.286H668.927V378.914Z" fill="#FAFAFA"/>
<path d="M616.693 378.914H573.521V397.286H616.693V378.914Z" fill="#FAFAFA"/>
<path d="M564.459 378.914H521.286V397.286H564.459V378.914Z" fill="#FAFAFA"/>
<path d="M805.355 404.489H762.182V422.861H805.355V404.489Z" fill="#FAFAFA"/>
<path d="M753.125 404.489H709.952V422.861H753.125V404.489Z" fill="#FAFAFA"/>
<path d="M642.808 404.489H599.636V422.861H642.808V404.489Z" fill="#FAFAFA"/>
<path d="M590.578 404.489H547.406V422.861H590.578V404.489Z" fill="#FAFAFA"/>
<path d="M538.344 404.489H495.171V422.861H538.344V404.489Z" fill="#FAFAFA"/>
<path d="M779.24 430.044H736.067V448.416H779.24V430.044Z" fill="#FAFAFA"/>
<path d="M668.927 430.044H625.755V448.416H668.927V430.044Z" fill="#FAFAFA"/>
<path d="M616.693 430.044H573.521V448.416H616.693V430.044Z" fill="#FAFAFA"/>
<path d="M564.459 430.044H521.286V448.416H564.459V430.044Z" fill="#FAFAFA"/>
<path d="M360.697 92.8503H317.524V111.223H360.697V92.8503Z" fill="#FAFAFA"/>
<path d="M308.463 92.8503H265.29V111.223H308.463V92.8503Z" fill="#FAFAFA"/>
<path d="M386.812 118.425H343.639V136.798H386.812V118.425Z" fill="#FAFAFA"/>
<path d="M334.578 118.425H291.405V136.798H334.578V118.425Z" fill="#FAFAFA"/>
<path d="M230.113 118.425H186.941V136.798H230.113V118.425Z" fill="#FAFAFA"/>
<path d="M177.879 118.425H134.707V136.798H177.879V118.425Z" fill="#FAFAFA"/>
<path d="M308.463 144H265.29V162.372H308.463V144Z" fill="#FAFAFA"/>
<path d="M783.965 242.504H740.793V260.876H783.965V242.504Z" fill="#FAFAFA"/>
<path d="M693.009 242.504H649.836V260.876H693.009V242.504Z" fill="#FAFAFA"/>
<path d="M810.1 268.078H766.928V286.451H810.1V268.078Z" fill="#FAFAFA"/>
<path d="M757.846 268.078H714.674V286.451H757.846V268.078Z" fill="#FAFAFA"/>
<path d="M312.162 216.716H268.989V235.089H312.162V216.716Z" fill="#FAFAFA"/>
<path d="M201.83 216.716H158.657V235.089H201.83V216.716Z" fill="#FAFAFA"/>
<path d="M338.277 242.271H295.104V260.644H338.277V242.271Z" fill="#FAFAFA"/>
<path d="M266.663 242.271H223.491V260.644H266.663V242.271Z" fill="#FAFAFA"/>
<path d="M783.965 293.652H740.793V312.025H783.965V293.652Z" fill="#FAFAFA"/>
<path d="M693.009 293.652H649.836V312.025H693.009V293.652Z" fill="#FAFAFA"/>
<path d="M203.994 144H160.822V162.372H203.994V144Z" fill="#FAFAFA"/>
<path d="M815.619 93.5476H772.446V111.92H815.619V93.5476Z" fill="#FAFAFA"/>
<path d="M763.385 93.5476H720.212V111.92H763.385V93.5476Z" fill="#FAFAFA"/>
<path d="M789.5 119.103H746.327V137.475H789.5V119.103Z" fill="#FAFAFA"/>
<path d="M581.614 93.954H538.441V112.327H581.614V93.954Z" fill="#FAFAFA"/>
<path d="M529.38 93.954H486.207V112.327H529.38V93.954Z" fill="#FAFAFA"/>
<path d="M607.729 119.509H564.557V137.882H607.729V119.509Z" fill="#FAFAFA"/>
<path d="M555.495 119.509H512.322V137.882H555.495V119.509Z" fill="#FAFAFA"/>
<path d="M503.265 119.509H460.092V137.882H503.265V119.509Z" fill="#FAFAFA"/>
<path d="M633.844 145.084H590.672V163.457H633.844V145.084Z" fill="#FAFAFA"/>
<path d="M581.614 145.084H538.441V163.457H581.614V145.084Z" fill="#FAFAFA"/>
<path d="M529.38 145.084H486.207V163.457H529.38V145.084Z" fill="#FAFAFA"/>
<path d="M607.729 170.658H564.557V189.031H607.729V170.658Z" fill="#FAFAFA"/>
<path d="M555.495 170.658H512.322V189.031H555.495V170.658Z" fill="#FAFAFA"/>
<path d="M256.637 346.408H213.464V364.781H256.637V346.408Z" fill="#FAFAFA"/>
<path d="M204.383 346.408H161.21V364.781H204.383V346.408Z" fill="#FAFAFA"/>
<path d="M406.599 348.732H363.427V367.104H406.599V348.732Z" fill="#FAFAFA"/>
<path d="M282.752 371.964H239.579V390.336H282.752V371.964Z" fill="#FAFAFA"/>
<path d="M230.502 371.964H187.329V390.336H230.502V371.964Z" fill="#FAFAFA"/>
<path d="M432.714 374.306H389.542V392.679H432.714V374.306Z" fill="#FAFAFA"/>
<path d="M380.464 374.306H337.292V392.679H380.464V374.306Z" fill="#FAFAFA"/>
<path d="M519.08 291.639H475.907V310.011H519.08V291.639Z" fill="#FAFAFA"/>
<path d="M248.252 279.481H205.079V297.854H248.252V279.481Z" fill="#FAFAFA"/>
<path d="M460.205 200.976H417.032V219.349H460.205V200.976Z" fill="#FAFAFA"/>
<path d="M492.965 266.084H449.792V284.456H492.965V266.084Z" fill="#FAFAFA"/>
<path d="M545.195 266.084H502.022V284.456H545.195V266.084Z" fill="#FAFAFA"/>
<path d="M741.294 615.125H698.121V633.498H741.294V615.125Z" fill="#FAFAFA"/>
<path d="M767.409 589.57H724.236V607.943H767.409V589.57Z" fill="#FAFAFA"/>
<path d="M256.637 397.538H213.464V415.911H256.637V397.538Z" fill="#FAFAFA"/>
<path d="M204.383 397.538H161.21V415.911H204.383V397.538Z" fill="#FAFAFA"/>
<path d="M282.752 423.113H239.579V441.486H282.752V423.113Z" fill="#FAFAFA"/>
<path d="M230.502 423.113H187.329V441.486H230.502V423.113Z" fill="#FAFAFA"/>
<path d="M338.606 493.835H295.433V512.208H338.606V493.835Z" fill="#FAFAFA"/>
<path d="M286.372 493.835H243.199V512.208H286.372V493.835Z" fill="#FAFAFA"/>
<path d="M234.122 493.835H190.949V512.208H234.122V493.835Z" fill="#FAFAFA"/>
<path d="M181.888 493.835H138.715V512.208H181.888V493.835Z" fill="#FAFAFA"/>
<path d="M364.725 519.409H321.552V537.782H364.725V519.409Z" fill="#FAFAFA"/>
<path d="M312.491 519.409H269.318V537.782H312.491V519.409Z" fill="#FAFAFA"/>
<path d="M208.003 519.409H164.83V537.782H208.003V519.409Z" fill="#FAFAFA"/>
<path d="M390.84 544.965H347.667V563.337H390.84V544.965Z" fill="#FAFAFA"/>
<path d="M338.606 544.965H295.433V563.337H338.606V544.965Z" fill="#FAFAFA"/>
<path d="M286.372 544.965H243.199V563.337H286.372V544.965Z" fill="#FAFAFA"/>
<path d="M364.725 570.539H321.552V588.912H364.725V570.539Z" fill="#FAFAFA"/>
<path d="M312.491 570.539H269.318V588.912H312.491V570.539Z" fill="#FAFAFA"/>
<path d="M260.257 570.539H217.084V588.912H260.257V570.539Z" fill="#FAFAFA"/>
<path d="M691.986 492.654H648.813V511.027H691.986V492.654Z" fill="#FAFAFA"/>
<path d="M581.67 492.654H538.497V511.027H581.67V492.654Z" fill="#FAFAFA"/>
<path d="M529.44 492.654H486.267V511.027H529.44V492.654Z" fill="#FAFAFA"/>
<path d="M718.121 518.229H674.948V536.601H718.121V518.229Z" fill="#FAFAFA"/>
<path d="M607.789 518.229H564.616V536.601H607.789V518.229Z" fill="#FAFAFA"/>
<path d="M555.555 518.229H512.382V536.601H555.555V518.229Z" fill="#FAFAFA"/>
<path d="M503.321 518.229H460.148V536.601H503.321V518.229Z" fill="#FAFAFA"/>
<path d="M744.236 543.784H701.063V562.157H744.236V543.784Z" fill="#FAFAFA"/>
<path d="M691.986 543.784H648.813V562.157H691.986V543.784Z" fill="#FAFAFA"/>
<path d="M581.67 543.784H538.497V562.157H581.67V543.784Z" fill="#FAFAFA"/>
<path d="M529.44 543.784H486.267V562.157H529.44V543.784Z" fill="#FAFAFA"/>
<path d="M660.023 569.358H616.85V587.731H660.023V569.358Z" fill="#FAFAFA"/>
<path d="M607.789 569.358H564.616V587.731H607.789V569.358Z" fill="#FAFAFA"/>
<path d="M555.555 569.358H512.382V587.731H555.555V569.358Z" fill="#FAFAFA"/>
<path d="M503.321 569.358H460.148V587.731H503.321V569.358Z" fill="#FAFAFA"/>
<path d="M598.281 407.122H784.757V193.832L598.281 193.832V407.122Z" fill="#E0E0E0"/>
<path d="M598.632 407.122H777.925V193.832L598.632 193.832V407.122Z" fill="#E0E0E0"/>
<path d="M592.453 407.122H778.928V193.832L592.453 193.832V407.122Z" fill="#F0F0F0"/>
<path d="M600.936 397.306H770.801V200.608L600.936 200.608V397.306Z" fill="white"/>
<path d="M600.936 397.306H606.241V200.608H600.936V397.306Z" fill="#E0E0E0"/>
<path d="M605.678 342.072V347.377H771.283V342.072H605.678Z" fill="#E0E0E0"/>
<path d="M600.933 342.053H773.644V333.147H600.933V342.053Z" fill="#F0F0F0"/>
<path d="M205.021 407.122H391.496V193.832L205.021 193.832L205.021 407.122Z" fill="#E0E0E0"/>
<path d="M205.392 407.122H384.685V193.832L205.392 193.832L205.392 407.122Z" fill="#E0E0E0"/>
<path d="M199.216 407.122H385.692V193.832L199.216 193.832L199.216 407.122Z" fill="#F0F0F0"/>
<path d="M207.676 397.306H377.541V200.608L207.676 200.608L207.676 397.306Z" fill="white"/>
<path d="M207.676 397.306H212.98L212.98 200.608H207.676L207.676 397.306Z" fill="#E0E0E0"/>
<path d="M212.417 342.053V347.357H378.023V342.053H212.417Z" fill="#E0E0E0"/>
<path d="M207.677 342.053H380.387V333.147H207.677V342.053Z" fill="#F0F0F0"/>
<path d="M483.999 721.276C691.311 721.276 859.371 711.464 859.371 699.361C859.371 687.257 691.311 677.445 483.999 677.445C276.688 677.445 108.628 687.257 108.628 699.361C108.628 711.464 276.688 721.276 483.999 721.276Z" fill="#F5F5F5"/>
<path d="M173.036 649.354C173.036 649.354 170.365 629.665 157.761 627.516C145.158 625.367 148.952 615.9 145.681 612.144C142.409 608.388 133.832 619.327 141.17 629.878C148.507 640.429 142.506 637.099 145.681 646.896C148.856 656.692 174.237 665.694 173.036 649.354Z" fill="#263238"/>
<path opacity="0.2" d="M173.036 649.354C173.036 649.354 170.365 629.665 157.761 627.516C145.158 625.367 148.952 615.9 145.681 612.144C142.409 608.388 133.832 619.327 141.17 629.878C148.507 640.429 142.506 637.099 145.681 646.896C148.856 656.692 174.237 665.694 173.036 649.354Z" fill="white"/>
<path d="M172.514 663.022C172.349 663.025 172.187 662.981 172.047 662.895C171.906 662.809 171.793 662.686 171.72 662.538C171.72 662.325 162.04 641.842 167.074 609.202C168.703 599.865 171.299 590.723 174.818 581.923C180.916 565.312 185.717 552.186 174.721 528.219C171.236 520.63 167.674 513.563 164.228 506.729C151.295 481.058 141.092 460.788 148.74 440.247C148.822 440.031 148.987 439.857 149.197 439.763C149.408 439.669 149.647 439.662 149.863 439.743C149.972 439.778 150.073 439.835 150.159 439.91C150.246 439.985 150.316 440.077 150.365 440.181C150.414 440.285 150.441 440.397 150.445 440.512C150.448 440.626 150.428 440.741 150.385 440.847C143.048 460.672 153.115 480.651 165.873 505.935C169.319 512.789 172.882 519.874 176.386 527.483C187.692 552.109 182.523 566.203 176.541 582.523C173.014 591.208 170.418 600.241 168.797 609.473C163.821 641.533 173.211 661.57 173.308 661.745C173.407 661.953 173.421 662.192 173.344 662.409C173.268 662.627 173.109 662.806 172.901 662.906C172.782 662.973 172.65 663.012 172.514 663.022Z" fill="#263238"/>
<path d="M165.255 658.24C165.255 658.24 157.104 645.966 168.856 639.655C180.607 633.343 182.969 638.435 190.152 633.847C197.334 629.259 202.93 618.359 204.169 625.348C205.408 632.337 197.025 636.402 199.987 639.616C202.949 642.83 180.298 663.739 165.255 658.24Z" fill="#263238"/>
<path d="M146.031 450.798C146.031 450.798 138.113 426.695 156.156 426.192C174.2 425.688 154.298 448.223 146.031 450.798Z" fill="#263238"/>
<path d="M161.714 469.345C161.714 469.345 167.096 447.41 179.893 452.037C192.69 456.664 174.472 469.751 161.714 469.345Z" fill="#263238"/>
<path d="M139.99 471.242C139.99 471.242 141.926 453.818 128.374 453.392C114.822 452.967 120.785 468.513 139.99 471.242Z" fill="#263238"/>
<path d="M149.07 506.923C149.07 506.923 130.833 490.66 124.27 502.76C117.707 514.86 137.996 517.377 149.07 506.923Z" fill="#263238"/>
<path d="M181.287 504.038C181.287 504.038 184.714 476.934 199.447 485.511C214.18 494.087 194.123 506.749 181.287 504.038Z" fill="#263238"/>
<path d="M194.258 542.7C194.258 542.7 183.378 515.422 203.59 518.5C223.802 521.578 208.526 536.079 194.258 542.7Z" fill="#263238"/>
<path d="M163.243 552.438C163.243 552.438 146.187 532.401 133.138 538.712C120.089 545.023 130.757 565.061 163.243 552.438Z" fill="#263238"/>
<path d="M178.73 596.985C178.73 596.985 193.269 564.693 206.202 575.573C219.134 586.454 197.954 602.716 178.73 596.985Z" fill="#263238"/>
<path d="M157.608 595.088C157.608 595.088 161.48 570.036 147.056 572.05C132.633 574.063 136.447 589.396 157.608 595.088Z" fill="#263238"/>
<g opacity="0.2">
<path d="M146.031 450.798C146.031 450.798 138.113 426.695 156.156 426.192C174.2 425.688 154.298 448.223 146.031 450.798Z" fill="white"/>
<path d="M161.714 469.345C161.714 469.345 167.096 447.41 179.893 452.037C192.69 456.664 174.472 469.751 161.714 469.345Z" fill="white"/>
<path d="M139.99 471.242C139.99 471.242 141.926 453.818 128.374 453.392C114.822 452.967 120.785 468.513 139.99 471.242Z" fill="white"/>
<path d="M149.07 506.923C149.07 506.923 130.833 490.66 124.27 502.76C117.707 514.86 137.996 517.377 149.07 506.923Z" fill="white"/>
<path d="M181.287 504.038C181.287 504.038 184.714 476.934 199.447 485.511C214.18 494.087 194.123 506.749 181.287 504.038Z" fill="white"/>
<path d="M194.258 542.7C194.258 542.7 183.378 515.422 203.59 518.5C223.802 521.578 208.526 536.079 194.258 542.7Z" fill="white"/>
<path d="M163.243 552.438C163.243 552.438 146.187 532.401 133.138 538.712C120.089 545.023 130.757 565.061 163.243 552.438Z" fill="white"/>
<path d="M178.73 596.985C178.73 596.985 193.269 564.693 206.202 575.573C219.134 586.454 197.954 602.716 178.73 596.985Z" fill="white"/>
<path d="M157.608 595.088C157.608 595.088 161.48 570.036 147.056 572.05C132.633 574.063 136.447 589.396 157.608 595.088Z" fill="white"/>
</g>
<path d="M153.851 483.846C153.703 483.846 153.558 483.812 153.425 483.749C142.738 477.767 135.052 466.46 134.742 465.996C134.677 465.901 134.631 465.793 134.607 465.68C134.583 465.567 134.582 465.451 134.603 465.337C134.625 465.224 134.669 465.116 134.733 465.019C134.796 464.923 134.879 464.84 134.975 464.776C135.168 464.648 135.404 464.601 135.632 464.645C135.859 464.688 136.061 464.818 136.194 465.008C140.834 471.656 146.711 477.348 153.502 481.774C155.128 478.754 160.995 468.338 165.893 465.396C166.09 465.275 166.328 465.238 166.553 465.292C166.664 465.319 166.769 465.368 166.862 465.435C166.955 465.503 167.033 465.588 167.093 465.686C167.153 465.784 167.193 465.892 167.21 466.006C167.228 466.119 167.223 466.235 167.196 466.346C167.169 466.458 167.121 466.563 167.053 466.655C166.986 466.748 166.9 466.826 166.803 466.886C161.595 470.003 154.683 483.245 154.625 483.381C154.571 483.483 154.496 483.573 154.407 483.646C154.317 483.72 154.213 483.774 154.102 483.807C154.022 483.837 153.936 483.85 153.851 483.846Z" fill="#263238"/>
<path d="M170.365 517.358C170.176 517.362 169.991 517.301 169.842 517.184C154.645 505.703 135.227 506.187 134.994 506.187C134.764 506.183 134.544 506.094 134.375 505.936C134.207 505.779 134.104 505.565 134.084 505.335C134.082 505.221 134.102 505.107 134.143 505C134.185 504.894 134.247 504.796 134.326 504.714C134.405 504.631 134.5 504.564 134.604 504.518C134.709 504.472 134.822 504.447 134.936 504.445C135.13 504.445 154.509 503.941 170.075 515.209C172.107 511.976 179.91 500.224 189.938 494.319C190.138 494.201 190.377 494.168 190.602 494.226C190.827 494.284 191.02 494.429 191.138 494.629C191.256 494.829 191.29 495.068 191.232 495.293C191.174 495.519 191.029 495.711 190.829 495.829C179.774 502.334 171.159 516.777 171.081 516.932C171.018 517.036 170.933 517.126 170.833 517.195C170.733 517.265 170.62 517.314 170.501 517.338L170.365 517.358Z" fill="#263238"/>
<path d="M180.918 561.634C180.762 561.635 180.608 561.595 180.472 561.518C180.259 561.382 158.053 548.624 142.004 548.314C141.793 548.283 141.6 548.177 141.461 548.015C141.321 547.853 141.244 547.647 141.244 547.434C141.244 547.22 141.321 547.014 141.461 546.852C141.6 546.69 141.793 546.584 142.004 546.553C157.298 546.862 177.22 557.685 180.724 559.698C191.024 551.005 199.213 529.69 199.29 529.477C199.327 529.365 199.386 529.261 199.463 529.172C199.541 529.084 199.636 529.012 199.743 528.961C199.849 528.91 199.965 528.881 200.083 528.876C200.201 528.871 200.319 528.89 200.429 528.932C200.539 528.974 200.64 529.038 200.725 529.12C200.809 529.203 200.877 529.301 200.922 529.41C200.968 529.519 200.991 529.636 200.99 529.754C200.989 529.872 200.964 529.989 200.916 530.097C200.568 531.007 192.243 552.709 181.363 561.441C181.234 561.543 181.081 561.61 180.918 561.634Z" fill="#263238"/>
<path d="M168.061 607.401C167.905 607.399 167.752 607.36 167.615 607.285C159.233 602.484 148.391 581.478 147.946 580.588C147.838 580.382 147.816 580.142 147.885 579.921C147.954 579.699 148.108 579.514 148.314 579.407C148.519 579.299 148.759 579.277 148.98 579.346C149.202 579.415 149.387 579.569 149.494 579.774C149.494 579.987 159.968 600.102 167.848 605.368C174.262 597.879 182.75 592.456 192.241 589.784C192.462 589.717 192.7 589.741 192.903 589.85C193.107 589.959 193.258 590.144 193.326 590.364C193.392 590.588 193.369 590.828 193.261 591.035C193.152 591.241 192.967 591.397 192.745 591.468C183.363 594.065 175 599.469 168.777 606.956C168.702 607.082 168.598 607.189 168.474 607.266C168.349 607.344 168.207 607.39 168.061 607.401Z" fill="#263238"/>
<path d="M166.495 655.298C166.495 655.298 159.506 644.185 151.626 642.598C143.747 641.01 140.339 631.93 137.435 637.39C134.531 642.849 142.546 660.97 166.495 655.298Z" fill="#263238"/>
<path d="M138.055 698.916H196.29L200.181 651.89H134.164L138.055 698.916Z" fill="#0E8EC5"/>
<path d="M132.787 660.796H201.534L202.425 650.826H131.916L132.787 660.796Z" fill="#0E8EC5"/>
<path opacity="0.3" d="M132.787 660.796H201.534L202.425 650.826H131.916L132.787 660.796Z" fill="white"/>
<path d="M542.988 297.021L540.045 297.583C539.814 297.599 539.583 297.546 539.382 297.432C539.18 297.318 539.017 297.147 538.911 296.941C538.806 296.735 538.764 296.502 538.79 296.272C538.816 296.042 538.909 295.824 539.058 295.647H539.174C538.341 296.014 537.509 296.382 536.638 296.711C536.566 298.001 536.566 299.294 536.638 300.583L555.63 398.816L484.888 412.523C484.909 412.664 484.909 412.808 484.888 412.949C484.859 413.255 484.711 413.538 484.476 413.737C484.241 413.936 483.937 414.035 483.63 414.014C482.488 413.801 481.326 413.588 480.165 413.433L386.501 431.592C386.485 431.757 386.432 431.916 386.346 432.057C385.993 432.652 385.598 433.221 385.165 433.761C385.22 434.107 385.18 434.462 385.049 434.787C384.324 436.96 383.384 439.055 382.242 441.04C381.871 441.563 381.319 441.929 380.693 442.066C380.285 442.151 379.862 442.117 379.473 441.969C379.029 442.927 378.704 443.934 378.505 444.97L528.584 415.93L528.719 415.756C529.594 414.93 530.631 414.296 531.764 413.893C532.897 413.489 534.102 413.326 535.302 413.413C536.156 412.414 537.17 411.564 538.303 410.897C538.813 410.561 539.399 410.359 540.008 410.308C540.617 410.258 541.229 410.36 541.787 410.606C542.531 411.046 543.099 411.731 543.394 412.542C544.872 412.361 546.358 412.258 547.847 412.232L569.143 408.089L548.331 300.777C546.27 299.979 544.436 298.69 542.988 297.021Z" fill="#0E8EC5"/>
<path d="M348.981 156.642L349.678 156.778L363.675 154.067C365.224 153.39 366.753 152.673 368.244 152.034C371.061 150.703 374.087 149.871 377.189 149.576C379.038 149.49 380.885 149.766 382.629 150.389L503.009 127.06L514.18 184.637C514.31 184.452 514.49 184.308 514.699 184.223C514.908 184.137 515.137 184.114 515.359 184.154C515.581 184.195 515.787 184.299 515.952 184.453C516.117 184.607 516.234 184.805 516.29 185.024C516.94 187.556 517.29 190.155 517.336 192.768C517.275 194.023 516.986 195.256 516.484 196.407L535.476 294.427C536.618 294.001 537.741 293.537 538.864 293.033C538.976 292.358 539.224 291.713 539.593 291.137C539.963 290.561 540.446 290.067 541.013 289.684C541.824 289.3 542.748 289.231 543.607 289.49C544.054 288.474 544.379 287.408 544.575 286.315C544.848 284.984 544.971 283.627 544.943 282.269L544.188 278.3C544.188 278.087 544.014 277.894 543.917 277.7C543.837 277.551 543.796 277.385 543.796 277.216C543.796 277.047 543.837 276.881 543.917 276.732L523.937 173.698C523.822 173.717 523.704 173.717 523.589 173.698C522.889 173.773 522.183 173.655 521.545 173.359C520.907 173.062 520.362 172.597 519.968 172.014C519.418 170.885 519.248 169.608 519.484 168.374C519.678 166.922 520.046 165.49 520.336 164.057C520.648 162.791 520.74 161.482 520.607 160.185C520.56 159.966 520.584 159.737 520.674 159.532C520.765 159.327 520.917 159.156 521.111 159.043L512.244 113.334L338.643 147.136C335.419 149.011 331.743 149.969 328.014 149.905C327.838 149.894 327.667 149.838 327.518 149.743C327.369 149.649 327.247 149.518 327.162 149.363L241.03 166.07C240.979 166.294 240.867 166.5 240.706 166.664C240.546 166.828 240.343 166.944 240.12 167L235.589 167.871C235.572 168.559 235.364 169.229 234.989 169.807C234.958 170.077 234.827 170.326 234.621 170.504C234.324 170.747 234.04 171.005 233.77 171.278C233.247 171.762 232.744 172.285 232.201 172.75C232.017 172.927 231.791 173.053 231.543 173.117C231.342 173.152 231.134 173.135 230.941 173.067C230.748 173 230.575 172.883 230.44 172.73C230.24 172.493 230.136 172.189 230.149 171.878C230.138 171.769 230.138 171.659 230.149 171.549C229.452 171.549 228.755 171.549 228.078 171.375C227.773 171.341 227.493 171.191 227.295 170.957C227.097 170.724 226.996 170.423 227.013 170.117C227.038 169.812 227.182 169.529 227.414 169.33C227.646 169.13 227.947 169.03 228.252 169.052C228.983 169.158 229.72 169.216 230.459 169.226H231.04C231.123 169.236 231.208 169.236 231.292 169.226C230.722 169.145 230.201 168.863 229.82 168.432C229.814 168.381 229.814 168.329 229.82 168.277L179.949 177.957C180.179 177.96 180.405 178.02 180.607 178.132C180.856 178.308 181.028 178.573 181.085 178.873C181.143 179.172 181.083 179.483 180.917 179.739C180.518 180.269 180.071 180.762 179.581 181.21L179.445 181.365C179.562 181.365 179.445 181.268 179.445 181.365C179.362 181.463 179.284 181.567 179.213 181.675C179.213 181.675 179.213 181.829 179.213 181.887C179.204 181.952 179.204 182.017 179.213 182.081C179.204 182.119 179.204 182.159 179.213 182.197C179.188 182.396 179.113 182.586 178.996 182.749C178.878 182.911 178.722 183.042 178.541 183.129C178.36 183.216 178.16 183.255 177.959 183.245C177.759 183.234 177.564 183.174 177.393 183.068C177.29 183.013 177.179 182.974 177.064 182.952C176.944 182.905 176.822 182.866 176.696 182.836C176.7 183.382 176.552 183.918 176.27 184.385C176.16 184.546 176.008 184.674 175.831 184.756C175.654 184.837 175.458 184.87 175.264 184.85C175.069 185.939 174.703 186.991 174.18 187.967C173.595 188.963 172.803 189.821 171.856 190.483C172.044 190.735 172.2 191.008 172.321 191.296L246.47 176.931V176.815C246.784 176.289 247.191 175.823 247.67 175.441C247.988 175.205 248.356 175.045 248.745 174.975C249.135 174.904 249.535 174.925 249.916 175.034C250.524 175.222 251.095 175.517 251.6 175.905L347.606 157.3C347.718 157.043 347.918 156.835 348.171 156.714C348.423 156.593 348.711 156.568 348.981 156.642Z" fill="#0E8EC5"/>
<path d="M219.868 463.943L202.444 374.21C202.291 374.384 202.089 374.508 201.865 374.567C201.641 374.625 201.404 374.616 201.186 374.539C200.896 374.438 200.659 374.226 200.524 373.951C200.39 373.675 200.37 373.358 200.469 373.067C200.759 372.216 201.198 371.422 201.766 370.725L178.941 252.803L178.728 252.435C178.264 251.478 177.931 250.462 177.741 249.415C177.341 249.386 176.94 249.386 176.54 249.415C176.365 249.445 176.185 249.434 176.014 249.384C175.843 249.335 175.686 249.247 175.554 249.128C175.421 249.008 175.318 248.861 175.251 248.696C175.184 248.531 175.155 248.354 175.166 248.176C175.143 245.942 175.718 243.743 176.831 241.807L167.577 194.104C167.422 193.849 167.286 193.584 167.17 193.31L166.705 192.439C166.515 192.434 166.33 192.377 166.17 192.275C166.009 192.172 165.88 192.028 165.796 191.858C165.661 191.583 165.64 191.266 165.738 190.976C165.836 190.686 166.045 190.446 166.318 190.309C166.802 190.121 167.243 189.838 167.615 189.476C167.879 189.176 168.095 188.836 168.254 188.47C168.558 187.651 168.722 186.787 168.738 185.914C168.447 185.52 168.237 185.073 168.119 184.598C168.031 183.948 168.09 183.286 168.293 182.662C168.334 182.498 168.421 182.351 168.545 182.236C168.545 181.5 168.428 180.764 168.39 180.029L153.579 182.894L195.842 400.926C196.053 400.813 196.299 400.782 196.531 400.84C196.763 400.897 196.966 401.038 197.101 401.236C198.195 402.421 198.797 403.979 198.785 405.592C198.727 405.91 198.636 406.222 198.514 406.521C198.709 406.663 198.853 406.864 198.923 407.095C198.993 407.326 198.985 407.573 198.901 407.799C198.335 408.909 198.151 410.175 198.378 411.4C198.622 412.553 198.952 413.685 199.366 414.788C200.096 416.641 200.191 418.683 199.637 420.596L210.672 477.573L213.808 476.953C215.571 476.371 217.369 475.899 219.19 475.54C219.163 475.406 219.164 475.267 219.194 475.134C219.225 475 219.282 474.875 219.365 474.765C219.825 474.234 220.316 473.729 220.836 473.255C220.788 473.058 220.788 472.852 220.836 472.655C221.161 471.315 221.916 470.118 222.985 469.248C223.955 468.533 225.153 468.195 226.354 468.299C227.511 468.445 228.621 468.845 229.605 469.471C230.59 470.097 231.423 470.933 232.045 471.92C235.22 471.145 238.647 469.984 241.725 471.552L362.067 448.32C362.104 448.005 362.169 447.694 362.261 447.39C362.753 445.822 363.671 444.421 364.913 443.344C365.099 443.185 365.331 443.09 365.575 443.072C365.819 443.055 366.062 443.116 366.268 443.247C366.362 443.095 366.493 442.97 366.649 442.882C366.805 442.795 366.98 442.75 367.159 442.75C367.337 442.75 367.513 442.795 367.669 442.882C367.825 442.97 367.956 443.095 368.049 443.247L368.533 443.828L368.746 444.022L369.114 444.273L369.521 444.467C369.153 443.348 369.153 442.14 369.521 441.021C369.747 440.391 370.102 439.815 370.562 439.329C371.021 438.842 371.577 438.456 372.192 438.194C372.078 438.04 372.004 437.858 371.978 437.667C371.953 437.476 371.976 437.282 372.045 437.102C372.115 436.923 372.229 436.763 372.376 436.64C372.524 436.516 372.7 436.431 372.889 436.394C373.142 436.363 373.397 436.414 373.618 436.539C373.839 436.665 374.013 436.858 374.115 437.091C374.217 437.324 374.242 437.583 374.185 437.831C374.128 438.078 373.993 438.301 373.799 438.465L373.935 438.62C374.069 438.895 374.09 439.212 373.992 439.502C373.894 439.792 373.686 440.032 373.412 440.169L372.967 440.382L372.715 440.518L372.58 440.614L372.27 440.885L372.154 441.021L371.96 441.311V441.428C371.916 441.529 371.877 441.632 371.844 441.737C372.229 441.23 372.678 440.774 373.18 440.382C373.516 440.15 373.88 439.961 374.264 439.821C375.213 437.73 376.103 435.6 376.994 433.509L219.868 463.943Z" fill="#0E8EC5"/>
<path d="M375.142 506.574H457.887C460.136 506.574 462.363 507.017 464.441 507.878C466.519 508.739 468.406 510.002 469.996 511.593C471.585 513.184 472.845 515.073 473.704 517.152C474.563 519.23 475.004 521.458 475.001 523.707V552.747C475.004 554.996 474.563 557.224 473.704 559.302C472.845 561.381 471.585 563.27 469.996 564.861C468.406 566.453 466.519 567.715 464.441 568.576C462.363 569.437 460.136 569.881 457.887 569.881H402.905L377.737 596.791L391.289 569.881H375.065C370.521 569.881 366.163 568.076 362.95 564.862C359.737 561.649 357.931 557.291 357.931 552.747V523.707C357.931 521.451 358.377 519.216 359.243 517.132C360.109 515.049 361.378 513.156 362.977 511.564C364.576 509.972 366.474 508.712 368.562 507.855C370.65 506.999 372.886 506.563 375.142 506.574Z" fill="#0E8EC5"/>
<path opacity="0.7" d="M375.142 506.574H457.887C460.136 506.574 462.363 507.017 464.441 507.878C466.519 508.739 468.406 510.002 469.996 511.593C471.585 513.184 472.845 515.073 473.704 517.152C474.563 519.23 475.004 521.458 475.001 523.707V552.747C475.004 554.996 474.563 557.224 473.704 559.302C472.845 561.381 471.585 563.27 469.996 564.861C468.406 566.453 466.519 567.715 464.441 568.576C462.363 569.437 460.136 569.881 457.887 569.881H402.905L377.737 596.791L391.289 569.881H375.065C370.521 569.881 366.163 568.076 362.95 564.862C359.737 561.649 357.931 557.291 357.931 552.747V523.707C357.931 521.451 358.377 519.216 359.243 517.132C360.109 515.049 361.378 513.156 362.977 511.564C364.576 509.972 366.474 508.712 368.562 507.855C370.65 506.999 372.886 506.563 375.142 506.574Z" fill="white"/>
<path d="M379.189 536.62C379.115 534.666 379.628 532.734 380.66 531.073C381.692 529.411 383.197 528.096 384.982 527.296C386.766 526.496 388.75 526.247 390.677 526.582C392.604 526.916 394.387 527.819 395.797 529.174C397.208 530.529 398.181 532.274 398.593 534.186C399.005 536.099 398.836 538.09 398.108 539.905C397.38 541.721 396.126 543.277 394.508 544.375C392.889 545.473 390.98 546.063 389.024 546.068C387.748 546.131 386.473 545.933 385.277 545.486C384.08 545.039 382.988 544.352 382.067 543.467C381.146 542.582 380.416 541.518 379.921 540.341C379.426 539.164 379.177 537.897 379.189 536.62ZM396.168 536.62C396.183 535.195 395.774 533.797 394.992 532.605C394.211 531.413 393.092 530.48 391.779 529.926C390.465 529.371 389.017 529.22 387.617 529.492C386.218 529.763 384.931 530.445 383.92 531.45C382.91 532.456 382.221 533.739 381.942 535.137C381.663 536.535 381.806 537.984 382.353 539.3C382.9 540.617 383.827 541.74 385.015 542.528C386.203 543.316 387.598 543.733 389.024 543.725C389.966 543.755 390.905 543.591 391.783 543.245C392.66 542.899 393.458 542.377 394.126 541.712C394.795 541.047 395.321 540.252 395.672 539.377C396.023 538.501 396.192 537.563 396.168 536.62Z" fill="#0E8EC5"/>
<path d="M401.18 538.866C401.142 537.42 401.535 535.996 402.309 534.775C403.084 533.553 404.204 532.59 405.528 532.008C406.852 531.427 408.32 531.252 409.743 531.508C411.167 531.763 412.482 532.437 413.521 533.443C414.56 534.449 415.275 535.742 415.577 537.156C415.878 538.571 415.751 540.043 415.212 541.385C414.673 542.727 413.747 543.878 412.551 544.692C411.355 545.505 409.945 545.944 408.498 545.952C407.544 546 406.591 545.851 405.696 545.515C404.802 545.179 403.987 544.663 403.301 543.998C402.614 543.334 402.072 542.535 401.707 541.652C401.343 540.77 401.163 539.821 401.18 538.866ZM413.164 538.866C413.205 538.222 413.114 537.576 412.896 536.968C412.678 536.36 412.337 535.803 411.895 535.332C411.454 534.861 410.92 534.486 410.327 534.229C409.735 533.972 409.096 533.84 408.45 533.84C407.804 533.84 407.165 533.972 406.573 534.229C405.98 534.486 405.446 534.861 405.004 535.332C404.563 535.803 404.222 536.36 404.004 536.968C403.786 537.576 403.694 538.222 403.736 538.866C403.694 539.511 403.786 540.157 404.004 540.765C404.222 541.372 404.563 541.929 405.004 542.4C405.446 542.871 405.98 543.247 406.573 543.503C407.165 543.76 407.804 543.892 408.45 543.892C409.096 543.892 409.735 543.76 410.327 543.503C410.92 543.247 411.454 542.871 411.895 542.4C412.337 541.929 412.678 541.372 412.896 540.765C413.114 540.157 413.205 539.511 413.164 538.866Z" fill="#0E8EC5"/>
<path d="M433.666 538.866C433.718 539.812 433.572 540.759 433.237 541.645C432.901 542.531 432.384 543.338 431.719 544.012C431.053 544.687 430.254 545.215 429.373 545.562C428.491 545.909 427.547 546.069 426.6 546.029C425.665 546.058 424.735 545.866 423.888 545.469C423.04 545.073 422.298 544.482 421.721 543.745V550.986H419.185V531.877H421.605V534.104C422.185 533.336 422.943 532.721 423.812 532.309C424.682 531.898 425.639 531.703 426.6 531.742C427.543 531.703 428.484 531.861 429.363 532.206C430.242 532.551 431.039 533.076 431.704 533.746C432.369 534.416 432.887 535.218 433.224 536.099C433.562 536.981 433.713 537.923 433.666 538.866ZM431.111 538.866C431.065 537.948 430.752 537.063 430.209 536.321C429.666 535.579 428.918 535.012 428.056 534.691C427.194 534.369 426.258 534.308 425.361 534.513C424.465 534.718 423.649 535.182 423.013 535.846C422.377 536.51 421.95 537.347 421.785 538.251C421.619 539.155 421.722 540.089 422.081 540.935C422.44 541.782 423.039 542.504 423.804 543.014C424.57 543.524 425.468 543.798 426.387 543.803C427.033 543.823 427.676 543.708 428.275 543.465C428.873 543.222 429.414 542.856 429.863 542.391C430.312 541.926 430.658 541.372 430.88 540.765C431.101 540.158 431.193 539.511 431.15 538.866H431.111Z" fill="#0E8EC5"/>
<path d="M435.448 544.384L436.493 542.448C437.963 543.383 439.669 543.88 441.411 543.88C443.753 543.88 444.721 543.183 444.721 541.944C444.721 538.808 435.893 541.538 435.893 535.962C435.893 533.465 438.139 531.761 441.701 531.761C443.481 531.734 445.237 532.174 446.793 533.039L445.709 534.975C444.503 534.222 443.103 533.838 441.682 533.871C439.456 533.871 438.371 534.684 438.371 535.807C438.371 539.098 447.238 536.407 447.238 541.848C447.238 544.364 444.915 545.991 441.198 545.991C439.162 546.052 437.157 545.492 435.448 544.384Z" fill="#0E8EC5"/>
<path d="M449.852 544.325C449.851 544.099 449.897 543.875 449.985 543.667C450.073 543.459 450.203 543.271 450.365 543.113C450.528 542.956 450.72 542.833 450.932 542.752C451.143 542.671 451.368 542.633 451.594 542.641C451.817 542.636 452.038 542.676 452.245 542.758C452.451 542.841 452.639 542.965 452.797 543.123C452.954 543.28 453.078 543.468 453.161 543.675C453.244 543.881 453.284 544.103 453.278 544.325C453.281 544.548 453.239 544.769 453.156 544.976C453.072 545.182 452.948 545.37 452.792 545.529C452.635 545.687 452.449 545.813 452.243 545.899C452.037 545.985 451.817 546.029 451.594 546.029C451.367 546.034 451.141 545.994 450.93 545.911C450.719 545.827 450.526 545.703 450.364 545.544C450.202 545.385 450.073 545.196 449.985 544.986C449.897 544.777 449.852 544.552 449.852 544.325ZM450.084 527.405H453.027L452.523 540.027H450.587L450.084 527.405Z" fill="#0E8EC5"/>
<path d="M857.649 204.79C857.649 211.101 823.13 216.522 773.685 218.904L769.716 219.097L764.373 219.31C756.958 219.6 749.252 219.813 741.315 219.988H737.753H735.817C729.718 220.084 723.484 220.123 717.154 220.123C705.692 220.123 694.56 219.968 683.893 219.697L676.149 219.446C656.692 218.807 639.036 217.703 624.167 216.271C594.992 213.444 576.581 209.32 576.581 204.655C576.581 197.704 618.398 191.858 675.917 189.922L680.428 189.767C684.442 189.651 688.514 189.554 692.644 189.476C697.619 189.379 702.692 189.321 707.822 189.283H717.173C731.654 189.283 745.632 189.515 758.778 189.98L765.011 190.193L773.123 190.541L775.234 190.657L780.635 190.928C826.189 193.6 857.649 198.769 857.649 204.79Z" fill="#263238"/>
<path opacity="0.4" d="M857.649 204.79C857.649 211.101 823.13 216.522 773.685 218.903L769.716 219.097L764.373 219.31C756.958 219.6 749.252 219.813 741.315 219.988H737.753H735.817C729.718 220.084 723.484 220.123 717.154 220.123C705.692 220.123 694.56 219.968 683.893 219.697L676.149 219.445C656.692 218.807 639.036 217.703 624.167 216.27C594.992 213.444 576.581 209.32 576.581 204.654C576.581 202.602 580.24 200.628 586.88 198.846C599.145 201.72 611.61 203.662 624.167 204.654C639.036 206.087 656.692 207.191 676.149 207.829L683.893 208.081C694.56 208.352 705.692 208.507 717.154 208.507C723.484 208.507 729.718 208.507 735.817 208.372H737.753H741.315C749.252 208.197 756.958 207.984 764.373 207.694L769.716 207.481L773.685 207.287C807.042 205.681 833.585 202.699 847.35 198.982C853.893 200.782 857.649 202.718 857.649 204.79Z" fill="white"/>
<path d="M707.608 189.419C707.467 191.725 706.599 193.928 705.13 195.711C703.523 197.647 702.148 199.118 700.58 200.725C699.651 201.673 698.644 202.661 697.773 203.513C697.153 204.152 696.514 204.752 695.837 205.333C692.558 208.361 689.092 211.18 685.46 213.773L684.821 214.219L683.137 215.342C680.817 216.892 678.398 218.289 675.896 219.523C674.967 219.988 673.96 220.433 673.031 220.859C670.712 221.835 668.324 222.638 665.887 223.26C663.719 223.841 661.647 224.344 659.595 224.77C656.71 225.409 653.787 225.99 651.018 226.512C645.733 227.538 640.467 228.448 635.163 229.223C630.652 229.9 626.141 230.539 621.611 231.159C617.971 231.604 614.331 231.991 610.653 232.301C610.248 232.35 609.838 232.35 609.433 232.301C608.207 232.134 607.075 231.553 606.223 230.656C605.371 229.758 604.851 228.597 604.748 227.364C604.729 227.119 604.729 226.873 604.748 226.629C604.797 225.557 605.164 224.525 605.802 223.663C606.44 222.801 607.32 222.149 608.33 221.789L608.794 221.634C613.808 219.833 618.842 218.129 623.895 216.484L631.542 214.006C639.286 211.489 647.03 209.127 654.561 206.63C656.497 206.01 658.298 205.371 660.021 204.694C661.505 204.202 662.933 203.553 664.28 202.758C665.151 202.254 666.022 201.693 666.913 201.093C668.865 199.781 670.746 198.366 672.547 196.853C675.102 194.743 677.658 192.419 680.155 189.999C684.169 189.883 688.241 189.786 692.371 189.709C697.405 189.515 702.477 189.457 707.608 189.419Z" fill="#FFB573"/>
<path d="M707.842 197.24C707.706 197.646 707.551 198.034 707.397 198.421C707.242 198.808 707.067 199.195 706.874 199.582C706.704 199.962 706.51 200.331 706.293 200.686L705.654 201.789V201.886C705.215 202.57 704.751 203.216 704.26 203.822C703.737 204.5 703.195 205.158 702.615 205.758L702.073 206.358C701.23 207.259 700.338 208.112 699.401 208.914C699.091 209.204 698.762 209.475 698.433 209.727C698.32 209.841 698.197 209.945 698.065 210.037C695.163 212.353 692.052 214.394 688.772 216.135L687.591 216.735L686.43 217.316L685.984 217.51L684.571 216.271L683.371 215.186L680.66 212.786L667.108 200.841L666.082 199.931C666.082 199.931 670.225 195.304 675.762 189.902L680.273 189.747C684.287 189.631 688.359 189.534 692.489 189.457C697.465 189.36 702.537 189.302 707.668 189.263H708.79C709.068 191.96 708.744 194.684 707.842 197.24Z" fill="#0E8EC5"/>
<path opacity="0.7" d="M707.861 197.24C707.726 197.641 707.571 198.035 707.397 198.421C707.242 198.808 707.067 199.195 706.874 199.582C706.704 199.962 706.51 200.331 706.293 200.686L705.654 201.789V201.886C705.215 202.57 704.751 203.216 704.26 203.822C703.737 204.5 703.195 205.158 702.615 205.758L702.073 206.358C701.23 207.259 700.338 208.112 699.401 208.914C699.091 209.204 698.762 209.475 698.433 209.727C698.32 209.841 698.197 209.945 698.065 210.037C695.163 212.353 692.052 214.394 688.772 216.135L687.591 216.735L686.43 217.316L685.984 217.51L684.571 216.271L683.371 215.186L680.66 212.786L667.108 200.841L666.082 199.931C666.082 199.931 670.225 195.304 675.762 189.902L680.273 189.747C684.287 189.631 688.359 189.534 692.489 189.457C697.465 189.36 702.537 189.302 707.668 189.263H708.81C709.088 191.96 708.764 194.684 707.861 197.24Z" fill="white"/>
<path opacity="0.1" d="M697.929 210.172C694.201 213.152 690.125 215.667 685.79 217.665L680.466 212.96C683.262 204.655 688.301 197.284 695.025 191.664C697.445 196.156 698.219 205.545 697.929 210.172Z" fill="black"/>
<path d="M610.381 221.73L592.415 218.981L592.551 234.895C592.551 234.895 604.864 238.593 611.388 230.229L610.381 221.73Z" fill="#EBB376"/>
<path d="M580.161 223.279L583.123 235.108L592.532 234.895L592.396 218.981L580.161 223.279Z" fill="#EBB376"/>
<path d="M772.909 190.638C772.754 191.044 772.58 191.451 772.425 191.877C771.96 193.058 771.515 194.258 771.089 195.458C770.818 196.194 770.566 196.93 770.315 197.685C770.063 198.44 769.792 199.195 769.56 199.95C768.843 202.196 768.146 204.461 767.469 206.765C767.446 206.89 767.413 207.012 767.372 207.133C766.636 209.688 765.978 212.302 765.339 214.877V215.186C765.01 216.541 764.662 217.897 764.352 219.271C764.197 219.891 764.061 220.491 763.926 221.11C763.403 223.492 762.9 225.892 762.435 228.274C762.261 229.164 762.087 230.055 761.932 230.926C761.777 231.797 761.564 232.862 761.409 233.694C761.409 233.888 761.409 234.082 761.312 234.275C761.216 234.779 761.119 235.282 761.041 235.785C760.79 237.199 760.557 238.593 760.325 239.967C760.325 240.18 760.325 240.374 760.228 240.587L759.996 242.039C759.531 244.865 759.125 247.634 758.757 250.325C758.748 250.479 758.748 250.635 758.757 250.789C758.35 253.751 758.002 256.597 757.692 259.366C757.556 260.508 757.421 261.631 757.305 262.734C757.131 264.283 756.976 265.774 756.84 267.226C756.724 268.291 756.627 269.336 756.53 270.343C756.434 271.35 756.356 272.279 756.279 273.111C756.201 273.944 756.124 274.893 756.046 275.725C755.853 278.087 755.698 280.217 755.562 282.056C755.562 282.869 755.466 283.605 755.408 284.302C755.253 286.876 755.175 288.677 755.136 289.49C755.136 289.819 755.136 289.993 755.136 289.993L720.811 286.838H720.308L714.5 286.296L705.768 285.482L695.024 284.592L692.488 284.36L679.652 283.179C679.652 281.959 679.536 280.778 679.516 279.578C679.516 279.249 679.516 278.919 679.516 278.59C679.148 268.02 679.342 258.32 679.904 249.55C680.213 244.956 680.613 240.587 681.104 236.444C681.801 230.481 682.672 225.002 683.659 219.949C683.872 218.807 684.105 217.684 684.337 216.6C684.492 215.845 684.647 215.128 684.821 214.412C686.12 208.601 687.723 202.863 689.622 197.22C690.552 194.51 691.558 192.051 692.391 189.825C697.366 189.728 702.439 189.67 707.569 189.631H716.92C731.401 189.631 745.379 189.863 758.524 190.328L764.758 190.541L772.909 190.638Z" fill="#0E8EC5"/>
<path opacity="0.7" d="M772.909 190.638C772.754 191.044 772.58 191.451 772.425 191.877C771.96 193.058 771.515 194.258 771.089 195.458C770.818 196.194 770.566 196.93 770.315 197.685C770.063 198.44 769.792 199.195 769.56 199.95V200.086C768.843 202.293 768.185 204.5 767.527 206.765C767.504 206.89 767.471 207.013 767.43 207.133C766.501 210.424 765.63 213.773 764.816 217.142C764.642 217.858 764.487 218.594 764.332 219.31C764.178 220.026 764.042 220.53 763.907 221.149C763.384 223.53 762.88 225.931 762.416 228.312C762.222 229.203 762.048 230.094 761.893 230.984C761.719 231.894 761.545 232.823 761.39 233.733C761.39 233.927 761.39 234.14 761.274 234.333C761.177 234.837 761.08 235.34 761.003 235.843C760.751 237.257 760.519 238.651 760.286 240.025C760.286 240.238 760.286 240.432 760.189 240.645L759.957 242.097C759.512 244.923 759.086 247.692 758.718 250.383C758.709 250.538 758.709 250.693 758.718 250.847C758.312 253.81 757.963 256.655 757.653 259.424C757.518 260.566 757.382 261.689 757.266 262.793C757.092 264.341 756.937 265.832 756.801 267.284C756.685 268.349 756.589 269.394 756.492 270.401C756.395 271.408 756.317 272.337 756.24 273.17C756.163 274.002 756.085 274.951 756.008 275.783C755.814 278.145 755.659 280.275 755.524 282.114C755.524 282.927 755.427 283.663 755.369 284.36C755.214 286.934 755.136 288.735 755.098 289.548C755.098 289.877 755.098 290.051 755.098 290.051L720.772 286.896H720.269L714.461 286.354L705.73 285.541L695.024 284.592L692.488 284.36L679.652 283.179C679.652 281.959 679.536 280.778 679.516 279.578C679.516 279.249 679.516 278.919 679.516 278.59C679.148 268.02 679.342 258.32 679.904 249.55C680.213 244.956 680.613 240.587 681.104 236.444C681.801 230.481 682.672 225.002 683.659 219.949C683.872 218.807 684.105 217.684 684.337 216.6C684.492 215.845 684.647 215.128 684.821 214.412C686.12 208.601 687.723 202.863 689.622 197.22C690.552 194.51 691.558 192.051 692.391 189.825C697.366 189.728 702.439 189.67 707.569 189.631H716.92C731.401 189.631 745.379 189.863 758.524 190.328L764.758 190.541L772.909 190.638Z" fill="white"/>
<path d="M587.574 447.603C587.574 447.603 611.774 437.536 612.607 427.566C612.616 427.327 612.674 427.093 612.778 426.878C612.883 426.663 613.031 426.472 613.213 426.317C613.395 426.162 613.607 426.047 613.836 425.979C614.065 425.91 614.306 425.89 614.543 425.92L633.012 427.043C633.448 427.079 633.866 427.232 634.223 427.483C634.58 427.735 634.864 428.078 635.045 428.476L642.441 445.57L637.31 446.267L635.161 443.925L633.225 446.829C605.424 450.701 593.382 451.959 587.652 450.991C586.606 448.649 587.574 447.603 587.574 447.603Z" fill="black"/>
<path d="M701.006 347.067C699.941 346.835 699.36 346.66 699.36 346.66L612.24 335.78L638.144 428.031L611.775 430.547C611.775 430.547 551.605 314.484 576.192 297.738C600.779 280.991 677.019 299.48 677.019 299.48L680.019 276.5L755.814 282.153C767.991 357.909 711.46 349.255 701.006 347.067Z" fill="#263238"/>
<path d="M675.895 613.577C675.895 613.577 701.992 611.079 705.69 601.709C705.767 601.49 705.888 601.289 706.045 601.118C706.202 600.946 706.392 600.809 706.603 600.713C706.815 600.617 707.044 600.565 707.276 600.56C707.508 600.555 707.739 600.597 707.955 600.683L725.379 607.149C725.782 607.308 726.135 607.571 726.404 607.911C726.672 608.251 726.846 608.656 726.908 609.085L728.999 627.593L723.888 626.761L722.494 623.896L719.861 626.122C692.176 621.65 680.251 619.423 675.062 616.81C674.578 614.254 675.895 613.577 675.895 613.577Z" fill="black"/>
<path d="M756.571 309.605C756.455 310.07 753.299 324.59 749.176 345.402C748.943 346.583 748.711 347.822 748.459 349.041C746.523 358.934 744.394 370.066 742.303 381.663C739.747 395.776 737.211 410.703 735.082 424.778C732.194 442.409 730.313 460.191 729.448 478.037C728.441 522.894 726.563 611.408 726.563 611.408L702.421 607.536C702.421 607.536 689.082 513.137 689.237 467.428C689.353 438.388 696.555 378.546 701.473 341.336C703.951 322.247 705.848 309.082 705.848 309.082L733.204 309.334L756.571 309.605Z" fill="#263238"/>
<path d="M754.672 289.529L756.279 289.664L756.202 284.418L754.788 284.321L754.672 289.529Z" fill="#263238"/>
<path d="M695.084 284.902L727.415 287.418L727.57 282.211L695.355 279.733L695.084 284.902Z" fill="#263238"/>
<path d="M692.854 279.539L679.186 278.474L678.702 283.624L692.544 284.708L692.854 279.539Z" fill="#263238"/>
<path d="M752.29 284.127L730.045 282.404L729.949 287.612L752.116 289.335L752.29 284.127Z" fill="#263238"/>
<g opacity="0.2">
<path d="M754.669 289.529L756.275 289.665L756.198 284.418L754.785 284.322L754.669 289.529Z" fill="white"/>
<path d="M695.076 284.902L727.407 287.419L727.562 282.211L695.347 279.733L695.076 284.902Z" fill="white"/>
<path d="M692.85 279.54L679.182 278.475L678.698 283.624L692.541 284.709L692.85 279.54Z" fill="white"/>
<path d="M752.287 284.128L730.042 282.405L729.945 287.613L752.112 289.336L752.287 284.128Z" fill="white"/>
</g>
<path d="M714.074 287.07H713.919L705.866 286.315C705.444 286.28 705.053 286.083 704.775 285.765C704.497 285.447 704.353 285.033 704.375 284.611L704.491 281.456C704.498 281.233 704.552 281.015 704.648 280.815C704.745 280.615 704.883 280.437 705.052 280.294C705.215 280.143 705.408 280.028 705.618 279.958C705.829 279.888 706.052 279.864 706.272 279.887L714.287 280.507C714.708 280.537 715.101 280.729 715.383 281.043C715.665 281.358 715.813 281.769 715.797 282.191V285.482C715.794 285.706 715.744 285.927 715.651 286.13C715.558 286.334 715.423 286.515 715.255 286.663C714.928 286.945 714.505 287.091 714.074 287.07ZM706.137 281.262C706.087 281.244 706.032 281.244 705.982 281.262C705.969 281.289 705.963 281.319 705.963 281.349C705.963 281.379 705.969 281.409 705.982 281.436L705.846 284.592C705.844 284.624 705.848 284.656 705.858 284.687C705.869 284.717 705.885 284.745 705.907 284.769C705.929 284.792 705.955 284.811 705.985 284.824C706.014 284.837 706.046 284.844 706.079 284.844L714.132 285.599C714.163 285.611 714.196 285.618 714.229 285.618C714.262 285.618 714.295 285.611 714.326 285.599C714.349 285.543 714.349 285.48 714.326 285.424V282.133C714.326 282.07 714.302 282.008 714.259 281.962C714.216 281.915 714.157 281.886 714.094 281.881L706.079 281.262H706.137Z" fill="white"/>
<path d="M713.959 284.398L711.5 284.166C711.314 284.147 711.142 284.054 711.023 283.91C710.903 283.765 710.845 283.579 710.862 283.392C710.881 283.21 710.971 283.043 711.112 282.928C711.254 282.812 711.435 282.756 711.617 282.772L714.075 283.004C714.26 283.004 714.437 283.078 714.568 283.209C714.699 283.339 714.772 283.517 714.772 283.701C714.772 283.886 714.699 284.064 714.568 284.194C714.437 284.325 714.26 284.398 714.075 284.398H713.959Z" fill="white"/>
<path opacity="0.1" d="M767.374 207.152C766.444 210.443 765.573 213.793 764.76 217.161C764.45 218.497 764.14 219.833 763.85 221.169C762.398 227.732 761.159 234.314 760.133 240.664L759.901 242.116C746.6 246.395 732.797 243.452 733.242 230.636C733.881 213.464 748.517 205.468 748.517 205.468C755.041 201.886 761.875 203.28 767.374 207.152Z" fill="black"/>
<path d="M637.254 698.916H655.162L596.927 238.728H579.019L637.254 698.916Z" fill="#263238"/>
<path opacity="0.4" d="M637.254 698.916H655.162L596.927 238.728H579.019L637.254 698.916Z" fill="white"/>
<path d="M599.811 306.933H656.749C657.458 306.895 658.142 306.657 658.721 306.245C659.3 305.834 659.751 305.267 660.021 304.61L663.641 296.866H592.919L596.539 304.61C596.809 305.267 597.26 305.834 597.839 306.245C598.418 306.657 599.102 306.895 599.811 306.933Z" fill="#263238"/>
<path opacity="0.4" d="M599.811 306.933H656.749C657.458 306.895 658.142 306.657 658.721 306.245C659.3 305.834 659.751 305.267 660.021 304.61L663.641 296.866H592.919L596.539 304.61C596.809 305.267 597.26 305.834 597.839 306.245C598.418 306.657 599.102 306.895 599.811 306.933Z" fill="white"/>
<path d="M593.869 300.583H662.674C664.716 300.583 666.372 298.928 666.372 296.886V296.053C666.372 294.011 664.716 292.355 662.674 292.355H593.869C591.826 292.355 590.171 294.011 590.171 296.053V296.886C590.171 298.928 591.826 300.583 593.869 300.583Z" fill="#263238"/>
<path opacity="0.1" d="M593.869 300.583H662.674C664.716 300.583 666.372 298.928 666.372 296.886V296.053C666.372 294.011 664.716 292.355 662.674 292.355H593.869C591.826 292.355 590.171 294.011 590.171 296.053V296.886C590.171 298.928 591.826 300.583 593.869 300.583Z" fill="white"/>
<path d="M610.206 372.719H667.125C667.837 372.684 668.525 372.444 669.105 372.029C669.685 371.613 670.134 371.04 670.397 370.376L674.017 362.729H603.314L606.915 370.376C607.181 371.041 607.633 371.616 608.217 372.031C608.8 372.446 609.491 372.685 610.206 372.719Z" fill="#263238"/>
<path opacity="0.4" d="M610.206 372.719H667.125C667.837 372.684 668.525 372.444 669.105 372.029C669.685 371.613 670.134 371.04 670.397 370.376L674.017 362.729H603.314L606.915 370.376C607.181 371.041 607.633 371.616 608.217 372.031C608.8 372.446 609.491 372.685 610.206 372.719Z" fill="white"/>
<path d="M604.264 366.369H673.069C675.111 366.369 676.767 364.713 676.767 362.671V361.839C676.767 359.796 675.111 358.141 673.069 358.141H604.264C602.222 358.141 600.566 359.796 600.566 361.839V362.671C600.566 364.713 602.222 366.369 604.264 366.369Z" fill="#263238"/>
<path opacity="0.1" d="M604.264 366.369H673.069C675.111 366.369 676.767 364.713 676.767 362.671V361.839C676.767 359.796 675.111 358.141 673.069 358.141H604.264C602.222 358.141 600.566 359.796 600.566 361.839V362.671C600.566 364.713 602.222 366.369 604.264 366.369Z" fill="white"/>
<path d="M620.586 459.781H677.601C678.315 459.751 679.005 459.515 679.589 459.103C680.173 458.691 680.625 458.12 680.893 457.457L684.494 449.713H613.713L617.334 457.457C617.596 458.116 618.042 458.684 618.619 459.096C619.196 459.508 619.878 459.746 620.586 459.781Z" fill="#263238"/>
<path opacity="0.4" d="M620.586 459.781H677.601C678.315 459.751 679.005 459.515 679.589 459.103C680.173 458.691 680.625 458.12 680.893 457.457L684.494 449.713H613.713L617.334 457.457C617.596 458.116 618.042 458.684 618.619 459.096C619.196 459.508 619.878 459.746 620.586 459.781Z" fill="white"/>
<path d="M614.643 453.45H683.449C685.491 453.45 687.146 451.795 687.146 449.752V448.92C687.146 446.878 685.491 445.222 683.449 445.222H614.643C612.601 445.222 610.945 446.878 610.945 448.92V449.752C610.945 451.795 612.601 453.45 614.643 453.45Z" fill="#263238"/>
<path opacity="0.1" d="M614.643 453.45H683.449C685.491 453.45 687.146 451.795 687.146 449.752V448.92C687.146 446.878 685.491 445.222 683.449 445.222H614.643C612.601 445.222 610.945 446.878 610.945 448.92V449.752C610.945 451.795 612.601 453.45 614.643 453.45Z" fill="white"/>
<path d="M630.961 546.862H687.899C688.609 546.828 689.295 546.592 689.875 546.18C690.455 545.768 690.905 545.198 691.171 544.539L694.791 536.795H624.069L627.689 544.539C627.955 545.198 628.405 545.768 628.985 546.18C629.565 546.592 630.251 546.828 630.961 546.862Z" fill="#263238"/>
<path opacity="0.4" d="M630.961 546.862H687.899C688.609 546.828 689.295 546.592 689.875 546.18C690.455 545.768 690.905 545.198 691.171 544.539L694.791 536.795H624.069L627.689 544.539C627.955 545.198 628.405 545.768 628.985 546.18C629.565 546.592 630.251 546.828 630.961 546.862Z" fill="white"/>
<path d="M625.019 540.531H693.824C695.866 540.531 697.522 538.876 697.522 536.834V536.001C697.522 533.959 695.866 532.303 693.824 532.303H625.019C622.976 532.303 621.321 533.959 621.321 536.001V536.834C621.321 538.876 622.976 540.531 625.019 540.531Z" fill="#263238"/>
<path opacity="0.1" d="M625.019 540.531H693.824C695.866 540.531 697.522 538.876 697.522 536.834V536.001C697.522 533.959 695.866 532.303 693.824 532.303H625.019C622.976 532.303 621.321 533.959 621.321 536.001V536.834C621.321 538.876 622.976 540.531 625.019 540.531Z" fill="white"/>
<path d="M641.36 633.943H698.278C698.99 633.912 699.677 633.676 700.257 633.264C700.837 632.852 701.286 632.281 701.55 631.62L705.171 623.876H634.448L638.069 631.62C638.336 632.283 638.789 632.854 639.372 633.266C639.956 633.678 640.646 633.913 641.36 633.943Z" fill="#263238"/>
<path opacity="0.4" d="M641.36 633.943H698.278C698.99 633.912 699.677 633.676 700.257 633.264C700.837 632.852 701.286 632.281 701.55 631.62L705.171 623.876H634.448L638.069 631.62C638.336 632.283 638.789 632.854 639.372 633.266C639.956 633.678 640.646 633.913 641.36 633.943Z" fill="white"/>
<path d="M635.394 627.613H704.2C706.242 627.613 707.897 625.957 707.897 623.915V623.082C707.897 621.04 706.242 619.385 704.2 619.385H635.394C633.352 619.385 631.696 621.04 631.696 623.082V623.915C631.696 625.957 633.352 627.613 635.394 627.613Z" fill="#263238"/>
<path opacity="0.1" d="M635.394 627.613H704.2C706.242 627.613 707.897 625.957 707.897 623.915V623.082C707.897 621.04 706.242 619.385 704.2 619.385H635.394C633.352 619.385 631.696 621.04 631.696 623.082V623.915C631.696 625.957 633.352 627.613 635.394 627.613Z" fill="white"/>
<path d="M706.389 698.916H724.297L666.062 238.728H648.154L706.389 698.916Z" fill="#263238"/>
<path opacity="0.7" d="M706.389 698.916H724.297L666.062 238.728H648.154L706.389 698.916Z" fill="white"/>
<path d="M518.383 698.916H500.475L558.691 238.728H576.599L518.383 698.916Z" fill="#263238"/>
<path opacity="0.4" d="M518.383 698.916H500.475L558.691 238.728H576.599L518.383 698.916Z" fill="white"/>
<path d="M624.941 306.933H568.023C567.31 306.899 566.622 306.662 566.039 306.25C565.456 305.839 565.003 305.27 564.731 304.61L561.13 296.866H631.833L628.213 304.61C627.947 305.27 627.497 305.839 626.917 306.251C626.337 306.663 625.651 306.9 624.941 306.933Z" fill="#263238"/>
<path opacity="0.5" d="M624.941 306.933H568.023C567.31 306.899 566.622 306.662 566.039 306.25C565.456 305.839 565.003 305.27 564.731 304.61L561.13 296.866H631.833L628.213 304.61C627.947 305.27 627.497 305.839 626.917 306.251C626.337 306.663 625.651 306.9 624.941 306.933Z" fill="white"/>
<path d="M630.886 292.375H562.081C560.038 292.375 558.383 294.03 558.383 296.072V296.905C558.383 298.947 560.038 300.603 562.081 300.603H630.886C632.928 300.603 634.584 298.947 634.584 296.905V296.072C634.584 294.03 632.928 292.375 630.886 292.375Z" fill="#263238"/>
<path opacity="0.2" d="M630.886 292.375H562.081C560.038 292.375 558.383 294.03 558.383 296.072V296.905C558.383 298.947 560.038 300.603 562.081 300.603H630.886C632.928 300.603 634.584 298.947 634.584 296.905V296.072C634.584 294.03 632.928 292.375 630.886 292.375Z" fill="white"/>
<path d="M614.564 372.719H557.568C556.856 372.681 556.169 372.441 555.59 372.026C555.01 371.611 554.561 371.038 554.296 370.376L550.676 362.729H621.456L617.835 370.376C617.57 371.038 617.122 371.611 616.542 372.026C615.962 372.441 615.276 372.681 614.564 372.719Z" fill="#263238"/>
<path opacity="0.5" d="M614.564 372.719H557.568C556.856 372.681 556.169 372.441 555.59 372.026C555.01 371.611 554.561 371.038 554.296 370.376L550.676 362.729H621.456L617.835 370.376C617.57 371.038 617.122 371.611 616.542 372.026C615.962 372.441 615.276 372.681 614.564 372.719Z" fill="white"/>
<path d="M620.507 358.141H551.701C549.659 358.141 548.003 359.796 548.003 361.838V362.671C548.003 364.713 549.659 366.369 551.701 366.369H620.507C622.549 366.369 624.204 364.713 624.204 362.671V361.838C624.204 359.796 622.549 358.141 620.507 358.141Z" fill="#263238"/>
<path opacity="0.2" d="M620.507 358.141H551.701C549.659 358.141 548.003 359.796 548.003 361.838V362.671C548.003 364.713 549.659 366.369 551.701 366.369H620.507C622.549 366.369 624.204 364.713 624.204 362.671V361.838C624.204 359.796 622.549 358.141 620.507 358.141Z" fill="white"/>
<path d="M604.166 459.781H547.248C546.537 459.749 545.85 459.513 545.269 459.101C544.689 458.689 544.24 458.118 543.976 457.457L540.356 449.713H611.058L607.457 457.457C607.19 458.12 606.738 458.691 606.154 459.103C605.57 459.515 604.88 459.751 604.166 459.781Z" fill="#263238"/>
<path opacity="0.5" d="M604.166 459.781H547.248C546.537 459.749 545.85 459.513 545.269 459.101C544.689 458.689 544.24 458.118 543.976 457.457L540.356 449.713H611.058L607.457 457.457C607.19 458.12 606.738 458.691 606.154 459.103C605.57 459.515 604.88 459.751 604.166 459.781Z" fill="white"/>
<path d="M610.111 445.222H541.306C539.264 445.222 537.608 446.877 537.608 448.92V449.752C537.608 451.794 539.264 453.45 541.306 453.45H610.111C612.154 453.45 613.809 451.794 613.809 449.752V448.92C613.809 446.877 612.154 445.222 610.111 445.222Z" fill="#263238"/>
<path opacity="0.2" d="M610.111 445.222H541.306C539.264 445.222 537.608 446.877 537.608 448.92V449.752C537.608 451.794 539.264 453.45 541.306 453.45H610.111C612.154 453.45 613.809 451.794 613.809 449.752V448.92C613.809 446.877 612.154 445.222 610.111 445.222Z" fill="white"/>
<path d="M593.791 546.862H536.872C536.159 546.83 535.47 546.594 534.887 546.182C534.304 545.77 533.85 545.2 533.581 544.539L529.98 536.795H600.683L597.063 544.539C596.799 545.2 596.35 545.771 595.769 546.183C595.189 546.595 594.502 546.831 593.791 546.862Z" fill="#263238"/>
<path opacity="0.5" d="M593.791 546.862H536.872C536.159 546.83 535.47 546.594 534.887 546.182C534.304 545.77 533.85 545.2 533.581 544.539L529.98 536.795H600.683L597.063 544.539C596.799 545.2 596.35 545.771 595.769 546.183C595.189 546.595 594.502 546.831 593.791 546.862Z" fill="white"/>
<path d="M599.736 532.303H530.93C528.888 532.303 527.233 533.959 527.233 536.001V536.833C527.233 538.876 528.888 540.531 530.93 540.531H599.736C601.778 540.531 603.434 538.876 603.434 536.833V536.001C603.434 533.959 601.778 532.303 599.736 532.303Z" fill="#263238"/>
<path opacity="0.2" d="M599.736 532.303H530.93C528.888 532.303 527.233 533.959 527.233 536.001V536.833C527.233 538.876 528.888 540.531 530.93 540.531H599.736C601.778 540.531 603.434 538.876 603.434 536.833V536.001C603.434 533.959 601.778 532.303 599.736 532.303Z" fill="white"/>
<path d="M583.415 633.943H526.477C525.767 633.91 525.081 633.673 524.501 633.261C523.921 632.849 523.471 632.28 523.205 631.62L519.585 623.876H590.307L586.687 631.62C586.423 632.281 585.974 632.852 585.393 633.264C584.813 633.676 584.126 633.912 583.415 633.943Z" fill="#263238"/>
<path opacity="0.5" d="M583.415 633.943H526.477C525.767 633.91 525.081 633.673 524.501 633.261C523.921 632.849 523.471 632.28 523.205 631.62L519.585 623.876H590.307L586.687 631.62C586.423 632.281 585.974 632.852 585.393 633.264C584.813 633.676 584.126 633.912 583.415 633.943Z" fill="white"/>
<path d="M589.357 619.385H520.551C518.509 619.385 516.853 621.04 516.853 623.082V623.915C516.853 625.957 518.509 627.613 520.551 627.613H589.357C591.399 627.613 593.054 625.957 593.054 623.915V623.082C593.054 621.04 591.399 619.385 589.357 619.385Z" fill="#263238"/>
<path opacity="0.2" d="M589.357 619.385H520.551C518.509 619.385 516.853 621.04 516.853 623.082V623.915C516.853 625.957 518.509 627.613 520.551 627.613H589.357C591.399 627.613 593.054 625.957 593.054 623.915V623.082C593.054 621.04 591.399 619.385 589.357 619.385Z" fill="white"/>
<path d="M587.499 698.916H569.591L627.826 238.728H645.734L587.499 698.916Z" fill="#263238"/>
<path opacity="0.7" d="M587.499 698.916H569.591L627.826 238.728H645.734L587.499 698.916Z" fill="white"/>
<path d="M668.927 241.071H555.439C554.73 241.033 554.046 240.794 553.467 240.383C552.888 239.972 552.437 239.405 552.167 238.748L548.547 231.004H675.819L672.218 238.748C671.936 239.4 671.479 239.961 670.899 240.371C670.318 240.781 669.636 241.023 668.927 241.071Z" fill="#263238"/>
<path opacity="0.5" d="M668.927 241.071H555.439C554.73 241.033 554.046 240.794 553.467 240.383C552.888 239.972 552.437 239.405 552.167 238.748L548.547 231.004H675.819L672.218 238.748C671.936 239.4 671.479 239.961 670.899 240.371C670.318 240.781 669.636 241.023 668.927 241.071Z" fill="white"/>
<path d="M674.869 226.512H549.513C547.471 226.512 545.815 228.168 545.815 230.21V231.042C545.815 233.085 547.471 234.74 549.513 234.74H674.869C676.911 234.74 678.567 233.085 678.567 231.042V230.21C678.567 228.168 676.911 226.512 674.869 226.512Z" fill="#263238"/>
<path opacity="0.2" d="M674.869 226.512H549.513C547.471 226.512 545.815 228.168 545.815 230.21V231.042C545.815 233.085 547.471 234.74 549.513 234.74H674.869C676.911 234.74 678.567 233.085 678.567 231.042V230.21C678.567 228.168 676.911 226.512 674.869 226.512Z" fill="white"/>
<path d="M676.863 239.154L661.975 228.661L655.005 242.968C655.005 242.968 664.375 251.757 673.939 247.189L676.863 239.154Z" fill="#EBB376"/>
<path d="M649.122 227.054L646.489 238.961L655.007 242.968L661.977 228.661L649.122 227.054Z" fill="#EBB376"/>
<path d="M778.642 206.048C775.718 210.559 772.737 214.877 769.62 219.097C767.277 222.214 764.877 225.292 762.36 228.312C761.605 229.242 760.83 230.152 760.056 231.061C758.527 232.823 756.978 234.585 755.352 236.327C753.416 238.496 751.228 240.625 748.963 242.716L747.666 243.878C745.975 245.442 744.198 246.909 742.342 248.273C739.58 250.342 736.552 252.028 733.339 253.287C732.389 253.657 731.411 253.954 730.416 254.177C729.467 254.41 728.654 254.526 727.783 254.681C726.248 254.89 724.704 255.019 723.156 255.068C720.232 255.165 717.503 255.068 714.812 254.932C709.468 254.642 704.319 253.926 699.227 253.171C692.722 252.145 686.333 250.867 680.002 249.299C677.66 248.757 675.337 248.156 673.013 247.537L669.316 246.511C668.137 246.166 667.111 245.429 666.407 244.422C665.703 243.416 665.363 242.199 665.444 240.974C665.47 240.581 665.535 240.192 665.637 239.812C665.915 238.806 666.48 237.904 667.265 237.216C668.049 236.527 669.018 236.084 670.051 235.94C670.379 235.902 670.711 235.902 671.039 235.94H671.136H672.491C675.414 236.037 678.299 236.153 681.261 236.231C687.785 236.463 694.29 236.637 700.621 236.734C705.48 236.734 710.301 236.734 714.967 236.579C717.29 236.482 719.555 236.289 721.607 235.998C723.144 235.89 724.65 235.517 726.06 234.895C727.406 234.122 728.665 233.207 729.816 232.165C730.977 231.158 732.197 230.035 733.397 228.816C733.746 228.487 734.075 228.138 734.404 227.79C735.082 227.093 735.74 226.357 736.34 225.621C738.005 223.801 739.612 221.904 741.219 219.949C741.935 219.058 742.671 218.168 743.387 217.258C746.872 212.863 750.337 208.236 753.687 203.57C755.971 200.415 758.217 197.22 760.385 194.084L760.501 193.89C761.581 192.313 763.065 191.055 764.799 190.251L772.911 190.599L775.021 190.715C775.243 190.837 775.456 190.973 775.66 191.122C778.002 192.732 779.624 195.193 780.18 197.98C780.737 200.767 780.185 203.662 778.642 206.048Z" fill="#FFB573"/>
<path d="M773.589 218.904C769.931 224.185 765.831 229.146 761.334 233.733C760.134 234.972 758.856 236.25 757.462 237.605L755.294 236.386L736.301 225.699L734.54 224.712C734.54 224.712 735.779 222.776 737.618 220.085C739.922 216.6 743.194 211.624 746.233 206.939C748.595 203.261 750.802 199.757 752.254 197.259C753.868 194.492 755.997 192.061 758.527 190.096L764.761 190.309L772.872 190.657L774.983 190.774L780.384 191.045C782.882 196.814 782.339 205.971 773.589 218.904Z" fill="#0E8EC5"/>
<path opacity="0.7" d="M773.589 218.904C769.931 224.185 765.831 229.146 761.334 233.733C760.134 234.972 758.856 236.25 757.462 237.605L755.294 236.386L736.301 225.699L734.54 224.712C734.54 224.712 735.779 222.776 737.618 220.085C739.922 216.6 743.194 211.624 746.233 206.939C748.595 203.261 750.802 199.757 752.254 197.259C753.868 194.492 755.997 192.061 758.527 190.096L764.761 190.309L772.872 190.657L774.983 190.774L780.384 191.045C782.882 196.814 782.339 205.971 773.589 218.904Z" fill="white"/>
<path d="M490.465 698.586C490.474 698.696 490.474 698.806 490.465 698.915C490.474 698.967 490.474 699.019 490.465 699.07C490.441 699.17 490.409 699.267 490.368 699.361C490.312 699.491 490.24 699.615 490.155 699.728C490.071 699.866 489.974 699.996 489.865 700.116C488.95 701.005 487.872 701.709 486.69 702.187L485.741 702.594C484.812 702.981 483.805 703.349 482.585 703.717C481.85 703.949 481.075 704.162 480.243 704.394C466.691 708.053 440.652 710.996 407.914 712.622L404.042 712.816L397.692 713.087L391.167 713.319L386.657 713.474C383.075 713.571 379.455 713.668 375.776 713.726H374.44H371.943H369.523C366.135 713.726 362.708 713.726 359.262 713.842H349.911C338.605 713.842 327.589 713.706 316.999 713.416L312.314 713.261C310.959 713.261 309.604 713.261 308.268 713.145L302.034 712.932L293.922 712.583L291.812 712.467L286.41 712.196C277.524 711.693 269.18 711.112 261.514 710.415C243.16 708.789 228.602 706.679 219.599 704.239L218.825 704.026L217.973 703.775C216.521 703.349 215.262 702.903 214.101 702.478C213.694 702.303 213.307 702.148 212.959 701.974C212.38 701.704 211.818 701.4 211.274 701.064C211.089 700.957 210.915 700.834 210.752 700.696L210.326 700.367L209.919 699.961C209.811 699.848 209.713 699.725 209.629 699.593C209.486 699.387 209.381 699.158 209.319 698.915V698.702C209.309 698.612 209.309 698.521 209.319 698.431C209.319 692.12 243.838 686.699 293.283 684.318L297.252 684.124L302.595 683.911L310.804 683.621L315.238 683.485L325.653 683.234H326.215H329.215H331.248C334.307 683.234 337.385 683.234 340.502 683.137H341.432C344.239 683.137 347.065 683.137 349.911 683.137C361.372 683.137 372.504 683.292 383.172 683.563L390.916 683.814L394.207 683.931H394.536L398.137 684.066L400.499 684.163L406.617 684.434L412.425 684.724C423.499 685.325 433.721 686.08 442.936 686.97C472.054 689.855 490.465 693.978 490.465 698.586Z" fill="#263238"/>
<path opacity="0.4" d="M209.28 698.586C209.28 692.275 243.799 686.854 293.244 684.473L297.213 684.279L302.557 684.066C309.971 683.776 317.677 683.563 325.614 683.389H329.177H331.209C337.308 683.292 343.542 683.253 349.872 683.253C361.333 683.253 372.465 683.408 383.133 683.679L390.877 683.931C410.334 684.569 427.99 685.673 442.858 687.106C472.034 689.932 490.445 694.056 490.445 698.722C490.445 700.774 486.786 702.749 480.146 704.53C467.881 701.656 455.416 699.715 442.858 698.722C427.99 697.289 410.334 696.185 390.877 695.547L383.133 695.295C372.465 695.024 361.333 694.869 349.872 694.869C343.542 694.869 337.308 694.869 331.209 695.005H329.118H325.556C317.619 695.179 309.913 695.392 302.498 695.682L297.155 695.895L293.186 696.089C259.829 697.696 233.286 700.677 219.618 704.394C212.958 702.594 209.28 700.658 209.28 698.586Z" fill="white"/>
<path d="M338.041 691.442C336.977 692.72 335.989 693.824 335.002 694.888C334.498 695.411 334.014 695.934 333.492 696.456C332.562 697.405 331.653 698.393 330.704 699.244C330.084 699.864 329.446 700.464 328.768 701.064C325.488 704.098 322.015 706.918 318.372 709.505L317.752 709.931C317.21 710.318 316.649 710.686 316.068 711.073C314.848 711.886 313.59 712.68 312.196 713.416C310.841 713.416 309.485 713.416 308.15 713.3L301.916 713.087L293.804 712.738L291.694 712.622L286.292 712.351C277.406 711.848 269.062 711.267 261.395 710.57L264.415 709.602C272.159 707.085 279.903 704.723 287.454 702.245C289.39 701.606 291.19 700.987 292.913 700.309C294.398 699.817 295.826 699.168 297.172 698.373C298.024 697.87 298.915 697.308 299.805 696.708C300.27 696.398 300.754 696.069 301.238 695.701C302.632 694.714 304.026 693.611 305.4 692.468C308.188 690.184 310.918 687.667 313.628 685.053L315.08 683.621C315.952 682.788 316.803 681.956 317.636 681.085L321.508 677.213L321.74 676.961C322.908 675.747 324.34 674.818 325.925 674.248C327.509 673.677 329.205 673.479 330.878 673.67C333.32 673.949 335.594 675.049 337.328 676.791C339.062 678.532 340.153 680.81 340.423 683.253C340.593 684.708 340.47 686.182 340.061 687.589C339.652 688.995 338.966 690.306 338.041 691.442Z" fill="#FFB573"/>
<path d="M333.705 669.217C322.902 668.966 298.857 695.818 298.857 695.818L318.701 713.397C318.701 713.397 336.415 705.653 340.752 692.972C345.089 680.291 333.705 669.217 333.705 669.217Z" fill="#0E8EC5"/>
<path opacity="0.7" d="M340.736 692.972C338.677 698.114 335.241 702.589 330.804 705.904C327.076 708.884 323 711.4 318.665 713.397L313.341 708.673L298.821 695.818C298.821 695.818 322.847 668.966 333.669 669.217C333.708 669.217 345.131 680.214 340.736 692.972Z" fill="white"/>
<path opacity="0.1" d="M330.862 705.904C327.134 708.884 323.058 711.4 318.723 713.397L313.399 708.673C316.227 700.396 321.285 693.06 328.016 687.474C330.378 691.888 331.152 701.277 330.862 705.904Z" fill="black"/>
<path d="M408.32 680.543C408.204 680.794 408.088 681.027 407.991 681.278C407.681 681.956 407.391 682.634 407.1 683.331C406.926 683.69 406.771 684.058 406.636 684.434C406.595 684.508 406.563 684.586 406.539 684.666C406.397 684.955 406.274 685.252 406.171 685.557C405.842 686.331 405.532 687.125 405.222 687.938C404.913 688.751 404.467 689.971 404.1 690.997C404.1 690.997 404.1 691.094 404.1 691.133C403.829 691.868 403.577 692.604 403.325 693.359C403.074 694.114 402.803 694.869 402.57 695.624C402.562 695.701 402.562 695.779 402.57 695.856C402.338 696.553 402.106 697.25 401.893 697.947C401.447 699.419 401.002 700.89 400.576 702.4L400.46 702.807C399.531 706.098 398.659 709.447 397.846 712.816C397.837 712.887 397.837 712.958 397.846 713.029L391.322 713.261L386.811 713.416C383.23 713.513 379.609 713.61 375.931 713.668H374.595H372.098H369.678C366.29 713.668 362.863 713.668 359.417 713.784H350.066C338.76 713.784 327.744 713.648 317.154 713.358L317.444 711.925C317.444 711.616 317.58 711.325 317.657 711.035C317.735 710.744 317.773 710.454 317.851 710.164C317.89 710.023 317.922 709.881 317.948 709.738C318.812 705.866 319.716 702.336 320.658 699.148C321.007 698.025 321.316 696.96 321.645 695.895C321.762 695.566 321.858 695.237 321.974 694.908C322.226 694.114 322.478 693.359 322.73 692.623L323.136 691.442C323.349 690.842 323.562 690.242 323.775 689.681C323.988 689.119 324.259 688.345 324.491 687.745L325.13 686.118L326.292 683.311C327.182 681.182 328.054 679.323 328.867 677.677C329.022 677.406 329.157 677.116 329.293 676.845L330.106 675.277L331.054 673.554C331.113 673.468 331.165 673.377 331.209 673.283C331.538 672.683 331.867 672.141 332.158 671.676L332.913 670.476L333.823 669.159C339.568 668.61 345.342 668.422 351.111 668.598C352.331 668.598 353.57 668.694 354.828 668.772C356.087 668.849 357.229 668.965 358.546 669.12C361.314 669.43 364.354 669.856 367.587 670.379L373.666 671.424C375.698 671.792 377.712 672.16 379.648 672.547L380.674 672.76C382.203 673.05 383.694 673.36 385.069 673.651C386.017 673.844 387.005 674.057 387.895 674.289C388.379 674.406 388.844 674.502 389.309 674.638L390.722 674.986C392.484 675.432 394.226 675.916 395.872 676.38L397.478 676.864L400.479 677.794L403.112 678.645C406.113 679.633 408.107 680.369 408.398 680.465L408.32 680.543Z" fill="#0E8EC5"/>
<path opacity="0.7" d="M408.338 680.543C408.222 680.794 408.106 681.027 408.009 681.278C407.699 681.956 407.39 682.634 407.119 683.33C406.938 683.692 406.783 684.06 406.654 684.434C406.646 684.511 406.646 684.589 406.654 684.666C406.512 684.955 406.389 685.252 406.286 685.557C405.957 686.331 405.647 687.125 405.337 687.938C405.028 688.751 404.563 689.971 404.215 690.997C404.215 690.997 404.215 691.094 404.215 691.133C403.944 691.868 403.692 692.604 403.44 693.359C403.189 694.114 402.917 694.869 402.685 695.624V695.76C402.453 696.457 402.221 697.154 402.008 697.85C401.562 699.322 401.117 700.793 400.691 702.303L400.575 702.71C399.646 706.001 398.774 709.35 397.961 712.719C397.952 712.79 397.952 712.861 397.961 712.932L391.437 713.164L386.926 713.319C383.345 713.416 379.724 713.513 376.046 713.571H374.71H372.213H369.793C366.405 713.571 362.978 713.571 359.532 713.687H350.181C338.875 713.687 327.859 713.551 317.269 713.261L317.559 711.848C317.695 711.228 317.811 710.647 317.946 710.067C317.986 709.926 318.018 709.784 318.043 709.641C318.908 705.769 319.811 702.239 320.754 699.051C321.102 697.928 321.412 696.863 321.741 695.798C321.857 695.469 321.954 695.14 322.07 694.811C322.322 694.017 322.573 693.262 322.825 692.526L323.232 691.346C323.445 690.745 323.658 690.145 323.871 689.584C324.084 689.022 324.355 688.248 324.587 687.648L325.226 686.022L326.387 683.214C327.278 681.085 328.149 679.226 328.943 677.581C329.098 677.31 329.233 677.019 329.369 676.748L330.182 675.18L331.131 673.457C331.189 673.371 331.241 673.28 331.285 673.186L332.234 671.579L332.989 670.379L333.899 669.062C339.644 668.513 345.419 668.325 351.188 668.501C352.407 668.501 353.646 668.598 354.905 668.675C356.163 668.752 357.305 668.869 358.622 669.023C361.39 669.333 364.43 669.759 367.663 670.282L373.742 671.327C375.775 671.695 377.788 672.063 379.724 672.45L380.75 672.663C382.28 672.954 383.77 673.263 385.145 673.554C386.094 673.747 387.081 673.96 387.972 674.193C388.456 674.309 388.92 674.406 389.385 674.541L390.798 674.87C392.56 675.315 394.302 675.799 395.948 676.283L397.555 676.767L400.556 677.697L403.189 678.549C406.189 679.536 408.183 680.272 408.474 680.368L408.338 680.543Z" fill="white"/>
<path d="M373.319 645.559C373.319 645.559 373.919 666.158 375.875 669.217C377.83 672.276 384.897 673.689 384.897 673.689C384.897 673.689 367.918 682.13 359.98 680.543C352.043 678.955 348.229 668.598 348.229 668.598C348.229 668.598 353.766 668.811 355.121 668.056C356.476 667.3 354.056 653.652 354.056 653.652L373.319 645.559Z" fill="#EBB376"/>
<path opacity="0.2" d="M355.679 658.782L354.982 659.769C354.556 656.575 354.053 653.652 354.053 653.652L373.297 645.559C373.297 645.559 373.8 662.151 375.233 667.765C367.45 668.578 358.351 662.809 355.679 658.782Z" fill="black"/>
<path d="M366.735 610.963C372.001 613.712 379.532 622.579 371.285 625.541C363.037 628.503 357.694 606.258 366.735 610.963Z" fill="#263238"/>
<path d="M343.327 645.23C347.367 650.163 351.768 654.79 356.492 659.072C359.888 661.949 364.056 663.76 368.476 664.28C383.964 666.216 393.992 649.722 387.739 636.112C387.015 634.552 386.207 633.034 385.319 631.562C378.524 620.372 365.456 608.62 352.523 612.454C349.264 613.421 346.303 615.199 343.916 617.621C341.53 620.043 339.797 623.03 338.879 626.304C337.96 629.577 337.886 633.03 338.664 636.34C339.442 639.65 341.047 642.708 343.327 645.23Z" fill="#EBB376"/>
<path d="M349.7 644.301L350.416 646.624C351.776 651.093 353.856 655.311 356.572 659.111C359.968 661.987 364.136 663.799 368.556 664.319C384.044 666.255 394.073 649.76 387.819 636.15C387.095 634.591 386.288 633.072 385.399 631.6C385.399 631.6 386.561 637.06 385.554 639.596C385.554 639.596 379.746 638.105 376.881 640.487C376.881 640.487 370.725 638.802 365.497 645.327C363.108 646.889 360.276 647.634 357.427 647.449C354.579 647.264 351.867 646.159 349.7 644.301Z" fill="#263238"/>
<path opacity="0.5" d="M349.7 644.301L350.416 646.624C351.776 651.093 353.856 655.311 356.572 659.111C359.968 661.987 364.136 663.799 368.556 664.319C384.044 666.255 394.073 649.76 387.819 636.15C387.095 634.591 386.288 633.072 385.399 631.6C385.399 631.6 386.561 637.06 385.554 639.596C385.554 639.596 379.746 638.105 376.881 640.487C376.881 640.487 370.725 638.802 365.497 645.327C363.108 646.889 360.276 647.634 357.427 647.449C354.579 647.264 351.867 646.159 349.7 644.301Z" fill="white"/>
<path d="M327.183 637.989C320.155 632.085 326.815 623.547 334.172 620.565C334.967 620.251 335.644 619.696 336.108 618.978L344.839 632.394C344.046 632.762 343.252 633.13 342.497 633.42C342.497 633.42 352.7 642.442 351.712 651.425C337.463 655.452 323.718 648.115 327.183 637.989Z" fill="#263238"/>
<path d="M346.408 658.24C347.903 659.256 349.586 659.963 351.358 660.318C353.13 660.674 354.955 660.672 356.727 660.311C357.069 660.247 357.405 660.156 357.733 660.04C360.676 657.272 351.925 647.534 351.519 647.03C350.583 646.745 349.596 646.667 348.626 646.801C347.657 646.934 346.728 647.277 345.904 647.805C345.072 648.418 344.404 649.228 343.96 650.162C343.516 651.095 343.31 652.125 343.359 653.157C343.409 654.19 343.714 655.195 344.245 656.081C344.777 656.968 345.52 657.71 346.408 658.24Z" fill="#EBB376"/>
<path d="M363.114 634.621C363.831 635.55 364.915 635.918 365.534 635.434C366.154 634.95 366.038 633.788 365.302 632.859C364.566 631.93 363.482 631.562 362.882 632.046C362.282 632.53 362.379 633.691 363.114 634.621Z" fill="#263238"/>
<path d="M373.648 626.238C374.364 627.167 375.448 627.535 376.068 627.051C376.687 626.567 376.571 625.425 375.835 624.476C375.1 623.528 374.015 623.179 373.415 623.682C372.815 624.186 372.854 625.328 373.648 626.238Z" fill="#263238"/>
<path d="M370.605 629.374C373.911 631.215 377.455 632.589 381.137 633.459C380.672 636.208 377.265 637.738 377.265 637.738L370.605 629.374Z" fill="#D58745"/>
<path d="M358.953 627.419C358.845 627.477 358.755 627.563 358.694 627.669C358.632 627.775 358.601 627.897 358.605 628.019C358.62 628.897 358.428 629.767 358.045 630.557C357.661 631.348 357.097 632.037 356.398 632.569C356.248 632.674 356.143 632.832 356.104 633.011C356.064 633.19 356.093 633.378 356.185 633.537C356.234 633.615 356.298 633.682 356.374 633.735C356.449 633.788 356.534 633.825 356.624 633.845C356.714 633.865 356.807 633.867 356.898 633.85C356.989 633.834 357.075 633.8 357.153 633.75C358.055 633.079 358.783 632.202 359.275 631.191C359.767 630.18 360.009 629.065 359.979 627.942C359.979 627.76 359.909 627.586 359.782 627.455C359.656 627.325 359.483 627.25 359.302 627.245C359.171 627.267 359.05 627.328 358.953 627.419Z" fill="#263238"/>
<path d="M375.29 618.668C375.401 618.586 375.483 618.471 375.522 618.339C375.585 618.167 375.578 617.977 375.502 617.81C375.426 617.644 375.287 617.514 375.116 617.449C374.088 617.048 372.978 616.904 371.881 617.029C370.785 617.154 369.736 617.544 368.824 618.165C368.703 618.283 368.629 618.442 368.617 618.611C368.604 618.779 368.653 618.947 368.755 619.082C368.857 619.217 369.005 619.311 369.171 619.345C369.337 619.379 369.509 619.352 369.656 619.268C370.386 618.786 371.222 618.489 372.092 618.401C372.962 618.313 373.84 618.438 374.651 618.765C374.757 618.803 374.871 618.815 374.983 618.798C375.095 618.781 375.2 618.736 375.29 618.668Z" fill="#263238"/>
<path d="M377.209 650.496C377.588 650.352 377.956 650.184 378.313 649.993L379.261 642.365C379.261 642.365 378.797 642.365 378.08 642.365C375.68 642.365 370.336 642.907 368.904 645.656C368.747 645.971 368.624 646.302 368.536 646.643C368.175 647.873 368.264 649.191 368.788 650.36C369.659 651.987 371.982 652.839 377.209 650.496Z" fill="#263238"/>
<path d="M368.536 646.624L377.848 643.255L378.08 642.345C375.679 642.345 370.336 642.887 368.903 645.637C368.747 645.952 368.624 646.283 368.536 646.624Z" fill="white"/>
<path d="M377.207 650.496C375.581 647.786 371.244 649.18 368.785 650.38C369.657 651.987 371.98 652.839 377.207 650.496Z" fill="#DE5753"/>
<path d="M327.184 637.989C324.319 635.782 320.137 629.839 325.751 623.644C331.366 617.448 338.006 614.39 334.87 609.898C331.733 605.406 337.29 601.593 341.2 604.516C341.2 604.516 350.396 589.473 356.94 601.031C356.94 601.031 363.348 596.617 367.278 601.36C371.208 606.103 372.022 611.176 366.852 612.976C361.683 614.777 361.199 615.338 362.09 618.339C362.98 621.34 358.489 623.818 358.489 623.818C358.489 623.818 361.277 622.037 359.689 619.946C359.409 621.271 358.749 622.485 357.79 623.441C356.831 624.397 355.614 625.053 354.288 625.328C349.274 626.896 351.597 631.775 351.597 631.775C351.597 631.775 348.906 632.82 348.325 628.987C348.325 628.987 346.234 637.544 340.581 639.674C334.928 641.803 331.443 641.3 327.184 637.989Z" fill="#263238"/>
<path opacity="0.1" d="M400.305 702.865C399.376 706.156 398.505 709.505 397.692 712.874C397.683 712.945 397.683 713.016 397.692 713.087L391.167 713.319L386.656 713.474C383.075 713.571 379.455 713.668 375.776 713.726H374.44H371.943H369.523C371.871 709.313 375.179 705.482 379.203 702.516C379.919 701.972 380.669 701.474 381.449 701.026C383.059 700.141 384.806 699.533 386.618 699.225C391.48 698.605 396.393 699.912 400.305 702.865Z" fill="black"/>
<path d="M413.294 696.457C413.196 698.352 412.602 700.188 411.571 701.781C409.112 705.653 406.615 709.254 404.001 712.816L397.651 713.087L391.127 713.319L386.616 713.474C383.034 713.571 379.414 713.668 375.735 713.726C375.948 713.493 376.123 713.261 376.316 713.029C379.801 708.634 383.266 704.007 386.616 699.341C387.564 698.044 388.552 696.728 389.404 695.469C390.739 693.533 392.017 691.752 393.276 689.913L393.411 689.719C394.785 687.733 396.779 686.259 399.081 685.526C401.382 684.794 403.861 684.846 406.131 685.673C407.002 685.99 407.829 686.419 408.589 686.951C410.119 688.002 411.355 689.428 412.178 691.092C413.002 692.755 413.386 694.602 413.294 696.457Z" fill="#FFB573"/>
<path d="M414.4 696.515C413.366 702.285 411.13 707.773 407.837 712.622L403.965 712.816L397.615 713.087L391.09 713.319L386.579 713.474C382.998 713.571 379.378 713.668 375.699 713.726H374.363H371.866C374.015 710.473 376.667 706.408 379.165 702.555C380.868 699.883 382.495 697.328 383.811 695.159L385.186 692.894C387.345 689.163 390.442 686.059 394.169 683.892C398.448 681.463 403.328 680.295 408.243 680.523C409.895 681.595 411.284 683.024 412.309 684.705C414.391 688.267 415.133 692.455 414.4 696.515Z" fill="#0E8EC5"/>
<path opacity="0.7" d="M414.4 696.515C413.366 702.285 411.13 707.773 407.837 712.622L403.965 712.816L397.615 713.087L391.09 713.319L386.579 713.474C382.998 713.571 379.378 713.668 375.699 713.726H374.363H371.866C374.015 710.473 376.667 706.408 379.165 702.555C380.868 699.883 382.495 697.328 383.811 695.159L385.186 692.894C387.345 689.163 390.442 686.059 394.169 683.892C398.448 681.463 403.328 680.295 408.243 680.523C409.895 681.595 411.284 683.024 412.309 684.705C414.391 688.267 415.133 692.455 414.4 696.515Z" fill="white"/>
<path d="M242.927 316.357C241.256 316.692 239.879 316.52 238.796 315.842C237.753 315.103 237.064 313.898 236.729 312.228L228.08 269.022C227.745 267.351 227.922 265.999 228.61 264.967C229.339 263.873 230.539 263.159 232.209 262.824L259.318 257.397C260.583 257.144 261.611 257.281 262.401 257.807C263.241 258.323 263.783 259.189 264.026 260.404C264.28 261.669 264.123 262.727 263.556 263.578C263.03 264.368 262.134 264.889 260.868 265.143L237.936 269.734L240.885 284.465L262.147 280.208C263.463 279.945 264.516 280.076 265.306 280.602C266.096 281.129 266.617 282.025 266.871 283.29C267.124 284.556 266.987 285.583 266.461 286.373C265.935 287.163 265.013 287.69 263.697 287.953L242.436 292.21L245.552 307.776L268.484 303.185C269.75 302.932 270.777 303.068 271.567 303.595C272.408 304.111 272.955 305.002 273.208 306.267C273.461 307.533 273.3 308.566 272.723 309.366C272.196 310.155 271.3 310.677 270.035 310.93L242.927 316.357ZM288.052 307.955C286.483 308.269 285.182 308.082 284.149 307.394C283.157 306.645 282.503 305.486 282.189 303.916L273.342 259.723C273.018 258.103 273.205 256.802 273.903 255.82C274.591 254.787 275.72 254.114 277.289 253.799L295.589 250.136C301.461 248.96 306.276 249.471 310.033 251.667C313.779 253.813 316.159 257.417 317.173 262.479C317.831 265.769 317.665 268.751 316.673 271.424C315.732 274.087 314.022 276.325 311.541 278.138C309.061 279.951 305.872 281.247 301.974 282.028L302.429 280.752L304.935 280.25C307.011 279.835 308.909 279.981 310.631 280.69C312.403 281.388 314.089 282.709 315.689 284.653L323.497 294.067C324.317 295.009 324.803 295.991 324.955 297.013C325.107 298.036 324.895 298.947 324.318 299.747C323.731 300.496 322.754 301.008 321.387 301.281C320.02 301.555 318.851 301.5 317.879 301.115C316.897 300.68 315.955 299.921 315.053 298.838L304.557 286.249C303.301 284.711 301.985 283.789 300.607 283.486C299.271 283.122 297.641 283.132 295.717 283.517L288.504 284.961L291.909 301.971C292.223 303.54 292.066 304.861 291.439 305.934C290.801 306.957 289.672 307.631 288.052 307.955ZM287.059 277.748L298.905 275.376C302.398 274.677 304.888 273.441 306.376 271.669C307.905 269.836 308.38 267.477 307.803 264.592C307.235 261.757 305.898 259.813 303.792 258.761C301.726 257.647 298.947 257.44 295.454 258.139L283.609 260.511L287.059 277.748ZM340.108 297.534C338.539 297.848 337.238 297.661 336.205 296.972C335.213 296.223 334.559 295.064 334.245 293.495L325.398 249.302C325.073 247.682 325.26 246.381 325.959 245.398C326.647 244.366 327.776 243.692 329.345 243.378L347.645 239.714C353.517 238.539 358.332 239.049 362.088 241.245C365.835 243.391 368.215 246.995 369.229 252.057C369.887 255.348 369.721 258.33 368.729 261.003C367.788 263.666 366.077 265.904 363.597 267.716C361.117 269.529 357.928 270.826 354.03 271.606L354.485 270.33L356.991 269.829C359.067 269.413 360.965 269.56 362.686 270.268C364.458 270.966 366.144 272.287 367.744 274.231L375.552 283.646C376.373 284.587 376.859 285.569 377.011 286.592C377.163 287.614 376.951 288.525 376.374 289.325C375.787 290.075 374.81 290.586 373.443 290.86C372.076 291.134 370.907 291.078 369.935 290.694C368.952 290.258 368.011 289.499 367.109 288.416L356.613 275.828C355.357 274.289 354.04 273.368 352.663 273.064C351.327 272.7 349.697 272.711 347.773 273.096L340.559 274.54L343.965 291.549C344.279 293.118 344.122 294.44 343.495 295.513C342.857 296.536 341.728 297.209 340.108 297.534ZM339.115 267.326L350.961 264.955C354.454 264.256 356.944 263.02 358.432 261.248C359.961 259.415 360.436 257.056 359.858 254.17C359.291 251.335 357.954 249.392 355.848 248.339C353.782 247.226 351.003 247.019 347.51 247.718L335.664 250.089L339.115 267.326ZM410.959 283.507C405.795 284.541 401.037 284.309 396.683 282.811C392.379 281.304 388.754 278.712 385.807 275.038C382.85 271.312 380.814 266.665 379.699 261.097C378.858 256.895 378.71 253.002 379.256 249.418C379.792 245.783 380.936 242.553 382.687 239.728C384.478 236.842 386.817 234.452 389.702 232.558C392.628 230.603 396.04 229.236 399.937 228.456C405.152 227.412 409.91 227.644 414.214 229.151C418.507 230.609 422.127 233.175 425.074 236.849C428.021 240.524 430.052 245.146 431.167 250.714C432.008 254.916 432.16 258.834 431.625 262.469C431.089 266.104 429.925 269.364 428.133 272.25C426.392 275.126 424.059 277.541 421.133 279.496C418.248 281.39 414.857 282.727 410.959 283.507ZM409.287 275.155C412.577 274.496 415.209 273.179 417.183 271.204C419.208 269.22 420.539 266.663 421.176 263.534C421.864 260.395 421.807 256.826 421.007 252.827C419.791 246.752 417.481 242.318 414.079 239.524C410.727 236.72 406.571 235.815 401.61 236.808C398.37 237.457 395.738 238.774 393.713 240.758C391.678 242.693 390.317 245.229 389.629 248.368C388.982 251.446 389.063 255.01 389.874 259.06C391.08 265.084 393.39 269.518 396.802 272.362C400.215 275.207 404.376 276.138 409.287 275.155ZM451.413 275.25C449.843 275.565 448.542 275.378 447.509 274.689C446.517 273.94 445.864 272.781 445.55 271.212L436.702 227.019C436.378 225.399 436.565 224.098 437.263 223.115C437.952 222.082 439.08 221.409 440.65 221.095L458.95 217.431C464.822 216.256 469.636 216.766 473.393 218.962C477.14 221.108 479.52 224.712 480.533 229.774C481.192 233.065 481.025 236.046 480.034 238.72C479.093 241.383 477.382 243.621 474.902 245.433C472.421 247.246 469.232 248.543 465.334 249.323L465.79 248.047L468.296 247.546C470.371 247.13 472.27 247.277 473.991 247.985C475.763 248.683 477.449 250.004 479.049 251.948L486.857 261.362C487.677 262.304 488.163 263.286 488.316 264.309C488.468 265.331 488.255 266.242 487.678 267.042C487.091 267.792 486.114 268.303 484.747 268.577C483.381 268.85 482.211 268.795 481.239 268.41C480.257 267.975 479.315 267.216 478.414 266.133L467.917 253.545C466.661 252.006 465.345 251.085 463.968 250.781C462.631 250.417 461.001 250.428 459.078 250.813L451.864 252.257L455.269 269.266C455.583 270.835 455.427 272.157 454.799 273.23C454.161 274.253 453.033 274.926 451.413 275.25ZM450.42 245.043L462.265 242.672C465.758 241.972 468.249 240.737 469.737 238.965C471.265 237.132 471.741 234.773 471.163 231.887C470.595 229.052 469.259 227.109 467.152 226.056C465.087 224.943 462.307 224.736 458.814 225.435L446.969 227.806L450.42 245.043ZM340.777 376.947C339.258 377.251 337.987 377.085 336.965 376.447C335.932 375.759 335.258 374.63 334.944 373.061L333.758 367.138L315.003 370.893C313.433 371.207 312.102 371.131 311.008 370.666C309.965 370.19 309.302 369.243 309.018 367.826C308.856 367.016 308.881 366.09 309.094 365.047C309.357 363.994 309.888 362.571 310.688 360.779L325.458 326.468C325.954 325.263 326.577 324.296 327.326 323.567C328.075 322.838 329.006 322.362 330.12 322.139C331.436 321.875 332.605 322.062 333.628 322.7C334.641 323.287 335.314 324.416 335.649 326.086L341.866 357.143L345.587 356.398C347.055 356.104 348.214 356.241 349.065 356.808C349.956 357.314 350.533 358.225 350.797 359.541C351.06 360.857 350.883 361.946 350.266 362.806C349.689 363.606 348.666 364.153 347.198 364.447L343.478 365.192L344.663 371.115C344.978 372.684 344.791 373.985 344.102 375.018C343.404 376 342.295 376.643 340.777 376.947ZM332.147 359.089L327.404 335.398L329.606 334.957L316.946 364.817L316.429 362.236L332.147 359.089ZM377.757 369.702C371.429 370.969 366.118 369.557 361.825 365.468C357.521 361.328 354.482 354.828 352.709 345.969C351.513 339.996 351.243 334.837 351.901 330.493C352.598 326.089 354.182 322.56 356.652 319.907C359.173 317.244 362.534 315.492 366.736 314.65C373.114 313.373 378.415 314.734 382.637 318.733C386.911 322.721 389.939 329.17 391.723 338.079C392.909 344.002 393.158 349.191 392.47 353.646C391.823 358.041 390.275 361.615 387.825 364.369C385.365 367.073 382.009 368.851 377.757 369.702ZM376.161 361.729C379.603 361.04 381.815 358.939 382.796 355.425C383.828 351.901 383.665 346.748 382.307 339.964C380.949 333.181 379.131 328.438 376.852 325.735C374.614 322.971 371.774 321.934 368.332 322.623C364.94 323.302 362.718 325.353 361.666 328.775C360.603 332.147 360.751 337.225 362.109 344.008C363.467 350.792 365.301 355.611 367.61 358.465C369.919 361.32 372.769 362.408 376.161 361.729ZM431.837 358.717C430.319 359.021 429.048 358.854 428.025 358.217C426.992 357.528 426.319 356.4 426.005 354.83L424.819 348.908L406.063 352.662C404.494 352.977 403.163 352.901 402.069 352.435C401.026 351.96 400.363 351.013 400.079 349.596C399.917 348.786 399.942 347.859 400.154 346.816C400.417 345.763 400.949 344.341 401.748 342.549L416.519 308.238C417.015 307.033 417.637 306.066 418.386 305.337C419.135 304.607 420.067 304.131 421.18 303.908C422.497 303.645 423.666 303.832 424.689 304.47C425.701 305.057 426.375 306.186 426.709 307.856L432.927 338.913L436.648 338.168C438.116 337.874 439.275 338.01 440.126 338.577C441.017 339.083 441.594 339.994 441.857 341.311C442.121 342.627 441.944 343.715 441.327 344.576C440.75 345.376 439.727 345.923 438.259 346.217L434.538 346.962L435.724 352.885C436.038 354.454 435.851 355.755 435.163 356.788C434.464 357.77 433.356 358.413 431.837 358.717ZM423.207 340.859L418.464 317.167L420.667 316.727L408.006 346.587L407.489 344.005L423.207 340.859Z" fill="#0E8EC5"/>
</svg>
