<svg width="131" height="102" viewBox="0 0 131 102" fill="none" xmlns="http://www.w3.org/2000/svg">
<path opacity="0.07" d="M90.845 63.9208C31.9407 4.31674 74.5523 -17.2256 90.845 17.702C107.155 -2.43063 149.749 57.7756 90.845 63.9208Z" fill="white"/>
<path opacity="0.4" d="M85.2747 69.3954C26.3704 9.77769 68.982 -11.7509 85.2747 23.1766C101.585 3.044 144.179 63.2502 85.2747 69.3954Z" fill="white"/>
<path opacity="0.2" d="M17.6849 43.2272C18.7293 43.6926 19.5649 44.8422 19.5649 45.7866V49.9609L23.081 51.5485C24.1254 52.0139 24.9609 53.1635 24.9609 54.1079C24.9609 55.0522 24.1254 55.4354 23.081 54.9701L19.5649 53.3825V57.5568C19.5649 58.5012 18.7293 58.8844 17.6849 58.4191C16.6405 57.9537 15.805 56.8041 15.805 55.8597V51.6854L12.2889 50.0978C11.2445 49.6324 10.4089 48.4828 10.4089 47.5384C10.4089 46.5941 11.2445 46.2108 12.2889 46.6762L15.805 48.2638V44.0895C15.7876 43.1314 16.6405 42.7482 17.6849 43.2272Z" fill="white"/>
<path opacity="0.25" d="M32.0099 38.8613L64.543 53.6152V101.011L32.0099 86.2435V38.8613Z" fill="white"/>
<path opacity="0.15" d="M35.2124 66.9863L61.3398 78.8387V80.7001L35.2124 68.8477V66.9863Z" fill="white"/>
<path opacity="0.15" d="M37.0416 71.4072L59.5137 81.6036V83.4649L37.0416 73.2686V71.4072Z" fill="white"/>
<path d="M46.5273 80.3444L23.8986 70.0659V75.3625L46.5273 85.641V80.3444Z" fill="#F6CC34"/>
<path d="M51.9941 57.4881C51.9941 59.7874 50.3057 60.8686 48.2169 59.9106C46.1281 58.9525 44.4396 56.3247 44.4396 54.0254C44.4396 51.7261 46.1281 50.6449 48.2169 51.603C50.3057 52.561 51.9941 55.1888 51.9941 57.4881Z" fill="#F6CC34"/>
<path d="M48.2165 61.7585C44.857 60.2119 42.0893 61.6627 41.5845 64.9885C41.4975 65.5633 42.0545 66.3297 42.7334 66.6308L53.6996 71.6537C54.3785 71.9685 54.9355 71.7085 54.8484 71.0652C54.3436 67.2878 51.576 63.2913 48.2165 61.7585Z" fill="#F6CC34"/>
<path opacity="0.25" d="M124.457 80.5908L72.6373 57.0776V78.3052L124.457 101.818V80.5908Z" fill="white"/>
<path opacity="0.15" d="M89.4868 72.2559L104.404 79.0306V80.8919L89.4868 74.1172V72.2559Z" fill="white"/>
<path opacity="0.15" d="M89.4871 75.8281L119.914 89.6376V91.499L89.4697 77.6895L89.4871 75.8281Z" fill="white"/>
<path d="M130.271 87.215L107.643 76.9365V82.2331L130.271 92.5116V87.215Z" fill="#F6CC34"/>
<path d="M84.9082 73.0222C84.9082 75.3763 83.1501 76.4986 80.9917 75.5132C78.8333 74.5277 77.0752 71.8178 77.0752 69.4638C77.0752 67.1097 78.8333 65.9874 80.9917 66.9729C83.1501 67.9583 84.9082 70.6682 84.9082 73.0222Z" fill="#F6CC34"/>
<path opacity="0.25" d="M52.5684 29.9511L0.748611 6.43799V27.6655L52.5684 51.1787V29.9511Z" fill="white"/>
<path opacity="0.15" d="M17.5986 21.7808L43.082 33.3457V35.2071L17.616 23.6421L17.5986 21.7808Z" fill="white"/>
<path opacity="0.15" d="M17.5986 25.3525L48.043 39.1621V41.0234L17.5986 27.2139V25.3525Z" fill="white"/>
<path d="M10.5654 17.5788C10.5654 17.3462 10.3565 17.0724 10.1128 16.9629L8.111 16.0596C7.8673 15.9502 7.65843 16.0323 7.65843 16.2649V17.8252C7.65843 18.14 7.22326 18.3453 6.87513 18.181L5.63925 17.6199C5.39556 17.5104 5.18667 17.5925 5.18667 17.8252V20.1656C5.18667 20.3982 5.39556 20.6719 5.63925 20.7814L7.39733 21.5752C7.55399 21.6437 7.65843 21.7805 7.65843 21.9311V23.9704C7.65843 24.203 7.8673 24.4768 8.111 24.5862L10.1128 25.4895C10.3565 25.599 10.5654 25.5169 10.5654 25.2842V23.724C10.5654 23.4092 11.0005 23.2039 11.3487 23.3682L12.5845 23.9293C12.8282 24.0388 13.0371 23.9567 13.0371 23.724V21.3836C13.0371 21.151 12.8282 20.8772 12.5845 20.7678L10.8265 19.9739C10.6698 19.9055 10.5654 19.7686 10.5654 19.6181V17.5788Z" fill="#F6CC34"/>
</svg>
