<svg width="14" height="15" viewBox="0 0 14 15" fill="none" xmlns="http://www.w3.org/2000/svg">
<g clip-path="url(#clip0_399_25008)">
<path d="M11.9022 6.3335H11.5522L9.17216 3.35893C9.04094 3.195 8.87453 3.06266 8.68525 2.97171C8.49597 2.88076 8.28865 2.83352 8.07864 2.8335H3.39848C2.82591 2.8335 2.31109 3.18196 2.09843 3.71353L1.0502 6.38293C0.447209 6.53912 0 7.08184 0 7.7335V10.1835C0 10.3769 0.156654 10.5335 0.350066 10.5335H1.40026C1.40026 11.6933 2.34063 12.6335 3.50066 12.6335C4.66069 12.6335 5.60105 11.6933 5.60105 10.5335H8.40158C8.40158 11.6933 9.34194 12.6335 10.502 12.6335C11.662 12.6335 12.6024 11.6933 12.6024 10.5335H13.6526C13.846 10.5335 14.0026 10.3769 14.0026 10.1835V8.4335C14.0026 7.27368 13.0623 6.3335 11.9022 6.3335ZM3.50066 11.5835C2.92152 11.5835 2.45046 11.1125 2.45046 10.5335C2.45046 9.95446 2.92152 9.4835 3.50066 9.4835C4.0798 9.4835 4.55086 9.95446 4.55086 10.5335C4.55086 11.1125 4.0798 11.5835 3.50066 11.5835ZM5.07595 6.3335H2.55832L3.39848 4.2335H5.07595V6.3335ZM6.12615 6.3335V4.2335H8.07864L9.75896 6.3335H6.12615ZM10.502 11.5835C9.92283 11.5835 9.45178 11.1125 9.45178 10.5335C9.45178 9.95446 9.92283 9.4835 10.502 9.4835C11.0811 9.4835 11.5522 9.95446 11.5522 10.5335C11.5522 11.1125 11.0811 11.5835 10.502 11.5835Z" fill="#0E8EC5"/>
</g>
<defs>
<clipPath id="clip0_399_25008">
<rect width="14.0026" height="14" fill="white" transform="translate(0 0.5)"/>
</clipPath>
</defs>
</svg>
