<svg width="169" height="132" viewBox="0 0 169 132" fill="none" xmlns="http://www.w3.org/2000/svg">
<path d="M80.9565 132C116.944 132 146.117 116.009 146.117 96.2819C146.117 76.5552 116.944 60.5635 80.9565 60.5635C44.9693 60.5635 15.7959 76.5552 15.7959 96.2819C15.7959 116.009 44.9693 132 80.9565 132Z" fill="#EEEEEE"/>
<path d="M45.8908 98.27L23.7194 85.4814C23.1789 85.206 22.5808 85.0625 21.9741 85.0625C21.3674 85.0625 20.7694 85.206 20.2288 85.4814L1.2091 96.5121C0.245404 97.074 0.245404 97.9781 1.2091 98.5337L23.3773 111.325C23.9179 111.601 24.5159 111.744 25.1226 111.744C25.7293 111.744 26.3273 111.601 26.8679 111.325L45.8939 100.301C46.8607 99.7328 46.8607 98.8288 45.8908 98.27Z" fill="#E0E0E0"/>
<path d="M150.586 108.27L164.627 100.177C164.699 100.153 164.761 100.107 164.805 100.046C164.849 99.9841 164.873 99.9104 164.873 99.8348C164.873 99.7592 164.849 99.6856 164.805 99.6242C164.761 99.5628 164.699 99.5168 164.627 99.4927L129.922 79.3806C129.739 79.2877 129.537 79.2393 129.331 79.2393C129.126 79.2393 128.924 79.2877 128.741 79.3806L114.697 87.4731C114.625 87.4972 114.563 87.5432 114.519 87.6046C114.475 87.666 114.451 87.7397 114.451 87.8153C114.451 87.8909 114.475 87.9646 114.519 88.026C114.563 88.0874 114.625 88.1334 114.697 88.1575L149.403 108.27C149.586 108.362 149.789 108.411 149.994 108.411C150.2 108.411 150.403 108.362 150.586 108.27Z" fill="#E6E6E6"/>
<path d="M120.304 82.8472C108.18 75.847 85.4597 77.6175 69.5509 86.8024L62.9839 90.5944C47.0782 99.7762 44.0082 112.898 56.1344 119.898C68.2607 126.898 90.9782 125.127 106.89 115.942L113.454 112.154C129.36 102.969 132.43 89.8504 120.304 82.8472Z" fill="#E0E0E0"/>
<path d="M127.213 93.134C127.213 98.8408 122.19 105.135 113.818 109.978L107.371 113.701C98.6471 118.724 87.5724 121.624 76.9749 121.624C69.6294 121.624 63.3293 120.224 58.7682 117.584C54.4049 115.073 52.0977 111.67 52.0977 107.772C52.0977 102.065 57.1202 95.7708 65.4921 90.9304L71.9429 87.2043C80.6633 82.1818 91.7442 79.2812 102.342 79.2812C109.681 79.2812 115.981 80.6813 120.548 83.3244C124.905 85.8419 127.213 89.2353 127.213 93.134Z" fill="#0E8EC5"/>
<path d="M76.9717 121.623C69.6294 121.623 63.3293 120.223 58.7651 117.583C54.4017 115.072 52.0977 111.669 52.0977 107.77C52.0977 102.067 57.1045 95.7696 65.4921 90.926L71.9398 87.2062C80.6601 82.1837 91.738 79.2832 102.335 79.2832C109.678 79.2832 115.978 80.6801 120.542 83.3201C124.905 85.8313 127.213 89.2341 127.213 93.1328C127.213 98.8365 122.19 105.134 113.818 109.977L107.371 113.7C98.6502 118.723 87.5693 121.623 76.9749 121.623H76.9717Z" fill="#0E8EC5"/>
<path opacity="0.7" d="M127.213 93.134C127.213 98.8408 122.19 105.135 113.818 109.978L107.371 113.701C98.6471 118.724 87.5724 121.624 76.9749 121.624C69.6294 121.624 63.3293 120.224 58.7682 117.584C54.4049 115.073 52.0977 111.67 52.0977 107.772C52.0977 102.065 57.1202 95.7708 65.4921 90.9304L71.9429 87.2043C80.6633 82.1818 91.7442 79.2812 102.342 79.2812C109.681 79.2812 115.981 80.6813 120.548 83.3244C124.905 85.8419 127.213 89.2353 127.213 93.134Z" fill="white"/>
<path d="M79.8559 117.012C74.1459 117.012 69.2427 115.923 65.6767 113.873C62.2394 111.889 60.4219 109.205 60.4219 106.116C60.4219 101.634 64.33 96.699 70.875 92.9321L75.8567 90.0567C82.6246 86.1485 91.2225 83.9072 99.4438 83.9072C105.154 83.9072 110.057 84.9965 113.623 87.0463C117.06 89.0302 118.878 91.7141 118.878 94.803C118.878 99.2856 114.973 104.22 108.428 107.987L103.459 110.853C96.6751 114.771 88.0772 117.012 79.8559 117.012ZM79.8559 116.604C88.0175 116.604 96.5307 114.385 103.239 110.511L108.221 107.636C114.637 103.931 118.467 99.1318 118.467 94.7967C118.467 91.8617 116.721 89.3002 113.416 87.3916C109.909 85.37 105.078 84.2996 99.4406 84.2996C91.279 84.2996 82.7658 86.5221 76.0576 90.3926L71.0759 93.2742C64.6565 96.9815 60.8268 101.778 60.8268 106.113C60.8268 109.048 62.5721 111.61 65.8776 113.518C69.3839 115.533 74.215 116.604 79.8528 116.604H79.8559Z" fill="white"/>
<path opacity="0.3" d="M81.7338 113.678C77.1507 113.678 73.2143 112.805 70.3577 111.166C67.633 109.597 66.1953 107.475 66.1953 105.039C66.1953 101.479 69.3344 97.546 74.5578 94.523L78.5821 92.2001C84.0284 89.061 90.947 87.2529 97.561 87.2529C102.147 87.2529 106.08 88.1256 108.937 89.7642C111.662 91.3337 113.103 93.4557 113.103 95.8917C113.103 99.4545 109.964 103.385 104.737 106.408L100.713 108.731C95.2663 111.87 88.3509 113.678 81.7338 113.678Z" fill="#0E8EC5"/>
<path opacity="0.4" d="M83.6134 110.539C80.1164 110.539 77.1186 109.874 74.9401 108.618C72.862 107.4 71.7539 105.793 71.7539 103.947C71.7539 101.232 74.1396 98.2371 78.1325 95.9299L81.1994 94.1595C85.3524 91.7612 90.6166 90.3926 95.6737 90.3926C99.1675 90.3926 102.165 91.0581 104.347 92.3168C106.422 93.516 107.521 95.142 107.521 96.9878C107.521 99.7031 105.138 102.701 101.145 105.005L98.0845 106.772C93.9315 109.167 88.6673 110.539 83.6134 110.539Z" fill="white"/>
<path d="M121.154 82.2628C109.247 75.3882 86.938 77.1272 71.3148 86.1427L64.864 89.8656C49.2471 98.8842 46.2336 111.77 58.1401 118.645C70.0466 125.519 92.3561 123.78 107.982 114.762L114.446 111.039C130.047 102.02 133.061 89.1373 121.154 82.2628ZM113.818 109.978L107.37 113.701C98.6468 118.723 87.5721 121.624 76.9746 121.624C69.6291 121.624 63.329 120.224 58.7679 117.584C54.4046 115.072 52.0974 111.67 52.0974 107.771C52.0974 102.064 57.1199 95.7702 65.4918 90.9298L71.9426 87.2037C80.663 82.1811 91.7439 79.2806 102.341 79.2806C109.681 79.2806 115.981 80.6807 120.548 83.3238C124.911 85.835 127.219 89.2347 127.219 93.1334C127.212 98.8402 122.202 105.134 113.818 109.978Z" fill="#0E8EC5"/>
<path opacity="0.3" d="M121.154 82.2628C109.247 75.3882 86.938 77.1272 71.3148 86.1427L64.864 89.8656C49.2471 98.8842 46.2336 111.77 58.1401 118.645C70.0466 125.519 92.3561 123.78 107.982 114.762L114.446 111.039C130.047 102.02 133.061 89.1373 121.154 82.2628ZM113.818 109.978L107.37 113.701C98.6468 118.723 87.5721 121.624 76.9746 121.624C69.6291 121.624 63.329 120.224 58.7679 117.584C54.4046 115.072 52.0974 111.67 52.0974 107.771C52.0974 102.064 57.1199 95.7702 65.4918 90.9298L71.9426 87.2037C80.663 82.1811 91.7439 79.2806 102.341 79.2806C109.681 79.2806 115.981 80.6807 120.548 83.3238C124.911 85.835 127.219 89.2347 127.219 93.1334C127.212 98.8402 122.202 105.134 113.818 109.978Z" fill="white"/>
<path d="M44.2647 101.87L40.9404 99.9488L44.2647 98.9883V101.87Z" fill="#0E8EC5"/>
<path opacity="0.6" d="M44.2647 101.87L40.9404 99.9488L44.2647 98.9883V101.87Z" fill="white"/>
<path opacity="0.05" d="M44.2647 101.87L40.9404 99.9488L44.2647 98.9883V101.87Z" fill="#333436"/>
<path d="M44.2666 101.869L45.9303 100.908V98.0264L44.2666 98.9869V101.869Z" fill="#0E8EC5"/>
<path opacity="0.75" d="M44.2666 101.869L45.9303 100.908V98.0264L44.2666 98.9869V101.869Z" fill="white"/>
<path d="M27.6036 108.609V111.673L7.91211 100.284V97.2236L27.6036 108.609Z" fill="#0E8EC5"/>
<path opacity="0.6" d="M27.6036 108.609V111.673L7.91211 100.284V97.2236L27.6036 108.609Z" fill="white"/>
<path opacity="0.1" d="M27.6036 108.609V111.673L7.91211 100.284V97.2236L27.6036 108.609Z" fill="#333436"/>
<path d="M27.6025 111.672L29.2663 110.711V107.647L27.6025 108.608V111.672Z" fill="#0E8EC5"/>
<path opacity="0.75" d="M27.6025 111.672L29.2663 110.711V107.647L27.6025 108.608V111.672Z" fill="white"/>
<path d="M6.24805 73.2158L25.9395 84.6013V109.57L6.24805 98.1841V73.2158Z" fill="#0E8EC5"/>
<path opacity="0.6" d="M6.24805 73.2158L25.9395 84.6013V109.57L6.24805 98.1841V73.2158Z" fill="white"/>
<path d="M25.9395 84.6016L47.5928 72.0986V97.07L25.9395 109.57V84.6016Z" fill="#0E8EC5"/>
<path opacity="0.75" d="M25.9395 84.6016L47.5928 72.0986V97.07L25.9395 109.57V84.6016Z" fill="white"/>
<path d="M47.5929 72.0974L27.9014 60.7119L6.24805 73.2149L25.9395 84.6003L47.5929 72.0974Z" fill="#0E8EC5"/>
<path opacity="0.85" d="M47.5929 72.0974L27.9014 60.7119L6.24805 73.2149L25.9395 84.6003L47.5929 72.0974Z" fill="white"/>
<path d="M27.6025 93.2418L45.9285 82.6631V96.1078L27.6025 106.686V93.2418Z" fill="#0E8EC5"/>
<path opacity="0.6" d="M27.6025 93.2418L45.9285 82.6631V96.1078L27.6025 106.686V93.2418Z" fill="white"/>
<path opacity="0.1" d="M45.9285 96.1087L34.3641 89.3408L27.6025 93.2427V106.687L45.9285 96.1087Z" fill="#333436"/>
<path opacity="0.05" d="M45.9296 96.1078L34.3652 89.3399L45.9296 82.6631V96.1078Z" fill="#333436"/>
<path d="M27.6025 85.5603L45.9285 74.9785V80.7419L27.6025 91.3237V85.5603Z" fill="#0E8EC5"/>
<path opacity="0.85" d="M27.6025 85.5603L45.9285 74.9785V80.7419L27.6025 91.3237V85.5603Z" fill="white"/>
<path d="M33.2822 83.4963C33.2822 83.76 34.0764 83.5183 35.0558 82.9533L38.1635 81.1577C39.1429 80.5927 39.9371 79.9209 39.9371 79.6541V79.1738L33.2822 83.0161V83.4963Z" fill="#0E8EC5"/>
<path d="M15.8984 74.547L16.385 74.7824L25.4193 69.5653L24.9296 69.333L15.8984 74.547Z" fill="#0E8EC5"/>
<path opacity="0.2" d="M15.8984 74.547L16.385 74.7824L25.4193 69.5653L24.9296 69.333L15.8984 74.547Z" fill="#333436"/>
<path d="M24.9299 69.3348L16.3382 74.2945L15.0889 61.44L23.6805 56.4834L24.9299 69.3348Z" fill="#0E8EC5"/>
<g opacity="0.8">
<path d="M24.9309 69.3348L16.3392 74.2945L15.0898 61.44L23.6815 56.4834L24.9309 69.3348Z" fill="white"/>
</g>
<path d="M24.8648 54.8379L14.1699 61.0125L15.6453 76.1711L26.337 69.9965L24.8648 54.8379ZM25.4204 69.5665L16.3861 74.7836L15.0897 61.4394L24.1208 56.2254L25.4204 69.5665Z" fill="#0E8EC5"/>
<path d="M24.8648 54.8379L14.1699 61.0125L15.6453 76.1711L26.337 69.9965L24.8648 54.8379ZM25.4204 69.5665L16.3861 74.7836L15.0897 61.4394L24.1208 56.2254L25.4204 69.5665Z" fill="#0E8EC5"/>
<path d="M25.4197 69.5667L24.93 69.3344L23.6807 56.483L24.1201 56.2256L25.4197 69.5667Z" fill="#0E8EC5"/>
<path opacity="0.35" d="M25.4197 69.5667L24.93 69.3344L23.6807 56.483L24.1201 56.2256L25.4197 69.5667Z" fill="#333436"/>
<path d="M24.8637 54.8385L24.3677 54.6094L13.6729 60.7839L14.1688 61.0131L24.8637 54.8385Z" fill="#0E8EC5"/>
<path opacity="0.6" d="M24.8637 54.8385L24.3677 54.6094L13.6729 60.7839L14.1688 61.0131L24.8637 54.8385Z" fill="white"/>
<path d="M13.6729 60.7842L14.1688 61.0133L15.6442 76.1719L15.1482 75.9428L13.6729 60.7842Z" fill="#0E8EC5"/>
<path opacity="0.35" d="M13.6729 60.7842L14.1688 61.0133L15.6442 76.1719L15.1482 75.9428L13.6729 60.7842Z" fill="#333436"/>
<path d="M24.5533 69.0906L16.6302 73.6642L16.4199 71.4983L17.8953 65.1385L19.2985 67.3076L19.0065 69.1377L21.3483 62.3887L24.343 66.9246L24.5533 69.0906Z" fill="#0E8EC5"/>
<path d="M17.7727 62.4576C17.6075 62.561 17.4723 62.7058 17.3803 62.8776C17.2883 63.0494 17.2429 63.2422 17.2485 63.437C17.283 63.7917 17.5624 63.9267 17.8952 63.7509C18.0608 63.6488 18.1964 63.5047 18.2885 63.3332C18.3805 63.1618 18.4257 62.9691 18.4194 62.7747C18.3849 62.4074 18.0961 62.2724 17.7727 62.4576Z" fill="#0E8EC5"/>
<path opacity="0.05" d="M32.7132 71.0575C34.2828 71.9584 34.2828 73.4181 32.7132 74.319C31.1437 75.2199 28.6324 75.2199 27.0629 74.319C25.4934 73.4181 25.4934 71.9584 27.0629 71.0575C28.6324 70.1566 31.1531 70.1723 32.7132 71.0575Z" fill="#333436"/>
<path d="M27.353 73.3292C25.9938 71.9417 25.1965 68.4825 26.5212 67.3838H33.2608C34.5855 68.4825 33.7882 71.9417 32.4321 73.3261L32.3944 73.3669L32.3473 73.4108C32.3087 73.4498 32.2679 73.4865 32.2249 73.5207L32.1904 73.5458L32.0899 73.6243C32.0335 73.6643 31.9748 73.7009 31.9141 73.7342C31.2873 74.0528 30.5941 74.219 29.891 74.219C29.1878 74.219 28.4946 74.0528 27.8679 73.7342C27.8061 73.7017 27.7472 73.6639 27.6921 73.6211L27.5948 73.5521L27.5571 73.5176C27.5131 73.483 27.4755 73.4485 27.4378 73.414L27.3844 73.3606L27.353 73.3292Z" fill="#EEEEEE"/>
<path d="M32.6733 66.8567C34.2115 67.7451 34.2115 69.1859 32.6733 70.0711C31.1352 70.9563 28.6427 70.9595 27.1046 70.0711C25.5664 69.1828 25.5696 67.7451 27.1046 66.8567C28.6396 65.9683 31.1383 65.9683 32.6733 66.8567Z" fill="white"/>
<path d="M31.5846 67.4878C32.5263 68.0277 32.5263 68.9035 31.5846 69.4435C31.0597 69.7096 30.4795 69.8483 29.891 69.8483C29.3026 69.8483 28.7224 69.7096 28.1975 69.4435C27.2558 68.9035 27.2558 68.0277 28.1975 67.4878C28.7224 67.2217 29.3026 67.083 29.891 67.083C30.4795 67.083 31.0597 67.2217 31.5846 67.4878Z" fill="#EBEBEB"/>
<path d="M28.1976 68.4126C28.7225 68.1465 29.3027 68.0078 29.8912 68.0078C30.4796 68.0078 31.0598 68.1465 31.5847 68.4126C31.8115 68.5354 32.0044 68.7123 32.1466 68.9274C32.0044 69.1426 31.8115 69.3194 31.5847 69.4422C31.0598 69.7084 30.4796 69.847 29.8912 69.847C29.3027 69.847 28.7225 69.7084 28.1976 69.4422C27.9709 69.3194 27.7779 69.1426 27.6357 68.9274C27.7779 68.7123 27.9709 68.5354 28.1976 68.4126Z" fill="#E0E0E0"/>
<path d="M31.3775 68.9159C31.8569 68.4295 32.2696 67.8817 32.6049 67.2867C33.1699 66.2854 33.2735 64.945 32.9816 64.7755C32.6896 64.606 31.4937 65.9652 31.4937 65.9652C31.6011 65.4027 31.6422 64.8296 31.6161 64.2575C31.569 63.366 31.3493 62.5561 31.095 62.3929C30.8407 62.2297 30.2694 63.3535 30.0246 64.1665C29.7797 64.9795 29.6322 65.6513 29.6322 65.6513C29.5345 65.0131 29.3876 64.3834 29.1927 63.7678C28.8976 62.9234 28.6277 62.7319 28.4174 62.8261C28.207 62.9203 28.0721 63.3064 28.0093 64.4333C27.9883 64.9706 28.0051 65.5087 28.0595 66.0437C28.0595 66.0437 27.642 65.5822 27.1743 65.1333C26.7066 64.6844 26.4429 64.5746 26.2985 64.6687C26.1541 64.7629 26.1101 65.5289 26.9043 66.9634C27.2977 67.6927 27.8018 68.3567 28.3985 68.9316C28.3985 68.9316 29.5035 69.6379 31.3775 68.9159Z" fill="#0E8EC5"/>
<path opacity="0.2" d="M31.3775 68.9159C31.8569 68.4295 32.2696 67.8817 32.6049 67.2867C33.1699 66.2854 33.2735 64.945 32.9816 64.7755C32.6896 64.606 31.4937 65.9652 31.4937 65.9652C31.6011 65.4027 31.6422 64.8296 31.6161 64.2575C31.569 63.366 31.3493 62.5561 31.095 62.3929C30.8407 62.2297 30.2694 63.3535 30.0246 64.1665C29.7797 64.9795 29.6322 65.6513 29.6322 65.6513C29.5345 65.0131 29.3876 64.3834 29.1927 63.7678C28.8976 62.9234 28.6277 62.7319 28.4174 62.8261C28.207 62.9203 28.0721 63.3064 28.0093 64.4333C27.9883 64.9706 28.0051 65.5087 28.0595 66.0437C28.0595 66.0437 27.642 65.5822 27.1743 65.1333C26.7066 64.6844 26.4429 64.5746 26.2985 64.6687C26.1541 64.7629 26.1101 65.5289 26.9043 66.9634C27.2977 67.6927 27.8018 68.3567 28.3985 68.9316C28.3985 68.9316 29.5035 69.6379 31.3775 68.9159Z" fill="#333436"/>
<path d="M166.894 53.3363L165.905 53.9233L128.999 32.5147L129.985 31.9277L166.894 53.3363Z" fill="#FAFAFA"/>
<path d="M129.984 31.9275L165.905 52.7615V25.2067L129.984 4.37891V31.9275Z" fill="white"/>
<path d="M147.918 13.7378V42.451L146.057 41.3743V12.6611L147.918 13.7378Z" fill="#E1E1E1"/>
<path d="M148.85 13.1943L147.918 13.7374V42.4506L148.85 41.9106V13.1943Z" fill="#E0E0E0"/>
<path d="M127.147 33.592L167.783 57.1351V24.134L127.147 0.575195V33.592ZM129.012 3.79903L165.918 25.2076V53.9239L129 32.5153L129.012 3.79903Z" fill="#E1E1E1"/>
<path d="M128.999 32.5151L129.985 31.9281V4.37956L128.999 3.79883V32.5151Z" fill="#E0E0E0"/>
<path d="M127.135 0.574452L128.139 0L168.772 23.5588L167.77 24.1332L127.135 0.574452Z" fill="#FAFAFA"/>
<path d="M168.772 23.5586L167.771 24.133L167.768 57.1467L168.772 56.5754V23.5586Z" fill="#E0E0E0"/>
<path d="M147.919 14.8077L146.061 13.7373V14.8109L147.919 15.8844V14.8077Z" fill="#E0E0E0"/>
<path opacity="0.15" d="M147.918 15.8843L148.847 15.3444L147.918 14.8076V15.8843Z" fill="#333436"/>
<path d="M35.25 39.4058L35.8056 39.7386L47.2507 33.1277L46.6951 32.7949L35.25 39.4058Z" fill="#FAFAFA"/>
<path d="M46.6942 32.7945L35.8047 39.0789V27.6778L46.6942 21.3965V32.7945Z" fill="white"/>
<path d="M48.3063 19.248L34.7549 27.0738V41.5669L48.3063 33.7443V19.248ZM47.2516 33.1291L35.7971 39.7368V27.6796L47.2516 21.0719V33.1291Z" fill="#E1E1E1"/>
<path d="M47.25 33.1285L46.6943 32.7958V21.3978L47.25 21.0713V33.1285Z" fill="#E0E0E0"/>
<path d="M48.3049 19.2503L47.7367 18.9238L34.1885 26.7496L34.7535 27.0729L48.3049 19.2503Z" fill="#FAFAFA"/>
<path d="M34.1885 26.751L34.7535 27.0743V41.5612L34.1885 41.2378V26.751Z" fill="#E0E0E0"/>
<path d="M46.269 32.4564L36.2334 38.2511V35.3538L38.7415 29.559L40.3048 31.0061L39.7429 33.4358L43.2084 26.0244L46.269 29.559V32.4564Z" fill="#E1E1E1"/>
<path d="M40.2096 26.7588C39.9935 26.8999 39.8137 27.09 39.685 27.3136C39.5563 27.5373 39.4822 27.7882 39.4688 28.0459C39.4688 28.5199 39.7827 28.7113 40.2096 28.4728C40.4262 28.3328 40.6066 28.1434 40.7359 27.9203C40.8652 27.6971 40.9398 27.4465 40.9535 27.1889C40.9535 26.7149 40.6208 26.5234 40.2096 26.7588Z" fill="#E1E1E1"/>
<path d="M54.6729 24.6871L55.2316 25.0198L66.6767 18.4089L66.1179 18.0762L54.6729 24.6871Z" fill="#FAFAFA"/>
<path d="M66.1178 18.0775L55.2314 24.365V12.9608L66.1178 6.68262V18.0775Z" fill="white"/>
<path d="M67.7291 4.52539L54.1777 12.3543V26.8411L67.7291 19.0185V4.52539ZM66.6775 18.4033L55.2293 25.0204V12.9601L66.6744 6.36803L66.6775 18.4033Z" fill="#E1E1E1"/>
<path d="M66.6759 18.4097L66.1172 18.077V6.68214L66.6759 6.35254V18.4097Z" fill="#E0E0E0"/>
<path d="M67.7278 4.53154L67.1596 4.20508L53.6113 12.0308L54.1764 12.3541L67.7278 4.53154Z" fill="#FAFAFA"/>
<path d="M53.6113 12.0322L54.1764 12.3556V26.8424L53.6113 26.5191V12.0322Z" fill="#E0E0E0"/>
<path d="M65.694 17.7406L55.6553 23.5353V20.6379L58.1634 14.8432L59.7267 16.2903L59.1648 18.72L62.6303 11.3086L65.694 14.8432V17.7406Z" fill="#E1E1E1"/>
<path d="M59.6314 12.043C59.4159 12.1846 59.2365 12.3748 59.1079 12.5984C58.9792 12.8219 58.9048 13.0725 58.8906 13.33C58.8906 13.804 59.2234 13.9955 59.6314 13.7601C59.8478 13.619 60.0279 13.429 60.1571 13.2054C60.2864 12.9818 60.3611 12.7309 60.3754 12.4731C60.3754 11.9991 60.0427 11.8076 59.6314 12.043Z" fill="#E1E1E1"/>
<path d="M122.376 30.3911C122.225 30.3296 122.055 30.2986 121.883 30.3009H120.775V44.1748L131.662 35.3933C131.759 35.3122 131.831 35.2158 131.871 35.1112C131.912 35.0067 131.922 34.8966 131.899 34.789C131.876 34.6814 131.821 34.579 131.738 34.4893C131.656 34.3996 131.548 34.3249 131.422 34.2706L122.376 30.3911Z" fill="#0E8EC5"/>
<path opacity="0.3" d="M122.376 30.3911C122.225 30.3296 122.055 30.2986 121.883 30.3009H120.775V44.1748L131.662 35.3933C131.759 35.3122 131.831 35.2158 131.871 35.1112C131.912 35.0067 131.922 34.8966 131.899 34.789C131.876 34.6814 131.821 34.579 131.738 34.4893C131.656 34.3996 131.548 34.3249 131.422 34.2706L122.376 30.3911Z" fill="white"/>
<path d="M120.775 44.174L131.662 35.3925C131.8 35.2872 131.891 35.1532 131.926 35.0081C131.96 34.8629 131.935 34.7134 131.854 34.579C131.774 34.4447 131.641 34.3318 131.473 34.2551C131.305 34.1785 131.111 34.1417 130.915 34.1495H120.775L118.24 35.7534L120.775 44.174Z" fill="#0E8EC5"/>
<path d="M120.776 25.9501C120.696 24.8359 120.268 23.7514 119.527 22.7848C118.785 21.8181 117.75 20.9964 116.506 20.3865C115.181 19.8827 113.716 19.6201 112.23 19.6201C110.745 19.6201 109.28 19.8827 107.954 20.3865L45.5943 47.583C44.3489 48.1924 43.3122 49.0137 42.5681 49.9803C41.824 50.9469 41.3935 52.0317 41.3115 53.1466V77.9473C41.3936 79.0636 41.824 80.1497 42.5679 81.1179C43.3119 82.0862 44.3486 82.9093 45.5943 83.5209C46.9199 84.0248 48.3847 84.2873 49.8704 84.2873C51.356 84.2873 52.8208 84.0248 54.1464 83.5209L116.853 56.1039C120.696 54.4598 120.722 52.8058 120.722 50.7608L120.776 25.9501Z" fill="#0E8EC5"/>
<path opacity="0.2" d="M41.3115 77.9479C41.3936 79.0642 41.824 80.1503 42.5679 81.1186C43.3119 82.0868 44.3486 82.9099 45.5943 83.5215C46.7971 83.9813 48.1165 84.2433 49.4646 84.2899C50.8127 84.3366 52.1586 84.1669 53.4126 83.7922C51.398 84.3636 49.877 83.5014 49.877 81.667V56.8563C49.9253 55.7383 50.3524 54.648 51.1178 53.6886L42.5657 49.9795C41.7966 50.9383 41.365 52.0285 41.3115 53.1472V77.9479Z" fill="#333436"/>
<path opacity="0.3" d="M120.641 25.0387C120.134 23.6753 118.48 23.2343 116.505 24.0964L54.1456 51.2929C52.8781 51.8832 51.8385 52.7127 51.1303 53.6988L42.5781 49.9897C43.2942 49.0106 44.3323 48.1857 45.5934 47.5938L107.94 20.3873C109.27 19.8879 110.736 19.6279 112.223 19.6279C113.709 19.6279 115.176 19.8879 116.505 20.3873C117.577 20.9125 118.496 21.5955 119.207 22.3949C119.918 23.1943 120.406 24.0937 120.641 25.0387Z" fill="white"/>
<path d="M63.1657 55.9427C63.7556 55.6679 64.4224 55.4997 65.1136 55.4515C65.6469 55.4175 66.1815 55.5049 66.6479 55.7021C67.0756 55.8873 67.4266 56.1579 67.6619 56.484C67.9008 56.8314 68.0287 57.2158 68.0354 57.6068C68.0382 57.7253 68.0015 57.8424 67.9287 57.9476C67.8859 58.0428 67.8012 58.1241 67.6885 58.1782L65.5138 59.1205C65.464 59.1513 65.4065 59.1744 65.3446 59.1881C65.2827 59.2019 65.2177 59.2062 65.1536 59.2007C65.045 59.189 64.9432 59.1542 64.8601 59.1004C64.8 59.0657 64.7462 59.0252 64.7 58.9801C64.6155 58.912 64.5102 58.8604 64.3931 58.8298C64.2305 58.8029 64.0621 58.8029 63.8995 58.8298C63.6402 58.8667 63.3917 58.938 63.1657 59.0403C62.7471 59.2223 62.369 59.4523 62.0449 59.7219C61.8969 59.8623 61.7756 60.0175 61.6847 60.1831C61.5889 60.3545 61.539 60.5385 61.5379 60.7244C61.5184 60.8718 61.5758 61.0192 61.698 61.1354C61.848 61.2267 62.0397 61.2699 62.2317 61.2557C62.5657 61.25 62.8973 61.213 63.219 61.1454L64.74 60.8447C65.2556 60.7329 65.7913 60.6821 66.3277 60.6943C66.7426 60.7036 67.1417 60.8165 67.4617 61.0151C67.7959 61.2463 68.0325 61.546 68.1422 61.8772C68.3151 62.3538 68.3915 62.8471 68.369 63.3408C68.3721 63.9862 68.2461 64.6282 67.9954 65.2454C67.4675 66.4944 66.553 67.6315 65.327 68.5636C64.7119 69.0191 64.0214 69.4133 63.2724 69.7364C62.651 70.0334 61.9489 70.2218 61.2177 70.2878C60.6671 70.3286 60.1123 70.2522 59.6167 70.0672C59.1657 69.8801 58.8023 69.593 58.576 69.2452C58.3126 68.8536 58.1755 68.4209 58.1758 67.9821C58.1792 67.8642 58.2155 67.748 58.2825 67.6413C58.3295 67.5479 58.4133 67.4675 58.5227 67.4107L60.6974 66.4684C60.8004 66.4085 60.9274 66.3767 61.0576 66.3782C61.1551 66.3913 61.2468 66.4223 61.3245 66.4684L61.5246 66.6288C61.62 66.7134 61.7383 66.7817 61.8715 66.8293C62.051 66.8907 62.249 66.9149 62.4452 66.8995C62.742 66.8749 63.0261 66.7958 63.2724 66.6689C63.8158 66.4419 64.3105 66.1546 64.74 65.8168C65.0975 65.5506 65.3073 65.1923 65.327 64.8144C65.3405 64.7409 65.3278 64.666 65.2903 64.5973C65.2528 64.5287 65.1918 64.4687 65.1136 64.4234C64.9119 64.3584 64.6911 64.3342 64.4732 64.3533C64.0988 64.3837 63.7284 64.4373 63.3658 64.5137L61.7914 64.8144C61.3779 64.9443 60.9237 64.9832 60.4819 64.9264C60.0401 64.8696 59.629 64.7195 59.2965 64.4936C58.6737 63.825 58.394 63.0095 58.5093 62.198C58.5144 61.6185 58.6221 61.042 58.8295 60.4838C59.0469 59.8828 59.3605 59.3038 59.7635 58.7596C60.1741 58.1997 60.6712 57.6782 61.2444 57.2058C61.7918 56.711 62.4403 56.2846 63.1657 55.9427Z" fill="white"/>
<path d="M78.8831 57.0141C78.8831 57.2045 78.8831 57.4451 78.8831 57.7459C78.8831 58.0466 78.8831 58.2972 78.8831 58.4977C78.8559 59.1313 78.7305 59.7605 78.5095 60.3723C78.3017 60.9983 77.9972 61.6038 77.6022 62.1767C77.2231 62.7395 76.7526 63.2648 76.2014 63.7405C75.676 64.1886 75.059 64.571 74.3735 64.8733C73.8221 65.1331 73.1947 65.2879 72.5457 65.3244C72.0612 65.3334 71.5883 65.2126 71.2115 64.9836C70.7916 64.7168 70.4738 64.3708 70.2909 63.9811C70.0626 63.4772 69.941 62.9495 69.9307 62.4173C69.9307 62.2268 69.9307 61.9862 69.9307 61.6855C69.9307 61.3848 69.9307 61.1341 69.9307 60.9337C69.9495 60.3008 70.0659 59.6718 70.2776 59.0591C70.5004 58.4353 70.8089 57.8306 71.1982 57.2547C71.5899 56.692 72.0642 56.1641 72.6124 55.6808C73.1309 55.2247 73.749 54.8382 74.4402 54.538C74.988 54.2739 75.618 54.1218 76.2681 54.0969C76.7788 54.0902 77.2774 54.2139 77.6823 54.4478C78.1045 54.711 78.419 55.0585 78.5896 55.4503C78.7952 55.9569 78.8943 56.4845 78.8831 57.0141ZM72.8525 61.0239C72.8362 61.1961 72.8681 61.3689 72.9462 61.5312C73.0243 61.6935 73.147 61.8417 73.3062 61.9662C73.573 62.1266 73.9332 62.1065 74.3735 61.9662C74.835 61.76 75.2061 61.4568 75.4409 61.094C75.7205 60.6765 75.8754 60.218 75.8945 59.7508C75.8945 59.5503 75.8945 59.3297 75.8945 59.0891C75.9097 58.8754 75.9097 58.6613 75.8945 58.4476C75.9109 58.2754 75.879 58.1026 75.8008 57.9402C75.7227 57.7779 75.6001 57.6297 75.4409 57.5053C75.174 57.3449 74.8138 57.3649 74.3735 57.5554C73.9069 57.7613 73.5347 58.069 73.3062 58.4376C73.0264 58.8515 72.8715 59.3067 72.8525 59.7708C72.8525 59.9713 72.8525 60.1918 72.8525 60.4324C72.8442 60.6263 72.8487 60.8203 72.8659 61.0139L72.8525 61.0239Z" fill="white"/>
<path d="M86.8881 49.2967C86.9333 49.269 86.9898 49.2539 87.0482 49.2539C87.1065 49.2539 87.163 49.269 87.2083 49.2967C87.304 49.3837 87.3518 49.4949 87.3417 49.6075V51.5422C87.3357 51.6879 87.2904 51.8311 87.2083 51.9632C87.1377 52.0797 87.0272 52.1801 86.8881 52.2539L85.3804 52.9055C84.8538 53.1652 84.4331 53.5292 84.1647 53.9574C83.8962 54.3855 83.7906 54.861 83.8594 55.3315V60.043C83.8601 60.1893 83.8143 60.3336 83.726 60.464C83.6636 60.5842 83.5513 60.6861 83.4058 60.7547L81.3245 61.6669C81.2793 61.6946 81.2227 61.7097 81.1644 61.7097C81.1061 61.7097 81.0495 61.6946 81.0043 61.6669C80.9109 61.5791 80.8634 61.4685 80.8709 61.3562V52.4244C80.8768 52.2787 80.9222 52.1354 81.0043 52.0033C81.0748 51.8868 81.1853 51.7865 81.3245 51.7126L83.2457 50.8806C83.2898 50.851 83.3468 50.8346 83.4058 50.8346C83.4649 50.8346 83.5219 50.851 83.5659 50.8806C83.6136 50.9216 83.6499 50.9693 83.6728 51.0209C83.6957 51.0725 83.7047 51.127 83.6994 51.1813V51.6224C83.9497 51.2383 84.2538 50.8754 84.6066 50.5397C84.9753 50.2 85.4284 49.9174 85.9408 49.7077L86.8881 49.2967Z" fill="white"/>
<path d="M94.891 45.8162C94.9362 45.7885 94.9928 45.7734 95.0511 45.7734C95.1094 45.7734 95.166 45.7885 95.2112 45.8162C95.3069 45.9032 95.3547 46.0144 95.3446 46.127V48.0617C95.3387 48.2074 95.2933 48.3507 95.2112 48.4828C95.1407 48.5993 95.0301 48.6996 94.891 48.7735L93.3834 49.4251C92.8568 49.6847 92.436 50.0487 92.1676 50.4769C91.8992 50.905 91.7935 51.3806 91.8624 51.851V56.5625C91.863 56.7088 91.8173 56.8531 91.729 56.9835C91.6665 57.1037 91.5542 57.2057 91.4088 57.2742L89.3274 58.1765C89.2834 58.206 89.2264 58.2224 89.1673 58.2224C89.1083 58.2224 89.0512 58.206 89.0072 58.1765C88.9138 58.0886 88.8663 57.978 88.8738 57.8657V48.9339C88.8797 48.7882 88.9251 48.6449 89.0072 48.5128C89.0778 48.3963 89.1883 48.296 89.3274 48.2221L91.2487 47.3901C91.2927 47.3605 91.3497 47.3441 91.4088 47.3441C91.4678 47.3441 91.5248 47.3605 91.5689 47.3901C91.6165 47.4311 91.6528 47.4788 91.6757 47.5304C91.6986 47.582 91.7076 47.6365 91.7023 47.6908V48.182C91.9526 47.7979 92.2567 47.435 92.6095 47.0994C92.9782 46.7596 93.4313 46.477 93.9437 46.2673L94.891 45.8162Z" fill="white"/>
<path d="M101.389 56.2043C101.35 56.3345 101.297 56.4619 101.229 56.5852C101.163 56.7041 101.052 56.8053 100.909 56.8759L98.7339 57.8182C98.6939 57.8418 98.6446 57.8546 98.5938 57.8546C98.543 57.8546 98.4937 57.8418 98.4537 57.8182C98.4112 57.7815 98.3797 57.7383 98.3613 57.6916C98.3429 57.6449 98.338 57.5958 98.347 57.5476C98.3398 57.501 98.3398 57.4539 98.347 57.4072L99.6011 53.3974L96.2256 45.8189C96.2178 45.779 96.2178 45.7385 96.2256 45.6986C96.2258 45.5663 96.2669 45.4359 96.3457 45.3177C96.4061 45.2134 96.503 45.1234 96.6259 45.057L98.7873 44.1147C98.934 44.1147 99.0274 44.1147 99.1075 44.1147C99.1857 44.1856 99.2447 44.2674 99.2809 44.3553L101.109 48.5355L102.937 42.7614C102.937 42.6411 103.03 42.5208 103.097 42.3805C103.162 42.2617 103.274 42.1604 103.417 42.0898L105.605 41.1475C105.642 41.1199 105.693 41.1045 105.745 41.1045C105.797 41.1045 105.848 41.1199 105.885 41.1475C105.928 41.1844 105.961 41.2273 105.981 41.2738C106.002 41.3202 106.01 41.3693 106.005 41.4181C106.005 41.4783 106.005 41.5184 106.005 41.5685L101.389 56.2043Z" fill="white"/>
<path d="M110.719 44.2851C110.719 44.4314 110.673 44.5757 110.585 44.7061C110.528 44.8256 110.42 44.9277 110.278 44.9968L108.184 45.899C108.142 45.9279 108.087 45.9439 108.03 45.9439C107.973 45.9439 107.919 45.9279 107.877 45.899C107.827 45.8568 107.79 45.8075 107.767 45.754C107.744 45.7006 107.736 45.6442 107.743 45.5883V37.318C107.743 37.1717 107.788 37.0274 107.877 36.897C107.934 36.7775 108.042 36.6754 108.184 36.6063L110.278 35.7041C110.32 35.6752 110.375 35.6592 110.432 35.6592C110.489 35.6592 110.543 35.6752 110.585 35.7041C110.635 35.7441 110.672 35.7916 110.695 35.8435C110.718 35.8954 110.726 35.9504 110.719 36.0048V44.2851ZM110.719 48.4051C110.719 48.5515 110.673 48.6958 110.585 48.8262C110.528 48.9457 110.42 49.0478 110.278 49.1169L108.184 50.0291C108.14 50.056 108.086 50.0707 108.03 50.0707C107.974 50.0707 107.92 50.056 107.877 50.0291C107.827 49.9872 107.789 49.9379 107.766 49.8844C107.743 49.8309 107.735 49.7743 107.743 49.7184V47.7836C107.743 47.6373 107.788 47.493 107.877 47.3626C107.934 47.2431 108.042 47.141 108.184 47.0719L110.278 46.1697C110.32 46.1408 110.375 46.1248 110.432 46.1248C110.489 46.1248 110.543 46.1408 110.585 46.1697C110.635 46.2097 110.672 46.2572 110.695 46.3091C110.718 46.361 110.726 46.416 110.719 46.4704V48.4051Z" fill="white"/>
<path d="M151.947 100.441L153.153 106.424L154.327 107.102L155.488 106.43L156.706 100.441L154.327 99.0693L151.947 100.441Z" fill="#9F9F9F"/>
<path opacity="0.05" d="M151.947 100.441L153.153 106.424L154.327 107.102L155.488 106.43L156.706 100.441L154.327 99.0693L151.947 100.441Z" fill="#333436"/>
<path d="M154.327 107.102V101.815L151.947 100.44L153.153 106.424L154.327 107.102Z" fill="#EBEBEB"/>
<path opacity="0.05" d="M151.947 100.441L152.726 104.305L154.327 105.231L155.918 104.312L156.706 100.441L154.327 99.0693L151.947 100.441Z" fill="#333436"/>
<path d="M162.408 94.4052L163.614 100.388L164.788 101.066L165.949 100.395L167.164 94.4052L164.788 93.0303L162.408 94.4052Z" fill="#9F9F9F"/>
<path opacity="0.05" d="M162.408 94.4052L163.614 100.388L164.788 101.066L165.949 100.395L167.164 94.4052L164.788 93.0303L162.408 94.4052Z" fill="#333436"/>
<path d="M164.788 101.065V95.7761L162.408 94.4043L163.614 100.387L164.788 101.065Z" fill="#EBEBEB"/>
<path opacity="0.05" d="M162.408 94.4052L163.187 98.2694L164.788 99.1923L166.379 98.2725L167.164 94.4052L164.788 93.0303L162.408 94.4052Z" fill="#333436"/>
<path opacity="0.05" d="M121.013 82.5788L122.218 88.5619L123.389 89.2399L124.554 88.5682L125.768 82.5788L123.389 81.207L121.013 82.5788Z" fill="#333436"/>
<path d="M123.389 89.2412V83.9519L121.013 82.5801L122.218 88.5632L123.389 89.2412Z" fill="#EBEBEB"/>
<path opacity="0.05" d="M121.013 82.5788L121.791 86.443L123.389 87.3659L124.984 86.4462L125.768 82.5788L123.389 81.207L121.013 82.5788Z" fill="#333436"/>
<path d="M154.327 104.263L167.288 96.7793V68.7285L154.327 76.2089V104.263Z" fill="#9F9F9F"/>
<path d="M154.327 76.2103L120.337 56.5879V84.6387L154.327 104.264V76.2103Z" fill="#EBEBEB"/>
<path d="M120.337 56.589L154.327 76.2114L167.288 68.731L133.298 49.1055L120.337 56.589Z" fill="#EEEEEE"/>
<path d="M152.476 90.1077L122.19 72.623V82.9192L121.848 83.1139L152.137 100.602L152.476 100.404V90.1077Z" fill="#9F9F9F"/>
<path d="M152.137 90.305L121.848 72.8203V83.1134L152.137 100.601V90.305Z" fill="#EEEEEE"/>
<path d="M137.574 83.8448L135.063 82.3883C134.733 82.2 134.47 82.2879 134.47 82.5829C134.493 82.7651 134.559 82.9391 134.662 83.0912C134.765 83.2433 134.903 83.3692 135.063 83.4587L137.574 84.9121C137.888 85.1005 138.168 85.0157 138.168 84.7206C138.143 84.5387 138.077 84.3649 137.974 84.213C137.871 84.061 137.734 83.935 137.574 83.8448Z" fill="#9F9F9F"/>
<path d="M152.475 77.6771L122.19 60.1924V70.4854L121.851 70.6832L152.136 88.171L152.475 87.9732V77.6771Z" fill="#9F9F9F"/>
<path d="M152.137 77.8745L121.848 60.3867L121.851 70.6829L152.137 88.1707V77.8745Z" fill="#EEEEEE"/>
<path d="M137.574 71.4151L135.063 69.9586C134.749 69.7703 134.47 69.8582 134.47 70.1532C134.494 70.3352 134.56 70.5089 134.663 70.6609C134.766 70.8129 134.903 70.9389 135.063 71.029L137.574 72.4824C137.888 72.6708 138.168 72.586 138.168 72.2909C138.143 72.109 138.077 71.9352 137.974 71.7833C137.871 71.6313 137.734 71.5053 137.574 71.4151Z" fill="#9F9F9F"/>
<path d="M128.957 52.7165C127.388 53.6237 127.388 55.0928 128.957 56C130.527 56.9072 133.076 56.9072 134.649 56C136.221 55.0928 136.218 53.6237 134.649 52.7165C133.079 51.8093 130.53 51.8093 128.957 52.7165Z" fill="#9F9F9F"/>
<path d="M134.307 54.5616C135.675 53.1647 136.479 49.6772 135.142 48.5723H128.352C127.018 49.6772 127.822 53.1616 129.19 54.5585L129.225 54.5993L129.272 54.6432C129.313 54.6809 129.353 54.7186 129.397 54.7531L129.429 54.7782L129.532 54.8567C129.589 54.8988 129.649 54.9366 129.711 54.9697C130.343 55.2912 131.042 55.4587 131.752 55.4587C132.461 55.4587 133.16 55.2912 133.792 54.9697C133.854 54.9354 133.913 54.8977 133.971 54.8567C134.004 54.8344 134.035 54.8103 134.065 54.7845L134.106 54.7531C134.15 54.7186 134.188 54.6809 134.225 54.6464L134.282 54.593L134.307 54.5616Z" fill="#EBEBEB"/>
<path d="M128.942 48.1288C127.392 49.0203 127.392 50.4737 128.942 51.3683C130.493 52.263 133.004 52.263 134.552 51.3683C136.099 50.4737 136.103 49.0203 134.552 48.1288C133.001 47.2373 130.493 47.2341 128.942 48.1288Z" fill="#FAFAFA"/>
<path d="M130.041 48.7618C129.1 49.3049 129.1 50.187 130.041 50.7301C130.57 50.9991 131.155 51.1394 131.749 51.1394C132.342 51.1394 132.928 50.9991 133.457 50.7301C134.398 50.187 134.398 49.3049 133.457 48.7618C132.928 48.4928 132.342 48.3525 131.749 48.3525C131.155 48.3525 130.57 48.4928 130.041 48.7618Z" fill="#EEEEEE"/>
<path d="M133.455 49.6966C132.926 49.428 132.342 49.2881 131.749 49.2881C131.156 49.2881 130.571 49.428 130.043 49.6966C129.814 49.8192 129.62 49.9973 129.478 50.2145C129.621 50.4301 129.815 50.6069 130.043 50.7294C130.571 50.9979 131.156 51.1379 131.749 51.1379C132.342 51.1379 132.926 50.9979 133.455 50.7294C133.683 50.6078 133.878 50.4308 134.02 50.2145C133.879 49.9966 133.684 49.8183 133.455 49.6966Z" fill="#EBEBEB"/>
<path d="M130.249 50.2151C129.767 49.7242 129.352 49.1723 129.015 48.5734C128.444 47.5626 128.34 46.2128 128.635 46.0621C128.93 45.9114 130.129 47.2173 130.129 47.2173C130.02 46.6508 129.978 46.0734 130.004 45.4971C130.054 44.5993 130.271 43.7831 130.528 43.6136C130.785 43.4441 131.36 44.5836 131.608 45.4029C131.856 46.2222 132.003 46.9002 132.003 46.9002C132.101 46.2618 132.249 45.6321 132.446 45.0168C132.744 44.1661 133.014 43.9715 133.224 44.0562C133.435 44.141 133.576 44.5365 133.636 45.6728C133.658 46.2154 133.642 46.7588 133.585 47.2989C133.585 47.2989 134.009 46.8343 134.48 46.3823C134.951 45.9303 135.215 45.8172 135.362 45.9114C135.51 46.0056 135.55 46.7778 134.753 48.2218C134.355 48.9578 133.846 49.6281 133.243 50.2088C133.243 50.2088 132.138 50.9277 130.249 50.2151Z" fill="#9F9F9F"/>
<path d="M152.614 70.1959L152.109 70.4407L142.761 65.0447L143.266 64.7998L152.614 70.1959Z" fill="#FAFAFA"/>
<path d="M143.265 64.7981L152.158 69.9305L153.451 56.6302L144.558 51.501L143.265 64.7981Z" fill="white"/>
<path d="M141.809 65.4856L152.89 71.8737L154.415 56.1783L143.347 49.7871L141.809 65.4856ZM144.1 51.2342L153.451 56.6334L152.108 70.4454L142.76 65.0493L144.1 51.2342Z" fill="#E1E1E1"/>
<path d="M142.761 65.0432L143.266 64.7983L144.559 51.5012L144.104 51.2344L142.761 65.0432Z" fill="#9F9F9F"/>
<path d="M143.334 49.797L143.846 49.5615L154.914 55.9496L154.402 56.1881L143.334 49.797Z" fill="#FAFAFA"/>
<path d="M154.913 55.9502L154.402 56.1888L152.876 71.8747L153.388 71.6393L154.913 55.9502Z" fill="#9F9F9F"/>
<path d="M143.654 64.5477L151.85 69.2783L152.07 67.0401L150.545 60.4575L149.091 62.7019L149.393 64.5948L146.969 57.6104L143.871 62.3064L143.654 64.5477Z" fill="#E1E1E1"/>
<path d="M150.67 57.6852C150.841 57.7915 150.981 57.9408 151.077 58.1182C151.172 58.2955 151.219 58.4947 151.213 58.696C151.176 59.0633 150.877 59.2045 150.542 59.0099C150.371 58.9028 150.231 58.7529 150.135 58.5751C150.04 58.3973 149.993 58.1976 149.998 57.996C150.036 57.6318 150.334 57.4906 150.67 57.6852Z" fill="#E1E1E1"/>
</svg>
