<svg width="210" height="122" viewBox="0 0 210 122" fill="none" xmlns="http://www.w3.org/2000/svg">
<path d="M63.716 110.364C91.2518 124.649 135.893 124.649 163.425 110.364C190.958 96.0802 190.961 72.9193 163.425 58.6351C135.889 44.3508 91.2485 44.3508 63.716 58.6351C36.1835 72.9193 36.1803 96.0802 63.716 110.364Z" fill="#EEEEEE"/>
<path d="M31.7314 33.6222L55.8987 24.8643L37.3064 39.8732L31.7314 33.6222Z" fill="#0E8EC5"/>
<path d="M55.897 24.8657L29.8669 29.8687L24.292 23.6123L55.897 24.8657Z" fill="#0E8EC5"/>
<path d="M29.8682 29.8672V37.3717L31.7311 33.6222L55.8983 24.8643L29.8682 29.8672Z" fill="#455A64"/>
<path d="M29.8682 37.3726L33.5894 35.7085L31.7311 33.623L29.8682 37.3726Z" fill="#0E8EC5"/>
<path d="M31.7314 33.623L33.5898 35.7085L32.9947 35.9699L31.7314 33.623Z" fill="#455A64"/>
<path d="M25.8614 36.2418C25.7845 36.2435 25.7092 36.215 25.6479 36.1609C25.5865 36.1067 25.5425 36.0301 25.523 35.9434C25.5034 35.8566 25.5095 35.7647 25.5401 35.6825C25.5708 35.6002 25.6243 35.5323 25.6921 35.4898C26.104 35.2231 26.5205 34.9564 26.9325 34.7484C26.9733 34.7226 27.0182 34.7068 27.0645 34.7019C27.1107 34.6969 27.1574 34.703 27.2015 34.7196C27.2457 34.7363 27.2865 34.7633 27.3215 34.7988C27.3565 34.8344 27.385 34.8779 27.4051 34.9267C27.4253 34.9754 27.4367 35.0285 27.4387 35.0825C27.4408 35.1366 27.4334 35.1906 27.417 35.2412C27.4007 35.2919 27.3757 35.3381 27.3435 35.3772C27.3113 35.4162 27.2727 35.4473 27.23 35.4684C26.8318 35.6924 26.4244 35.9325 26.0262 36.1938C25.9753 36.2246 25.9188 36.2411 25.8614 36.2418Z" fill="#E0E0E0"/>
<path d="M21.6376 79.3164C21.5674 79.3173 21.4987 79.2931 21.4407 79.2471C20.6963 78.6356 19.9911 77.9618 19.3307 77.2309C19.2888 77.1993 19.2534 77.1574 19.2269 77.1081C19.2003 77.0589 19.1833 77.0035 19.177 76.9458C19.1707 76.8881 19.1753 76.8295 19.1904 76.7741C19.2056 76.7187 19.2309 76.6678 19.2646 76.625C19.2984 76.5821 19.3397 76.5484 19.3858 76.526C19.4318 76.5037 19.4815 76.4934 19.5314 76.4957C19.5813 76.498 19.6301 76.513 19.6745 76.5396C19.7188 76.5662 19.7577 76.6037 19.7884 76.6496C20.4254 77.3542 21.1062 78.0032 21.8252 78.591C21.8845 78.6404 21.9287 78.7105 21.9515 78.7911C21.9743 78.8718 21.9745 78.9588 21.9521 79.0395C21.9297 79.1203 21.8858 79.1907 21.8268 79.2404C21.7678 79.2902 21.6967 79.3168 21.6238 79.3164H21.6376ZM18.0491 75.4335C17.9984 75.4342 17.9482 75.4216 17.9023 75.3967C17.8564 75.3717 17.8158 75.3351 17.7836 75.2895C17.2069 74.4692 16.6822 73.6011 16.2137 72.692C16.1663 72.6007 16.152 72.4913 16.1739 72.3878C16.1958 72.2843 16.2521 72.1951 16.3304 72.1399C16.4087 72.0848 16.5026 72.0681 16.5914 72.0936C16.6803 72.1191 16.7568 72.1847 16.8041 72.276C17.2554 73.1527 17.7602 73.9904 18.3146 74.7828C18.3717 74.8644 18.399 74.9689 18.3904 75.0738C18.3819 75.1786 18.3381 75.2753 18.2688 75.3428C18.2075 75.4032 18.1294 75.4355 18.0491 75.4335ZM15.4722 70.5799C15.4057 70.5806 15.3404 70.5588 15.2844 70.5171C15.2283 70.4755 15.1838 70.4157 15.1563 70.3452C14.7823 69.3796 14.4613 68.3873 14.1951 67.3743C14.1756 67.2758 14.1888 67.1722 14.2322 67.0846C14.2755 66.997 14.3457 66.9317 14.4287 66.902C14.5116 66.8722 14.6012 66.8802 14.6793 66.9243C14.7574 66.9684 14.8183 67.0453 14.8497 67.1396C15.1027 68.1194 15.4084 69.0795 15.7651 70.0145C15.7843 70.0624 15.7951 70.1143 15.797 70.1671C15.7988 70.22 15.7917 70.2727 15.7759 70.3223C15.7602 70.3719 15.7361 70.4174 15.7052 70.4561C15.6743 70.4948 15.6371 70.526 15.5957 70.5478C15.5568 70.568 15.5148 70.5789 15.4722 70.5799ZM13.9846 65.1342C13.9052 65.1333 13.8285 65.1004 13.7676 65.0411C13.7067 64.9818 13.6653 64.8997 13.6505 64.8088C13.4757 63.7725 13.352 62.7254 13.2797 61.6726C13.2724 61.5665 13.3016 61.4614 13.3608 61.3804C13.4201 61.2994 13.5045 61.2491 13.5955 61.2406C13.6866 61.2321 13.7768 61.2661 13.8463 61.3351C13.9159 61.4041 13.959 61.5025 13.9663 61.6086C14.0336 62.6311 14.1528 63.6481 14.3233 64.6541C14.3326 64.7057 14.333 64.7589 14.3243 64.8105C14.3157 64.8622 14.2983 64.9114 14.2732 64.9551C14.248 64.9989 14.2156 65.0363 14.1778 65.0652C14.14 65.0941 14.0977 65.1139 14.0533 65.1235L13.9846 65.1342ZM13.5498 59.4378C13.5045 59.4378 13.4597 59.4273 13.418 59.4068C13.3763 59.3863 13.3385 59.3562 13.307 59.3185C13.2754 59.2807 13.2506 59.2359 13.2342 59.1868C13.2177 59.1376 13.2098 59.0852 13.2111 59.0324C13.2218 57.9768 13.2829 56.9226 13.3941 55.8749C13.3947 55.8187 13.4054 55.7632 13.4255 55.7121C13.4457 55.661 13.4749 55.6154 13.5112 55.5784C13.5475 55.5413 13.5901 55.5136 13.6362 55.497C13.6823 55.4804 13.7309 55.4754 13.7789 55.4821C13.8268 55.4889 13.8729 55.5074 13.9143 55.5364C13.9556 55.5654 13.9913 55.6042 14.0189 55.6503C14.0465 55.6964 14.0655 55.7488 14.0746 55.8041C14.0837 55.8593 14.0826 55.9162 14.0716 55.9709C13.9657 56.9905 13.9077 58.0161 13.8976 59.0431C13.897 59.0956 13.8876 59.1475 13.8698 59.1958C13.852 59.2441 13.8262 59.2878 13.7939 59.3244C13.7616 59.3611 13.7234 59.3899 13.6815 59.4094C13.6396 59.4289 13.5949 59.4385 13.5498 59.4378ZM14.1082 53.7574C14.0824 53.7626 14.0561 53.7626 14.0304 53.7574C13.9419 53.7345 13.8648 53.6717 13.816 53.5827C13.7671 53.4938 13.7504 53.386 13.7695 53.2827C13.97 52.2496 14.2269 51.2323 14.5384 50.2372C14.5536 50.1853 14.5778 50.1375 14.6094 50.097C14.6411 50.0564 14.6796 50.0238 14.7225 50.0013C14.7655 49.9788 14.8119 49.9668 14.859 49.9661C14.906 49.9654 14.9527 49.976 14.9961 49.9972C15.0403 50.0155 15.0808 50.044 15.1153 50.0811C15.1498 50.1181 15.1774 50.1629 15.1967 50.2127C15.2159 50.2625 15.2263 50.3164 15.2272 50.371C15.2282 50.4256 15.2196 50.4799 15.2021 50.5306C14.9018 51.4927 14.6541 52.4761 14.4606 53.4747C14.438 53.5614 14.3908 53.6365 14.3268 53.6879C14.2628 53.7392 14.1857 53.7638 14.1082 53.7574ZM15.7376 48.3704C15.6849 48.3728 15.6326 48.3581 15.5866 48.3278C15.5456 48.3055 15.5089 48.2739 15.4786 48.2349C15.4483 48.1958 15.4249 48.1501 15.41 48.1004C15.3951 48.0507 15.3888 47.998 15.3917 47.9455C15.3945 47.8929 15.4063 47.8415 15.4264 47.7944C15.8259 46.8439 16.2753 45.9229 16.7721 45.0369C16.8221 44.9542 16.8971 44.8968 16.982 44.876C17.0669 44.8552 17.1555 44.8727 17.2298 44.9249C17.3023 44.9815 17.3533 45.0686 17.3721 45.168C17.3908 45.2674 17.3759 45.3713 17.3305 45.4582C16.8476 46.3141 16.4119 47.2048 16.026 48.1251C16.0023 48.1932 15.9628 48.2523 15.9118 48.2956C15.8609 48.339 15.8005 48.3649 15.7376 48.3704ZM18.3695 43.5701C18.2929 43.571 18.2185 43.5409 18.1589 43.4848C18.1233 43.452 18.0935 43.4114 18.0714 43.3651C18.0493 43.3189 18.0353 43.268 18.0302 43.2154C18.0251 43.1629 18.029 43.1096 18.0416 43.0588C18.0543 43.008 18.0755 42.9606 18.104 42.9194C18.676 42.096 19.2872 41.3107 19.9349 40.5672C19.9992 40.4923 20.0865 40.4503 20.1774 40.4503C20.2684 40.4503 20.3557 40.4923 20.42 40.5672C20.4843 40.6423 20.5204 40.7439 20.5204 40.8499C20.5204 40.9559 20.4843 41.0576 20.42 41.1326C19.7963 41.8578 19.2065 42.6216 18.6533 43.4208C18.6178 43.4664 18.5737 43.5018 18.5244 43.524C18.4751 43.5462 18.4221 43.5547 18.3695 43.5488V43.5701ZM21.8115 39.4738C21.7616 39.4737 21.7123 39.4607 21.6672 39.4359C21.6221 39.411 21.5823 39.3748 21.5506 39.3298C21.4926 39.2481 21.4644 39.143 21.4721 39.0373C21.4798 38.9316 21.5228 38.8337 21.5918 38.7645C22.2886 38.0893 23.0142 37.4555 23.7659 36.8657C23.8397 36.8129 23.9279 36.7946 24.0127 36.8144C24.0976 36.8342 24.1729 36.8906 24.2236 36.9723C24.2747 37.0609 24.2938 37.1694 24.2766 37.2743C24.2595 37.3791 24.2075 37.4719 24.1321 37.5324C23.3987 38.1062 22.6914 38.724 22.0129 39.3832C21.9554 39.4369 21.885 39.4686 21.8115 39.4738Z" fill="#E0E0E0"/>
<path d="M24.7863 81.4022C24.7372 81.4026 24.6886 81.3898 24.6444 81.3648C24.2187 81.1408 23.7976 80.9008 23.3949 80.6448C23.3555 80.6206 23.3206 80.5877 23.2921 80.5478C23.2637 80.5079 23.2422 80.4619 23.2291 80.4124C23.2159 80.3628 23.2112 80.3108 23.2153 80.2591C23.2194 80.2075 23.2322 80.1573 23.253 80.1114C23.2957 80.0198 23.3675 79.9512 23.453 79.9203C23.5385 79.8894 23.6309 79.8987 23.7107 79.9461C24.1043 80.1914 24.5117 80.4261 24.9236 80.6448C24.9943 80.6831 25.0516 80.7482 25.0863 80.8296C25.1209 80.9109 25.1308 81.0035 25.1143 81.0922C25.0978 81.181 25.0559 81.2605 24.9954 81.3178C24.935 81.3751 24.8596 81.4067 24.7817 81.4075L24.7863 81.4022Z" fill="#E0E0E0"/>
<path d="M181.346 62.0452L200.707 47.6016L209.234 50.7911L181.346 62.0452Z" fill="#0E8EC5"/>
<path d="M181.346 62.0452L198.08 45.7881L194.358 40.7852L181.346 62.0452Z" fill="#0E8EC5"/>
<path d="M198.08 45.7881V49.559L181.346 62.0451L198.08 45.7881Z" fill="#455A64"/>
<path d="M201.858 44.2159C201.775 44.2163 201.695 44.1801 201.634 44.1146C201.566 44.0439 201.525 43.9451 201.519 43.8395C201.513 43.7338 201.543 43.6296 201.602 43.5492C202.198 42.7744 202.727 41.9329 203.181 41.037C203.227 40.9451 203.303 40.8782 203.391 40.8512C203.479 40.8242 203.573 40.8393 203.652 40.893C203.731 40.9468 203.789 41.0348 203.812 41.1379C203.835 41.2409 203.822 41.3504 203.776 41.4424C203.297 42.3816 202.742 43.2656 202.119 44.0826C202.086 44.1252 202.046 44.1592 202.001 44.1822C201.956 44.2053 201.907 44.2167 201.858 44.2159ZM204.476 39.2449C204.435 39.2525 204.394 39.2525 204.353 39.2449C204.309 39.2256 204.27 39.1963 204.236 39.1587C204.203 39.1211 204.177 39.076 204.159 39.0261C204.141 38.9763 204.132 38.9227 204.132 38.8686C204.132 38.8146 204.142 38.7611 204.16 38.7115C204.484 37.74 204.726 36.7344 204.884 35.7087C204.9 35.604 204.951 35.5112 205.026 35.4507C205.102 35.3902 205.194 35.3669 205.284 35.386C205.374 35.4051 205.454 35.465 205.505 35.5525C205.557 35.64 205.577 35.748 205.561 35.8527C205.392 36.9275 205.136 37.9812 204.797 38.9996C204.771 39.0734 204.726 39.1363 204.669 39.1801C204.612 39.2239 204.545 39.2465 204.476 39.2449ZM205.456 33.5219C205.411 33.5212 205.367 33.5101 205.325 33.4893C205.284 33.4685 205.247 33.4383 205.216 33.4006C205.185 33.3629 205.16 33.3184 205.144 33.2696C205.128 33.2208 205.12 33.1688 205.122 33.1165C205.122 32.9778 205.122 32.8392 205.122 32.7005C205.12 31.795 205.058 30.891 204.938 29.9963C204.925 29.8911 204.948 29.784 205.002 29.6982C205.056 29.6124 205.137 29.5547 205.227 29.5376C205.317 29.5236 205.408 29.5508 205.482 29.6134C205.555 29.676 205.605 29.7693 205.62 29.8736C205.744 30.809 205.807 31.754 205.808 32.7005C205.808 32.8445 205.808 32.9885 205.808 33.1325C205.805 33.2382 205.766 33.338 205.7 33.4107C205.634 33.4835 205.546 33.5233 205.456 33.5219ZM204.765 27.7402C204.691 27.7399 204.619 27.7116 204.561 27.6596C204.502 27.6076 204.46 27.5348 204.44 27.4521C204.177 26.4514 203.848 25.4759 203.456 24.5346C203.435 24.4875 203.424 24.4361 203.421 24.3835C203.418 24.331 203.424 24.2783 203.439 24.2286C203.454 24.1789 203.477 24.1332 203.508 24.0941C203.538 24.0551 203.575 24.0235 203.616 24.0013C203.698 23.9554 203.792 23.9493 203.878 23.9843C203.964 24.0193 204.034 24.0925 204.073 24.1879C204.483 25.1661 204.824 26.181 205.094 27.2228C205.107 27.2729 205.112 27.3255 205.108 27.3777C205.103 27.4299 205.09 27.4806 205.069 27.5267C205.048 27.5729 205.019 27.6137 204.984 27.6467C204.949 27.6797 204.908 27.7042 204.865 27.7188C204.833 27.7336 204.799 27.7409 204.765 27.7402ZM202.641 22.4438C202.583 22.4444 202.526 22.4276 202.475 22.3948C202.425 22.3621 202.383 22.3147 202.352 22.2571C201.862 21.3794 201.322 20.5402 200.737 19.745C200.707 19.7051 200.685 19.6588 200.67 19.6088C200.656 19.5588 200.651 19.506 200.654 19.4534C200.658 19.4009 200.67 19.3497 200.69 19.3027C200.711 19.2557 200.739 19.2139 200.773 19.1796C200.807 19.1453 200.846 19.1192 200.889 19.1028C200.932 19.0864 200.977 19.08 201.021 19.0839C201.066 19.0879 201.11 19.1022 201.149 19.1259C201.189 19.1497 201.225 19.1824 201.254 19.2223C201.861 20.0454 202.421 20.915 202.929 21.8251C202.971 21.913 202.984 22.0158 202.966 22.1141C202.947 22.2125 202.898 22.2994 202.828 22.3585C202.774 22.4054 202.709 22.4332 202.641 22.4385V22.4438ZM199.437 17.9582C199.349 17.9579 199.266 17.9177 199.203 17.8462C198.544 17.1274 197.852 16.4508 197.13 15.8194C197.094 15.7879 197.063 15.7484 197.04 15.7032C197.018 15.658 197.002 15.608 196.996 15.5559C196.99 15.5039 196.992 15.451 197.003 15.4001C197.015 15.3492 197.034 15.3014 197.061 15.2594C197.088 15.2173 197.122 15.1819 197.161 15.1552C197.2 15.1284 197.243 15.1108 197.287 15.1034C197.332 15.0959 197.377 15.0988 197.421 15.1119C197.465 15.1249 197.506 15.1478 197.542 15.1794C198.286 15.8273 198.998 16.5236 199.675 17.2648C199.726 17.3198 199.761 17.3915 199.776 17.4704C199.792 17.5493 199.786 17.6317 199.76 17.7068C199.734 17.7819 199.69 17.8461 199.632 17.891C199.574 17.9359 199.506 17.9593 199.437 17.9582ZM195.423 14.406C195.358 14.4053 195.294 14.3831 195.24 14.342C194.928 14.118 194.603 13.8939 194.274 13.6753C193.816 13.3766 193.358 13.0779 192.873 12.7952C192.829 12.7745 192.789 12.7433 192.755 12.7035C192.722 12.6637 192.696 12.6163 192.679 12.5642C192.663 12.5122 192.655 12.4566 192.658 12.4011C192.661 12.3456 192.674 12.2913 192.695 12.2418C192.717 12.1923 192.747 12.1486 192.784 12.1135C192.821 12.0784 192.864 12.0527 192.91 12.0381C192.956 12.0234 193.005 12.0201 193.052 12.0283C193.099 12.0365 193.144 12.0561 193.184 12.0858C193.665 12.3738 194.146 12.6725 194.613 12.9819C194.951 13.2006 195.281 13.4299 195.601 13.6646C195.675 13.7196 195.728 13.8055 195.749 13.9047C195.771 14.0039 195.759 14.1089 195.716 14.198C195.686 14.2588 195.644 14.3099 195.592 14.3463C195.541 14.3827 195.483 14.4032 195.423 14.406ZM154.389 14.134C154.328 14.1332 154.269 14.1141 154.217 14.0786C154.165 14.043 154.121 13.9923 154.091 13.9313C154.048 13.8412 154.036 13.7349 154.06 13.6352C154.083 13.5355 154.138 13.4503 154.215 13.3979C155.011 12.8645 155.831 12.3312 156.659 11.8831C156.74 11.8369 156.834 11.83 156.92 11.864C157.006 11.898 157.076 11.97 157.117 12.0645C157.155 12.1602 157.159 12.2695 157.129 12.3691C157.1 12.4687 157.038 12.5507 156.956 12.5979C156.142 13.0619 155.336 13.5579 154.553 14.086C154.502 14.115 154.446 14.1279 154.389 14.1233V14.134ZM190.96 11.6965C190.912 11.6968 190.865 11.684 190.823 11.6591C189.999 11.2378 189.147 10.8431 188.296 10.4911C188.21 10.455 188.14 10.3805 188.1 10.284C188.061 10.1874 188.057 10.0768 188.088 9.97635C188.119 9.87592 188.183 9.79392 188.266 9.74841C188.348 9.7029 188.443 9.6976 188.53 9.73367C189.395 10.0964 190.26 10.4964 191.102 10.9284C191.175 10.9648 191.236 11.0299 191.272 11.1124C191.309 11.1949 191.32 11.2898 191.303 11.3807C191.286 11.4716 191.243 11.5529 191.18 11.6105C191.118 11.6681 191.04 11.6985 190.96 11.6965ZM158.897 11.5311C158.83 11.5317 158.763 11.5086 158.707 11.4648C158.651 11.4211 158.607 11.3587 158.581 11.2858C158.563 11.2369 158.552 11.184 158.552 11.1305C158.551 11.0769 158.559 11.0237 158.576 10.9739C158.593 10.9242 158.619 10.8789 158.651 10.8409C158.683 10.8028 158.722 10.7727 158.764 10.7524C159.611 10.3364 160.481 9.95235 161.351 9.60566C161.394 9.58456 161.441 9.57422 161.489 9.57527C161.536 9.57633 161.582 9.58877 161.625 9.61181C161.668 9.63484 161.707 9.66798 161.738 9.70915C161.77 9.75031 161.794 9.79861 161.808 9.85101C161.825 9.90243 161.833 9.95722 161.831 10.0121C161.829 10.067 161.818 10.121 161.797 10.1707C161.777 10.2204 161.749 10.265 161.714 10.3017C161.679 10.3384 161.638 10.3665 161.593 10.3844C160.737 10.7257 159.877 11.1044 159.048 11.5098C158.999 11.5257 158.948 11.5293 158.897 11.5204V11.5311ZM186.236 9.68567C186.204 9.69085 186.172 9.69085 186.14 9.68567C185.275 9.39232 184.387 9.1523 183.504 8.90162C183.46 8.89041 183.418 8.86917 183.381 8.83912C183.344 8.80906 183.312 8.77078 183.287 8.72645C183.263 8.68212 183.246 8.63262 183.238 8.58077C183.23 8.52892 183.231 8.47574 183.241 8.42425C183.25 8.37277 183.268 8.324 183.294 8.28073C183.32 8.23745 183.353 8.20052 183.391 8.17204C183.429 8.14357 183.471 8.1241 183.516 8.11475C183.56 8.1054 183.606 8.10636 183.65 8.11756C184.566 8.34691 185.454 8.61893 186.332 8.91762C186.412 8.94458 186.48 9.00398 186.525 9.08492C186.57 9.16585 186.588 9.26289 186.576 9.35821C186.565 9.45354 186.524 9.54075 186.461 9.60384C186.399 9.66693 186.319 9.70167 186.236 9.70167V9.68567ZM163.648 9.60566C163.573 9.60533 163.501 9.57649 163.441 9.52353C163.382 9.47057 163.339 9.39639 163.319 9.31231C163.306 9.26223 163.302 9.20974 163.307 9.15789C163.312 9.10604 163.326 9.05584 163.348 9.01021C163.369 8.96458 163.399 8.92442 163.434 8.89205C163.469 8.85967 163.509 8.83573 163.552 8.82161C164.436 8.53359 165.342 8.28824 166.243 8.05356C166.289 8.03657 166.337 8.03092 166.385 8.03698C166.433 8.04304 166.479 8.06069 166.52 8.08876C166.562 8.11684 166.598 8.15473 166.626 8.2C166.654 8.24526 166.674 8.29689 166.684 8.35156C166.694 8.40624 166.694 8.46273 166.684 8.51742C166.674 8.5721 166.654 8.62375 166.626 8.66904C166.598 8.71433 166.562 8.75226 166.521 8.78037C166.479 8.80849 166.433 8.82617 166.385 8.83228C165.497 9.05096 164.609 9.30698 163.74 9.58966L163.648 9.60566ZM181.33 8.40025H181.261C180.368 8.23491 179.458 8.10156 178.561 8.00556C178.513 8.00496 178.467 7.99298 178.423 7.97038C178.38 7.94778 178.342 7.91504 178.31 7.87423C178.278 7.83341 178.254 7.78539 178.239 7.73317C178.224 7.68096 178.218 7.62567 178.222 7.57078C178.226 7.5159 178.24 7.46259 178.263 7.41421C178.285 7.36583 178.316 7.32341 178.354 7.28962C178.391 7.25582 178.434 7.23138 178.48 7.21783C178.526 7.20427 178.573 7.20189 178.62 7.21084C179.535 7.30685 180.451 7.44019 181.366 7.61087C181.456 7.62918 181.535 7.68736 181.588 7.77303C181.641 7.8587 181.663 7.96509 181.65 8.06956C181.634 8.15588 181.594 8.23356 181.536 8.29048C181.478 8.34741 181.405 8.38038 181.33 8.38425V8.40025ZM168.564 8.36291C168.483 8.36287 168.404 8.32904 168.342 8.26748C168.28 8.20592 168.238 8.12064 168.225 8.02689C168.212 7.92164 168.235 7.81456 168.289 7.72875C168.343 7.64294 168.424 7.58527 168.514 7.5682C169.429 7.40819 170.345 7.27484 171.26 7.18417C171.305 7.17962 171.35 7.18546 171.394 7.20136C171.437 7.21725 171.477 7.24289 171.511 7.27682C171.546 7.31075 171.575 7.35229 171.596 7.39909C171.616 7.44588 171.629 7.49699 171.633 7.54953C171.637 7.60206 171.632 7.65497 171.618 7.70525C171.605 7.75553 171.583 7.80218 171.554 7.84254C171.524 7.88291 171.489 7.9162 171.449 7.94051C171.408 7.96482 171.365 7.97967 171.32 7.98422C170.404 8.0749 169.512 8.19757 168.619 8.36291H168.564ZM176.322 7.82955C175.407 7.79221 174.491 7.78688 173.599 7.82955C173.554 7.83243 173.509 7.82467 173.466 7.80673C173.424 7.78879 173.385 7.76105 173.352 7.72517C173.319 7.68929 173.293 7.64602 173.275 7.59796C173.257 7.5499 173.247 7.49805 173.246 7.44552C173.245 7.3928 173.252 7.34019 173.268 7.2908C173.284 7.2414 173.308 7.19622 173.339 7.15794C173.37 7.11965 173.408 7.08903 173.449 7.06788C173.491 7.04674 173.535 7.0355 173.581 7.03483C174.496 6.99749 175.411 7.00283 176.327 7.03483C176.372 7.03621 176.416 7.04793 176.458 7.06932C176.499 7.09072 176.536 7.12136 176.567 7.1595C176.598 7.19764 176.622 7.24253 176.638 7.2916C176.655 7.34068 176.662 7.39298 176.661 7.44552C176.654 7.54557 176.616 7.63914 176.553 7.70811C176.491 7.77708 176.408 7.81655 176.322 7.81888V7.82955Z" fill="#E0E0E0"/>
<path d="M179.719 63.9769V63.1235H179.511C179.194 62.5454 178.713 62.0741 178.129 61.7687C176.938 61.1639 175.62 60.8486 174.284 60.8486C172.947 60.8486 171.63 61.1639 170.438 61.7687C169.854 62.0741 169.373 62.5454 169.057 63.1235H168.849V63.9502C168.849 64.7662 169.382 65.5876 170.449 66.2117C171.641 66.8136 172.958 67.1272 174.294 67.1272C175.63 67.1272 176.947 66.8136 178.14 66.2117C179.196 65.609 179.724 64.7876 179.719 63.9769Z" fill="#37474F"/>
<path d="M174.284 66.2645C177.285 66.2645 179.719 64.858 179.719 63.123C179.719 61.388 177.285 59.9814 174.284 59.9814C171.282 59.9814 168.849 61.388 168.849 63.123C168.849 64.858 171.282 66.2645 174.284 66.2645Z" fill="#455A64"/>
<path d="M172.886 36.9678V62.7561C172.897 62.8785 172.941 62.9957 173.012 63.0959C173.083 63.1961 173.179 63.2757 173.291 63.3268C173.598 63.482 173.937 63.5628 174.28 63.5628C174.624 63.5628 174.963 63.482 175.27 63.3268C175.383 63.2769 175.481 63.1977 175.553 63.0974C175.625 62.997 175.669 62.8792 175.681 62.7561V36.9678H172.886Z" fill="#37474F"/>
<path d="M180.55 17.6647C179.19 16.8806 177.953 16.8166 177.025 17.334L159.749 27.3186L168.416 44.7011L185.751 34.6738V27.0679C185.751 23.5317 183.42 19.3234 180.55 17.6647Z" fill="#455A64"/>
<path d="M168.417 37.0899V44.7011L158.021 38.6953V31.0895C158.021 27.5533 160.347 26.0332 163.216 27.692C165.057 28.7587 166.673 30.8602 167.595 33.1643C168.112 34.4102 168.39 35.7416 168.417 37.0899Z" fill="#37474F"/>
<path d="M168.417 37.0906V44.7018L158.021 38.6961L167.595 33.165C168.112 34.4109 168.39 35.7423 168.417 37.0906Z" fill="#263238"/>
<path d="M166.683 39.6993C165.728 36.9364 162.624 33.3522 159.749 31.6988C156.874 30.0453 155.327 30.9361 156.282 33.6989L158.015 38.7019L168.416 44.7076C168.416 44.7076 167.643 42.4621 166.683 39.6993Z" fill="#455A64"/>
<path d="M173.836 37.3778L173.254 37.0418C173.129 36.9845 172.992 36.9611 172.855 36.9743C172.718 36.9874 172.587 37.0364 172.476 37.1165C172.154 37.3267 171.887 37.6096 171.695 37.9422C171.503 38.2748 171.392 38.6479 171.371 39.0313C171.357 39.1686 171.379 39.3073 171.437 39.433C171.494 39.5587 171.584 39.6667 171.697 39.746L172.23 40.0553L172.332 39.89C172.442 39.8661 172.548 39.8247 172.646 39.7673C172.967 39.5582 173.235 39.2764 173.427 38.9446C173.618 38.6128 173.729 38.2405 173.75 37.8579C173.75 37.7624 173.737 37.6675 173.713 37.5752L173.836 37.3778Z" fill="#263238"/>
<path d="M173.03 37.4423C172.709 37.6514 172.441 37.9333 172.249 38.265C172.058 38.5968 171.947 38.9691 171.926 39.3518C171.926 40.0558 172.422 40.3385 173.03 39.9865C173.351 39.7778 173.619 39.496 173.811 39.1641C174.003 38.8323 174.113 38.4598 174.134 38.0771C174.15 37.373 173.617 37.0903 173.03 37.4423Z" fill="#37474F"/>
<path d="M173.03 39.0145C172.988 39.0145 172.946 39.0062 172.908 38.9902C172.869 38.9741 172.833 38.9505 172.804 38.9208C172.774 38.8911 172.75 38.8558 172.734 38.817C172.718 38.7781 172.71 38.7365 172.71 38.6945V27.6911C172.71 27.6062 172.744 27.5248 172.804 27.4648C172.864 27.4048 172.945 27.3711 173.03 27.3711C173.115 27.3711 173.196 27.4048 173.256 27.4648C173.316 27.5248 173.35 27.6062 173.35 27.6911V38.6945C173.35 38.7794 173.316 38.8608 173.256 38.9208C173.196 38.9808 173.115 39.0145 173.03 39.0145Z" fill="#263238"/>
<path d="M173.318 27.9804V30.8499L176.396 27.6924L173.318 27.9804Z" fill="#37474F"/>
<path d="M41.1797 105.107C40.913 105.251 36.0167 106.638 34.2033 104.243C32.3898 101.848 35.4033 98.1146 33.7019 96.7385C32.0005 95.3624 27.2322 96.7385 26.0854 93.8476C24.9387 90.9568 28.3362 89.7087 26.4268 86.7912C25.2214 84.9511 21.8505 83.9377 22.0052 82.2256C22.2292 79.7241 26.8375 79.0253 30.8591 81.7295C34.8806 84.4337 36.7581 82.2149 38.0329 82.0335C39.3076 81.8522 42.0598 82.2522 41.9744 86.7325C41.8891 91.2128 41.1797 105.107 41.1797 105.107Z" fill="#0E8EC5"/>
<path d="M16.9093 108.51C16.8456 108.51 16.7841 108.488 16.7354 108.447C16.6866 108.406 16.6538 108.349 16.6426 108.286C15.2398 99.7525 5.35651 92.856 0.214846 91.3733C0.18083 91.3641 0.14902 91.3482 0.121324 91.3264C0.0936277 91.3046 0.070619 91.2775 0.0536801 91.2466C0.0367412 91.2157 0.0262213 91.1817 0.0227537 91.1467C0.019286 91.1116 0.0229414 91.0762 0.0335006 91.0426C0.0533047 90.9747 0.099272 90.9174 0.161288 90.8834C0.223304 90.8494 0.296288 90.8414 0.364188 90.8613C5.61786 92.3814 15.7305 99.4698 17.1706 108.201C17.1814 108.27 17.1645 108.341 17.1236 108.398C17.0827 108.455 17.021 108.493 16.9519 108.505L16.9093 108.51Z" fill="white"/>
<path d="M5.24976 101.37C5.19111 101.37 5.1339 101.352 5.08699 101.316C5.04009 101.281 5.00611 101.231 4.99032 101.175C4.97452 101.118 4.9778 101.058 4.99963 101.004C5.02146 100.949 5.06064 100.904 5.11109 100.874C5.2711 100.778 9.07934 98.5536 12.8236 99.5937C12.8943 99.6121 12.9548 99.6578 12.9918 99.7208C13.0289 99.7839 13.0393 99.859 13.0209 99.9297C13.0025 100 12.9568 100.061 12.8938 100.098C12.8308 100.135 12.7556 100.145 12.6849 100.127C9.15401 99.1457 5.42044 101.327 5.38311 101.348C5.34162 101.368 5.29534 101.376 5.24976 101.37Z" fill="white"/>
<path d="M154.808 69.081C156.876 69.5552 160.549 68.6631 161.116 65.201C161.683 61.7389 163.207 60.9222 165.898 60.5901C168.589 60.2581 169.447 59.4085 169.898 57.7781C170.35 56.1477 168.519 53.9864 169.306 51.54C170.092 49.0936 171.972 49.2672 174.074 46.6118C175.421 44.9011 173.241 41.9106 169.092 42.7386C164.943 43.5667 165.033 46.2041 160.961 46.1768C156.888 46.1496 154.134 48.3771 153.781 51.4246C153.428 54.4721 154.808 69.081 154.808 69.081Z" fill="#0E8EC5"/>
<path opacity="0.2" d="M154.475 68.8559C156.53 69.3828 160.224 68.5848 160.88 65.1383C161.535 61.6918 163.079 60.9143 165.778 60.651C168.477 60.3878 169.356 59.5604 169.849 57.9421C170.342 56.3238 168.567 54.1164 169.416 51.6909C170.265 49.2653 172.14 49.4869 174.308 46.8861C175.699 45.2103 173.596 42.1651 169.427 42.8869C165.258 43.6088 165.281 46.2476 161.21 46.1164C157.14 45.9851 154.33 48.1416 153.899 51.1791C153.468 54.2166 154.475 68.8559 154.475 68.8559Z" fill="black"/>
<path d="M155.249 63.0905H155.217C155.183 63.0836 155.15 63.0699 155.121 63.0503C155.092 63.0307 155.067 63.0055 155.048 62.9763C155.029 62.9471 155.015 62.9143 155.009 62.8799C155.002 62.8455 155.002 62.8102 155.009 62.7759C156.972 53.0739 167.677 44.1933 170.285 43.2866C170.356 43.2633 170.433 43.269 170.499 43.3025C170.566 43.336 170.616 43.3946 170.64 43.4653C170.663 43.536 170.657 43.6131 170.624 43.6796C170.59 43.7462 170.532 43.7966 170.461 43.82C167.911 44.7054 157.452 53.4206 155.527 62.9092C155.507 62.9658 155.469 63.0142 155.419 63.047C155.369 63.0798 155.309 63.0951 155.249 63.0905Z" fill="white"/>
<path d="M39.3701 59.7735C39.3914 59.3806 39.5051 58.9984 39.7019 58.6577C39.8987 58.317 40.1731 58.0276 40.5028 57.813L98.4066 24.3804C98.7574 24.2041 99.1445 24.1123 99.5371 24.1123C99.9297 24.1123 100.317 24.2041 100.668 24.3804L101.944 25.121C102.275 25.3348 102.55 25.6241 102.746 25.9649C102.943 26.3057 103.057 26.6884 103.077 27.0815V71.4666C103.055 71.8592 102.94 72.2411 102.744 72.5816C102.547 72.9221 102.273 73.2117 101.944 73.4271L44.0404 106.855C43.6894 107.034 43.3013 107.127 42.9077 107.127C42.514 107.127 42.1259 107.034 41.775 106.855L40.5028 106.119C40.1736 105.904 39.8996 105.614 39.7028 105.274C39.506 104.933 39.3921 104.551 39.3701 104.159V59.7735Z" fill="#0E8EC5"/>
<path opacity="0.3" d="M39.3701 59.7735C39.3914 59.3806 39.5051 58.9984 39.7019 58.6577C39.8987 58.317 40.1731 58.0276 40.5028 57.813L98.4066 24.3804C98.7574 24.2041 99.1445 24.1123 99.5371 24.1123C99.9297 24.1123 100.317 24.2041 100.668 24.3804L101.944 25.121C102.275 25.3348 102.55 25.6241 102.746 25.9649C102.943 26.3057 103.057 26.6884 103.077 27.0815V71.4666C103.055 71.8592 102.94 72.2411 102.744 72.5816C102.547 72.9221 102.273 73.2117 101.944 73.4271L44.0404 106.855C43.6894 107.034 43.3013 107.127 42.9077 107.127C42.514 107.127 42.1259 107.034 41.775 106.855L40.5028 106.119C40.1736 105.904 39.8996 105.614 39.7028 105.274C39.506 104.933 39.3921 104.551 39.3701 104.159V59.7735Z" fill="black"/>
<path d="M44.6765 61.5326L39.7012 58.6572C39.4978 58.9948 39.3839 59.3786 39.3701 59.7725V104.158C39.3921 104.55 39.506 104.932 39.7028 105.273C39.8996 105.613 40.1736 105.903 40.5028 106.118L41.775 106.854C42.1259 107.033 42.514 107.126 42.9077 107.126C43.3013 107.126 43.6894 107.033 44.0404 106.854L44.6765 106.488V61.5326Z" fill="#0E8EC5"/>
<path opacity="0.5" d="M44.6765 61.5326L39.7012 58.6572C39.4978 58.9948 39.3839 59.3786 39.3701 59.7725V104.158C39.3921 104.55 39.506 104.932 39.7028 105.273C39.8996 105.613 40.1736 105.903 40.5028 106.118L41.775 106.854C42.1259 107.033 42.514 107.126 42.9077 107.126C43.3013 107.126 43.6894 107.033 44.0404 106.854L44.6765 106.488V61.5326Z" fill="black"/>
<path d="M103.077 27.0804V71.4656C103.062 71.8719 102.941 72.2672 102.724 72.6114C102.557 72.9013 102.331 73.1535 102.062 73.352L102.018 73.3782L101.944 73.4261L44.0406 106.854C43.9298 106.933 43.801 106.982 43.6662 106.997C43.5314 107.012 43.3949 106.993 43.2695 106.942C43.1488 106.866 43.0514 106.758 42.9876 106.63C42.9239 106.503 42.8963 106.36 42.9079 106.218V61.8157C42.898 61.6568 42.9268 61.4979 42.9919 61.3525C43.0569 61.2072 43.1562 61.0798 43.2813 60.9813C43.4064 60.8828 43.5535 60.8161 43.71 60.7869C43.8665 60.7577 44.0278 60.7669 44.18 60.8137L68.5291 66.6036L71.7181 67.3617C72.0945 67.4322 72.4831 67.3984 72.8417 67.2641C73.2003 67.1297 73.5153 66.8998 73.7527 66.5993L77.4471 61.4541L102.315 26.8321C102.733 26.2483 103.077 26.3572 103.077 27.0804Z" fill="#0E8EC5"/>
<path opacity="0.2" d="M103.077 27.0804V71.4656C103.062 71.8719 102.941 72.2672 102.724 72.6114C102.557 72.9013 102.331 73.1535 102.062 73.352L102.018 73.3782L101.944 73.4261L44.0406 106.854C43.9298 106.933 43.801 106.982 43.6662 106.997C43.5314 107.012 43.3949 106.993 43.2695 106.942C43.1488 106.866 43.0514 106.758 42.9876 106.63C42.9239 106.503 42.8963 106.36 42.9079 106.218V61.8157C42.898 61.6568 42.9268 61.4979 42.9919 61.3525C43.0569 61.2072 43.1562 61.0798 43.2813 60.9813C43.4064 60.8828 43.5535 60.8161 43.71 60.7869C43.8665 60.7577 44.0278 60.7669 44.18 60.8137L68.5291 66.6036L71.7181 67.3617C72.0945 67.4322 72.4831 67.3984 72.8417 67.2641C73.2003 67.1297 73.5153 66.8998 73.7527 66.5993L77.4471 61.4541L102.315 26.8321C102.733 26.2483 103.077 26.3572 103.077 27.0804Z" fill="black"/>
<path d="M101.944 73.4271L102.018 73.3792L102.061 73.3531C102.331 73.1545 102.556 72.9023 102.723 72.6124C102.937 72.2736 103.059 71.8846 103.076 71.4841L77.4463 61.4639L94.6113 77.6705L101.944 73.4271Z" fill="#0E8EC5"/>
<path opacity="0.6" d="M101.944 73.4271L102.018 73.3792L102.061 73.3531C102.331 73.1545 102.556 72.9023 102.723 72.6124C102.937 72.2736 103.059 71.8846 103.076 71.4841L77.4463 61.4639L94.6113 77.6705L101.944 73.4271Z" fill="black"/>
<path d="M42.9074 106.218C42.8908 106.363 42.915 106.51 42.9774 106.641C43.0398 106.773 43.1378 106.885 43.2603 106.963C43.3858 107.015 43.5223 107.034 43.6571 107.019C43.7919 107.004 43.9206 106.955 44.0315 106.876L63.976 95.3269L68.5287 66.5732L42.9074 105.465V106.218Z" fill="#0E8EC5"/>
<path opacity="0.6" d="M42.9074 106.218C42.8908 106.363 42.915 106.51 42.9774 106.641C43.0398 106.773 43.1378 106.885 43.2603 106.963C43.3858 107.015 43.5223 107.034 43.6571 107.019C43.7919 107.004 43.9206 106.955 44.0315 106.876L63.976 95.3269L68.5287 66.5732L42.9074 105.465V106.218Z" fill="black"/>
<path d="M102.723 72.6124C102.556 72.9023 102.33 73.1544 102.061 73.353L102.017 73.3791L44.0397 106.855C43.9289 106.934 43.8001 106.983 43.6653 106.998C43.5305 107.013 43.394 106.994 43.2686 106.942L70.9984 62.6749C71.5557 61.7882 72.4138 61.132 73.4155 60.8264C74.4172 60.5207 75.4955 60.5862 76.4529 61.0107L102.723 72.6124Z" fill="#0E8EC5"/>
<path opacity="0.2" d="M102.723 72.6124C102.556 72.9023 102.33 73.1544 102.061 73.353L102.017 73.3791L44.0397 106.855C43.9289 106.934 43.8001 106.983 43.6653 106.998C43.5305 107.013 43.394 106.994 43.2686 106.942L70.9984 62.6749C71.5557 61.7882 72.4138 61.132 73.4155 60.8264C74.4172 60.5207 75.4955 60.5862 76.4529 61.0107L102.723 72.6124Z" fill="black"/>
<path d="M42.9082 60.5107L69.5402 72.2736C70.499 72.6969 71.5784 72.7604 72.5803 72.4523C73.5821 72.1442 74.4393 71.4853 74.9947 70.5963L102.96 25.8408L42.9082 60.5107Z" fill="#0E8EC5"/>
<path opacity="0.6" d="M42.9082 60.5107L69.5402 72.2736C70.499 72.6969 71.5784 72.7604 72.5803 72.4523C73.5821 72.1442 74.4393 71.4853 74.9947 70.5963L102.96 25.8408L42.9082 60.5107Z" fill="black"/>
<path d="M42.9082 60.5107L69.7275 70.5309C70.6543 70.877 71.6713 70.8972 72.6112 70.5884C73.551 70.2796 74.3578 69.6601 74.8988 68.8319L102.96 25.8408L42.9082 60.5107Z" fill="#0E8EC5"/>
<path opacity="0.2" d="M42.9082 60.5107L69.7275 70.5309C70.6543 70.877 71.6713 70.8972 72.6112 70.5884C73.551 70.2796 74.3578 69.6601 74.8988 68.8319L102.96 25.8408L42.9082 60.5107Z" fill="black"/>
<path d="M49.2598 65.2405C49.28 64.8475 49.3932 64.4648 49.5902 64.124C49.7871 63.7831 50.062 63.4939 50.3925 63.2801L108.296 29.8474C108.647 29.6691 109.035 29.5762 109.429 29.5762C109.823 29.5762 110.211 29.6691 110.562 29.8474L111.838 30.5837C112.167 30.7988 112.441 31.0884 112.637 31.4291C112.833 31.7697 112.946 32.1517 112.967 32.5442V76.9293C112.945 77.3216 112.832 77.7034 112.636 78.0439C112.44 78.3844 112.167 78.6742 111.838 78.8898L53.9301 112.318C53.5793 112.494 53.1921 112.586 52.7995 112.586C52.4069 112.586 52.0198 112.494 51.669 112.318L50.3925 111.582C50.0635 111.366 49.7896 111.077 49.5929 110.736C49.3962 110.396 49.2821 110.014 49.2598 109.621V65.2405Z" fill="#455A64"/>
<path d="M49.2598 65.2405C49.28 64.8475 49.3932 64.4648 49.5902 64.124C49.7871 63.7831 50.062 63.4939 50.3925 63.2801L108.296 29.8474C108.647 29.6691 109.035 29.5762 109.429 29.5762C109.823 29.5762 110.211 29.6691 110.562 29.8474L111.838 30.5837C112.167 30.7988 112.441 31.0884 112.637 31.4291C112.833 31.7697 112.946 32.1517 112.967 32.5442V76.9293C112.945 77.3216 112.832 77.7034 112.636 78.0439C112.44 78.3844 112.167 78.6742 111.838 78.8898L53.9301 112.318C53.5793 112.494 53.1921 112.586 52.7995 112.586C52.4069 112.586 52.0198 112.494 51.669 112.318L50.3925 111.582C50.0635 111.366 49.7896 111.077 49.5929 110.736C49.3962 110.396 49.2821 110.014 49.2598 109.621V65.2405Z" fill="#455A64"/>
<path d="M54.5705 67.0097L49.5909 64.1387C49.3869 64.476 49.2729 64.86 49.2598 65.254V109.626C49.2821 110.019 49.3962 110.401 49.5929 110.741C49.7896 111.082 50.0635 111.371 50.3925 111.587L51.669 112.323C52.0198 112.499 52.4069 112.591 52.7995 112.591C53.1921 112.591 53.5793 112.499 53.9301 112.323L54.5705 111.952V67.0097Z" fill="#263238"/>
<path d="M112.97 32.5436V76.9288C112.956 77.3351 112.834 77.7303 112.617 78.0745C112.45 78.3644 112.225 78.6166 111.955 78.8152L111.912 78.8413L111.838 78.8892L53.9338 112.318C53.823 112.396 53.6942 112.445 53.5594 112.46C53.4246 112.475 53.2882 112.456 53.1627 112.405C53.0401 112.326 52.9421 112.214 52.8798 112.083C52.8174 111.951 52.7931 111.804 52.8098 111.66V67.2789C52.7999 67.1199 52.8288 66.961 52.8938 66.8157C52.9589 66.6704 53.0582 66.543 53.1833 66.4445C53.3083 66.3459 53.4554 66.2792 53.612 66.25C53.7685 66.2208 53.9297 66.23 54.0819 66.2768L78.431 72.0668L81.6201 72.8248C81.9965 72.8954 82.385 72.8616 82.7436 72.7272C83.1022 72.5928 83.4172 72.3629 83.6546 72.0624L87.3447 66.9173L112.212 32.2953C112.613 31.7202 112.97 31.8204 112.97 32.5436Z" fill="#37474F"/>
<path d="M111.838 78.8896L111.912 78.8416L111.956 78.8155C112.225 78.6169 112.451 78.3648 112.618 78.0749C112.829 77.7367 112.949 77.3494 112.966 76.9509L87.3408 66.9307L104.502 83.1285L111.838 78.8896Z" fill="#263238"/>
<path d="M52.8017 111.665C52.785 111.809 52.8093 111.956 52.8716 112.087C52.934 112.219 53.032 112.331 53.1546 112.41C53.28 112.461 53.4165 112.48 53.5513 112.465C53.6861 112.45 53.8149 112.401 53.9257 112.322L73.8615 100.812L78.4142 72.0586L52.793 110.92L52.8017 111.665Z" fill="#263238"/>
<path d="M112.613 78.0748C112.446 78.3647 112.221 78.6168 111.951 78.8154L111.908 78.8415L53.9342 112.318C53.8234 112.396 53.6946 112.445 53.5598 112.46C53.425 112.475 53.2886 112.456 53.1631 112.405L80.8886 68.1417C81.4446 67.2535 82.3021 66.5955 83.3039 66.2882C84.3057 65.9809 85.3847 66.045 86.343 66.4688L112.613 78.0748Z" fill="#37474F"/>
<path d="M52.8008 65.9778L79.4327 77.7407C80.3911 78.1628 81.4695 78.2256 82.4704 77.9176C83.4712 77.6096 84.3277 76.9513 84.8829 76.0634L112.848 31.2861L52.8008 65.9778Z" fill="#263238"/>
<path d="M52.8008 65.9778L79.6157 75.998C80.5431 76.3452 81.5611 76.366 82.5019 76.0572C83.4427 75.7483 84.2502 75.1282 84.7914 74.299L112.848 31.2861L52.8008 65.9778Z" fill="#37474F"/>
<path d="M91.7314 100.473V56.088C91.7719 55.2459 92.035 54.4296 92.4939 53.7224L120.11 15.2666C120.614 14.564 121.316 14.0273 122.126 13.7247C122.936 13.4221 123.818 13.3674 124.659 13.5675L150.628 19.7408C151.465 19.9635 152.273 20.2853 153.033 20.6993L154.31 21.4355C154.638 21.6514 154.911 21.9412 155.107 22.2817C155.303 22.6221 155.416 23.0038 155.438 23.396V67.7812C155.416 68.1732 155.302 68.5546 155.106 68.895C154.91 69.2353 154.638 69.5252 154.31 69.7416L96.4017 103.17C96.0512 103.347 95.664 103.44 95.2712 103.44C94.8784 103.44 94.4911 103.347 94.1407 103.17L92.8642 102.434C92.5349 102.218 92.2609 101.929 92.0641 101.588C91.8674 101.248 91.7534 100.866 91.7314 100.473Z" fill="#0E8EC5"/>
<path opacity="0.3" d="M91.7314 100.473V56.088C91.7719 55.2459 92.035 54.4296 92.4939 53.7224L120.11 15.2666C120.614 14.564 121.316 14.0273 122.126 13.7247C122.936 13.4221 123.818 13.3674 124.659 13.5675L150.628 19.7408C151.465 19.9635 152.273 20.2853 153.033 20.6993L154.31 21.4355C154.638 21.6514 154.911 21.9412 155.107 22.2817C155.303 22.6221 155.416 23.0038 155.438 23.396V67.7812C155.416 68.1732 155.302 68.5546 155.106 68.895C154.91 69.2353 154.638 69.5252 154.31 69.7416L96.4017 103.17C96.0512 103.347 95.664 103.44 95.2712 103.44C94.8784 103.44 94.4911 103.347 94.1407 103.17L92.8642 102.434C92.5349 102.218 92.2609 101.929 92.0641 101.588C91.8674 101.248 91.7534 100.866 91.7314 100.473Z" fill="white"/>
<path d="M97.0391 34.6346V91.2705C97.0391 91.9894 97.5488 92.2856 98.1718 91.924L152.538 60.5564C152.868 60.342 153.142 60.0527 153.339 59.712C153.536 59.3713 153.65 58.9889 153.671 58.596V1.95999C153.671 1.2368 153.165 0.944904 152.538 1.3065L98.1718 32.6741C97.8421 32.8888 97.5677 33.1782 97.3708 33.5188C97.174 33.8595 97.0603 34.2417 97.0391 34.6346Z" fill="#FAFAFA"/>
<path d="M97.6654 92.304C97.5249 92.3051 97.3866 92.269 97.2646 92.1995C97.1155 92.1001 96.9962 91.9621 96.9195 91.8002C96.8428 91.6382 96.8115 91.4585 96.8289 91.2802V34.6443C96.8496 34.2126 96.973 33.7921 97.189 33.4177C97.405 33.0434 97.7072 32.7261 98.0706 32.4921L152.437 1.12448C152.579 1.00889 152.752 0.939212 152.935 0.924711C153.117 0.910209 153.3 0.951566 153.458 1.04329C153.617 1.13501 153.743 1.27276 153.822 1.43822C153.9 1.60369 153.926 1.78904 153.896 1.96966V58.6056C153.876 59.0368 153.753 59.4568 153.537 59.8305C153.321 60.2042 153.018 60.5207 152.655 60.7534L98.2884 92.121C98.1006 92.2362 97.8856 92.2994 97.6654 92.304ZM153.042 1.34666C152.902 1.35471 152.765 1.39817 152.646 1.47301L98.2797 32.8624C97.9837 33.0588 97.7372 33.3211 97.5596 33.6288C97.382 33.9364 97.278 34.281 97.2559 34.6355V91.2715C97.2298 91.3737 97.2377 91.4815 97.2786 91.5787C97.3195 91.6759 97.391 91.7571 97.4823 91.8099C97.5735 91.8627 97.6796 91.8842 97.7842 91.8712C97.8888 91.8581 97.9863 91.8112 98.0619 91.7377L152.428 60.37C152.724 60.1739 152.971 59.9116 153.149 59.6039C153.326 59.2962 153.43 58.9515 153.452 58.5969V1.96095C153.464 1.85878 153.45 1.75516 153.411 1.65987C153.372 1.56459 153.31 1.48079 153.23 1.41637C153.175 1.3766 153.11 1.35251 153.042 1.34666Z" fill="#E0E0E0"/>
<path d="M95.8664 57.1688L91.9454 54.9033C91.8185 55.2861 91.7481 55.6852 91.7363 56.0883V100.473C91.7583 100.866 91.8723 101.248 92.069 101.589C92.2658 101.929 92.5398 102.219 92.869 102.434L94.1412 103.17C94.4914 103.348 94.8788 103.441 95.2717 103.441C95.6647 103.441 96.0521 103.348 96.4023 103.17L96.9468 102.861L95.8664 57.1688Z" fill="#0E8EC5"/>
<g opacity="0.1">
<path d="M95.8674 57.1688L91.9464 54.9033C91.8195 55.2861 91.749 55.6852 91.7373 56.0883V100.473C91.7593 100.866 91.8732 101.248 92.07 101.589C92.2667 101.929 92.5408 102.219 92.87 102.434L94.1422 103.17C94.4923 103.348 94.8797 103.441 95.2727 103.441C95.6657 103.441 96.053 103.348 96.4032 103.17L96.9478 102.861L95.8674 57.1688Z" fill="black"/>
</g>
<path d="M155.442 23.3942V67.7793C155.427 68.1857 155.306 68.5809 155.089 68.9251C154.922 69.215 154.696 69.4672 154.427 69.6658L154.383 69.6919L154.309 69.7398L96.4055 103.168C96.2947 103.246 96.1659 103.295 96.0311 103.311C95.8963 103.326 95.7598 103.307 95.6344 103.255C95.5118 103.176 95.4138 103.065 95.3514 102.933C95.2891 102.802 95.2648 102.655 95.2815 102.51V58.1294C95.2716 57.9705 95.3005 57.8116 95.3655 57.6663C95.4305 57.521 95.5299 57.3936 95.6549 57.2951C95.78 57.1965 95.9271 57.1298 96.0836 57.1006C96.2402 57.0714 96.4014 57.0806 96.5536 57.1274L120.89 62.9174L124.079 63.6754C124.456 63.7468 124.845 63.7134 125.205 63.579C125.564 63.4446 125.88 63.2143 126.118 62.913L129.812 57.7678L154.68 23.1459C155.098 22.5708 155.442 22.671 155.442 23.3942Z" fill="#0E8EC5"/>
<path opacity="0.3" d="M155.442 23.3942V67.7793C155.427 68.1857 155.306 68.5809 155.089 68.9251C154.922 69.215 154.696 69.4672 154.427 69.6658L154.383 69.6919L154.309 69.7398L96.4055 103.168C96.2947 103.246 96.1659 103.295 96.0311 103.311C95.8963 103.326 95.7598 103.307 95.6344 103.255C95.5118 103.176 95.4138 103.065 95.3514 102.933C95.2891 102.802 95.2648 102.655 95.2815 102.51V58.1294C95.2716 57.9705 95.3005 57.8116 95.3655 57.6663C95.4305 57.521 95.5299 57.3936 95.6549 57.2951C95.78 57.1965 95.9271 57.1298 96.0836 57.1006C96.2402 57.0714 96.4014 57.0806 96.5536 57.1274L120.89 62.9174L124.079 63.6754C124.456 63.7468 124.845 63.7134 125.205 63.579C125.564 63.4446 125.88 63.2143 126.118 62.913L129.812 57.7678L154.68 23.1459C155.098 22.5708 155.442 22.671 155.442 23.3942Z" fill="white"/>
<path d="M154.31 69.7406L154.384 69.6927L154.427 69.6665C154.697 69.468 154.922 69.2158 155.09 68.9259C155.301 68.5862 155.421 68.1975 155.438 67.7976L129.812 57.7773L146.973 73.9796L154.31 69.7406Z" fill="#0E8EC5"/>
<path d="M95.2743 102.516C95.2577 102.661 95.2819 102.807 95.3443 102.939C95.4067 103.071 95.5047 103.182 95.6272 103.261C95.7527 103.313 95.8892 103.332 96.024 103.316C96.1588 103.301 96.2875 103.252 96.3983 103.174L116.334 91.6638L120.887 62.9102L95.2656 101.771L95.2743 102.516Z" fill="#0E8EC5"/>
<path d="M155.091 68.9268C154.924 69.2167 154.699 69.4689 154.429 69.6674L154.386 69.6936L96.4078 103.17C96.297 103.248 96.1683 103.297 96.0335 103.312C95.8987 103.327 95.7622 103.308 95.6367 103.257L123.362 58.9937C123.918 58.1065 124.775 57.4492 125.776 57.142C126.776 56.8348 127.854 56.8982 128.812 57.3208L155.091 68.9268Z" fill="#0E8EC5"/>
<path opacity="0.3" d="M155.091 68.9268C154.924 69.2167 154.699 69.4689 154.429 69.6674L154.386 69.6936L96.4078 103.17C96.297 103.248 96.1683 103.297 96.0335 103.312C95.8987 103.327 95.7622 103.308 95.6367 103.257L123.362 58.9937C123.918 58.1065 124.775 57.4492 125.776 57.142C126.776 56.8348 127.854 56.8982 128.812 57.3208L155.091 68.9268Z" fill="white"/>
<path d="M120.976 47.6786C120.468 47.7573 119.948 47.7111 119.462 47.5442C118.975 47.3772 118.537 47.0944 118.184 46.7202C117.522 45.9839 117.19 44.8468 117.19 43.3177C117.192 41.5923 117.561 39.8871 118.275 38.3163C119.008 36.6999 120.02 35.2252 121.264 33.9597C122.602 32.5724 124.127 31.3788 125.795 30.4134C127.43 29.4724 128.825 28.951 129.981 28.8494C131.145 28.7448 132.02 29.0454 132.622 29.7425C133.223 30.4395 133.519 31.5069 133.519 32.9359C133.544 34.353 133.208 35.7534 132.543 37.0049C131.957 38.1384 131.063 39.0836 129.964 39.7322C129.585 40.0017 129.12 40.1226 128.657 40.072C128.492 40.0394 128.341 39.96 128.22 39.8433C128.1 39.7266 128.015 39.5776 127.977 39.4141C127.615 40.1003 127.154 40.7299 126.609 41.2831C126.059 41.8514 125.431 42.3397 124.745 42.7339C123.56 43.4048 122.614 43.6052 121.917 43.3743C121.22 43.1434 120.889 42.4376 120.889 41.2613C120.899 39.7831 121.355 38.3423 122.196 37.1269C123.112 35.7796 124.329 34.6639 125.751 33.8682C126.345 33.5145 126.99 33.2558 127.664 33.1014C128.164 32.9657 128.692 32.9657 129.193 33.1014V37.6889C129.193 38.0592 129.258 38.2858 129.385 38.3729C129.511 38.46 129.72 38.4165 130.016 38.2466C130.568 37.8876 130.977 37.3465 131.171 36.7174C131.465 35.8676 131.606 34.972 131.585 34.0729C131.585 32.9286 131.335 32.0965 130.835 31.5766C130.568 31.3156 130.243 31.1224 129.886 31.0133C129.529 30.9041 129.151 30.8822 128.783 30.9492C127.72 31.1117 126.701 31.4914 125.79 32.0645C123.864 33.133 122.204 34.6222 120.933 36.4211C119.758 38.1094 119.134 40.1196 119.147 42.1762C119.147 43.428 119.404 44.3415 119.918 44.9165C120.184 45.2044 120.518 45.4219 120.889 45.5496C121.26 45.6773 121.656 45.7112 122.044 45.6485C123.128 45.4949 124.167 45.1133 125.093 44.5288C125.732 44.1591 126.338 43.7334 126.901 43.2567C127.426 42.8233 127.904 42.3355 128.326 41.8016C128.37 41.7453 128.421 41.6955 128.478 41.6534C128.518 41.6317 128.557 41.6534 128.592 41.7057L129.071 42.577C129.088 42.6116 129.102 42.6482 129.11 42.686C129.095 42.783 129.047 42.872 128.975 42.9386C128.449 43.5715 127.865 44.1549 127.232 44.6813C126.566 45.2403 125.853 45.7417 125.102 46.18C123.851 46.9703 122.443 47.4815 120.976 47.6786ZM126.64 39.4882C127.055 38.9987 127.297 38.3863 127.328 37.7456V35.088C126.706 35.1405 126.108 35.3472 125.586 35.6892C124.755 36.1567 124.047 36.8153 123.521 37.6105C123.027 38.34 122.762 39.1999 122.758 40.0807C122.758 40.817 122.941 41.257 123.311 41.3877C123.682 41.5184 124.253 41.3877 125.032 40.9215C125.664 40.5563 126.216 40.069 126.657 39.4882H126.64Z" fill="#E0E0E0"/>
</svg>
