<svg width="154" height="172" viewBox="0 0 154 172" fill="none" xmlns="http://www.w3.org/2000/svg">
<path d="M130.617 93.242C100.809 78.8503 52.64 78.8503 23.0253 93.242C-6.58944 107.634 -6.42583 130.966 23.3754 145.357C53.1767 159.749 101.352 159.752 130.967 145.357C160.582 130.963 160.441 107.631 130.617 93.242Z" fill="#EEEEEE"/>
<path d="M49.4311 160.564L52.9591 162.6L64.6965 155.779L44.614 144.182L32.8721 151.007L38.0239 153.979L29.8643 155.173L36.8886 171.071L53.027 168.71L49.4311 160.564Z" fill="#E0E0E0"/>
<path d="M108.579 112.702L60.4584 140.69C59.8907 141.019 59.2463 141.192 58.5903 141.192C57.9343 141.192 57.29 141.019 56.7223 140.69L32.162 126.506C32.0201 126.424 31.9023 126.307 31.8204 126.165C31.7384 126.023 31.6953 125.862 31.6953 125.699C31.6953 125.535 31.7384 125.374 31.8204 125.232C31.9023 125.091 32.0201 124.973 32.162 124.891L80.283 96.916C80.8507 96.5872 81.4951 96.4141 82.1511 96.4141C82.8071 96.4141 83.4515 96.5872 84.0191 96.916L108.579 111.1C108.718 111.183 108.833 111.3 108.913 111.441C108.993 111.581 109.035 111.74 109.035 111.901C109.035 112.062 108.993 112.221 108.913 112.361C108.833 112.502 108.718 112.619 108.579 112.702Z" fill="#E0E0E0"/>
<path d="M58.6137 129.801L58.582 140.041L107.137 111.821L107.169 101.581L58.6137 129.801Z" fill="#0E8EC5"/>
<path d="M50.2543 115.321L33.3199 105.551L33.2656 125.425L58.5678 140.039L58.5994 129.799L50.2543 115.321Z" fill="#0E8EC5"/>
<path opacity="0.3" d="M50.2543 115.321L33.3199 105.551L33.2656 125.425L58.5678 140.039L58.5994 129.799L50.2543 115.321Z" fill="black"/>
<path d="M58.6135 129.799L107.169 101.579L98.8147 87.1055L50.2549 115.32L58.6135 129.799Z" fill="#0E8EC5"/>
<path opacity="0.1" d="M58.6135 129.799L107.169 101.579L98.8147 87.1055L50.2549 115.32L58.6135 129.799Z" fill="black"/>
<g opacity="0.5">
<path d="M98.6095 93.794L101.454 99.7826C101.5 99.8626 101.515 99.9565 101.495 100.047C101.476 100.137 101.425 100.217 101.35 100.271L93.3355 104.898C93.296 104.916 93.2531 104.926 93.2096 104.927C93.1661 104.927 93.123 104.919 93.0829 104.902C93.0429 104.885 93.0068 104.86 92.9771 104.828C92.9474 104.796 92.9247 104.758 92.9104 104.717L90.0789 98.7513C90.0789 98.7061 90.0518 98.6744 90.0427 98.6473C90.0391 98.6066 90.0391 98.5658 90.0427 98.5251C90.0479 98.49 90.0554 98.4552 90.0654 98.4211C90.0789 98.3908 90.0956 98.362 90.1151 98.3352C90.1358 98.3063 90.1619 98.2817 90.192 98.2628L98.2114 93.6357C98.2352 93.622 98.2612 93.6128 98.2883 93.6085C98.3208 93.5992 98.3553 93.5992 98.3878 93.6085C98.4171 93.6126 98.4449 93.6235 98.4692 93.6402C98.5033 93.6571 98.5339 93.6801 98.5597 93.708C98.5787 93.7352 98.5953 93.764 98.6095 93.794ZM100.771 99.7554L98.4511 94.8298L96.7279 100.407C96.7068 100.478 96.6601 100.539 96.5967 100.579C96.5677 100.596 96.5354 100.607 96.5019 100.611C96.4683 100.615 96.4344 100.611 96.4022 100.601L90.9293 99.1312L93.2813 104.107L100.771 99.7826M97.7863 94.7529L91.2775 98.5116L96.2122 99.8685L97.7863 94.771" fill="white"/>
</g>
<path d="M98.8092 87.1058L81.8883 77.3359L33.333 105.551L50.2539 115.321L98.8092 87.1058Z" fill="#0E8EC5"/>
<path opacity="0.2" d="M98.8092 87.1058L81.8883 77.3359L33.333 105.551L50.2539 115.321L98.8092 87.1058Z" fill="black"/>
<path opacity="0.2" d="M81.8883 77.3359L33.333 105.551L43.6863 111.53L92.2417 83.3109L81.8883 77.3359Z" fill="black"/>
<path d="M70.3725 106.861L54.0713 116.337L59.6302 125.971L75.9359 116.496L70.3725 106.861Z" fill="#455A64"/>
<g opacity="0.5">
<path d="M66.7119 116.474L66.0425 116.859L64.6855 114.448L65.6897 113.864L66.7119 116.474Z" fill="white"/>
<path d="M66.5305 116.981C66.5992 116.941 66.6758 116.917 66.7548 116.91C66.8338 116.903 66.9134 116.914 66.9877 116.942C67.062 116.97 67.1293 117.013 67.1848 117.07C67.2403 117.127 67.2825 117.195 67.3085 117.27C67.3951 117.42 67.4204 117.598 67.3791 117.767C67.3378 117.935 67.2331 118.081 67.0869 118.175C67.0164 118.213 66.9384 118.236 66.8582 118.242C66.778 118.248 66.6975 118.236 66.6223 118.208C66.5471 118.179 66.4789 118.135 66.4224 118.078C66.366 118.021 66.3226 117.952 66.2953 117.876C66.2093 117.726 66.1857 117.548 66.2297 117.38C66.2737 117.213 66.3817 117.069 66.5305 116.981Z" fill="white"/>
<path d="M69.7462 115.755C69.936 115.91 70.0891 116.105 70.1947 116.326C70.3002 116.548 70.3556 116.79 70.3568 117.035C70.3718 117.26 70.3264 117.485 70.2254 117.687C70.1245 117.889 69.9716 118.06 69.7824 118.184L65.5669 120.617C65.3797 120.72 65.1651 120.762 64.9528 120.738C64.7405 120.714 64.541 120.624 64.3819 120.481C64.1929 120.326 64.0406 120.13 63.9359 119.909C63.8311 119.688 63.7764 119.446 63.7758 119.201L63.6898 113.366C63.6735 113.141 63.7182 112.915 63.8193 112.713C63.9204 112.511 64.0741 112.34 64.2643 112.218C64.4504 112.114 64.6639 112.072 64.8754 112.095C65.0869 112.119 65.2859 112.207 65.4448 112.349L69.7462 115.755ZM69.8819 116.98C69.8813 116.833 69.8481 116.688 69.7847 116.555C69.7214 116.422 69.6295 116.305 69.5156 116.211L65.2186 112.81C65.1228 112.725 65.0034 112.672 64.8764 112.658C64.7494 112.643 64.621 112.668 64.5085 112.729C64.3934 112.802 64.3002 112.905 64.2389 113.027C64.1776 113.149 64.1504 113.285 64.1602 113.421L64.2462 119.256C64.2477 119.403 64.2813 119.548 64.3446 119.68C64.4079 119.813 64.4993 119.931 64.6125 120.024C64.7083 120.109 64.8278 120.162 64.9548 120.177C65.0818 120.191 65.2102 120.167 65.3227 120.106L69.5382 117.672C69.6514 117.598 69.7429 117.494 69.8033 117.373C69.8637 117.251 69.8908 117.116 69.8819 116.98Z" fill="white"/>
</g>
<path d="M77.1974 115.759L71.6385 106.129L70.3721 106.862L75.9355 116.496L77.1974 115.759Z" fill="#0E8EC5"/>
<path opacity="0.3" d="M77.1974 115.759L71.6385 106.129L70.3721 106.862L75.9355 116.496L77.1974 115.759Z" fill="black"/>
<path opacity="0.1" d="M59.6302 125.972L75.9359 116.496L75.4202 115.636L60.4941 124.312L55.3694 115.582L54.0713 116.337L59.6302 125.972Z" fill="black"/>
<path d="M104.942 108.057L103.236 109.038L104.951 110.029L104.942 108.057Z" fill="#455A64"/>
<path d="M103.238 109.036L61.0146 133.402L61.0192 135.374L104.952 110.027L103.238 109.036Z" fill="#37474F"/>
<path d="M42.9799 34.7733C42.9799 34.8231 42.9799 34.8728 43.0116 34.9181C43.0116 34.9723 43.0433 35.0311 43.0614 35.0854C43.0782 35.1333 43.0978 35.1801 43.1202 35.2256L43.2061 35.4065L43.283 35.5332C43.3252 35.5995 43.3704 35.6674 43.4187 35.7367L43.5001 35.8408L43.577 35.9357L43.6132 35.9765C43.6674 36.0353 43.7262 36.0895 43.785 36.1483L43.8665 36.2252C43.9207 36.275 43.9841 36.3247 44.0474 36.3745L44.1514 36.4559L44.2147 36.5102L44.4273 36.6504C44.4997 36.7001 44.5721 36.7499 44.6535 36.7951L50.1219 39.9613L70.1546 28.3958L64.6862 25.2296C62.3749 23.8727 58.6208 23.8727 56.2914 25.2296L44.6942 31.9735C43.4503 32.6927 42.885 33.6516 42.9573 34.5924C42.9602 34.6532 42.9677 34.7137 42.9799 34.7733Z" fill="#455A64"/>
<path opacity="0.5" d="M42.9799 34.7733C42.9799 34.8231 42.9799 34.8728 43.0116 34.9181C43.0116 34.9723 43.0433 35.0311 43.0614 35.0854C43.0782 35.1333 43.0978 35.1801 43.1202 35.2256L43.2061 35.4065L43.283 35.5332C43.3252 35.5995 43.3704 35.6674 43.4187 35.7367L43.5001 35.8408L43.577 35.9357L43.6132 35.9765C43.6674 36.0353 43.7262 36.0895 43.785 36.1483L43.8665 36.2252C43.9207 36.275 43.9841 36.3247 44.0474 36.3745L44.1514 36.4559L44.2147 36.5102L44.4273 36.6504C44.4997 36.7001 44.5721 36.7499 44.6535 36.7951L50.1219 39.9613L70.1546 28.3958L64.6862 25.2296C62.3749 23.8727 58.6208 23.8727 56.2914 25.2296L44.6942 31.9735C43.4503 32.6927 42.885 33.6516 42.9573 34.5924C42.9602 34.6532 42.9677 34.7137 42.9799 34.7733Z" fill="white"/>
<path d="M44.6675 36.8359C44.5907 36.7906 44.5183 36.7409 44.4459 36.6911L44.2333 36.5509L44.17 36.4966L44.0705 36.4197C44.0072 36.37 43.9439 36.3202 43.8896 36.2705L43.8082 36.1936C43.749 36.1412 43.6932 36.0854 43.6408 36.0262L43.6046 35.9855L43.5277 35.8905L43.4508 35.791C43.3996 35.7217 43.3543 35.6538 43.3151 35.5875C43.288 35.5468 43.2609 35.5061 43.2383 35.4654L43.1523 35.2844C43.1523 35.2392 43.1116 35.1985 43.0935 35.1533C43.0935 35.099 43.0619 35.0402 43.0438 34.9859C43.0438 34.9407 43.0211 34.8955 43.0121 34.8502C43.0077 34.7915 43.0077 34.7325 43.0121 34.6738C43.0121 34.615 43.0121 34.5608 43.0121 34.502L43.0664 53.2094V53.2637C43.0642 53.3029 43.0642 53.3421 43.0664 53.3813C43.0619 53.4446 43.0619 53.508 43.0664 53.5713V53.6029C43.0664 53.6436 43.0935 53.6798 43.1026 53.7205C43.1116 53.7612 43.1342 53.8427 43.1523 53.9015V53.9376C43.167 53.9732 43.1837 54.0079 43.2021 54.0417C43.2292 54.105 43.2563 54.1683 43.288 54.2271V54.2724C43.288 54.304 43.3287 54.3311 43.3468 54.3583C43.3649 54.3854 43.4373 54.4985 43.487 54.5664C43.5022 54.5864 43.5158 54.6076 43.5277 54.6297L43.6453 54.7654L43.686 54.8106C43.7523 54.8859 43.8233 54.9569 43.8986 55.0232L43.9348 55.0548C43.9891 55.1046 44.0569 55.1544 44.1157 55.2041C44.1745 55.2539 44.2243 55.2946 44.2831 55.3353L44.4957 55.48L44.6495 55.5795L44.7218 55.6248L50.1902 58.7909L50.136 40.088L44.6675 36.8359Z" fill="#37474F"/>
<path opacity="0.3" d="M44.6675 36.8359C44.5907 36.7906 44.5183 36.7409 44.4459 36.6911L44.2333 36.5509L44.17 36.4966L44.0705 36.4197C44.0072 36.37 43.9439 36.3202 43.8896 36.2705L43.8082 36.1936C43.749 36.1412 43.6932 36.0854 43.6408 36.0262L43.6046 35.9855L43.5277 35.8905L43.4508 35.791C43.3996 35.7217 43.3543 35.6538 43.3151 35.5875C43.288 35.5468 43.2609 35.5061 43.2383 35.4654L43.1523 35.2844C43.1523 35.2392 43.1116 35.1985 43.0935 35.1533C43.0935 35.099 43.0619 35.0402 43.0438 34.9859C43.0438 34.9407 43.0211 34.8955 43.0121 34.8502C43.0077 34.7915 43.0077 34.7325 43.0121 34.6738C43.0121 34.615 43.0121 34.5608 43.0121 34.502L43.0664 53.2094V53.2637C43.0642 53.3029 43.0642 53.3421 43.0664 53.3813C43.0619 53.4446 43.0619 53.508 43.0664 53.5713V53.6029C43.0664 53.6436 43.0935 53.6798 43.1026 53.7205C43.1116 53.7612 43.1342 53.8427 43.1523 53.9015V53.9376C43.167 53.9732 43.1837 54.0079 43.2021 54.0417C43.2292 54.105 43.2563 54.1683 43.288 54.2271V54.2724C43.288 54.304 43.3287 54.3311 43.3468 54.3583C43.3649 54.3854 43.4373 54.4985 43.487 54.5664C43.5022 54.5864 43.5158 54.6076 43.5277 54.6297L43.6453 54.7654L43.686 54.8106C43.7523 54.8859 43.8233 54.9569 43.8986 55.0232L43.9348 55.0548C43.9891 55.1046 44.0569 55.1544 44.1157 55.2041C44.1745 55.2539 44.2243 55.2946 44.2831 55.3353L44.4957 55.48L44.6495 55.5795L44.7218 55.6248L50.1902 58.7909L50.136 40.088L44.6675 36.8359Z" fill="white"/>
<path d="M70.1704 28.4502L50.1377 40.0157L50.192 58.7187L70.2247 47.1577L70.1704 28.4502Z" fill="#263238"/>
<path d="M28.5115 112.878L28.3894 58.1037C28.4342 57.2555 28.6789 56.43 29.1033 55.6943C29.5278 54.9585 30.12 54.3335 30.8318 53.8701L98.9043 14.664C99.1512 14.4853 99.4408 14.3745 99.744 14.3427C100.047 14.311 100.353 14.3594 100.632 14.4831L98.0675 12.9995C97.6152 12.7146 96.9865 12.7372 96.2899 13.1443L28.213 52.3549C27.5018 52.8178 26.9099 53.4422 26.4854 54.177C26.061 54.9119 25.8161 55.7366 25.7705 56.584L25.8926 111.345C25.8627 111.635 25.9057 111.928 26.0179 112.198C26.1301 112.467 26.3078 112.704 26.5349 112.887L26.6706 112.964L29.199 114.439C28.9592 114.26 28.7698 114.023 28.6493 113.749C28.5288 113.476 28.4813 113.176 28.5115 112.878Z" fill="#0E8EC5"/>
<path opacity="0.3" d="M98.0818 12.9995C97.6295 12.7146 97.0008 12.7372 96.3042 13.1443L28.2137 52.3549C27.4098 52.8633 26.763 53.5852 26.3457 54.44L28.9646 55.9553C29.3819 55.1004 30.0286 54.3785 30.8326 53.8701L98.905 14.664C99.152 14.4853 99.4415 14.3745 99.7447 14.3427C100.048 14.311 100.354 14.3594 100.633 14.4831L98.0818 12.9995Z" fill="white"/>
<path opacity="0.2" d="M25.7705 56.584L25.8926 111.345C25.8627 111.635 25.9057 111.928 26.0179 112.198C26.1301 112.467 26.3078 112.704 26.5349 112.887L26.6706 112.964L29.199 114.439C28.956 114.261 28.7636 114.024 28.6406 113.749C28.5177 113.475 28.4685 113.173 28.4979 112.874L28.3758 58.0992C28.394 57.3476 28.5909 56.6112 28.9502 55.9508L26.3314 54.4355C25.9787 55.0979 25.7866 55.8338 25.7705 56.584Z" fill="black"/>
<path d="M101.379 16.0609C101.409 15.7617 101.359 15.4599 101.235 15.186C101.111 14.912 100.917 14.6755 100.673 14.5004C100.394 14.3767 100.088 14.3283 99.785 14.3601C99.4818 14.3918 99.1922 14.5026 98.9452 14.6814L30.8321 53.8694C30.1203 54.3328 29.528 54.9578 29.1036 55.6935C28.6791 56.4292 28.4345 57.2548 28.3896 58.103L28.5118 112.878C28.4823 113.177 28.5315 113.479 28.6545 113.753C28.7774 114.028 28.9699 114.265 29.2128 114.442H29.2536C29.5302 114.557 29.8315 114.599 30.1291 114.565C30.4266 114.531 30.7106 114.422 30.9542 114.248L99.0583 75.069C99.77 74.6066 100.362 73.9825 100.787 73.2475C101.211 72.5125 101.456 71.6875 101.501 70.84L101.379 16.0609ZM97.8461 72.9749L30.9271 111.512L30.8095 58.0984C30.8534 57.6768 30.9856 57.2692 31.1976 56.9022C31.4096 56.5351 31.6966 56.2168 32.0398 55.9681L98.9814 17.4314L99.099 70.8445C99.0519 71.2678 98.9159 71.6763 98.7 72.0434C98.4841 72.4105 98.1931 72.7279 97.8461 72.9749Z" fill="#0E8EC5"/>
<path d="M98.9636 17.4316L97.2313 18.4267L97.3443 69.9899C97.2993 70.4112 97.1666 70.8184 96.9547 71.1853C96.7428 71.5522 96.4565 71.8707 96.1141 72.1202L30.9229 109.662V111.507L97.8645 72.9706C98.2081 72.7219 98.4957 72.4037 98.7084 72.0367C98.9211 71.6697 99.0543 71.262 99.0993 70.8402L98.9636 17.4316Z" fill="#0E8EC5"/>
<path opacity="0.3" d="M98.9636 17.4316L97.2313 18.4267L97.3443 69.9899C97.2993 70.4112 97.1666 70.8184 96.9547 71.1853C96.7428 71.5522 96.4565 71.8707 96.1141 72.1202L30.9229 109.662V111.507L97.8645 72.9706C98.2081 72.7219 98.4957 72.4037 98.7084 72.0367C98.9211 71.6697 99.0543 71.262 99.0993 70.8402L98.9636 17.4316Z" fill="black"/>
<path d="M97.3432 69.9997L97.2301 18.4365L32.0389 55.9781C31.6957 56.2269 31.4087 56.5451 31.1967 56.9122C30.9847 57.2793 30.8525 57.6869 30.8086 58.1085L30.9217 109.672L96.1129 72.13C96.4553 71.8805 96.7417 71.562 96.9535 71.1951C97.1654 70.8282 97.2982 70.421 97.3432 69.9997Z" fill="#455A64"/>
<g opacity="0.5">
<path d="M77.3485 73.1006L77.353 75.041L57.4967 86.5025L57.4922 84.5621L77.3485 73.1006Z" fill="white"/>
<path d="M59.401 67.2568L60.5997 67.9398L57.8225 72.7479L60.6132 74.34L59.4282 76.3935L56.6329 74.8059L53.8603 79.6094L52.6616 78.9309L55.4388 74.1229L52.6436 72.5307L53.8331 70.4727L56.6284 72.0603L59.401 67.2568Z" fill="white"/>
<path d="M80.9118 54.8359L82.1059 55.5189L79.3332 60.327L82.124 61.9191L80.9344 63.9771L78.1437 62.385L75.371 67.1885L74.1724 66.51L76.945 61.7065L74.1543 60.1144L75.3439 58.0519L78.1346 59.644L80.9118 54.8359Z" fill="white"/>
</g>
<path d="M51.9391 53.957L51.9436 54.9024L48.2256 57.0508L48.2301 59.3757L51.5455 57.4624L51.5501 58.3851L48.2346 60.2984L48.2392 62.7544L52.0928 60.5291L52.0974 61.4654L47.3029 64.2335L47.2803 56.6483L51.9391 53.957Z" fill="white"/>
<path d="M57.4996 55.7907L59.0736 57.4371L58.0469 58.0297L56.6085 56.528C56.4819 56.6094 56.3417 56.7089 56.1969 56.7903L54.5551 57.7311V60.0379L53.6143 60.5807V52.9955L56.1924 51.5074C57.9067 50.5168 58.9515 50.9103 58.956 52.5612C58.9418 53.1696 58.8055 53.769 58.5554 54.3237C58.3052 54.8785 57.9462 55.3773 57.4996 55.7907ZM56.1698 55.8767C57.3729 55.1801 58.0062 54.1896 58.0062 53.104C58.0062 52.0185 57.3639 51.7742 56.1562 52.4663L54.5551 53.3935V56.8039L56.1653 55.8767" fill="white"/>
<path d="M64.3653 51.8305L65.9348 53.4769L64.9081 54.0649L63.4788 52.5587C63.3431 52.6446 63.2029 52.7441 63.0627 52.8255L61.4344 53.7663V56.0686L60.4845 56.6159L60.4619 49.0307L63.0401 47.5426C64.7634 46.5475 65.7992 46.9455 65.8037 48.5965C65.7937 49.2045 65.6611 49.8043 65.414 50.36C65.1668 50.9157 64.8102 51.4158 64.3653 51.8305ZM63.031 51.9164C64.2432 51.2198 64.8719 50.2293 64.8674 49.1437C64.8629 48.0582 64.2296 47.7868 63.022 48.506L61.4208 49.4106V52.8165L63.022 51.9119" fill="white"/>
<path d="M70.3179 43.2597C72.3307 42.0972 73.8233 42.8888 73.8278 45.1186C73.7766 46.3134 73.4316 47.4771 72.8233 48.5066C72.215 49.5362 71.3622 50.3999 70.3405 51.0213C68.3096 52.1973 66.817 51.3922 66.8125 49.1713C66.808 46.9505 68.287 44.4311 70.3179 43.2597ZM70.3405 50.0443C71.0902 49.5757 71.7141 48.931 72.1579 48.1664C72.6017 47.4018 72.852 46.5403 72.887 45.6569C72.887 43.9698 71.7834 43.3953 70.3224 44.2185C69.5667 44.6858 68.9372 45.3314 68.4893 46.0988C68.0413 46.8661 67.7886 47.7317 67.7533 48.6195C67.7533 50.3021 68.8569 50.8811 70.3405 50.0443Z" fill="white"/>
<path d="M79.1618 43.2917L80.7404 44.9291L79.7046 45.5261L78.2753 44.0199C78.1486 44.1013 77.9994 44.2054 77.8637 44.2823L76.2308 45.2276V47.5298L75.29 48.0726V40.4919L77.8682 38.9993C79.5824 38.0133 80.6273 38.4022 80.6318 40.0577C80.6152 40.6676 80.4765 41.268 80.224 41.8234C79.9716 42.3789 79.6104 42.8781 79.1618 43.2917ZM77.832 43.3731C79.0397 42.6766 79.6684 41.686 79.6413 40.605C79.6141 39.524 79.008 39.2481 77.8004 39.9627L76.1947 40.8899V44.3004L77.8004 43.3957" fill="white"/>
<path d="M54.8761 24.0501L52.9403 20.3457V20.2914L53.5735 16.1076C53.6287 15.753 53.5747 15.3901 53.4188 15.067C53.2629 14.7438 53.0124 14.4757 52.7005 14.2983L43.9755 9.30484C43.7818 9.19328 43.5516 9.16325 43.3358 9.22135C43.1199 9.27946 42.9359 9.42094 42.8244 9.61467C42.7128 9.80841 42.6828 10.0385 42.7409 10.2544C42.799 10.4703 42.9405 10.6542 43.1342 10.7658L51.8638 15.7774L51.9045 15.8678L51.2758 20.0562C51.2194 20.4281 51.2828 20.8083 51.4567 21.1418L53.3926 24.8462V24.9185L50.6154 31.5675C50.5253 31.7839 50.4792 32.016 50.4797 32.2504V33.5214C50.4767 33.6015 50.4981 33.6807 50.5408 33.7485C50.5836 33.8162 50.6458 33.8695 50.7194 33.9014C50.9053 33.9952 51.1105 34.0441 51.3187 34.0441C51.5269 34.0441 51.7322 33.9952 51.918 33.9014C51.9869 33.8709 52.0463 33.8225 52.09 33.7612C52.1338 33.7 52.1603 33.6281 52.1668 33.5531V32.1962L54.9395 25.5472C55.0388 25.3082 55.0847 25.0503 55.0737 24.7916C55.0628 24.533 54.9953 24.2799 54.8761 24.0501Z" fill="#0E8EC5"/>
<path d="M57.2927 19.7922V19.7334L58.3692 16.608C58.4721 16.3083 58.4924 15.9864 58.428 15.6762L56.872 7.98696C56.8277 7.76683 56.6976 7.57335 56.5106 7.44908C56.3236 7.32482 56.0948 7.27994 55.8747 7.32432C55.6546 7.36871 55.4611 7.49872 55.3368 7.68576C55.2126 7.8728 55.1677 8.10154 55.2121 8.32166L56.7725 16.0652L55.696 19.1952C55.562 19.5803 55.562 19.9995 55.696 20.3847L56.7861 23.3428V23.3971L55.0945 28.8791C55.0443 29.0495 55.0184 29.2261 55.0176 29.4038V30.5978C55.0244 30.6716 55.0506 30.7422 55.0935 30.8025C55.1364 30.8629 55.1945 30.9109 55.2618 30.9416C55.447 31.0376 55.6526 31.0876 55.8611 31.0876C56.0697 31.0876 56.2752 31.0376 56.4604 30.9416C56.5349 30.9105 56.5981 30.8575 56.6417 30.7896C56.6853 30.7218 56.7073 30.6423 56.7047 30.5617V29.3676L58.3963 23.8856C58.5105 23.5139 58.4994 23.115 58.3647 22.7503L57.2927 19.7922Z" fill="#455A64"/>
<path d="M72.4719 12.3262H69.5455C69.2538 12.3252 68.9664 12.3966 68.7091 12.534C68.4518 12.6713 68.2325 12.8703 68.071 13.1132L66.4336 15.5602L66.3793 15.5964L64.2354 16.103C63.9664 16.1666 63.7159 16.2922 63.5039 16.4696C63.2919 16.6471 63.1242 16.8716 63.0142 17.1252C62.8483 17.5147 62.8243 17.9501 62.9463 18.3555L63.186 19.2601C63.1948 19.2818 63.1948 19.3062 63.186 19.3279C63.1722 19.3463 63.1533 19.3605 63.1318 19.3686L62.4714 19.5315C62.1725 19.6057 61.8981 19.7566 61.6753 19.9691C61.4524 20.1817 61.2887 20.4486 61.2004 20.7436L59.1605 27.5599C59.1153 27.7279 59.0955 27.9017 59.1017 28.0756V29.1249C59.1068 29.1997 59.1323 29.2717 59.1753 29.333C59.2184 29.3944 59.2774 29.4429 59.3459 29.4732C59.5318 29.567 59.7371 29.6159 59.9453 29.6159C60.1534 29.6159 60.3587 29.567 60.5446 29.4732C60.622 29.4415 60.6872 29.3856 60.7304 29.3139C60.7736 29.2422 60.7925 29.1585 60.7843 29.0752V28.0484L62.8242 21.2321L62.883 21.1733L63.5434 21.0105C63.8082 20.9418 64.0537 20.8131 64.2608 20.6342C64.4678 20.4554 64.6309 20.2313 64.7375 19.9792C64.8939 19.5906 64.9162 19.1608 64.8008 18.758L64.5565 17.8534C64.5519 17.8427 64.5496 17.8311 64.5496 17.8195C64.5496 17.8078 64.5519 17.7963 64.5565 17.7855C64.5608 17.7743 64.5682 17.7645 64.5778 17.7573C64.5874 17.7501 64.5988 17.7458 64.6108 17.7448L66.7909 17.2654C67.228 17.1599 67.6102 16.8955 67.8629 16.5236L69.4957 14.0766L69.5681 14.0359H72.4945C72.6105 14.0444 72.727 14.0289 72.8367 13.9904C72.9464 13.9518 73.047 13.8911 73.1322 13.8119C73.2173 13.7327 73.2853 13.6369 73.3317 13.5303C73.3782 13.4237 73.4022 13.3086 73.4022 13.1924C73.4022 13.0761 73.3782 12.961 73.3317 12.8544C73.2853 12.7478 73.2173 12.652 73.1322 12.5728C73.047 12.4936 72.9464 12.4329 72.8367 12.3943C72.727 12.3558 72.6105 12.3403 72.4945 12.3488L72.4719 12.3262Z" fill="#0E8EC5"/>
<g opacity="0.1">
<path d="M54.8771 24.0511L52.9412 20.3467V20.2924L53.5745 16.1085C53.6297 15.754 53.5757 15.3911 53.4198 15.0679C53.2639 14.7448 53.0134 14.4767 52.7015 14.2993L43.9765 9.30582C43.7827 9.19426 43.5526 9.16422 43.3367 9.22233C43.1209 9.28043 42.9369 9.42192 42.8254 9.61565C42.7138 9.80939 42.6838 10.0395 42.7419 10.2554C42.8 10.4713 42.9414 10.6552 43.1352 10.7668L51.8647 15.7784L51.9054 15.8688L51.2767 20.0572C51.2204 20.4291 51.2837 20.8092 51.4577 21.1427L53.3935 24.8471V24.9195L50.6164 31.5684C50.5263 31.7849 50.4802 32.017 50.4807 32.2514V33.5224C50.4777 33.6025 50.499 33.6816 50.5418 33.7494C50.5846 33.8172 50.6468 33.8705 50.7204 33.9023C50.9062 33.9962 51.1115 34.0451 51.3197 34.0451C51.5279 34.0451 51.7332 33.9962 51.919 33.9023C51.9878 33.8719 52.0472 33.8235 52.091 33.7622C52.1348 33.701 52.1613 33.6291 52.1678 33.5541V32.1971L54.9404 25.5482C55.0398 25.3092 55.0856 25.0513 55.0747 24.7926C55.0638 24.534 54.9963 24.2809 54.8771 24.0511Z" fill="white"/>
<path d="M57.2927 19.7942V19.7354L58.3692 16.6099C58.4721 16.3102 58.4924 15.9884 58.428 15.6781L56.872 7.98891C56.8277 7.76878 56.6976 7.57531 56.5106 7.45104C56.3236 7.32677 56.0948 7.28189 55.8747 7.32628C55.6546 7.37066 55.4611 7.50067 55.3368 7.68771C55.2126 7.87475 55.1677 8.10349 55.2121 8.32362L56.7725 16.0671L55.696 19.1971C55.562 19.5823 55.562 20.0015 55.696 20.3867L56.7861 23.3448V23.3991L55.0945 28.881C55.0443 29.0514 55.0184 29.2281 55.0176 29.4057V30.5998C55.0244 30.6735 55.0506 30.7441 55.0935 30.8045C55.1364 30.8649 55.1945 30.9128 55.2618 30.9436C55.447 31.0395 55.6526 31.0896 55.8611 31.0896C56.0697 31.0896 56.2752 31.0395 56.4604 30.9436C56.5349 30.9124 56.5981 30.8594 56.6417 30.7916C56.6853 30.7237 56.7073 30.6442 56.7047 30.5636V29.3695L58.3963 23.8875C58.5105 23.5159 58.4994 23.117 58.3647 22.7522L57.2927 19.7942Z" fill="white"/>
<path d="M72.471 12.3262H69.5445C69.2528 12.3252 68.9655 12.3966 68.7081 12.534C68.4508 12.6713 68.2315 12.8703 68.07 13.1132L66.4326 15.5602L66.3784 15.5964L64.2344 16.103C63.9654 16.1666 63.7149 16.2922 63.5029 16.4696C63.2909 16.6471 63.1232 16.8716 63.0132 17.1252C62.8473 17.5147 62.8233 17.9501 62.9453 18.3555L63.1851 19.2601C63.1939 19.2818 63.1939 19.3062 63.1851 19.3279C63.1712 19.3463 63.1524 19.3605 63.1308 19.3686L62.4704 19.5315C62.1715 19.6057 61.8971 19.7566 61.6743 19.9691C61.4514 20.1817 61.2878 20.4486 61.1994 20.7436L59.1595 27.5599C59.1143 27.7279 59.0945 27.9017 59.1007 28.0756V29.1249C59.1059 29.1997 59.1313 29.2717 59.1744 29.333C59.2174 29.3944 59.2764 29.4429 59.345 29.4732C59.5308 29.567 59.7361 29.6159 59.9443 29.6159C60.1525 29.6159 60.3577 29.567 60.5436 29.4732C60.621 29.4415 60.6862 29.3856 60.7294 29.3139C60.7726 29.2422 60.7915 29.1585 60.7833 29.0752V28.0484L62.8232 21.2321L62.882 21.1733L63.5424 21.0105C63.8072 20.9418 64.0527 20.8131 64.2598 20.6342C64.4669 20.4554 64.63 20.2313 64.7365 19.9792C64.893 19.5906 64.9153 19.1608 64.7998 18.758L64.5556 17.8534C64.551 17.8427 64.5486 17.8311 64.5486 17.8195C64.5486 17.8078 64.551 17.7963 64.5556 17.7855C64.5598 17.7743 64.5672 17.7645 64.5768 17.7573C64.5864 17.7501 64.5979 17.7458 64.6098 17.7448L66.79 17.2654C67.227 17.1599 67.6092 16.8955 67.8619 16.5236L69.4948 14.0766L69.5671 14.0359H72.4936C72.6095 14.0444 72.726 14.0289 72.8357 13.9904C72.9454 13.9518 73.046 13.8911 73.1312 13.8119C73.2164 13.7327 73.2843 13.6369 73.3308 13.5303C73.3772 13.4237 73.4012 13.3086 73.4012 13.1924C73.4012 13.0761 73.3772 12.961 73.3308 12.8544C73.2843 12.7478 73.2164 12.652 73.1312 12.5728C73.046 12.4936 72.9454 12.4329 72.8357 12.3943C72.726 12.3558 72.6095 12.3403 72.4936 12.3488L72.471 12.3262Z" fill="white"/>
</g>
<path d="M28.5205 1.85938L33.41 7.47704L36.8068 5.47784L40.7916 14.9718L36.169 8.24144L32.5551 10.6658L28.5205 1.85938Z" fill="#0E8EC5"/>
<path d="M51.7423 0L49.4717 4.5457L51.7423 4.89398L49.8788 9.49395L53.7822 4.1929L50.6929 3.66822L51.7423 0Z" fill="#0E8EC5"/>
<path d="M71.6613 1.5293L70.7295 6.93438L68.866 6.2333L67.8936 11.7108L69.4088 7.51334L71.5075 8.40891L71.6613 1.5293Z" fill="#0E8EC5"/>
<path d="M74.6523 11.1273L78.402 7.8435V9.48538L81.1023 7.59473L77.4702 11.4981L77.5652 9.19138L74.6523 11.1273Z" fill="#0E8EC5"/>
<path d="M73.3174 16.061L76.5966 19.1909L77.2163 17.4315L80.7488 20.1724L77.0354 15.5137L76.3614 17.8431L73.3174 16.061Z" fill="#0E8EC5"/>
<path d="M47.2866 22.7373L42.3022 24.6008L44.0617 25.9442L40.208 28.165L46.4996 26.4643L44.6135 24.9491L47.2866 22.7373Z" fill="#0E8EC5"/>
<g opacity="0.5">
<path d="M28.5225 1.85938L33.4119 7.47704L36.8087 5.47784L40.7936 14.9718L36.171 8.24144L32.5571 10.6658L28.5225 1.85938Z" fill="white"/>
<path d="M51.7452 0L49.4746 4.5457L51.7452 4.89398L49.8817 9.49395L53.7851 4.1929L50.6958 3.66822L51.7452 0Z" fill="white"/>
<path d="M71.6632 1.5293L70.7315 6.93438L68.868 6.2333L67.8955 11.7108L69.4107 7.51334L71.5094 8.40891L71.6632 1.5293Z" fill="white"/>
<path d="M74.6533 11.1273L78.403 7.8435V9.48538L81.1032 7.59473L77.4712 11.4981L77.5662 9.19138L74.6533 11.1273Z" fill="white"/>
<path d="M73.3184 16.061L76.5976 19.1909L77.2173 17.4315L80.7498 20.1724L77.0363 15.5137L76.3624 17.8431L73.3184 16.061Z" fill="white"/>
<path d="M47.2896 22.7373L42.3051 24.6008L44.0646 25.9442L40.2109 28.165L46.5025 26.4643L44.6164 24.9491L47.2896 22.7373Z" fill="white"/>
</g>
<path d="M117.627 147.773L90.0674 151.46L93.8668 160.863L121.43 157.172L117.627 147.773Z" fill="#0E8EC5"/>
<path opacity="0.2" d="M117.627 147.773L106.934 155.924L90.0674 151.46L117.627 147.773Z" fill="white"/>
<path opacity="0.1" d="M117.627 147.773L121.43 157.172L93.8668 160.863L90.0674 151.46L106.934 155.924L117.627 147.773Z" fill="white"/>
<path d="M70.9155 130.749L64.6963 139.691L90.9618 145.856L97.1811 136.914L70.9155 130.749Z" fill="#0E8EC5"/>
<path opacity="0.3" d="M97.1816 136.914L80.315 140.012L70.916 130.749L97.1816 136.914Z" fill="white"/>
<path opacity="0.1" d="M97.1811 136.914L90.9618 145.856L64.6963 139.691L70.9155 130.749L80.3145 140.012L97.1811 136.914Z" fill="white"/>
<path d="M112.139 130.541L91.1064 140.306L102.197 148.145L123.229 138.38L112.139 130.541Z" fill="#0E8EC5"/>
<path opacity="0.6" d="M91.1064 140.306L108.756 140.921L112.139 130.541L91.1064 140.306Z" fill="white"/>
<path opacity="0.4" d="M91.1064 140.306L102.197 148.145L123.229 138.38L112.139 130.541L108.756 140.921L91.1064 140.306Z" fill="white"/>
<path d="M106.535 123.481L78.2568 124.237L79.08 133.875L107.354 133.12L106.535 123.481Z" fill="#0E8EC5"/>
<path opacity="0.5" d="M106.535 123.481L93.477 130.384L78.2568 124.237L106.535 123.481Z" fill="white"/>
<path opacity="0.3" d="M106.535 123.481L107.354 133.12L79.08 133.875L78.2568 124.237L93.477 130.384L106.535 123.481Z" fill="white"/>
<path d="M110.795 113.407L102.894 129.139L118.896 131.861L126.789 116.126L110.795 113.407Z" fill="#0E8EC5"/>
<path opacity="0.5" d="M110.795 113.407L117.842 122.829L102.894 129.139L110.795 113.407Z" fill="white"/>
<path opacity="0.3" d="M118.896 131.861L102.894 129.139L117.842 122.829L110.795 113.407L126.789 116.126L118.896 131.861Z" fill="white"/>
<path opacity="0.6" d="M104.174 165.911L121.805 164.956L124.256 154.313L104.174 165.911Z" fill="white"/>
<path d="M92.685 154.152L76.2979 155.862L81.3908 172L97.778 170.295L92.685 154.152Z" fill="#0E8EC5"/>
<path opacity="0.6" d="M92.6856 154.152L97.7786 170.295L84.2139 163.678L92.6856 154.152Z" fill="white"/>
<path opacity="0.4" d="M92.685 154.152L84.2132 163.678L97.778 170.295L81.3908 172L76.2979 155.862L92.685 154.152Z" fill="white"/>
<path d="M44.614 142.681L32.8721 149.501L52.9591 161.099L64.6965 154.273L44.614 142.681Z" fill="#0E8EC5"/>
<path opacity="0.2" d="M64.6958 154.273L47.0648 153.319L44.6133 142.681L64.6958 154.273Z" fill="white"/>
<path opacity="0.1" d="M64.6965 154.273L52.9591 161.099L32.8721 149.501L44.614 142.681L47.0655 153.319L64.6965 154.273Z" fill="white"/>
<path d="M46.0026 151.311L29.8643 153.672L36.8886 169.57L53.027 167.209L46.0026 151.311Z" fill="#0E8EC5"/>
<path opacity="0.5" d="M46.003 151.311L53.0274 167.209L38.6982 161.157L46.003 151.311Z" fill="white"/>
<path opacity="0.3" d="M46.0026 151.311L38.6978 161.157L53.027 167.209L36.8886 169.57L29.8643 153.672L46.0026 151.311Z" fill="white"/>
<path d="M91.4558 143.929L63.2725 145.417L64.8374 155.028L93.0208 153.54L91.4558 143.929Z" fill="#0E8EC5"/>
<path opacity="0.6" d="M91.4558 143.929L78.9449 151.166L63.2725 145.417L91.4558 143.929Z" fill="white"/>
<path opacity="0.3" d="M91.4558 143.929L93.0208 153.54L64.8374 155.028L63.2725 145.417L78.9449 151.166L91.4558 143.929Z" fill="white"/>
<path opacity="0.1" d="M90.1166 116.601L85.9599 119.002L78.1123 123.53L98.5476 131.531L107.847 123.544L90.1166 116.601Z" fill="black"/>
<path d="M91.5234 115.8L87.3622 118.197L79.5146 122.725L98.5478 130.183L107.847 122.195L91.5234 115.8Z" fill="#0E8EC5"/>
<path opacity="0.6" d="M90.2335 123.181L107.846 122.195L91.5226 115.8L87.3613 118.197L90.2335 123.181Z" fill="white"/>
<path opacity="0.4" d="M107.847 122.195L90.2344 123.181L87.3622 118.196L79.5146 122.724L98.5478 130.182L107.847 122.195Z" fill="white"/>
</svg>
