<svg width="360" height="275" viewBox="0 0 360 275" fill="none" xmlns="http://www.w3.org/2000/svg">
<path d="M360 241.812H0V241.992H360V241.812Z" fill="#E0E0E0"/>
<path d="M273.116 248.45H248.348V248.63H273.116V248.45Z" fill="#E0E0E0"/>
<path d="M302.256 247.939H288.316V248.119H302.256V247.939Z" fill="#E0E0E0"/>
<path d="M178.083 248.364H159.594V248.544H178.083V248.364Z" fill="#E0E0E0"/>
<path d="M191.441 250.92H178.812V251.1H191.441V250.92Z" fill="#E0E0E0"/>
<path d="M104.161 246.542H66.0078V246.722H104.161V246.542Z" fill="#E0E0E0"/>
<path d="M170.641 209.7H31.6157C30.5266 209.698 29.4828 209.264 28.7133 208.493C27.9439 207.723 27.5117 206.678 27.5117 205.589V10.1592C27.5212 9.07632 27.9575 8.04093 28.726 7.2779C29.4944 6.51487 30.5328 6.08584 31.6157 6.08398H170.641C171.731 6.08398 172.777 6.51713 173.548 7.28813C174.319 8.05913 174.752 9.10483 174.752 10.1952V205.589C174.752 206.679 174.319 207.725 173.548 208.496C172.777 209.267 171.731 209.7 170.641 209.7ZM31.6157 6.22798C30.5743 6.22989 29.5763 6.64491 28.8406 7.38195C28.1049 8.11898 27.6917 9.11781 27.6917 10.1592V205.589C27.6917 206.63 28.1049 207.629 28.8406 208.366C29.5763 209.103 30.5743 209.518 31.6157 209.52H170.641C171.683 209.518 172.681 209.103 173.418 208.366C174.155 207.63 174.57 206.631 174.572 205.589V10.1592C174.57 9.11715 174.155 8.11834 173.418 7.38151C172.681 6.64468 171.683 6.22989 170.641 6.22798H31.6157Z" fill="#E0E0E0"/>
<path d="M326.381 209.7H187.349C186.26 209.698 185.215 209.264 184.445 208.494C183.674 207.723 183.24 206.679 183.238 205.589V10.1592C183.25 9.07567 183.688 8.04028 184.457 7.27745C185.227 6.51462 186.266 6.08582 187.349 6.08398H326.381C327.463 6.08773 328.5 6.5176 329.267 7.28043C330.033 8.04325 330.469 9.07757 330.478 10.1592V205.589C330.478 206.677 330.047 207.72 329.279 208.491C328.511 209.261 327.469 209.696 326.381 209.7ZM187.349 6.22798C186.307 6.22989 185.309 6.64468 184.572 7.38151C183.835 8.11834 183.42 9.11715 183.418 10.1592V205.589C183.42 206.631 183.835 207.63 184.572 208.366C185.309 209.103 186.307 209.518 187.349 209.52H326.381C327.424 209.518 328.422 209.103 329.159 208.366C329.896 207.63 330.311 206.631 330.313 205.589V10.1592C330.311 9.11715 329.896 8.11834 329.159 7.38151C328.422 6.64468 327.424 6.22989 326.381 6.22798H187.349Z" fill="#E0E0E0"/>
<path d="M312.5 23.5583H203.996V116.842H312.5V23.5583Z" fill="#E0E0E0"/>
<path d="M314.914 23.5583H206.41V116.842H314.914V23.5583Z" fill="#F0F0F0"/>
<path d="M310.586 112.464V27.936L210.736 27.936V112.464H310.586Z" fill="#FAFAFA"/>
<path d="M278.676 112.464V27.936H272.153V112.464H278.676Z" fill="#E0E0E0"/>
<path d="M244.359 112.464V27.936H237.836V112.464H244.359Z" fill="#E0E0E0"/>
<path d="M280.973 115.236V24.6743H274.449V115.236H280.973Z" fill="#F0F0F0"/>
<path d="M246.652 115.243V24.6816H240.129V115.243H246.652Z" fill="#F0F0F0"/>
<path d="M310.586 112.457V27.9287H308.764V112.457H310.586Z" fill="#E0E0E0"/>
<path d="M127.684 97.2288C127.684 97.2288 114.48 74.484 132.804 56.3472C132.804 56.3472 137.584 59.4648 137.512 63.6552C137.44 67.8456 132.386 68.904 133.473 72.4032C134.56 75.9024 139.32 79.3224 136.195 82.2168C133.07 85.1112 136.699 87.6744 136.49 91.2168C136.281 94.7592 127.684 97.2288 127.684 97.2288Z" fill="#E0E0E0"/>
<path d="M129.757 100.951C129.757 100.951 135.114 75.1897 112.016 63.7705C112.016 63.7705 108.46 68.2345 109.856 72.1873C111.253 76.1401 116.372 75.5497 116.444 79.2145C116.516 82.8793 113.082 87.6313 116.956 89.3881C120.829 91.1449 118.201 94.7305 119.519 98.0281C120.836 101.326 129.757 100.951 129.757 100.951Z" fill="#E6E6E6"/>
<path d="M118 94.4065C118 94.4065 118.23 116.647 127.122 116.647C136.014 116.647 136.238 94.4065 136.238 94.4065H118Z" fill="#F0F0F0"/>
<path d="M64.5781 108.281C64.5781 108.281 65.0749 116.647 84.0613 116.647C103.048 116.647 103.552 108.281 103.552 108.281H64.5781Z" fill="#E6E6E6"/>
<path d="M264.744 158.724H254.722C253.473 158.724 252.461 159.736 252.461 160.985V177.559C252.461 178.808 253.473 179.82 254.722 179.82H264.744C265.993 179.82 267.005 178.808 267.005 177.559V160.985C267.005 159.736 265.993 158.724 264.744 158.724Z" fill="#F0F0F0"/>
<path d="M291.328 165.622H284.582C283.743 165.622 283.062 166.302 283.062 167.141V178.301C283.062 179.14 283.743 179.82 284.582 179.82H291.328C292.167 179.82 292.847 179.14 292.847 178.301V167.141C292.847 166.302 292.167 165.622 291.328 165.622Z" fill="#E6E6E6"/>
<path d="M292.336 164.246H283.574C283.291 164.246 283.062 164.475 283.062 164.758V165.334C283.062 165.616 283.291 165.845 283.574 165.845H292.336C292.618 165.845 292.847 165.616 292.847 165.334V164.758C292.847 164.475 292.618 164.246 292.336 164.246Z" fill="#F0F0F0"/>
<path d="M229.262 168.084C229.262 168.084 229.622 179.82 243.367 179.82C257.111 179.82 257.478 168.084 257.478 168.084H229.262Z" fill="#E6E6E6"/>
<path d="M195.078 152.583H215.879V148.479H195.078V152.583Z" fill="#E0E0E0"/>
<path d="M319.293 148.486H215.879V152.59H319.293V148.486Z" fill="#F0F0F0"/>
<path d="M195.078 183.924H215.879V179.82H195.078V183.924Z" fill="#E0E0E0"/>
<path d="M319.293 179.82H215.879V183.924H319.293V179.82Z" fill="#F0F0F0"/>
<path d="M202.572 152.583H198.734V241.805H202.572V152.583Z" fill="#E0E0E0"/>
<path d="M219.717 152.583H215.879V241.805H219.717V152.583Z" fill="#F0F0F0"/>
<path d="M305.986 152.583H302.148V241.805H305.986V152.583Z" fill="#E0E0E0"/>
<path d="M319.291 152.583H315.453V241.805H319.291V152.583Z" fill="#F0F0F0"/>
<path d="M64.5767 121.867H44.9062V236.412H64.5767V121.867Z" fill="#E6E6E6"/>
<path d="M145.686 236.405H48.6875V241.812H145.686V236.405Z" fill="#E6E6E6"/>
<path d="M64.5762 236.405H149.457V121.86L64.5762 121.86L64.5762 236.405Z" fill="#F0F0F0"/>
<path d="M72.3075 193.125H141.723V165.146H72.3075V193.125Z" fill="#E6E6E6"/>
<path d="M72.3075 226.202H141.723V198.223H72.3075V226.202Z" fill="#E6E6E6"/>
<path d="M114.812 168.214H99.2238C98.7164 168.212 98.2304 168.009 97.8716 167.651C97.5129 167.292 97.3105 166.806 97.3086 166.298C97.3086 165.79 97.5101 165.302 97.8691 164.942C98.2281 164.581 98.7152 164.378 99.2238 164.376H114.812C115.32 164.378 115.808 164.581 116.166 164.942C116.525 165.302 116.727 165.79 116.727 166.298C116.725 166.806 116.523 167.292 116.164 167.651C115.805 168.009 115.319 168.212 114.812 168.214Z" fill="#F0F0F0"/>
<path d="M72.3075 160.042H141.723V132.062H72.3075V160.042Z" fill="#E6E6E6"/>
<path d="M114.812 135.137H99.2238C98.7152 135.135 98.2281 134.931 97.8691 134.571C97.5101 134.211 97.3086 133.723 97.3086 133.214C97.3105 132.707 97.5129 132.221 97.8716 131.862C98.2304 131.503 98.7164 131.301 99.2238 131.299H114.812C115.319 131.301 115.805 131.503 116.164 131.862C116.523 132.221 116.725 132.707 116.727 133.214C116.727 133.723 116.525 134.211 116.166 134.571C115.808 134.931 115.32 135.135 114.812 135.137Z" fill="#F0F0F0"/>
<path d="M114.812 201.29H99.2238C98.7164 201.289 98.2304 201.086 97.8716 200.727C97.5129 200.369 97.3105 199.883 97.3086 199.375C97.3086 198.867 97.5101 198.379 97.8691 198.018C98.2281 197.658 98.7152 197.455 99.2238 197.453H114.812C115.32 197.455 115.808 197.658 116.166 198.018C116.525 198.379 116.727 198.867 116.727 199.375C116.725 199.883 116.523 200.369 116.164 200.727C115.805 201.086 115.319 201.289 114.812 201.29Z" fill="#F0F0F0"/>
<path d="M152.08 116.647H64.5781V121.867H152.08V116.647Z" fill="#E6E6E6"/>
<path d="M42.1573 121.86H64.5781V116.64H42.1573V121.86Z" fill="#E0E0E0"/>
<path d="M86.4998 27.936H54.6758V62.8848H86.4998V27.936Z" fill="#E6E6E6"/>
<path d="M89.9494 27.936H57.0742V62.8848H89.9494V27.936Z" fill="#F0F0F0"/>
<path d="M87.1914 60.1271V30.6863H59.8242V60.1271H87.1914Z" fill="#FAFAFA"/>
<path d="M80.5625 52.9919V37.8215H66.4649V52.9919H80.5625Z" fill="#F0F0F0"/>
<path d="M120.052 17.6184H95.918V43.5456H120.052V17.6184Z" fill="#E6E6E6"/>
<path d="M122.617 17.6184H98.2305V43.5456H122.617V17.6184Z" fill="#F0F0F0"/>
<path d="M120.57 41.5007V19.6631H100.274V41.5007H120.57Z" fill="#FAFAFA"/>
<path d="M110.418 25.0559L104.867 34.6751H115.97L110.418 25.0559Z" fill="#F0F0F0"/>
<path d="M179.999 274.327C257.099 274.327 319.6 270.678 319.6 266.177C319.6 261.675 257.099 258.026 179.999 258.026C102.9 258.026 40.3984 261.675 40.3984 266.177C40.3984 270.678 102.9 274.327 179.999 274.327Z" fill="#F5F5F5"/>
<path d="M302.253 71.4744H231.621C227.895 71.4744 224.875 74.4948 224.875 78.2208V97.4304C224.875 101.156 227.895 104.177 231.621 104.177H302.253C305.979 104.177 309 101.156 309 97.4304V78.2208C309 74.4948 305.979 71.4744 302.253 71.4744Z" fill="#0E8EC5"/>
<path d="M288.245 76.9895H233.071C232.419 76.9895 231.891 77.5182 231.891 78.1703V79.4663C231.891 80.1184 232.419 80.6471 233.071 80.6471H288.245C288.897 80.6471 289.426 80.1184 289.426 79.4663V78.1703C289.426 77.5182 288.897 76.9895 288.245 76.9895Z" fill="#0E8EC5"/>
<path d="M270.771 85.8025H233.071C232.419 85.8025 231.891 86.3312 231.891 86.9833V88.2793C231.891 88.9314 232.419 89.4601 233.071 89.4601H270.771C271.423 89.4601 271.951 88.9314 271.951 88.2793V86.9833C271.951 86.3312 271.423 85.8025 270.771 85.8025Z" fill="#0E8EC5"/>
<path d="M260.662 94.6152H233.071C232.419 94.6152 231.891 95.1439 231.891 95.796V97.092C231.891 97.7442 232.419 98.2728 233.071 98.2728H260.662C261.314 98.2728 261.843 97.7442 261.843 97.092V95.796C261.843 95.1439 261.314 94.6152 260.662 94.6152Z" fill="#0E8EC5"/>
<path d="M294.853 94.6152H267.263C266.611 94.6152 266.082 95.1439 266.082 95.796V97.092C266.082 97.7442 266.611 98.2728 267.263 98.2728H294.853C295.505 98.2728 296.034 97.7442 296.034 97.092V95.796C296.034 95.1439 295.505 94.6152 294.853 94.6152Z" fill="#0E8EC5"/>
<g opacity="0.5">
<path d="M288.241 76.9895H233.068C232.415 76.9895 231.887 77.5182 231.887 78.1703V79.4663C231.887 80.1184 232.415 80.6471 233.068 80.6471H288.241C288.893 80.6471 289.422 80.1184 289.422 79.4663V78.1703C289.422 77.5182 288.893 76.9895 288.241 76.9895Z" fill="white"/>
<path d="M270.767 85.8022H233.068C232.415 85.8022 231.887 86.3309 231.887 86.983V88.279C231.887 88.9312 232.415 89.4598 233.068 89.4598H270.767C271.419 89.4598 271.948 88.9312 271.948 88.279V86.983C271.948 86.3309 271.419 85.8022 270.767 85.8022Z" fill="white"/>
<path d="M260.658 94.6152H233.068C232.415 94.6152 231.887 95.1439 231.887 95.796V97.092C231.887 97.7442 232.415 98.2728 233.068 98.2728H260.658C261.31 98.2728 261.839 97.7442 261.839 97.092V95.796C261.839 95.1439 261.31 94.6152 260.658 94.6152Z" fill="white"/>
<path d="M294.849 94.6152H267.259C266.607 94.6152 266.078 95.1439 266.078 95.796V97.092C266.078 97.7442 266.607 98.2728 267.259 98.2728H294.849C295.501 98.2728 296.03 97.7442 296.03 97.092V95.796C296.03 95.1439 295.501 94.6152 294.849 94.6152Z" fill="white"/>
</g>
<path d="M245.678 63.8496H165.506C160.042 63.8496 155.613 68.2788 155.613 73.7424V101.909C155.613 107.372 160.042 111.802 165.506 111.802H245.678C251.142 111.802 255.571 107.372 255.571 101.909V73.7424C255.571 68.2788 251.142 63.8496 245.678 63.8496Z" fill="#0E8EC5"/>
<path d="M248.515 71.9353H167.63C166.671 71.9353 165.895 72.7122 165.895 73.6705V75.5641C165.895 76.5224 166.671 77.2993 167.63 77.2993H248.515C249.473 77.2993 250.25 76.5224 250.25 75.5641V73.6705C250.25 72.7122 249.473 71.9353 248.515 71.9353Z" fill="#0E8EC5"/>
<path d="M222.89 84.8591H167.63C166.671 84.8591 165.895 85.636 165.895 86.5943V88.4879C165.895 89.4463 166.671 90.2231 167.63 90.2231H222.89C223.848 90.2231 224.625 89.4463 224.625 88.4879V86.5943C224.625 85.636 223.848 84.8591 222.89 84.8591Z" fill="#0E8EC5"/>
<path d="M208.072 97.7832H167.63C166.671 97.7832 165.895 98.5601 165.895 99.5184V101.412C165.895 102.37 166.671 103.147 167.63 103.147H208.072C209.03 103.147 209.807 102.37 209.807 101.412V99.5184C209.807 98.5601 209.03 97.7832 208.072 97.7832Z" fill="#0E8EC5"/>
<path d="M251.459 97.7832H217.763C216.804 97.7832 216.027 98.5601 216.027 99.5184V101.412C216.027 102.37 216.804 103.147 217.763 103.147H251.459C252.417 103.147 253.194 102.37 253.194 101.412V99.5184C253.194 98.5601 252.417 97.7832 251.459 97.7832Z" fill="#0E8EC5"/>
<g opacity="0.5">
<path d="M248.515 71.9353H167.63C166.671 71.9353 165.895 72.7122 165.895 73.6705V75.5641C165.895 76.5224 166.671 77.2993 167.63 77.2993H248.515C249.473 77.2993 250.25 76.5224 250.25 75.5641V73.6705C250.25 72.7122 249.473 71.9353 248.515 71.9353Z" fill="white"/>
<path d="M222.89 84.8594H167.63C166.671 84.8594 165.895 85.6363 165.895 86.5946V88.4882C165.895 89.4465 166.671 90.2234 167.63 90.2234H222.89C223.848 90.2234 224.625 89.4465 224.625 88.4882V86.5946C224.625 85.6363 223.848 84.8594 222.89 84.8594Z" fill="white"/>
<path d="M208.072 97.7832H167.63C166.671 97.7832 165.895 98.5601 165.895 99.5184V101.412C165.895 102.37 166.671 103.147 167.63 103.147H208.072C209.03 103.147 209.807 102.37 209.807 101.412V99.5184C209.807 98.5601 209.03 97.7832 208.072 97.7832Z" fill="white"/>
<path d="M251.459 97.7832H217.763C216.804 97.7832 216.027 98.5601 216.027 99.5184V101.412C216.027 102.37 216.804 103.147 217.763 103.147H251.459C252.417 103.147 253.194 102.37 253.194 101.412V99.5184C253.194 98.5601 252.417 97.7832 251.459 97.7832Z" fill="white"/>
</g>
<path d="M195.83 120.492H157.216C154.663 120.492 152.594 122.561 152.594 125.114V182.959C152.594 185.512 154.663 187.582 157.216 187.582H195.83C198.383 187.582 200.452 185.512 200.452 182.959V125.114C200.452 122.561 198.383 120.492 195.83 120.492Z" fill="#0E8EC5"/>
<path opacity="0.4" d="M195.83 120.492H157.216C154.663 120.492 152.594 122.561 152.594 125.114V182.959C152.594 185.512 154.663 187.582 157.216 187.582H195.83C198.383 187.582 200.452 185.512 200.452 182.959V125.114C200.452 122.561 198.383 120.492 195.83 120.492Z" fill="black"/>
<path d="M194.061 127.49H158.982C158.513 127.49 158.133 127.871 158.133 128.34V129.614C158.133 130.084 158.513 130.464 158.982 130.464H194.061C194.53 130.464 194.91 130.084 194.91 129.614V128.34C194.91 127.871 194.53 127.49 194.061 127.49Z" fill="#FAFAFA"/>
<path d="M182.894 134.647H158.982C158.513 134.647 158.133 135.028 158.133 135.497V136.771C158.133 137.24 158.513 137.621 158.982 137.621H182.894C183.363 137.621 183.743 137.24 183.743 136.771V135.497C183.743 135.028 183.363 134.647 182.894 134.647Z" fill="#FAFAFA"/>
<path d="M194.061 141.811H158.982C158.513 141.811 158.133 142.192 158.133 142.661V143.935C158.133 144.405 158.513 144.785 158.982 144.785H194.061C194.53 144.785 194.91 144.405 194.91 143.935V142.661C194.91 142.192 194.53 141.811 194.061 141.811Z" fill="#FAFAFA"/>
<path d="M172.022 148.968H158.982C158.513 148.968 158.133 149.348 158.133 149.818V151.092C158.133 151.561 158.513 151.942 158.982 151.942H172.022C172.491 151.942 172.871 151.561 172.871 151.092V149.818C172.871 149.348 172.491 148.968 172.022 148.968Z" fill="#FAFAFA"/>
<path d="M190.268 148.968H177.229C176.759 148.968 176.379 149.348 176.379 149.818V151.092C176.379 151.561 176.759 151.942 177.229 151.942H190.268C190.737 151.942 191.117 151.561 191.117 151.092V149.818C191.117 149.348 190.737 148.968 190.268 148.968Z" fill="#FAFAFA"/>
<path d="M194.061 156.132H158.982C158.513 156.132 158.133 156.512 158.133 156.982V158.256C158.133 158.725 158.513 159.106 158.982 159.106H194.061C194.53 159.106 194.91 158.725 194.91 158.256V156.982C194.91 156.512 194.53 156.132 194.061 156.132Z" fill="#FAFAFA"/>
<path d="M194.061 163.289H158.982C158.513 163.289 158.133 163.669 158.133 164.138V165.413C158.133 165.882 158.513 166.262 158.982 166.262H194.061C194.53 166.262 194.91 165.882 194.91 165.413V164.138C194.91 163.669 194.53 163.289 194.061 163.289Z" fill="#FAFAFA"/>
<path d="M187.84 170.453H158.982C158.513 170.453 158.133 170.833 158.133 171.302V172.577C158.133 173.046 158.513 173.426 158.982 173.426H187.84C188.309 173.426 188.69 173.046 188.69 172.577V171.302C188.69 170.833 188.309 170.453 187.84 170.453Z" fill="#FAFAFA"/>
<path d="M172.446 177.61H158.982C158.513 177.61 158.133 177.99 158.133 178.459V179.734C158.133 180.203 158.513 180.583 158.982 180.583H172.446C172.916 180.583 173.296 180.203 173.296 179.734V178.459C173.296 177.99 172.916 177.61 172.446 177.61Z" fill="#FAFAFA"/>
<path d="M206.28 120.082H152.719L176.4 138.924L212.709 152.604V126.497C212.705 124.794 212.026 123.162 210.821 121.96C209.616 120.757 207.982 120.082 206.28 120.082Z" fill="#0E8EC5"/>
<path opacity="0.4" d="M206.28 120.082H152.719L176.4 138.924L212.709 152.604V126.497C212.705 124.794 212.026 123.162 210.821 121.96C209.616 120.757 207.982 120.082 206.28 120.082Z" fill="black"/>
<path d="M203.939 129.787H164.749C164.161 129.787 163.684 130.264 163.684 130.853V132.84C163.684 133.428 164.161 133.906 164.749 133.906H203.939C204.527 133.906 205.004 133.428 205.004 132.84V130.853C205.004 130.264 204.527 129.787 203.939 129.787Z" fill="#FAFAFA"/>
<path d="M298.906 171.086V133.416C298.906 130.529 296.566 128.189 293.679 128.189H228.267C225.38 128.189 223.04 130.529 223.04 133.416V171.086C223.04 173.973 225.38 176.314 228.267 176.314H293.679C296.566 176.314 298.906 173.973 298.906 171.086Z" fill="#0E8EC5"/>
<path d="M310.852 159.149V121.478C310.852 118.592 308.511 116.251 305.624 116.251H240.212C237.325 116.251 234.985 118.592 234.985 121.478V159.149C234.985 162.036 237.325 164.376 240.212 164.376H305.624C308.511 164.376 310.852 162.036 310.852 159.149Z" fill="#0E8EC5"/>
<path opacity="0.5" d="M310.852 159.149V121.478C310.852 118.592 308.511 116.251 305.624 116.251H240.212C237.325 116.251 234.985 118.592 234.985 121.478V159.149C234.985 162.036 237.325 164.376 240.212 164.376H305.624C308.511 164.376 310.852 162.036 310.852 159.149Z" fill="white"/>
<path d="M304.215 146.239V123.048C304.215 121.764 303.174 120.722 301.889 120.722H280.512C279.228 120.722 278.187 121.764 278.187 123.048V146.239C278.187 147.524 279.228 148.565 280.512 148.565H301.889C303.174 148.565 304.215 147.524 304.215 146.239Z" fill="#0E8EC5"/>
<path opacity="0.7" d="M304.215 146.239V123.048C304.215 121.764 303.174 120.722 301.889 120.722H280.512C279.228 120.722 278.187 121.764 278.187 123.048V146.239C278.187 147.524 279.228 148.565 280.512 148.565H301.889C303.174 148.565 304.215 147.524 304.215 146.239Z" fill="white"/>
<path d="M274.109 157.457V139.687C274.109 138.701 273.31 137.902 272.324 137.902H255.944C254.958 137.902 254.158 138.701 254.158 139.687V157.457C254.158 158.443 254.958 159.242 255.944 159.242H272.324C273.31 159.242 274.109 158.443 274.109 157.457Z" fill="#0E8EC5"/>
<path opacity="0.3" d="M274.109 157.457V139.687C274.109 138.701 273.31 137.902 272.324 137.902H255.944C254.958 137.902 254.158 138.701 254.158 139.687V157.457C254.158 158.443 254.958 159.242 255.944 159.242H272.324C273.31 159.242 274.109 158.443 274.109 157.457Z" fill="white"/>
<path d="M264.133 44.7911V35.1935C264.133 32.2589 261.754 29.8799 258.819 29.8799L83.0456 29.8799C80.111 29.8799 77.732 32.2589 77.732 35.1935V44.7911C77.732 47.7257 80.111 50.1047 83.0456 50.1047L258.819 50.1047C261.754 50.1047 264.133 47.7257 264.133 44.7911Z" fill="#0E8EC5"/>
<path opacity="0.5" d="M264.133 44.7911V35.1935C264.133 32.2589 261.754 29.8799 258.819 29.8799L83.0456 29.8799C80.111 29.8799 77.732 32.2589 77.732 35.1935V44.7911C77.732 47.7257 80.111 50.1047 83.0456 50.1047L258.819 50.1047C261.754 50.1047 264.133 47.7257 264.133 44.7911Z" fill="white"/>
<path d="M230.875 53.4888V46.5264H180.295V53.4888H230.875Z" fill="#0E8EC5"/>
<path opacity="0.5" d="M230.875 53.4888V46.5264H180.295V53.4888H230.875Z" fill="white"/>
<path d="M282.27 14.9112V5.3136C282.27 2.37898 279.891 0 276.956 0L101.182 0C98.2477 0 95.8687 2.37898 95.8687 5.3136V14.9112C95.8687 17.8458 98.2477 20.2248 101.182 20.2248L276.956 20.2248C279.891 20.2248 282.27 17.8458 282.27 14.9112Z" fill="#0E8EC5"/>
<path d="M93.8582 106.351C93.2246 107.791 92.5262 109.347 91.9142 110.866C91.3022 112.385 90.6686 113.947 90.1142 115.503C88.9766 118.534 88.0646 121.646 87.3854 124.812L87.1766 125.964L87.1046 126.396C87.1046 126.519 87.1046 126.677 87.0614 126.821C87.034 127.522 87.0484 128.224 87.1046 128.923C87.2414 130.443 87.4862 132.07 87.8246 133.697C88.4294 136.959 89.1998 140.321 89.9846 143.633L86.291 145.073C84.5692 141.934 83.1028 138.662 81.9062 135.288C81.2757 133.532 80.7657 131.735 80.3798 129.91C80.1635 128.9 80.0287 127.874 79.9766 126.843C79.9766 126.555 79.9766 126.281 79.9766 125.971C79.9766 125.662 79.9766 125.316 80.027 125.115L80.171 123.675C80.3861 121.82 80.7155 119.981 81.1574 118.167C81.5606 116.367 82.079 114.617 82.5974 112.889C83.1158 111.161 83.7638 109.462 84.4478 107.791C84.7862 106.956 85.1678 106.128 85.499 105.3C85.8302 104.472 86.219 103.68 86.6798 102.795L93.8582 106.351Z" fill="#E4897B"/>
<path d="M89.7889 142.661L92.5969 145.404L86.4697 148.284C86.4697 148.284 84.9865 145.685 86.0161 143.338L89.7889 142.661Z" fill="#E4897B"/>
<path d="M94.8646 149.487L89.6878 151.603L86.4766 148.256L92.5966 145.404L94.8646 149.487Z" fill="#E4897B"/>
<path opacity="0.4" d="M199.735 146.535C189.548 145.391 179.929 141.252 172.093 134.642C164.257 128.032 158.558 119.247 155.714 109.398C152.87 99.5492 153.011 89.0782 156.117 79.3089C159.224 69.5396 165.157 60.9107 173.167 54.513C181.177 48.1153 190.904 44.236 201.118 43.3657C211.333 42.4953 221.576 44.6729 230.553 49.6232C239.53 54.5735 246.837 62.0742 251.552 71.177C256.267 80.2799 258.177 90.5762 257.04 100.764C256.285 107.533 254.204 114.087 250.915 120.052C247.626 126.016 243.194 131.273 237.872 135.524C232.55 139.775 226.443 142.935 219.899 144.824C213.356 146.713 206.504 147.295 199.735 146.535Z" fill="#FAFAFA"/>
<path opacity="0.4" d="M237.447 54.1731L158.607 117.166C158.276 116.446 157.952 115.726 157.65 115.006C155.673 110.304 154.409 105.335 153.898 100.26L221.996 45.8499C227.587 47.7148 232.814 50.5305 237.447 54.1731Z" fill="#FAFAFA"/>
<path opacity="0.4" d="M255.642 81.7708L181.518 140.991C174.476 137.32 168.374 132.077 163.684 125.669L244.619 60.9988C249.836 66.987 253.607 74.0938 255.642 81.7708Z" fill="#FAFAFA"/>
<path d="M147.161 75.2043L146.477 74.9739C147.661 71.4784 149.15 68.0934 150.926 64.858L151.553 65.2036C149.8 68.4028 148.33 71.7491 147.161 75.2043ZM155.901 58.3996L155.318 57.9747C161.235 49.974 168.979 43.5038 177.905 39.1035L178.229 39.7516C169.405 44.1064 161.749 50.5074 155.901 58.4212V58.3996ZM234.806 40.7379C232.453 39.476 230.019 38.3719 227.52 37.4331L227.779 36.7563C230.303 37.7172 232.761 38.8428 235.137 40.1259L234.806 40.7379Z" fill="#0E8EC5"/>
<path opacity="0.3" d="M147.161 75.2043L146.477 74.9739C147.661 71.4784 149.15 68.0934 150.926 64.858L151.553 65.2036C149.8 68.4028 148.33 71.7491 147.161 75.2043ZM155.901 58.3996L155.318 57.9747C161.235 49.974 168.979 43.5038 177.905 39.1035L178.229 39.7516C169.405 44.1064 161.749 50.5074 155.901 58.4212V58.3996ZM234.806 40.7379C232.453 39.476 230.019 38.3719 227.52 37.4331L227.779 36.7563C230.303 37.7172 232.761 38.8428 235.137 40.1259L234.806 40.7379Z" fill="black"/>
<path d="M259.105 68.5371C252.438 54.7097 240.706 43.9782 226.34 38.5672C211.975 33.1561 196.078 33.4807 181.946 39.4735C167.813 45.4663 156.529 56.6678 150.431 70.7558C144.334 84.8437 143.892 100.738 149.197 115.143C144.388 116.827 139.636 118.635 134.912 120.499C128.101 123.202 121.352 126.024 114.666 128.967C107.984 131.926 101.332 134.943 94.7436 138.096C91.4388 139.644 88.1772 141.279 84.8868 142.863C83.1751 143.598 81.6242 144.662 80.322 145.995C79.6173 146.733 78.9967 147.546 78.4716 148.421C77.8309 149.456 77.3457 150.579 77.0316 151.755C76.4898 153.873 76.7241 156.116 77.6921 158.077C78.6601 160.038 80.2978 161.588 82.3092 162.447C83.4261 162.915 84.6046 163.221 85.8084 163.354C86.8251 163.469 87.8516 163.469 88.8684 163.354C90.7161 163.13 92.5018 162.545 94.1244 161.633C97.386 159.984 100.669 158.393 103.909 156.701C110.389 153.396 116.869 149.947 123.27 146.448C129.671 142.949 136.079 139.284 142.328 135.526C146.648 132.912 151.012 130.241 155.288 127.447C163.501 140.412 176.386 149.721 191.275 153.444C206.164 157.167 221.914 155.019 235.262 147.445C248.61 139.872 258.533 127.454 262.975 112.763C267.416 98.0732 266.036 82.2373 259.12 68.5371H259.105ZM226.374 137.319C218.007 141.449 208.602 143.005 199.351 141.791C190.099 140.576 181.415 136.646 174.397 130.497C167.379 124.347 162.341 116.255 159.922 107.243C157.503 98.2305 157.811 88.7034 160.806 79.866C163.801 71.0286 169.349 63.2777 176.749 57.5935C184.149 51.9092 193.068 48.5469 202.379 47.9315C211.69 47.3162 220.974 49.4755 229.058 54.1365C237.142 58.7974 243.662 65.7507 247.794 74.1171C250.538 79.6733 252.161 85.7156 252.57 91.8991C252.978 98.0825 252.165 104.286 250.176 110.155C248.187 116.024 245.061 121.444 240.977 126.104C236.893 130.765 231.931 134.576 226.374 137.319Z" fill="#0E8EC5"/>
<path opacity="0.3" d="M259.105 68.5371C252.438 54.7097 240.706 43.9782 226.34 38.5672C211.975 33.1561 196.078 33.4807 181.946 39.4735C167.813 45.4663 156.529 56.6678 150.431 70.7558C144.334 84.8437 143.892 100.738 149.197 115.143C144.388 116.827 139.636 118.635 134.912 120.499C128.101 123.202 121.352 126.024 114.666 128.967C107.984 131.926 101.332 134.943 94.7436 138.096C91.4388 139.644 88.1772 141.279 84.8868 142.863C83.1751 143.598 81.6242 144.662 80.322 145.995C79.6173 146.733 78.9967 147.546 78.4716 148.421C77.8309 149.456 77.3457 150.579 77.0316 151.755C76.4898 153.873 76.7241 156.116 77.6921 158.077C78.6601 160.038 80.2978 161.588 82.3092 162.447C83.4261 162.915 84.6046 163.221 85.8084 163.354C86.8251 163.469 87.8516 163.469 88.8684 163.354C90.7161 163.13 92.5018 162.545 94.1244 161.633C97.386 159.984 100.669 158.393 103.909 156.701C110.389 153.396 116.869 149.947 123.27 146.448C129.671 142.949 136.079 139.284 142.328 135.526C146.648 132.912 151.012 130.241 155.288 127.447C163.501 140.412 176.386 149.721 191.275 153.444C206.164 157.167 221.914 155.019 235.262 147.445C248.61 139.872 258.533 127.454 262.975 112.763C267.416 98.0732 266.036 82.2373 259.12 68.5371H259.105ZM226.374 137.319C218.007 141.449 208.602 143.005 199.351 141.791C190.099 140.576 181.415 136.646 174.397 130.497C167.379 124.347 162.341 116.255 159.922 107.243C157.503 98.2305 157.811 88.7034 160.806 79.866C163.801 71.0286 169.349 63.2777 176.749 57.5935C184.149 51.9092 193.068 48.5469 202.379 47.9315C211.69 47.3162 220.974 49.4755 229.058 54.1365C237.142 58.7974 243.662 65.7507 247.794 74.1171C250.538 79.6733 252.161 85.7156 252.57 91.8991C252.978 98.0825 252.165 104.286 250.176 110.155C248.187 116.024 245.061 121.444 240.977 126.104C236.893 130.765 231.931 134.576 226.374 137.319Z" fill="black"/>
<path d="M113.758 80.6403C113.758 81.0651 113.981 81.4107 114.262 81.4107C114.543 81.4107 114.766 81.0651 114.766 80.6403C114.766 80.2155 114.543 79.8699 114.262 79.8699C113.981 79.8699 113.758 80.2443 113.758 80.6403Z" fill="#263238"/>
<path d="M113.961 81.4106C114.471 82.7146 115.156 83.9428 115.999 85.061C115.707 85.2694 115.374 85.4115 115.022 85.4774C114.67 85.5434 114.308 85.5315 113.961 85.4426V81.4106Z" fill="#DE5753"/>
<path d="M112.27 78.2714C112.229 78.2714 112.19 78.2624 112.154 78.2449C112.117 78.2274 112.086 78.202 112.061 78.1706C112.023 78.1156 112.008 78.0484 112.019 77.9827C112.03 77.917 112.065 77.858 112.118 77.8178C112.435 77.5773 112.806 77.417 113.198 77.3506C113.591 77.2841 113.993 77.3135 114.372 77.4362C114.406 77.4455 114.438 77.4617 114.465 77.484C114.492 77.5063 114.515 77.534 114.531 77.5655C114.546 77.5969 114.556 77.6313 114.557 77.6665C114.559 77.7017 114.554 77.7369 114.541 77.7698C114.528 77.8027 114.509 77.8326 114.484 77.8575C114.459 77.8824 114.429 77.9018 114.396 77.9145C114.363 77.9272 114.328 77.9328 114.293 77.931C114.258 77.9292 114.223 77.9201 114.192 77.9042C113.891 77.812 113.573 77.7932 113.263 77.8496C112.954 77.906 112.662 78.0358 112.414 78.2282C112.371 78.2565 112.321 78.2715 112.27 78.2714Z" fill="#263238"/>
<path d="M99.2147 83.8442C99.9347 87.7106 100.727 94.8026 98.0195 97.3874C98.0195 97.3874 99.0779 101.311 106.271 101.311C114.191 101.311 110.044 97.3874 110.044 97.3874C105.724 96.3506 105.846 93.1538 106.595 90.1442L99.2147 83.8442Z" fill="#E4897B"/>
<path d="M94.7863 99.425C95.6431 98.093 94.2031 94.8602 94.2031 94.8602C94.2031 94.8602 106.933 91.6562 112.138 96.5738C113.218 97.589 112.023 99.0866 112.023 99.0866L94.7863 99.425Z" fill="#0E8EC5"/>
<path opacity="0.1" d="M94.7863 99.425C95.6431 98.093 94.2031 94.8602 94.2031 94.8602C94.2031 94.8602 106.933 91.6562 112.138 96.5738C113.218 97.589 112.023 99.0866 112.023 99.0866L94.7863 99.425Z" fill="black"/>
<path d="M73.7285 246.327C73.0589 246.327 71.9861 245.211 71.6693 244.793C71.6557 244.773 71.6484 244.749 71.6484 244.725C71.6484 244.7 71.6557 244.677 71.6693 244.656C71.681 244.636 71.6978 244.62 71.7181 244.608C71.7383 244.597 71.7613 244.591 71.7845 244.592C71.8637 244.592 73.6277 244.75 74.1101 245.376C74.1626 245.443 74.2001 245.519 74.2199 245.601C74.2398 245.683 74.2417 245.769 74.2253 245.852C74.2191 245.959 74.1797 246.061 74.1126 246.145C74.0456 246.229 73.9541 246.29 73.8509 246.32L73.7285 246.327ZM72.0581 244.887C72.5837 245.492 73.4261 246.176 73.7861 246.089C73.7861 246.089 73.9301 246.053 73.9733 245.823C73.9828 245.775 73.9812 245.725 73.9688 245.678C73.9563 245.63 73.9332 245.586 73.9013 245.549C73.368 245.145 72.7262 244.91 72.0581 244.872V244.887Z" fill="#0E8EC5"/>
<path d="M72.1378 244.872C72.0085 244.885 71.8783 244.885 71.749 244.872C71.7263 244.871 71.7045 244.862 71.6866 244.848C71.6686 244.834 71.6553 244.815 71.6482 244.793C71.6381 244.773 71.6328 244.751 71.6328 244.728C71.6328 244.706 71.6381 244.684 71.6482 244.664C71.6986 244.62 72.757 243.519 73.5562 243.519C73.6519 243.517 73.7469 243.535 73.835 243.572C73.9231 243.609 74.0023 243.665 74.0674 243.735C74.1391 243.795 74.1882 243.877 74.2065 243.969C74.2248 244.061 74.2113 244.156 74.1682 244.239C73.9594 244.642 72.8578 244.872 72.1378 244.872ZM72.0442 244.62C72.7642 244.62 73.8082 244.397 73.981 244.08C73.981 244.08 74.0314 243.987 73.9162 243.872C73.8743 243.826 73.823 243.79 73.7657 243.767C73.7085 243.743 73.6469 243.732 73.585 243.735C72.9948 243.87 72.4583 244.179 72.0442 244.62Z" fill="#0E8EC5"/>
<path d="M121.242 262.671C120.696 262.667 120.152 262.616 119.615 262.519C119.588 262.514 119.564 262.5 119.547 262.479C119.53 262.458 119.521 262.431 119.521 262.404C119.517 262.379 119.52 262.354 119.531 262.331C119.541 262.308 119.558 262.288 119.579 262.275C119.658 262.231 121.501 261.173 122.387 261.418C122.469 261.436 122.546 261.471 122.614 261.521C122.683 261.571 122.74 261.633 122.783 261.706C122.839 261.786 122.869 261.881 122.869 261.979C122.869 262.077 122.839 262.173 122.783 262.253C122.574 262.577 121.919 262.671 121.242 262.671ZM120.025 262.332C121.004 262.476 122.344 262.469 122.588 262.123C122.624 262.08 122.653 262.001 122.588 261.85C122.533 261.76 122.446 261.696 122.344 261.67C121.782 261.526 120.666 262.001 120.025 262.332Z" fill="#0E8EC5"/>
<path d="M119.641 262.527C119.617 262.534 119.592 262.534 119.569 262.527C119.549 262.514 119.533 262.495 119.524 262.474C119.515 262.452 119.513 262.427 119.518 262.404C119.567 261.655 119.855 260.941 120.339 260.367C120.437 260.282 120.552 260.22 120.676 260.184C120.801 260.148 120.931 260.139 121.059 260.158C121.405 260.158 121.506 260.367 121.527 260.504C121.621 261.101 120.361 262.246 119.72 262.534L119.641 262.527ZM120.93 260.367C120.771 260.366 120.618 260.422 120.498 260.525C120.091 260.98 119.838 261.552 119.778 262.16C120.426 261.764 121.29 260.871 121.218 260.511C121.218 260.511 121.218 260.388 120.973 260.367H120.93Z" fill="#0E8EC5"/>
<path d="M113.824 262.397H119.116L119.642 250.15H114.35L113.824 262.397Z" fill="#E4897B"/>
<path d="M66.6992 241.373L71.12 244.267L80.8832 236.023L76.4552 233.122L66.6992 241.373Z" fill="#E4897B"/>
<path d="M71.8478 243.994L67.2542 240.228C67.173 240.161 67.0712 240.125 66.9662 240.125C66.8611 240.125 66.7594 240.161 66.6782 240.228L62.891 243.202C62.7995 243.275 62.7256 243.367 62.6748 243.472C62.624 243.578 62.5977 243.693 62.5977 243.81C62.5977 243.927 62.624 244.043 62.6748 244.148C62.7256 244.253 62.7995 244.346 62.891 244.419C64.5182 245.707 65.375 246.255 67.3982 247.911C68.6438 248.926 71.7182 252.036 73.4534 253.44C75.1886 254.844 76.7798 253.332 76.2038 252.605C73.619 249.329 72.6038 246.528 72.3086 244.793C72.2576 244.479 72.0937 244.195 71.8478 243.994Z" fill="#263238"/>
<path d="M119.082 261.785H113.322C113.217 261.786 113.115 261.821 113.033 261.887C112.95 261.952 112.893 262.043 112.868 262.145L111.824 266.847C111.798 266.961 111.798 267.079 111.824 267.193C111.851 267.307 111.903 267.413 111.976 267.504C112.05 267.595 112.143 267.668 112.249 267.718C112.355 267.767 112.471 267.792 112.588 267.79C114.668 267.754 117.678 267.632 120.299 267.632C123.359 267.632 126.008 267.797 129.594 267.797C131.754 267.797 132.373 265.601 131.459 265.407C127.326 264.5 123.942 264.406 120.371 262.196C119.988 261.942 119.541 261.8 119.082 261.785Z" fill="#263238"/>
<path d="M87.5945 98.9643C83.0081 101.124 80.3945 115.596 80.3945 115.596L91.6049 120.067C93.2459 116.061 94.5723 111.932 95.5721 107.719C97.1129 101.052 92.2889 96.7323 87.5945 98.9643Z" fill="#263238"/>
<path d="M93.5428 107.122C90.7708 109.93 89.5036 115.431 88.9492 119.009L91.6348 120.082C93.2291 116.189 94.5287 112.182 95.5228 108.094C95.2852 106.568 94.6948 105.956 93.5428 107.122Z" fill="#203048"/>
<path d="M118.179 98.8636C118.179 98.8636 123.809 105.228 118.496 144.584H90.2068C90.0124 140.264 92.7412 119.06 88.5508 98.5972C91.6771 97.991 94.8399 97.5917 98.0188 97.402C102.023 97.1642 106.038 97.1642 110.043 97.402C112.788 97.6783 115.509 98.1669 118.179 98.8636Z" fill="#263238"/>
<path d="M120.766 114.142L116 105.927C115.079 109.76 114.704 113.703 114.884 117.641C115.013 120.464 117.598 130.918 119.924 132.444C120.541 126.364 120.822 120.254 120.766 114.142Z" fill="#203048"/>
<path d="M121.429 104.487C122.149 107.986 122.869 111.571 123.639 115.085C124.41 118.599 125.209 122.127 126.138 125.532C126.375 126.375 126.598 127.239 126.858 128.045L127.052 128.664L127.146 128.974V128.938C127.095 128.873 127.038 128.866 127.081 128.938C127.377 129.261 127.755 129.497 128.175 129.622C128.856 129.875 129.557 130.07 130.27 130.205C133.674 130.744 137.121 130.969 140.566 130.875L141.25 134.791C140.286 135.101 139.386 135.324 138.435 135.547C137.485 135.771 136.549 135.958 135.591 136.102C133.61 136.432 131.601 136.567 129.594 136.505C128.478 136.475 127.368 136.33 126.282 136.073C124.9 135.771 123.603 135.169 122.48 134.309C121.747 133.717 121.142 132.982 120.702 132.149C120.586 131.933 120.486 131.688 120.392 131.479L120.262 131.141L119.996 130.421C119.629 129.507 119.326 128.607 118.995 127.707C117.778 124.107 116.763 120.471 115.87 116.842C114.978 113.213 114.207 109.591 113.566 105.869L121.429 104.487Z" fill="#E4897B"/>
<path d="M111.115 102.723C109.625 107.554 115.666 121.961 115.666 121.961L127.697 118.937C127.697 118.937 127.236 111.449 124.493 105.509C120.36 96.5523 112.901 96.9267 111.115 102.723Z" fill="#263238"/>
<path d="M140.465 130.875L146.455 130.723L143.575 136.959C143.575 136.959 141.135 137.283 139.133 133.992L137.023 131.472L139.45 130.99C139.784 130.919 140.124 130.881 140.465 130.875Z" fill="#E4897B"/>
<path d="M150.234 131.883L146.807 137.052L143.574 136.959L146.454 130.723L150.234 131.883Z" fill="#E4897B"/>
<path d="M119.64 250.15L119.366 256.464H114.074L114.348 250.15H119.64Z" fill="#CE6F64"/>
<path d="M76.4547 233.122L80.8827 236.023L75.8427 240.271L71.4219 237.377L76.4547 233.122Z" fill="#CE6F64"/>
<path d="M99.5478 79.7259C99.8646 84.9603 99.7854 88.0491 102.428 90.7347C106.402 94.7883 112.875 92.3907 114.128 87.1347C115.258 82.4259 114.553 74.6499 109.426 72.5619C108.295 72.1054 107.066 71.9437 105.856 72.092C104.645 72.2403 103.492 72.6939 102.504 73.41C101.517 74.1261 100.727 75.0814 100.21 76.1861C99.6932 77.2909 99.4652 78.5089 99.5478 79.7259Z" fill="#E4897B"/>
<path d="M93.3838 78.8044C94.687 83.578 97.7542 89.0788 101.721 89.4316C106.646 89.8636 108.871 84.7732 109.519 79.5172C112.471 77.494 110.923 75.2692 113.882 74.9884C117.684 74.6284 116.467 67.6732 111.463 66.5572C111.463 66.5572 113.141 69.6892 109.62 68.1052C106.271 66.5139 102.552 65.869 98.863 66.2404C98.863 66.2404 103.356 68.4868 98.9638 69.4876C94.5718 70.4884 93.2614 73.1956 95.2846 74.83C95.2846 74.8372 92.527 75.6652 93.3838 78.8044Z" fill="#263238"/>
<path d="M106.517 80.5972C106.614 81.8983 107.138 83.131 108.008 84.1036C109.16 85.378 110.362 84.586 110.564 83.038C110.751 81.6484 110.369 79.3084 108.958 78.6028C107.547 77.8972 106.424 79.0276 106.517 80.5972Z" fill="#E4897B"/>
<path d="M108.461 144.583C108.461 144.583 113.616 181.915 109.555 196.877C103.118 220.565 78.5089 240.559 78.5089 240.559L70.1641 235.087C70.1641 235.087 91.1233 218.203 93.6865 198.367C95.9905 180.562 90.2089 159.027 90.2089 144.576L108.461 144.583Z" fill="#0E8EC5"/>
<path opacity="0.1" d="M108.461 144.583C108.461 144.583 113.616 181.915 109.555 196.877C103.118 220.565 78.5089 240.559 78.5089 240.559L70.1641 235.087C70.1641 235.087 91.1233 218.203 93.6865 198.367C95.9905 180.562 90.2089 159.027 90.2089 144.576L108.461 144.583Z" fill="black"/>
<path d="M110.593 165.924C109.22 164.352 107.709 162.906 106.078 161.604C106.957 173.722 107.677 191.671 106.877 204.423C107.952 201.978 108.847 199.459 109.556 196.884C111.536 189.576 111.327 176.955 110.593 165.924Z" fill="#0E8EC5"/>
<path opacity="0.3" d="M110.593 165.924C109.22 164.352 107.709 162.906 106.078 161.604C106.957 173.722 107.677 191.671 106.877 204.423C107.952 201.978 108.847 199.459 109.556 196.884C111.536 189.576 111.327 176.955 110.593 165.924Z" fill="black"/>
<path d="M81.8714 238.695C81.9074 238.695 78.6386 240.855 78.6386 240.855L69.5234 234.879L72.4034 232.496L81.8714 238.695Z" fill="#0E8EC5"/>
<path opacity="0.3" d="M81.8714 238.695C81.9074 238.695 78.6386 240.855 78.6386 240.855L69.5234 234.879L72.4034 232.496L81.8714 238.695Z" fill="black"/>
<path d="M118.496 144.583C118.496 144.583 126.459 178.352 127.021 194.487C127.654 212.573 121.34 255.24 121.34 255.24H112.376C112.376 255.24 111.274 212.242 110.878 195.768C110.439 177.804 99.8984 144.583 99.8984 144.583H118.496Z" fill="#0E8EC5"/>
<path opacity="0.1" d="M118.496 144.583C118.496 144.583 126.459 178.352 127.021 194.487C127.654 212.573 121.34 255.24 121.34 255.24H112.376C112.376 255.24 111.274 212.242 110.878 195.768C110.439 177.804 99.8984 144.583 99.8984 144.583H118.496Z" fill="black"/>
<path d="M123.063 251.676C123.106 251.676 122.559 255.391 122.559 255.391H111.658L111.363 252.072L123.063 251.676Z" fill="#0E8EC5"/>
<path opacity="0.3" d="M123.063 251.676C123.106 251.676 122.559 255.391 122.559 255.391H111.658L111.363 252.072L123.063 251.676Z" fill="black"/>
<path d="M256.32 112.133C256.932 112.709 257.414 113.198 257.918 113.745C258.422 114.293 258.897 114.825 259.358 115.38C260.294 116.481 261.172 117.641 262.022 118.807C263.719 121.147 265.228 123.617 266.536 126.194L266.803 126.72C266.933 126.974 267.041 127.239 267.127 127.512C267.301 128.039 267.407 128.585 267.444 129.139C267.491 130.115 267.356 131.092 267.048 132.019C266.522 133.559 265.74 135 264.736 136.281C262.927 138.605 260.793 140.656 258.4 142.373L256.608 140.313C257.45 139.327 258.328 138.269 259.113 137.21C259.912 136.185 260.634 135.102 261.273 133.97C261.871 132.983 262.313 131.909 262.584 130.788C262.677 130.387 262.694 129.971 262.634 129.564C262.608 129.427 262.565 129.294 262.504 129.168C262.478 129.113 262.446 129.06 262.411 129.009L262.18 128.621C260.792 126.356 259.285 124.167 257.666 122.061C256.867 121.003 256.01 119.988 255.146 118.987C254.721 118.483 254.282 117.993 253.843 117.504C253.404 117.014 252.928 116.525 252.547 116.143L256.32 112.133Z" fill="#E4897B"/>
<path d="M257.3 139.709L251.922 138.83L254.737 143.539C254.737 143.539 258.2 143.417 259.187 141.379L257.3 139.709Z" fill="#E4897B"/>
<path d="M247.945 141.005L250.509 144.828L254.735 143.539L251.92 138.83L247.945 141.005Z" fill="#E4897B"/>
<path d="M257.04 262.606C256.674 262.637 256.31 262.537 256.011 262.325C255.92 262.24 255.854 262.132 255.817 262.014C255.781 261.895 255.775 261.769 255.802 261.648C255.807 261.571 255.833 261.496 255.878 261.433C255.922 261.369 255.983 261.319 256.054 261.288C256.68 261.007 258.322 262.058 258.509 262.181C258.53 262.194 258.547 262.214 258.556 262.237C258.565 262.26 258.566 262.286 258.559 262.31C258.557 262.335 258.546 262.358 258.529 262.376C258.512 262.394 258.49 262.407 258.466 262.411C257.999 262.53 257.521 262.595 257.04 262.606ZM256.32 261.49C256.268 261.481 256.214 261.481 256.162 261.49C256.13 261.504 256.103 261.528 256.084 261.557C256.065 261.586 256.054 261.62 256.054 261.655C256.035 261.736 256.037 261.819 256.059 261.899C256.082 261.978 256.125 262.051 256.183 262.109C256.457 262.354 257.163 262.39 258.106 262.202C257.565 261.845 256.958 261.603 256.32 261.49Z" fill="#0E8EC5"/>
<path d="M258.482 262.404H258.417C257.906 262.109 256.919 260.964 257.042 260.338C257.065 260.239 257.12 260.15 257.198 260.085C257.275 260.021 257.372 259.983 257.474 259.978C257.571 259.964 257.67 259.972 257.764 260.002C257.857 260.032 257.943 260.083 258.014 260.15C258.604 260.669 258.611 262.224 258.611 262.31C258.61 262.332 258.603 262.353 258.592 262.372C258.581 262.391 258.565 262.407 258.546 262.418L258.482 262.404ZM257.56 260.244H257.502C257.344 260.244 257.308 260.33 257.294 260.395C257.222 260.762 257.834 261.641 258.345 262.051C258.357 261.447 258.184 260.854 257.848 260.352C257.805 260.312 257.754 260.281 257.698 260.263C257.642 260.244 257.583 260.238 257.524 260.244H257.56Z" fill="#0E8EC5"/>
<path d="M232.502 262.605C232.043 262.649 231.582 262.532 231.199 262.274C231.113 262.198 231.046 262.101 231.005 261.994C230.963 261.886 230.949 261.77 230.962 261.655C230.966 261.585 230.988 261.517 231.026 261.458C231.064 261.399 231.116 261.35 231.178 261.317C231.847 260.942 233.993 262.037 234.238 262.173C234.26 262.188 234.278 262.208 234.289 262.233C234.301 262.257 234.305 262.284 234.302 262.31C234.298 262.335 234.286 262.359 234.268 262.377C234.25 262.395 234.227 262.407 234.202 262.411C233.643 262.53 233.074 262.595 232.502 262.605ZM231.545 261.489C231.462 261.484 231.38 261.501 231.307 261.54C231.281 261.552 231.259 261.571 231.244 261.596C231.229 261.62 231.221 261.648 231.221 261.677C231.21 261.752 231.217 261.828 231.242 261.9C231.267 261.971 231.309 262.035 231.365 262.087C231.696 262.382 232.582 262.433 233.777 262.231C233.08 261.86 232.325 261.609 231.545 261.489Z" fill="#0E8EC5"/>
<path d="M234.182 262.404H234.125C233.484 262.116 232.21 260.964 232.31 260.338C232.31 260.194 232.44 260.014 232.793 259.978C232.922 259.964 233.052 259.976 233.176 260.015C233.3 260.053 233.414 260.116 233.513 260.201C234.19 260.762 234.319 262.217 234.319 262.282C234.322 262.304 234.319 262.326 234.31 262.346C234.301 262.366 234.287 262.384 234.269 262.397C234.241 262.409 234.211 262.411 234.182 262.404ZM232.894 260.244H232.814C232.584 260.244 232.57 260.359 232.562 260.388C232.505 260.755 233.369 261.67 234.002 262.066C233.94 261.45 233.688 260.869 233.282 260.402C233.173 260.309 233.037 260.254 232.894 260.244Z" fill="#0E8EC5"/>
<path d="M242.693 95.5798C242.484 98.8342 241.922 105.444 244.42 107.273C244.42 107.273 243.967 110.606 238.07 111.384C231.59 112.226 234.549 108.569 234.549 108.569C237.984 107.258 237.544 104.645 236.608 102.254L242.693 95.5798Z" fill="#E4897B"/>
<path d="M229.278 89.8269C229.242 89.827 229.207 89.8193 229.175 89.8044C229.142 89.7895 229.114 89.7677 229.091 89.7405C228.885 89.4963 228.624 89.3039 228.33 89.1788C228.037 89.0538 227.717 88.9995 227.399 89.0205C227.365 89.0267 227.33 89.0259 227.297 89.0183C227.264 89.0106 227.232 88.9962 227.205 88.976C227.177 88.9558 227.154 88.9302 227.136 88.9007C227.119 88.8712 227.108 88.8385 227.103 88.8045C227.095 88.7368 227.114 88.6686 227.156 88.6147C227.198 88.5608 227.259 88.5255 227.327 88.5165C227.733 88.4822 228.142 88.5468 228.518 88.7047C228.894 88.8627 229.227 89.1094 229.487 89.4237C229.518 89.4613 229.538 89.5069 229.544 89.5553C229.551 89.6036 229.543 89.6529 229.523 89.6973C229.503 89.7416 229.47 89.7794 229.429 89.8061C229.389 89.8329 229.341 89.8476 229.292 89.8485L229.278 89.8269Z" fill="#263238"/>
<path d="M228.154 93.0166C227.899 94.0493 227.504 95.0424 226.98 95.9686C227.221 96.098 227.487 96.1728 227.759 96.1877C228.032 96.2026 228.304 96.1573 228.557 96.055L228.154 93.0166Z" fill="#DE5753"/>
<path d="M228.442 92.2246C228.499 92.6566 228.319 93.031 228.039 93.0742C227.758 93.1174 227.477 92.7862 227.427 92.3542C227.376 91.9222 227.549 91.5478 227.83 91.5118C228.111 91.4758 228.391 91.7638 228.442 92.2246Z" fill="#263238"/>
<path d="M227.96 91.5191L226.887 91.3535C226.887 91.3535 227.52 92.0951 227.96 91.5191Z" fill="#263238"/>
<path d="M240.112 262.289H234.712L234.352 249.797H239.752L240.112 262.289Z" fill="#E4897B"/>
<path d="M264.631 262.289H259.231L257.496 249.797H262.896L264.631 262.289Z" fill="#E4897B"/>
<path d="M258.9 261.684H264.963C265.066 261.683 265.166 261.72 265.244 261.787C265.322 261.855 265.373 261.949 265.387 262.051L266.107 266.853C266.121 266.975 266.108 267.097 266.071 267.213C266.033 267.329 265.972 267.435 265.89 267.526C265.808 267.616 265.709 267.688 265.597 267.738C265.486 267.787 265.365 267.812 265.243 267.811C263.134 267.775 262.111 267.653 259.447 267.653C257.806 267.653 255.408 267.818 253.147 267.818C250.887 267.818 250.764 265.579 251.707 265.377C255.934 264.47 256.603 263.217 258.022 262.015C258.269 261.81 258.579 261.693 258.9 261.684Z" fill="#263238"/>
<path d="M234.534 261.684H240.589C240.693 261.683 240.794 261.719 240.874 261.787C240.953 261.854 241.005 261.948 241.021 262.051L241.741 266.853C241.754 266.975 241.742 267.097 241.704 267.213C241.667 267.329 241.605 267.435 241.524 267.526C241.442 267.616 241.342 267.688 241.231 267.738C241.119 267.787 240.999 267.812 240.877 267.811C238.767 267.775 237.745 267.653 235.081 267.653C233.439 267.653 230.041 267.818 227.78 267.818C225.519 267.818 225.397 265.579 226.34 265.377C230.567 264.47 232.23 263.217 233.655 262.015C233.903 261.81 234.212 261.693 234.534 261.684Z" fill="#263238"/>
<path d="M234.352 249.797L234.539 256.241H239.939L239.752 249.797H234.352Z" fill="#CE6F64"/>
<path d="M262.896 249.797H257.496L258.396 256.241H263.789L262.896 249.797Z" fill="#CE6F64"/>
<path d="M242.765 88.8407C243.132 94.1831 243.399 96.4367 241.08 99.5111C237.588 104.126 230.95 103.414 228.992 98.2871C227.228 93.6719 226.925 85.7159 231.836 82.9223C232.916 82.3032 234.136 81.9704 235.381 81.9554C236.626 81.9404 237.854 82.2437 238.949 82.8365C240.044 83.4294 240.969 84.2921 241.637 85.3429C242.305 86.3937 242.693 87.5977 242.765 88.8407Z" fill="#E4897B"/>
<path d="M245.876 93.8015C248.871 95.4719 251.096 91.3535 251.096 91.3535C251.096 91.3535 245.724 91.9367 246.207 88.7399C246.84 84.4991 243.802 79.3439 236.184 80.0063C235.76 80.0423 235.356 80.0927 234.96 80.1575C234.163 79.7795 233.261 79.6819 232.401 79.8805C231.541 80.0792 230.774 80.5624 230.223 81.2519C228.063 81.4319 225.147 84.0095 227.127 87.4151C227.266 87.0238 227.481 86.664 227.76 86.3567C227.926 88.3511 229.668 91.5191 231.843 91.7279C232.311 94.4567 230.496 97.6175 231.123 100.469C232.052 104.58 238.985 105.509 238.985 105.509C238.746 104.995 238.657 104.425 238.728 103.863C238.8 103.301 239.029 102.771 239.388 102.333C244.097 104.493 247.2 102.384 247.2 102.384C243.989 101.189 244.961 99.0575 244.961 99.0575C246.07 99.5498 247.326 99.593 248.466 99.1781C249.606 98.7632 250.541 97.9225 251.074 96.8327C250.007 96.8833 248.949 96.624 248.026 96.0861C247.104 95.5482 246.357 94.7547 245.876 93.8015Z" fill="#263238"/>
<path d="M233.722 92.5487C233.735 93.0614 233.646 93.5716 233.461 94.0498C233.275 94.528 232.997 94.9648 232.642 95.3351C231.692 96.3215 230.525 95.6303 230.209 94.3703C229.928 93.2327 230.086 91.3535 231.325 90.8351C231.597 90.728 231.892 90.6907 232.183 90.7267C232.473 90.7626 232.75 90.8706 232.989 91.0409C233.227 91.2112 233.419 91.4383 233.547 91.7016C233.675 91.965 233.735 92.2562 233.722 92.5487Z" fill="#E4897B"/>
<path d="M238.207 142.322C238.207 142.322 239.575 177.861 242.829 198.727C245.45 215.589 257.093 254.988 257.093 254.988H264.451C264.451 254.988 258.381 216.936 257.049 200.268C253.68 158.083 262.428 149.025 254.169 140.241L238.207 142.322Z" fill="#263238"/>
<path d="M244.352 153.561C244.352 153.561 241.026 152.985 239.082 159.321C239.802 171.324 241.033 187.25 242.826 198.727C243.222 201.283 243.827 204.365 244.568 207.741C243.164 187.466 244.352 153.561 244.352 153.561Z" fill="#161F33"/>
<path d="M232.467 143.071C232.467 143.071 226.404 182.39 226.757 198.842C227.124 215.957 233.395 255.002 233.395 255.002H240.689C240.689 255.002 239.537 216.972 240.178 200.167C240.898 181.843 248.379 141.005 248.379 141.005L232.467 143.071Z" fill="#263238"/>
<path d="M265.517 255.333H255.732L254.969 252.05L265.445 252.122L265.517 255.333Z" fill="#0E8EC5"/>
<path opacity="0.2" d="M265.517 255.333H255.732L254.969 252.05L265.445 252.122L265.517 255.333Z" fill="black"/>
<path d="M253.803 107.28C256.618 107.554 260.895 115.553 260.895 115.553L253.788 121.003C253.788 121.003 247.906 115.841 248.604 112.939C249.332 109.922 251.103 107.028 253.803 107.28Z" fill="#0E8EC5"/>
<path opacity="0.1" d="M253.803 107.28C256.618 107.554 260.895 115.553 260.895 115.553L253.788 121.003C253.788 121.003 247.906 115.841 248.604 112.939C249.332 109.922 251.103 107.028 253.803 107.28Z" fill="black"/>
<path d="M251.678 110.721C250.961 110.528 250.218 110.445 249.475 110.477C249.097 111.264 248.805 112.089 248.604 112.939C247.884 115.819 253.788 121.003 253.788 121.003L254.313 120.6L251.678 110.721Z" fill="#0E8EC5"/>
<path opacity="0.3" d="M251.678 110.721C250.961 110.528 250.218 110.445 249.475 110.477C249.097 111.264 248.805 112.089 248.604 112.939C247.884 115.819 253.788 121.003 253.788 121.003L254.313 120.6L251.678 110.721Z" fill="black"/>
<path d="M230.055 118.404C228.003 123.595 225.843 128.873 224.123 134.078C224.007 134.41 223.914 134.726 223.813 135.05L223.568 135.849C223.501 136.085 223.501 136.334 223.568 136.569C223.975 137.47 224.619 138.242 225.433 138.801C227.586 140.346 229.931 141.602 232.41 142.538L231.762 145.188C228.713 144.786 225.764 143.824 223.064 142.351C221.403 141.464 220.049 140.093 219.183 138.42C218.686 137.351 218.513 136.159 218.687 134.993C218.703 134.85 218.727 134.708 218.758 134.568L218.83 134.265L218.953 133.718C219.039 133.351 219.126 132.998 219.219 132.638C219.939 129.758 220.861 127.022 221.833 124.308C222.805 121.593 223.82 118.915 224.965 116.244L230.055 118.404Z" fill="#E4897B"/>
<path d="M225.685 111.118C225.685 111.118 223.252 112.349 232.468 143.071L254.197 140.234C252.671 131.436 251.951 125.986 253.801 107.28C250.685 107.057 247.557 107.057 244.441 107.28C241.124 107.473 237.825 107.906 234.57 108.576C230.401 109.505 225.685 111.118 225.685 111.118Z" fill="#0E8EC5"/>
<path opacity="0.1" d="M225.685 111.118C225.685 111.118 223.252 112.349 232.468 143.071L254.197 140.234C252.671 131.436 251.951 125.986 253.801 107.28C250.685 107.057 247.557 107.057 244.441 107.28C241.124 107.473 237.825 107.906 234.57 108.576C230.401 109.505 225.685 111.118 225.685 111.118Z" fill="black"/>
<path d="M254.355 138.917L255.601 140.724C255.694 140.868 255.536 141.041 255.291 141.077L232.503 144.058C232.309 144.058 232.129 144.007 232.1 143.885L231.654 141.962C231.618 141.833 231.776 141.696 231.992 141.667L253.995 138.787C254.061 138.777 254.129 138.783 254.192 138.806C254.255 138.828 254.311 138.867 254.355 138.917Z" fill="#0E8EC5"/>
<path opacity="0.2" d="M254.355 138.917L255.601 140.724C255.694 140.868 255.536 141.041 255.291 141.077L232.503 144.058C232.309 144.058 232.129 144.007 232.1 143.885L231.654 141.962C231.618 141.833 231.776 141.696 231.992 141.667L253.995 138.787C254.061 138.777 254.129 138.783 254.192 138.806C254.255 138.828 254.311 138.867 254.355 138.917Z" fill="black"/>
<path d="M251.72 141.761L252.311 141.681C252.426 141.681 252.505 141.595 252.491 141.523L251.886 139.032C251.863 138.989 251.826 138.956 251.782 138.938C251.737 138.919 251.687 138.917 251.641 138.931L251.051 139.003C250.928 139.003 250.849 139.089 250.871 139.169L251.476 141.653C251.49 141.732 251.605 141.775 251.72 141.761Z" fill="#263238"/>
<path d="M237.435 143.604L238.025 143.525C238.141 143.525 238.227 143.438 238.205 143.366L237.601 140.875C237.577 140.833 237.54 140.8 237.496 140.78C237.452 140.761 237.403 140.756 237.356 140.767L236.765 140.846C236.65 140.846 236.564 140.933 236.585 141.005L237.19 143.496C237.205 143.604 237.32 143.647 237.435 143.604Z" fill="#263238"/>
<path d="M226.699 121.543C227.297 124.322 228.139 127.843 229.37 132.3L229.637 121.003L226.699 121.543Z" fill="#0E8EC5"/>
<path opacity="0.3" d="M226.699 121.543C227.297 124.322 228.139 127.843 229.37 132.3L229.637 121.003L226.699 121.543Z" fill="black"/>
<path d="M225.685 111.118C222.985 112.205 220.645 121.442 220.645 121.442L229.933 125.964C229.933 125.964 234.418 114.667 232.409 112.464C230.401 110.261 228.795 109.872 225.685 111.118Z" fill="#0E8EC5"/>
<path opacity="0.1" d="M225.685 111.118C222.985 112.205 220.645 121.442 220.645 121.442L229.933 125.964C229.933 125.964 234.418 114.667 232.409 112.464C230.401 110.261 228.795 109.872 225.685 111.118Z" fill="black"/>
<path d="M241.935 255.333H232.15L231.387 252.05L242.28 252.122L241.935 255.333Z" fill="#0E8EC5"/>
<path opacity="0.2" d="M241.935 255.333H232.15L231.387 252.05L242.28 252.122L241.935 255.333Z" fill="black"/>
<path d="M232.563 141.645L231.778 141.321C231.585 141.243 231.375 141.217 231.169 141.246C230.962 141.275 230.767 141.358 230.604 141.487C230.44 141.615 230.313 141.785 230.236 141.979C230.159 142.172 230.135 142.383 230.165 142.589L230.734 146.34C230.761 146.528 230.83 146.707 230.935 146.865C231.04 147.023 231.179 147.156 231.341 147.253C231.504 147.351 231.686 147.412 231.875 147.43C232.064 147.449 232.254 147.426 232.433 147.362C232.719 147.258 232.986 147.11 233.225 146.923C233.486 146.707 233.692 146.433 233.827 146.123C233.962 145.813 234.022 145.475 234.003 145.137L233.924 143.582C233.91 143.162 233.774 142.755 233.532 142.411C233.29 142.067 232.953 141.801 232.563 141.645Z" fill="#E4897B"/>
</svg>
