<svg width="13" height="12" viewBox="0 0 13 12" fill="none" xmlns="http://www.w3.org/2000/svg">
<g clip-path="url(#clip0_27179_18790)">
<path d="M11.5573 5.49125L12.4125 4.63615C12.5307 4.51801 12.5307 4.32674 12.4125 4.2086L11.9849 3.78105C11.8667 3.66291 11.6754 3.66291 11.5573 3.78105L10.702 4.63615L9.84675 3.78105C9.72859 3.66291 9.53728 3.66291 9.41912 3.78105L8.99149 4.2086C8.87333 4.32674 8.87333 4.51801 8.99149 4.63615L9.84675 5.49125L8.99149 6.34635C8.87333 6.46449 8.87333 6.65576 8.99149 6.7739L9.41912 7.20145C9.53728 7.31959 9.72859 7.31959 9.84675 7.20145L10.702 6.34635L11.5573 7.20145C11.6754 7.31959 11.8667 7.31959 11.9849 7.20145L12.4125 6.7739C12.5307 6.65576 12.5307 6.46449 12.4125 6.34635L11.5573 5.49125ZM4.70018 5.79129C6.02621 5.79129 7.10092 4.71678 7.10092 3.391C7.10092 2.06522 6.02621 0.990723 4.70018 0.990723C3.37415 0.990723 2.29945 2.06522 2.29945 3.391C2.29945 4.71678 3.37415 5.79129 4.70018 5.79129ZM6.3807 6.39136H6.06748C5.6511 6.58263 5.18783 6.69139 4.70018 6.69139C4.21253 6.69139 3.75114 6.58263 3.33289 6.39136H3.01967C1.628 6.39136 0.498901 7.52024 0.498901 8.91165V9.69174C0.498901 10.1887 0.902149 10.5918 1.39918 10.5918H8.00119C8.49822 10.5918 8.90147 10.1887 8.90147 9.69174V8.91165C8.90147 7.52024 7.77237 6.39136 6.3807 6.39136Z" fill="#9F9F9F"/>
</g>
<defs>
<clipPath id="clip0_27179_18790">
<rect width="12.0023" height="12" fill="white" transform="translate(0.498901 -0.00927734)"/>
</clipPath>
</defs>
</svg>
