<svg width="33" height="32" viewBox="0 0 33 32" fill="none" xmlns="http://www.w3.org/2000/svg">
<g clip-path="url(#clip0_33910_119627)">
<path d="M5.297 14.9334C7.06233 14.9334 8.4976 13.4984 8.4976 11.7334C8.4976 9.96837 7.06233 8.53337 5.297 8.53337C3.53166 8.53337 2.09639 9.96837 2.09639 11.7334C2.09639 13.4984 3.53166 14.9334 5.297 14.9334ZM27.7012 14.9334C29.4665 14.9334 30.9018 13.4984 30.9018 11.7334C30.9018 9.96837 29.4665 8.53337 27.7012 8.53337C25.9359 8.53337 24.5006 9.96837 24.5006 11.7334C24.5006 13.4984 25.9359 14.9334 27.7012 14.9334ZM29.3015 16.5334H26.1009C25.2207 16.5334 24.4256 16.8884 23.8455 17.4634C25.8609 18.5684 27.2911 20.5634 27.6012 22.9334H30.9018C31.787 22.9334 32.5021 22.2184 32.5021 21.3334V19.7334C32.5021 17.9684 31.0668 16.5334 29.3015 16.5334ZM16.4991 16.5334C19.5947 16.5334 22.1002 14.0284 22.1002 10.9334C22.1002 7.83837 19.5947 5.33337 16.4991 5.33337C13.4035 5.33337 10.898 7.83837 10.898 10.9334C10.898 14.0284 13.4035 16.5334 16.4991 16.5334ZM20.3398 18.1334H19.9247C18.8846 18.6334 17.7293 18.9334 16.4991 18.9334C15.2689 18.9334 14.1187 18.6334 13.0735 18.1334H12.6584C9.47778 18.1334 6.8973 20.7134 6.8973 23.8934V25.3334C6.8973 26.6584 7.9725 27.7334 9.29775 27.7334H23.7005C25.0257 27.7334 26.1009 26.6584 26.1009 25.3334V23.8934C26.1009 20.7134 23.5204 18.1334 20.3398 18.1334ZM9.15272 17.4634C8.57261 16.8884 7.77746 16.5334 6.8973 16.5334H3.6967C1.93136 16.5334 0.496094 17.9684 0.496094 19.7334V21.3334C0.496094 22.2184 1.21123 22.9334 2.09639 22.9334H5.39201C5.70707 20.5634 7.13734 18.5684 9.15272 17.4634Z" fill="#9F9F9F"/>
</g>
<defs>
<clipPath id="clip0_33910_119627">
<rect width="32.006" height="32" fill="white" transform="translate(0.496094)"/>
</clipPath>
</defs>
</svg>
