<svg width="12" height="12" viewBox="0 0 12 12" fill="none" xmlns="http://www.w3.org/2000/svg">
<g clip-path="url(#clip0_399_24562)">
<path d="M4.125 5.0626H7.875C8.08219 5.0626 8.25 4.89482 8.25 4.68767V4.31274C8.25 4.10559 8.08219 3.93781 7.875 3.93781H4.125C3.91781 3.93781 3.75 4.10559 3.75 4.31274V4.68767C3.75 4.89482 3.91781 5.0626 4.125 5.0626ZM3.75 6.93725C3.75 7.1444 3.91781 7.31218 4.125 7.31218H7.875C8.08219 7.31218 8.25 7.1444 8.25 6.93725V6.56232C8.25 6.35517 8.08219 6.18739 7.875 6.18739H4.125C3.91781 6.18739 3.75 6.35517 3.75 6.56232V6.93725ZM6 9.77571C5.61516 9.77571 5.23031 9.65714 4.90172 9.41976L0 5.87948V10.874C0 11.4952 0.503672 11.9988 1.125 11.9988H10.875C11.4963 11.9988 12 11.4952 12 10.874V5.87948L7.09828 9.41976C6.76969 9.6569 6.38484 9.77571 6 9.77571ZM11.569 3.81948C11.3616 3.65685 11.1649 3.50383 10.875 3.28497V2.25063C10.875 1.62942 10.3713 1.12584 9.75 1.12584H7.93242C7.86117 1.07429 7.79484 1.02601 7.72055 0.972117C7.32656 0.684593 6.54375 -0.00715273 6 0.00104886C5.45625 -0.00715273 4.67367 0.684593 4.27945 0.972117C4.20516 1.02601 4.13883 1.07429 4.06758 1.12584H2.25C1.62867 1.12584 1.125 1.62942 1.125 2.25063V3.28497C0.835078 3.5036 0.638438 3.65685 0.431016 3.81948C0.296756 3.92467 0.188183 4.05902 0.113511 4.21236C0.0388389 4.36569 2.31048e-05 4.534 0 4.70455L0 4.95411L2.25 6.5792V2.25063H9.75V6.5792L12 4.95411V4.70455C12 4.35914 11.8411 4.03272 11.569 3.81948Z" fill="#0E8EC5"/>
</g>
<defs>
<clipPath id="clip0_399_24562">
<rect width="12" height="11.9977" fill="white" transform="translate(0 0.00109863)"/>
</clipPath>
</defs>
</svg>
