<svg width="12" height="12" viewBox="0 0 12 12" fill="none" xmlns="http://www.w3.org/2000/svg">
<path d="M11.8147 6C11.8147 9.21087 9.21163 11.8125 6.00109 11.8125C2.79056 11.8125 0.1875 9.21087 0.1875 6C0.1875 2.79101 2.79056 0.1875 6.00109 0.1875C9.21163 0.1875 11.8147 2.79101 11.8147 6ZM6.00109 7.17188C5.40555 7.17188 4.92276 7.65457 4.92276 8.25C4.92276 8.84543 5.40555 9.32812 6.00109 9.32812C6.59663 9.32812 7.07942 8.84543 7.07942 8.25C7.07942 7.65457 6.59663 7.17188 6.00109 7.17188ZM4.97731 3.29658L5.15121 6.48408C5.15934 6.63323 5.28269 6.75 5.43209 6.75H6.5701C6.71949 6.75 6.84284 6.63323 6.85098 6.48408L7.02487 3.29658C7.03366 3.13547 6.90536 3 6.74399 3H5.25817C5.0968 3 4.96852 3.13547 4.97731 3.29658Z" fill="#0E8EC5"/>
</svg>
