<svg width="140" height="128" viewBox="0 0 140 128" fill="none" xmlns="http://www.w3.org/2000/svg">
<path d="M70.0005 128C108.202 128 139.171 110.12 139.171 88.0631C139.171 66.0064 108.202 48.126 70.0005 48.126C31.7987 48.126 0.830078 66.0064 0.830078 88.0631C0.830078 110.12 31.7987 128 70.0005 128Z" fill="#EEEEEE"/>
<path d="M88.8994 98.3887L61.1094 82.3384L92.8741 64L120.668 80.0466L88.8994 98.3887Z" fill="#E0E0E0"/>
<path d="M13.2285 93.4243L49.0713 114.117L79.1347 96.7643L43.2919 76.0713L13.2285 93.4243Z" fill="#E0E0E0"/>
<path d="M118.595 13.9356L98.0716 2.09255C97.9129 1.97861 97.7269 1.9087 97.5325 1.8899C97.338 1.87111 97.142 1.9041 96.9645 1.98552L95.4882 2.83804C95.3259 2.95105 95.1968 3.10547 95.1144 3.28525C95.032 3.46503 94.9992 3.6636 95.0195 3.86033V60.0345C95.0497 60.5818 95.2084 61.1143 95.4828 61.5888C95.7573 62.0633 96.1397 62.4664 96.5991 62.7655L117.119 74.5938C117.277 74.7083 117.463 74.7789 117.657 74.7983C117.852 74.8178 118.048 74.7854 118.226 74.7045L119.702 73.8483C119.862 73.7347 119.99 73.5805 120.071 73.4015C120.152 73.2225 120.184 73.0251 120.163 72.8297V16.6666C120.135 16.1202 119.978 15.5882 119.705 15.1137C119.433 14.6393 119.052 14.2357 118.595 13.9356Z" fill="#656565"/>
<path d="M99.4411 60.998L97.9648 61.8506V66.5228C97.9723 66.6597 98.012 66.7928 98.0806 66.9115C98.1492 67.0301 98.2448 67.1309 98.3597 67.2056L99.0499 67.6042C99.1723 67.6661 99.3076 67.6984 99.4448 67.6984C99.582 67.6984 99.7172 67.6661 99.8396 67.6042L100.53 67.2056C100.775 67.0472 100.965 66.8163 101.072 66.545L102.405 62.7068L99.4411 60.998Z" fill="#656565"/>
<path d="M97.9648 66.5228C97.9723 66.6597 98.012 66.7928 98.0806 66.9115C98.1492 67.0301 98.2448 67.1309 98.3597 67.2056L99.0499 67.6042C99.0976 67.633 99.1512 67.6507 99.2066 67.6559C99.2621 67.6611 99.3181 67.6536 99.3703 67.6341C99.4225 67.6146 99.4696 67.5835 99.5081 67.5431C99.5465 67.5028 99.5754 67.4543 99.5924 67.4012L100.917 63.5593L97.9648 61.8506V66.5228Z" fill="#333436"/>
<path d="M114.246 69.5195L112.77 70.3757V75.0443C112.776 75.1814 112.815 75.315 112.883 75.4342C112.951 75.5535 113.046 75.6551 113.161 75.7308L113.855 76.1293C113.976 76.1912 114.111 76.2235 114.248 76.2235C114.384 76.2235 114.519 76.1912 114.641 76.1293L115.334 75.7308C115.58 75.5724 115.769 75.3414 115.877 75.0701L117.206 71.2283L114.246 69.5195Z" fill="#656565"/>
<path d="M112.77 75.0446C112.776 75.1816 112.815 75.3152 112.883 75.4345C112.951 75.5537 113.046 75.6553 113.161 75.731L113.855 76.1296C113.902 76.1584 113.956 76.1761 114.011 76.1813C114.067 76.1865 114.123 76.179 114.175 76.1595C114.227 76.14 114.274 76.1089 114.313 76.0685C114.351 76.0282 114.38 75.9797 114.397 75.9266L115.729 72.0847L112.777 70.376L112.77 75.0446Z" fill="#333436"/>
<path d="M96.6942 2.98921L117.214 14.799C117.673 15.0989 118.056 15.5027 118.33 15.9778C118.604 16.4529 118.763 16.9859 118.793 17.5337V73.7079C118.832 73.9052 118.809 74.1098 118.726 74.2929C118.642 74.4761 118.504 74.6286 118.33 74.7291C118.156 74.8297 117.954 74.8731 117.754 74.8535C117.554 74.8338 117.365 74.752 117.214 74.6194L96.6942 62.7875C96.2353 62.4882 95.8534 62.085 95.5796 61.6105C95.3058 61.1359 95.1478 60.6035 95.1183 60.0565V3.89709C95.0788 3.70014 95.1022 3.49576 95.185 3.31277C95.2679 3.12978 95.4061 2.97741 95.5802 2.87713C95.7542 2.77686 95.9553 2.73374 96.1552 2.75384C96.3551 2.77395 96.5436 2.85627 96.6942 2.98921Z" fill="#333436"/>
<path d="M66.8984 79.7717L89.0935 92.5853L120.168 74.6455L118.688 73.7892L96.4931 60.9756L66.8984 78.0629V79.7717Z" fill="#656565"/>
<path d="M89.0938 92.5841V90.8754L120.168 72.9355V74.6443L89.0938 92.5841Z" fill="#656565"/>
<path d="M89.2329 90.0973L89.0078 89.9459C92.9456 83.9857 92.9198 73.689 92.5987 71.1056C92.5729 70.9321 92.5545 70.8251 92.5508 70.7845L92.8202 70.7402C92.8202 70.8214 92.8497 70.9174 92.8645 71.0318C93.1523 72.8586 94.7799 82.7826 96.7063 85.7941L96.4775 85.9417C94.9533 83.576 93.6505 77.1913 92.9973 73.5082C93.0379 77.6896 92.429 85.2884 89.2329 90.0973Z" fill="#FAFAFA"/>
<path d="M102.192 80.9974C101.857 80.8977 94.0105 78.521 93.2871 75.0593L93.5565 75.0039C94.243 78.307 102.189 80.7132 102.27 80.7391L102.192 80.9974Z" fill="#FAFAFA"/>
<path d="M94.2741 79.5938L94.0748 78.7486C94.0475 78.5934 93.9684 78.452 93.8505 78.3474C93.7325 78.2429 93.5826 78.1814 93.4252 78.1729C93.2953 78.1539 93.1627 78.1752 93.0452 78.2339C92.9277 78.2927 92.8311 78.386 92.7683 78.5014L92.5137 78.3943C92.5991 78.2255 92.7348 78.0873 92.902 77.9987C93.0692 77.9102 93.2597 77.8756 93.4474 77.8998C93.5832 77.9083 93.7156 77.9457 93.8358 78.0093C93.9561 78.0729 94.0614 78.1614 94.1449 78.2689C94.1892 77.9189 94.3679 77.6 94.6431 77.3794C94.7475 77.3249 94.8642 77.2982 94.9819 77.3021C95.0996 77.306 95.2143 77.3403 95.3148 77.4016L95.193 77.6451C95.1315 77.6056 95.0609 77.5824 94.9879 77.5779C94.9149 77.5734 94.8419 77.5876 94.776 77.6193C94.4623 77.7965 94.3405 78.4792 94.3221 78.7265L94.2741 79.5938Z" fill="#FAFAFA"/>
<path d="M95.0436 82.411L94.8 81.6434C94.5232 80.7761 94.0619 80.2779 93.5157 80.2447C93.2875 80.2403 93.0629 80.3025 92.8696 80.4238C92.6762 80.545 92.5224 80.7201 92.427 80.9274L92.1797 80.8093C92.2964 80.5502 92.4875 80.3316 92.7286 80.1811C92.9697 80.0306 93.2501 79.9552 93.5341 79.9642C93.8626 79.9826 94.4272 80.1598 94.848 81.016C94.9402 80.3406 95.217 79.2556 95.9293 78.8016C96.185 78.6615 96.4724 78.5896 96.7639 78.5929C97.0555 78.5961 97.3412 78.6744 97.5938 78.8201L97.4793 79.0674C97.2679 78.9423 97.028 78.8736 96.7825 78.8678C96.5369 78.862 96.294 78.9193 96.0769 79.0342C95.1285 79.6246 95.0657 81.5769 95.0657 81.5991L95.0436 82.411Z" fill="#FAFAFA"/>
<path d="M91.7123 84.2843L91.4688 84.1588C92.015 83.107 93.2144 82.3505 94.2551 82.4021C94.4759 82.4047 94.6933 82.4568 94.8913 82.5545C95.0893 82.6522 95.2629 82.7931 95.3992 82.9668C95.4994 82.4358 95.706 81.9305 96.0067 81.4814C96.3073 81.0324 96.6957 80.6488 97.1485 80.3539C97.6344 80.0311 98.1952 79.8388 98.7769 79.7955C99.3586 79.7522 99.9417 79.8593 100.47 80.1066L100.363 80.3539C99.8764 80.1286 99.3402 80.0313 98.8054 80.0714C98.2706 80.1114 97.7549 80.2874 97.3072 80.5827C96.8286 80.8929 96.4291 81.3108 96.1407 81.8029C95.8524 82.295 95.6831 82.8478 95.6465 83.417V84.1146L95.3881 83.465C95.3026 83.2341 95.1486 83.0348 94.9468 82.8937C94.7451 82.7526 94.505 82.6764 94.2588 82.6752C93.303 82.6273 92.2142 83.3211 91.7123 84.2843Z" fill="#FAFAFA"/>
<path d="M90.2125 88.3594L89.9727 88.2266C90.3048 87.6213 92.0726 84.5803 94.1651 84.0304C94.4605 83.9458 94.7704 83.9247 95.0745 83.9686C95.3786 84.0125 95.6699 84.1203 95.9292 84.285L95.789 84.5175C95.5603 84.373 95.3038 84.2783 95.0361 84.2395C94.7684 84.2007 94.4955 84.2188 94.2353 84.2924C92.7 84.6984 91.113 86.7356 90.2125 88.3594Z" fill="#FAFAFA"/>
<path d="M117.204 55.8498V57.5585L89.0896 73.7896L66.8945 60.976V59.2673L95.0093 43.0361L117.204 55.8498Z" fill="#656565"/>
<path d="M117.204 55.8498L89.0896 72.0809L66.8945 59.2673L95.0093 43.0361L117.204 55.8498Z" fill="#656565"/>
<path d="M117.204 37.0576V38.7626L89.0896 54.9974L66.8945 42.1801V40.475L95.0093 24.2402L117.204 37.0576Z" fill="#656565"/>
<path d="M117.204 37.0576L89.0896 53.2887L66.8945 40.475L95.0093 24.2402L117.204 37.0576Z" fill="#656565"/>
<path d="M88.9959 31.0002L68.4764 19.172C68.318 19.0574 68.1322 18.9869 67.9377 18.9674C67.7433 18.948 67.5471 18.9803 67.3692 19.0612C67.1035 19.2126 66.1587 19.7624 65.893 19.9138C65.7314 20.0272 65.603 20.1818 65.5212 20.3616C65.4395 20.5413 65.4073 20.7397 65.428 20.936V77.0954C65.4581 77.6428 65.6168 78.1753 65.8913 78.6498C66.1657 79.1243 66.5482 79.5274 67.0075 79.8265L87.5271 91.6584C87.6855 91.7729 87.8713 91.8435 88.0658 91.863C88.2602 91.8824 88.4564 91.85 88.6343 91.7691C88.9 91.6141 89.8522 91.0679 90.1105 90.9092C90.2729 90.797 90.4023 90.6433 90.4854 90.4642C90.5685 90.2851 90.6021 90.0871 90.5829 89.8906V33.7349C90.5525 33.1863 90.3929 32.6527 90.1171 32.1774C89.8413 31.7022 89.4572 31.2988 88.9959 31.0002Z" fill="#656565"/>
<path opacity="0.2" d="M89.0916 39.6218L90.5752 38.7656V33.6357L89.0879 34.492L89.0916 39.6218Z" fill="black"/>
<path opacity="0.2" d="M118.691 22.5342L120.175 21.6817V16.5518L118.688 17.408L118.691 22.5342Z" fill="black"/>
<path d="M69.8571 78.0625L68.3809 78.915V83.5873C68.3883 83.7241 68.428 83.8573 68.4966 83.9759C68.5652 84.0945 68.6609 84.1953 68.7758 84.27L69.4659 84.6686C69.5883 84.7306 69.7236 84.7628 69.8608 84.7628C69.998 84.7628 70.1332 84.7306 70.2557 84.6686L70.9458 84.27C71.1901 84.1123 71.3796 83.8828 71.4883 83.6131L72.8206 79.7712L69.8571 78.0625Z" fill="#656565"/>
<path d="M68.377 83.5873C68.3844 83.7241 68.4241 83.8573 68.4927 83.9759C68.5613 84.0946 68.6569 84.1953 68.7718 84.2701L69.462 84.6686C69.5097 84.6975 69.5633 84.7152 69.6188 84.7204C69.6743 84.7255 69.7302 84.7181 69.7824 84.6986C69.8346 84.679 69.8817 84.6479 69.9202 84.6076C69.9586 84.5673 69.9875 84.5187 70.0045 84.4657L71.3368 80.6238L68.3843 78.915L68.377 83.5873Z" fill="#333436"/>
<path d="M84.652 86.6055L83.1758 87.458V92.1303C83.1825 92.2668 83.2215 92.3999 83.2895 92.5185C83.3575 92.6372 83.4526 92.7381 83.567 92.813L84.2608 93.2116C84.3826 93.2735 84.5173 93.3058 84.6539 93.3058C84.7905 93.3058 84.9251 93.2735 85.0469 93.2116L85.7407 92.813C85.984 92.6541 86.1732 92.425 86.2832 92.1561L87.6118 88.3142L84.652 86.6055Z" fill="#656565"/>
<path d="M83.1758 92.1117C83.1825 92.2483 83.2215 92.3814 83.2895 92.5C83.3575 92.6187 83.4526 92.7196 83.567 92.7945L84.2608 93.193C84.3085 93.2219 84.3621 93.2396 84.4176 93.2448C84.4731 93.25 84.529 93.2425 84.5812 93.223C84.6334 93.2034 84.6805 93.1723 84.719 93.132C84.7575 93.0917 84.7863 93.0431 84.8033 92.9901L86.1319 89.1482L83.1795 87.4395L83.1758 92.1117Z" fill="#333436"/>
<path d="M66.993 20.0283L87.5163 31.8565C87.9752 32.1566 88.3571 32.5605 88.6309 33.0357C88.9047 33.5108 89.0627 34.0437 89.0921 34.5913V92.5849C89.0921 92.5849 87.9518 91.9095 87.5163 91.6585L66.9967 79.8266C66.5373 79.5275 66.1549 79.1244 65.8805 78.6499C65.606 78.1754 65.4473 77.6429 65.4171 77.0955V20.9362C65.3777 20.7392 65.401 20.5348 65.4839 20.3518C65.5667 20.1688 65.7049 20.0165 65.879 19.9162C66.053 19.8159 66.2542 19.7728 66.454 19.7929C66.6539 19.813 66.8424 19.8953 66.993 20.0283Z" fill="#333436"/>
<path opacity="0.2" d="M87.5163 31.8565L66.993 20.0283C66.8424 19.8953 66.6539 19.813 66.454 19.7929C66.2542 19.7728 66.053 19.8159 65.879 19.9162C65.7049 20.0165 65.5667 20.1688 65.4839 20.3518C65.401 20.5348 65.3777 20.7392 65.4171 20.9362V25.9516L89.0921 39.6067V34.5913C89.0627 34.0437 88.9047 33.5108 88.6309 33.0357C88.3571 32.5605 87.9752 32.1566 87.5163 31.8565Z" fill="black"/>
<path d="M115.726 37.1945C115.69 37.1936 115.655 37.1789 115.63 37.1535C115.605 37.1281 115.59 37.0939 115.589 37.058V20.2068L99.5166 29.4849C99.5015 29.4947 99.4846 29.5012 99.4669 29.5041C99.4492 29.5069 99.4311 29.5061 99.4137 29.5016C99.3964 29.4971 99.3802 29.489 99.3661 29.4779C99.352 29.4667 99.3404 29.4528 99.332 29.4369C99.3227 29.4215 99.3166 29.4043 99.314 29.3864C99.3113 29.3685 99.3123 29.3503 99.3167 29.3328C99.3212 29.3153 99.3291 29.2989 99.3399 29.2844C99.3508 29.27 99.3644 29.2578 99.38 29.2487L115.678 19.8525C115.698 19.8398 115.722 19.833 115.746 19.833C115.77 19.833 115.794 19.8398 115.814 19.8525C115.835 19.8647 115.851 19.882 115.863 19.9028C115.875 19.9235 115.881 19.9469 115.881 19.9706V37.058C115.881 37.0776 115.877 37.097 115.869 37.1149C115.861 37.1327 115.849 37.1487 115.834 37.1617C115.82 37.1746 115.802 37.1843 115.783 37.1899C115.765 37.1956 115.745 37.1972 115.726 37.1945Z" fill="#FAFAFA"/>
<path d="M112.766 32.9197H112.725C112.69 32.9117 112.659 32.8902 112.64 32.8598C112.621 32.8294 112.614 32.7925 112.622 32.7573L115.375 20.8331L109.913 30.292C109.905 30.3078 109.893 30.3217 109.879 30.3329C109.865 30.344 109.849 30.3523 109.832 30.3571C109.815 30.362 109.796 30.3633 109.779 30.3609C109.761 30.3586 109.744 30.3527 109.728 30.3437C109.713 30.3348 109.699 30.3229 109.687 30.3086C109.676 30.2943 109.668 30.2779 109.663 30.2604C109.658 30.2429 109.657 30.2246 109.659 30.2065C109.662 30.1885 109.668 30.1711 109.677 30.1554L115.582 19.903C115.599 19.8749 115.625 19.8535 115.656 19.8427C115.687 19.832 115.721 19.8324 115.751 19.844C115.782 19.8563 115.807 19.8791 115.822 19.9083C115.836 19.9374 115.84 19.9709 115.833 20.0027L112.88 32.82C112.874 32.8463 112.859 32.87 112.839 32.8878C112.818 32.9056 112.793 32.9167 112.766 32.9197Z" fill="#FAFAFA"/>
<path d="M106.852 28.665C106.833 28.665 106.815 28.6611 106.797 28.6535C106.78 28.6459 106.765 28.6347 106.752 28.6207C106.727 28.5951 106.713 28.5606 106.713 28.5247C106.713 28.4888 106.727 28.4543 106.752 28.4288L115.632 19.8851C115.657 19.8599 115.692 19.8457 115.728 19.8457C115.764 19.8457 115.798 19.8599 115.824 19.8851C115.849 19.9113 115.863 19.9464 115.863 19.9829C115.863 20.0194 115.849 20.0545 115.824 20.0807L106.944 28.6207C106.933 28.6338 106.918 28.6445 106.902 28.6521C106.887 28.6597 106.869 28.664 106.852 28.665Z" fill="#FAFAFA"/>
<path d="M115.724 34.4672C115.688 34.4662 115.654 34.4515 115.629 34.4261C115.603 34.4007 115.589 34.3665 115.588 34.3306C115.588 32.0941 113.093 31.9428 112.986 31.9391C112.966 31.9377 112.946 31.932 112.928 31.9224C112.91 31.9129 112.895 31.8997 112.882 31.8838C112.871 31.8681 112.863 31.85 112.859 31.8309C112.855 31.8117 112.856 31.792 112.86 31.773C112.951 31.3161 112.921 30.8433 112.771 30.4022C112.621 29.961 112.358 29.567 112.008 29.2598C111.88 29.1321 111.726 29.0331 111.557 28.9695C111.387 28.9058 111.207 28.879 111.026 28.8907C110.93 28.907 110.838 28.9438 110.757 28.9985C110.676 29.0533 110.608 29.1248 110.557 29.2081C110.542 29.235 110.518 29.2559 110.489 29.2673C110.46 29.2787 110.428 29.28 110.399 29.2708C110.369 29.2617 110.344 29.2429 110.326 29.2175C110.309 29.192 110.301 29.1614 110.303 29.1306C110.303 29.0457 110.454 27.0565 108.705 26.8609C108.682 26.8581 108.661 26.85 108.642 26.8371C108.624 26.8243 108.608 26.8071 108.598 26.7871C108.588 26.7677 108.582 26.7462 108.582 26.7243C108.582 26.7025 108.588 26.681 108.598 26.6616C108.598 26.6616 109.373 25.2112 109.074 24.4989C109.039 24.4153 108.986 24.341 108.917 24.282C108.848 24.223 108.767 24.181 108.679 24.1594C108.661 24.1548 108.645 24.1466 108.631 24.1354C108.617 24.1243 108.605 24.1103 108.596 24.0944C108.588 24.0785 108.582 24.061 108.581 24.043C108.579 24.025 108.581 24.0068 108.587 23.9896C108.598 23.9554 108.622 23.9268 108.653 23.9096C108.685 23.8924 108.722 23.8881 108.756 23.8974C108.884 23.9301 109.001 23.9922 109.1 24.0787C109.199 24.1653 109.276 24.2738 109.325 24.3956C109.609 25.071 109.129 26.1892 108.923 26.6099C110.281 26.872 110.532 28.1526 110.569 28.7874C110.69 28.7012 110.828 28.642 110.974 28.6139C111.196 28.5924 111.42 28.6214 111.629 28.6988C111.838 28.7761 112.027 28.8998 112.181 29.0605C112.548 29.3839 112.829 29.7932 112.998 30.2519C113.167 30.7105 113.22 31.204 113.152 31.6882C113.75 31.7657 115.861 32.1827 115.857 34.338C115.855 34.3723 115.841 34.4046 115.816 34.4286C115.791 34.4525 115.759 34.4663 115.724 34.4672Z" fill="#FAFAFA"/>
<path d="M115.725 30.7831C115.691 30.7832 115.658 30.7704 115.632 30.7471C115.607 30.7238 115.592 30.6919 115.589 30.6576C115.53 29.8752 115.076 28.864 114.504 28.6131C114.39 28.5624 114.265 28.5459 114.142 28.5656C114.02 28.5853 113.905 28.6402 113.814 28.7238C113.791 28.7382 113.765 28.7459 113.738 28.7459C113.711 28.7459 113.685 28.7382 113.662 28.7238C113.639 28.7109 113.62 28.6915 113.607 28.6679C113.595 28.6442 113.59 28.6175 113.592 28.5909C113.592 28.5909 113.714 27.2069 113.09 26.6349C112.955 26.5219 112.795 26.4429 112.623 26.4044C112.45 26.3659 112.272 26.369 112.101 26.4135C112.078 26.4185 112.053 26.417 112.03 26.4092C112.008 26.4014 111.988 26.3876 111.972 26.3692C111.956 26.3506 111.946 26.3283 111.941 26.3043C111.936 26.2804 111.938 26.2557 111.946 26.2326C112.072 25.8894 112.315 24.9262 111.987 24.583C111.832 24.4243 111.548 24.4095 111.138 24.5424C111.11 24.5516 111.08 24.5516 111.052 24.5423C111.024 24.533 111 24.5149 110.983 24.4907C110.966 24.467 110.957 24.4386 110.957 24.4095C110.957 24.3804 110.966 24.352 110.983 24.3283C111.212 24.0404 111.776 23.199 111.636 22.7967C111.613 22.7412 111.576 22.6927 111.528 22.6564C111.48 22.6201 111.423 22.5972 111.363 22.59C111.346 22.5857 111.329 22.578 111.315 22.5673C111.3 22.5566 111.288 22.5432 111.279 22.5277C111.269 22.5123 111.263 22.4952 111.261 22.4774C111.258 22.4596 111.259 22.4414 111.263 22.424C111.267 22.4064 111.274 22.3897 111.284 22.375C111.294 22.3602 111.307 22.3478 111.323 22.3384C111.338 22.329 111.355 22.3229 111.373 22.3205C111.391 22.3181 111.409 22.3194 111.426 22.3243C111.529 22.3394 111.627 22.3815 111.709 22.4462C111.792 22.511 111.856 22.5962 111.894 22.6934C112.046 23.1326 111.677 23.8006 111.418 24.1696C111.551 24.138 111.69 24.1392 111.823 24.1733C111.955 24.2074 112.077 24.2733 112.179 24.3652C112.585 24.7859 112.389 25.6754 112.267 26.0924C112.447 26.0709 112.63 26.0877 112.803 26.1418C112.976 26.1959 113.135 26.2859 113.271 26.4061C113.821 26.908 113.88 27.8823 113.873 28.3289C113.988 28.2746 114.114 28.2464 114.242 28.2464C114.369 28.2464 114.495 28.2746 114.611 28.3289C115.308 28.6352 115.792 29.7239 115.862 30.606C115.863 30.6237 115.861 30.6416 115.856 30.6585C115.85 30.6755 115.841 30.6911 115.83 30.7045C115.818 30.7179 115.804 30.7289 115.788 30.7367C115.772 30.7445 115.754 30.749 115.736 30.7499L115.725 30.7831Z" fill="#FAFAFA"/>
<path d="M123.676 13.9909C123.658 13.7949 123.589 13.6072 123.475 13.447C123.361 13.2868 123.206 13.1599 123.026 13.0793L101.027 0.37638C100.538 0.128934 99.9973 0 99.4491 0C98.901 0 98.3605 0.128934 97.8714 0.37638L64.0363 19.9142C63.8568 19.9948 63.702 20.1217 63.5878 20.2819C63.4736 20.4421 63.4042 20.6299 63.3867 20.8258V22.5345C63.4042 22.7305 63.4736 22.9182 63.5878 23.0785C63.702 23.2387 63.8568 23.3656 64.0363 23.4461L86.0357 36.1454C86.5243 36.3945 87.065 36.5244 87.6135 36.5244C88.1619 36.5244 88.7026 36.3945 89.1912 36.1454L123.026 16.6112C123.206 16.5307 123.361 16.4037 123.475 16.2435C123.589 16.0833 123.658 15.8956 123.676 15.6996V13.9909Z" fill="#333436"/>
<path d="M86.0355 34.4366L64.036 21.7374C63.1651 21.2318 63.1651 20.4162 64.036 19.9142L97.8712 0.37638C98.3603 0.128934 98.9007 0 99.4489 0C99.997 0 100.537 0.128934 101.027 0.37638L123.026 13.0793C123.901 13.5849 123.901 14.3968 123.026 14.9025L89.191 34.4366C88.7024 34.6858 88.1617 34.8157 87.6132 34.8157C87.0648 34.8157 86.5241 34.6858 86.0355 34.4366Z" fill="#656565"/>
<path opacity="0.1" d="M118.687 19.1123L108.331 31.9297L90.576 42.1821L90.5723 35.3471L118.687 19.1123Z" fill="black"/>
<path opacity="0.1" d="M117.207 38.7607L108.331 50.7219L90.5762 60.978V54.1393L117.207 38.7607Z" fill="black"/>
<path opacity="0.1" d="M117.207 57.5566L108.331 69.5178L90.5762 79.7739V72.9352L117.207 57.5566Z" fill="black"/>
<path d="M76.481 94.8863L49.2593 110.604L18.6055 92.8638L45.8271 77.1494L76.481 94.8863Z" fill="#0E8EC5"/>
<path opacity="0.5" d="M76.481 94.8863L49.2593 110.604L18.6055 92.8638L45.8271 77.1494L76.481 94.8863Z" fill="black"/>
<path d="M45.8271 55.8438V77.1494L18.6055 92.8638V71.5619L45.8271 55.8438Z" fill="#0E8EC5"/>
<path opacity="0.23" d="M45.8271 55.8438V77.1494L18.6055 92.8638V71.5619L45.8271 55.8438Z" fill="black"/>
<path d="M49.2593 89.2984V110.604L18.6055 92.8635V71.5615L49.2593 89.2984Z" fill="#0E8EC5"/>
<path opacity="0.38" d="M49.2593 89.2984V110.604L18.6055 92.8635V71.5615L49.2593 89.2984Z" fill="black"/>
<path d="M76.48 73.5806V94.8863L45.8262 77.1494V55.8438L76.48 73.5806Z" fill="#0E8EC5"/>
<path opacity="0.4" d="M76.48 73.5806V94.8863L45.8262 77.1494V55.8438L76.48 73.5806Z" fill="black"/>
<path d="M76.4794 94.8867V73.5811L49.2578 89.2992V110.605L76.4794 94.8867Z" fill="#0E8EC5"/>
<path opacity="0.23" d="M76.4794 94.8867V73.5811L49.2578 89.2992V110.605L76.4794 94.8867Z" fill="black"/>
<path d="M45.8262 55.8439L45.8631 44.0488L76.4431 61.8078L76.48 73.5808L45.8262 55.8439Z" fill="#0E8EC5"/>
<path opacity="0.2" d="M45.8262 55.8439L45.8631 44.0488L76.4431 61.8078L76.48 73.5808L45.8262 55.8439Z" fill="black"/>
<path d="M49.2578 89.2983L51.8117 78.9795L78.786 63.4053L76.4794 73.5802L49.2578 89.2983Z" fill="#0E8EC5"/>
<path opacity="0.3" d="M49.2578 89.2983L51.8117 78.9795L78.786 63.4053L76.4794 73.5802L49.2578 89.2983Z" fill="black"/>
<path d="M18.6051 71.5616L15.3574 60.859L42.5791 45.1445L45.8268 55.8435L18.6051 71.5616Z" fill="#0E8EC5"/>
<path opacity="0.1" d="M18.6051 71.5616L15.3574 60.859L42.5791 45.1445L45.8268 55.8435L18.6051 71.5616Z" fill="black"/>
<path d="M18.6041 71.5621L12.1973 62.7158L42.8548 80.4527L49.258 89.299L18.6041 71.5621Z" fill="#0E8EC5"/>
<path opacity="0.45" d="M18.6041 71.5621L12.1973 62.7158L42.8548 80.4527L49.258 89.299L18.6041 71.5621Z" fill="black"/>
<g opacity="0.7">
<path d="M57.2733 104.266C57.2289 104.266 57.1863 104.249 57.1545 104.218C57.1228 104.187 57.1045 104.144 57.1035 104.1V100.35C57.1045 100.306 57.1226 100.263 57.1543 100.231C57.1859 100.2 57.2286 100.182 57.2733 100.181C57.3177 100.182 57.3599 100.2 57.3909 100.232C57.422 100.263 57.4394 100.306 57.4394 100.35V104.1C57.4394 104.144 57.4219 104.186 57.3907 104.217C57.3596 104.249 57.3173 104.266 57.2733 104.266Z" fill="white"/>
<path d="M56.7844 101.649C56.7624 101.652 56.74 101.652 56.718 101.649C56.6777 101.63 56.6461 101.597 56.6296 101.556C56.6131 101.515 56.6131 101.469 56.6294 101.427L57.2273 100.051L57.8916 100.818C57.9153 100.853 57.9256 100.895 57.9204 100.936C57.9152 100.978 57.8949 101.016 57.8634 101.043C57.8318 101.071 57.7913 101.085 57.7495 101.085C57.7077 101.084 57.6677 101.068 57.6369 101.04L57.3232 100.671L56.9542 101.557C56.9382 101.587 56.9136 101.612 56.8833 101.628C56.8531 101.645 56.8187 101.652 56.7844 101.649Z" fill="white"/>
<path d="M58.8223 103.385C58.7779 103.384 58.7357 103.365 58.7047 103.333C58.6736 103.302 58.6562 103.259 58.6563 103.215V99.4688C58.6563 99.4248 58.6737 99.3825 58.7049 99.3514C58.736 99.3202 58.7783 99.3027 58.8223 99.3027C58.8664 99.3027 58.9086 99.3202 58.9398 99.3514C58.9709 99.3825 58.9884 99.4248 58.9884 99.4688V103.211C58.9889 103.233 58.985 103.256 58.9769 103.276C58.9688 103.297 58.9567 103.316 58.9413 103.332C58.9259 103.348 58.9074 103.361 58.887 103.37C58.8666 103.379 58.8446 103.384 58.8223 103.385Z" fill="white"/>
<path d="M58.3304 100.768C58.3084 100.771 58.286 100.771 58.264 100.768C58.2437 100.759 58.2254 100.746 58.2102 100.73C58.1949 100.714 58.183 100.696 58.1751 100.675C58.1672 100.654 58.1634 100.632 58.1641 100.61C58.1648 100.588 58.1699 100.566 58.1791 100.546L58.7733 99.1514L59.4376 99.9153C59.4683 99.947 59.4854 99.9893 59.4854 100.033C59.4854 100.077 59.4683 100.12 59.4376 100.152C59.4222 100.167 59.4038 100.18 59.3835 100.188C59.3632 100.196 59.3415 100.201 59.3195 100.201C59.2975 100.201 59.2758 100.196 59.2555 100.188C59.2352 100.18 59.2169 100.167 59.2014 100.152L58.8877 99.7825L58.5187 100.668C58.5034 100.704 58.4763 100.733 58.4421 100.751C58.4079 100.769 58.3685 100.775 58.3304 100.768Z" fill="white"/>
</g>
<g opacity="0.7">
<path d="M52.8106 106.811C52.7475 106.812 52.6852 106.796 52.6297 106.766C52.563 106.724 52.509 106.664 52.4733 106.593C52.4376 106.522 52.4215 106.443 52.4268 106.364V105.903C52.4277 105.858 52.446 105.816 52.4778 105.785C52.5095 105.754 52.5521 105.737 52.5965 105.737C52.6406 105.737 52.6828 105.754 52.714 105.785C52.7451 105.816 52.7626 105.859 52.7626 105.903V106.364C52.7626 106.43 52.7626 106.467 52.7958 106.475C52.829 106.482 52.8475 106.475 52.9028 106.445C53.0067 106.349 53.0885 106.232 53.1427 106.101C53.1969 105.971 53.222 105.83 53.2165 105.689V103.77C53.2165 103.726 53.234 103.683 53.2652 103.652C53.2963 103.621 53.3386 103.604 53.3826 103.604C53.4267 103.604 53.4689 103.621 53.5 103.652C53.5312 103.683 53.5487 103.726 53.5487 103.77V105.689C53.5569 105.888 53.5181 106.086 53.4354 106.268C53.3527 106.449 53.2284 106.609 53.0726 106.733C52.9937 106.782 52.9033 106.809 52.8106 106.811Z" fill="white"/>
<path d="M51.0508 105.265V104.977C51.0946 104.238 51.3107 103.519 51.6817 102.878C52.0527 102.237 52.5684 101.692 53.1876 101.286C53.7929 100.939 54.3686 100.888 54.8115 101.146C55.0477 101.308 55.236 101.53 55.3568 101.79C55.4775 102.05 55.5263 102.337 55.4979 102.622V102.718L51.0508 105.265ZM54.1915 101.301C53.8959 101.315 53.6088 101.403 53.3574 101.559C52.8268 101.908 52.3775 102.368 52.04 102.906C51.7025 103.444 51.4847 104.048 51.4014 104.678L55.1547 102.508C55.1707 102.294 55.1312 102.08 55.04 101.886C54.9489 101.692 54.8091 101.525 54.6343 101.401C54.498 101.329 54.3453 101.295 54.1915 101.301Z" fill="white"/>
</g>
<path opacity="0.7" d="M12.1973 62.7158L42.8548 80.4527L49.258 89.299L42.5153 80.7664L12.1973 62.7158Z" fill="white"/>
<path opacity="0.7" d="M76.4794 73.5811L49.2578 89.2992V110.605L49.7671 89.7273L76.4794 73.5811Z" fill="white"/>
<path d="M36.5323 65.0613C39.3408 64.6554 41.9057 62.847 43.5443 60.5736C44.3085 59.5114 44.8714 58.318 45.2051 57.0528C45.5595 55.8696 45.6178 54.6175 45.3749 53.4065C44.8693 51.3804 42.9945 50.1809 41.0126 49.93C40.007 49.7977 38.9844 49.8974 38.0233 50.2215C37.0267 50.5636 36.1621 51.2088 35.5506 52.0668C35.1672 52.524 34.926 53.0833 34.8567 53.6759C34.8509 53.908 34.9327 54.1338 35.0859 54.3082C35.2391 54.4827 35.4525 54.5929 35.6834 54.617C36.2777 54.6671 36.8716 54.5163 37.37 54.1889C37.9778 53.8481 38.5132 53.3917 38.9459 52.8455C39.8742 51.6999 40.5688 50.3834 40.9905 48.9704C41.2863 47.758 41.2863 46.4923 40.9905 45.2799C40.7657 44.0116 40.186 42.833 39.3186 41.8809C38.3243 40.9766 37.0624 40.4208 35.724 40.2976C34.392 40.1146 33.0357 40.2409 31.7604 40.6667C31.2002 40.8365 30.6812 41.1205 30.2362 41.5007C29.9188 41.796 29.5571 42.2831 29.6863 42.7629C29.8154 43.2427 30.5166 43.4567 30.9927 43.394C31.6973 43.262 32.3427 42.9121 32.838 42.3938C33.39 41.8505 33.8588 41.2287 34.2294 40.5486C34.5047 40.0598 34.6484 39.5079 34.6464 38.9469C34.5984 36.607 32.0113 35.0939 29.9852 34.6658C29.4383 34.5515 28.878 34.5143 28.3208 34.5551C28.1325 34.5551 28.2469 34.8651 28.3983 34.854C29.4886 34.8045 30.5721 35.0492 31.5352 35.5626C32.4855 35.9994 33.2835 36.71 33.8271 37.6035C34.0693 38.044 34.1889 38.5414 34.1733 39.0438C34.1577 39.5463 34.0076 40.0354 33.7385 40.46C33.3771 41.0894 32.9272 41.6636 32.4025 42.165C31.9633 42.5636 31.2953 43.0249 30.679 42.9806C30.5773 42.9804 30.4776 42.9516 30.3915 42.8974C30.3053 42.8432 30.2362 42.7659 30.1919 42.6743C30.1733 42.5531 30.1833 42.4293 30.2211 42.3127C30.2589 42.196 30.3235 42.0899 30.4096 42.0026C30.7355 41.6517 31.1386 41.3813 31.5869 41.2129C32.6941 40.7526 33.893 40.5555 35.0893 40.6371C36.3221 40.6595 37.521 41.0445 38.5362 41.7443C39.4207 42.4786 40.0488 43.4751 40.3299 44.5897C40.6859 45.7221 40.7966 46.9173 40.6546 48.0958C40.4355 49.2816 39.9799 50.4112 39.315 51.4173C38.6322 52.5466 37.776 53.6316 36.4917 54.0745C36.1743 54.1889 35.51 54.355 35.3845 53.8937C35.259 53.4323 35.6207 52.864 35.8532 52.506C36.3673 51.6968 37.1169 51.0645 38.0011 50.6939C38.8543 50.3519 39.7754 50.213 40.6915 50.288C42.4298 50.4171 44.1939 51.325 44.7991 53.0522C45.1027 54.0844 45.1358 55.1774 44.8951 56.2261C44.678 57.3756 44.2648 58.4792 43.6735 59.4886C42.4017 61.6333 40.4757 63.3136 38.1783 64.2826C37.6321 64.5188 37.0711 64.7181 36.499 64.9026C36.44 64.9248 36.4658 65.0724 36.5323 65.0613Z" fill="#E0E0E0"/>
<path d="M24.8005 33.0191C23.3243 32.9121 21.2908 34.0746 22.0142 34.9235C22.7375 35.7723 24.6566 34.3994 24.6566 34.3994C24.6566 34.3994 24.4758 36.1155 25.1032 36.3111C25.7306 36.5067 26.5794 34.8681 25.952 33.82C26.2546 33.9393 26.5824 33.9802 26.905 33.9389C27.2276 33.8976 27.5345 33.7754 27.7973 33.5838C28.6904 32.9269 27.7456 32.3069 26.4871 32.4176C26.4871 32.4176 27.3876 29.4651 25.5682 30.0298C24.6566 30.3066 24.3355 31.3732 24.8005 33.0191Z" fill="#0E8EC5"/>
<path opacity="0.65" d="M24.8005 33.0191C23.3243 32.9121 21.2908 34.0746 22.0142 34.9235C22.7375 35.7723 24.6566 34.3994 24.6566 34.3994C24.6566 34.3994 24.4758 36.1155 25.1032 36.3111C25.7306 36.5067 26.5794 34.8681 25.952 33.82C26.2546 33.9393 26.5824 33.9802 26.905 33.9389C27.2276 33.8976 27.5345 33.7754 27.7973 33.5838C28.6904 32.9269 27.7456 32.3069 26.4871 32.4176C26.4871 32.4176 27.3876 29.4651 25.5682 30.0298C24.6566 30.3066 24.3355 31.3732 24.8005 33.0191Z" fill="white"/>
<path d="M26.1741 33.6463C26.0924 33.5663 26.0061 33.4911 25.9157 33.4212C25.7866 33.3215 25.65 33.2256 25.5208 33.1296C25.3951 33.0382 25.2631 32.9555 25.1259 32.8823C25.047 32.8385 24.9657 32.7991 24.8824 32.7642C24.7673 32.7102 24.6394 32.6898 24.5133 32.7052C24.4803 32.7061 24.4481 32.7159 24.4201 32.7336C24.3921 32.7512 24.3694 32.776 24.3543 32.8054C24.3392 32.8349 24.3323 32.8678 24.3343 32.9008C24.3363 32.9338 24.3472 32.9657 24.3657 32.9931C24.4671 33.103 24.5938 33.1866 24.7347 33.2366L24.934 33.3437C25.0706 33.4249 25.1924 33.5171 25.3031 33.6094C25.4138 33.7016 25.5614 33.7902 25.6721 33.8825C25.8625 34.0369 26.0753 34.1613 26.3032 34.2515C26.3134 34.257 26.3249 34.2599 26.3364 34.2599C26.348 34.2599 26.3595 34.257 26.3697 34.2515C26.5579 34.1039 26.2811 33.7533 26.1741 33.6463Z" fill="#656565"/>
</svg>
