<svg width="96" height="97" viewBox="0 0 96 97" fill="none" xmlns="http://www.w3.org/2000/svg">
<path d="M84 14H33C24.7155 14 18 20.7155 18 29V87.5H66C70.971 87.5 75 83.471 75 78.5V23C75 18.029 79.029 14 84 14Z" fill="url(#paint0_linear_17264_90281)"/>
<path d="M84 14C79.029 14 75 18.029 75 23V33.5H88.5C90.9855 33.5 93 31.4855 93 29V23C93 18.029 88.9695 14 84 14Z" fill="url(#paint1_linear_17264_90281)"/>
<path d="M66 87.5H18C13.029 87.5 9 83.471 9 78.5V71C9 68.5145 11.0145 66.5 13.5 66.5H52.5C54.9855 66.5 57 68.5145 57 71V78.5C57 83.471 61.029 87.5 66 87.5Z" fill="url(#paint2_linear_17264_90281)"/>
<path d="M57.0003 78.5V71C57.0003 68.5145 54.9858 66.5 52.5003 66.5H48.0303C46.2078 66.5 44.7663 68.1245 45.0708 70.004C45.3108 71.4785 46.6953 72.5 48.1908 72.5H50.2803C51.5223 72.5 52.5303 73.508 52.5303 74.75C52.5303 75.992 51.5223 77 50.2803 77H42.1608C40.6668 77 39.2808 78.0215 39.0408 79.496C38.7363 81.3755 40.1778 83 42.0003 83H45.7803C47.0223 83 48.0303 84.008 48.0303 85.25C48.0303 86.492 47.0223 87.5 45.7803 87.5H63.0003C63.6108 87.5 63.9993 87.437 64.2183 87.3215C60.1008 86.495 57.0003 82.8605 57.0003 78.5Z" fill="url(#paint3_linear_17264_90281)"/>
<path d="M49.5 41H30C28.3425 41 27 39.6575 27 38C27 36.3425 28.3425 35 30 35H49.5C51.1575 35 52.5 36.3425 52.5 38C52.5 39.6575 51.1575 41 49.5 41ZM63 41H60C58.3425 41 57 39.6575 57 38C57 36.3425 58.3425 35 60 35H63C64.6575 35 66 36.3425 66 38C66 39.6575 64.6575 41 63 41ZM33 62H30C28.3425 62 27 60.6575 27 59C27 57.3425 28.3425 56 30 56H33C34.6575 56 36 57.3425 36 59C36 60.6575 34.6575 62 33 62ZM63 62H43.5C41.8425 62 40.5 60.6575 40.5 59C40.5 57.3425 41.8425 56 43.5 56H63C64.6575 56 66 57.3425 66 59C66 60.6575 64.6575 62 63 62ZM39 51.5H30C28.3425 51.5 27 50.1575 27 48.5C27 46.8425 28.3425 45.5 30 45.5H39C40.6575 45.5 42 46.8425 42 48.5C42 50.1575 40.6575 51.5 39 51.5ZM63 51.5H49.5C47.8425 51.5 46.5 50.1575 46.5 48.5C46.5 46.8425 47.8425 45.5 49.5 45.5H63C64.6575 45.5 66 46.8425 66 48.5C66 50.1575 64.6575 51.5 63 51.5Z" fill="white"/>
<defs>
<linearGradient id="paint0_linear_17264_90281" x1="51" y1="14" x2="51" y2="87.5" gradientUnits="userSpaceOnUse">
<stop stop-color="#0E8EC5"/>
<stop offset="1" stop-color="#0BABEF"/>
</linearGradient>
<linearGradient id="paint1_linear_17264_90281" x1="84" y1="14" x2="84" y2="33.5" gradientUnits="userSpaceOnUse">
<stop stop-color="#0E729C"/>
<stop offset="1" stop-color="#0DB4FC"/>
</linearGradient>
<linearGradient id="paint2_linear_17264_90281" x1="37.5" y1="66.5" x2="37.5" y2="87.5" gradientUnits="userSpaceOnUse">
<stop offset="0.145526" stop-color="#0E8EC5"/>
<stop offset="1" stop-color="#00B0FC"/>
</linearGradient>
<linearGradient id="paint3_linear_17264_90281" x1="51.6091" y1="66.5" x2="51.6091" y2="87.5" gradientUnits="userSpaceOnUse">
<stop offset="0.145526" stop-color="#0E8EC5"/>
<stop offset="1" stop-color="#00B0FC"/>
</linearGradient>
</defs>
</svg>
