    <svg width="12" height="12" viewBox="0 0 12 12" fill="none" xmlns="http://www.w3.org/2000/svg">
            <path d="M5.625 0.75V0.375C5.625 0.275544 5.66451 0.180161 5.73484 0.109835C5.80516 0.0395088 5.90054 0 6 0C6.09946 0 6.19484 0.0395088 6.26517 0.109835C6.33549 0.180161 6.375 0.275544 6.375 0.375V0.75C6.375 0.849456 6.33549 0.944839 6.26517 1.01517C6.19484 1.08549 6.09946 1.125 6 1.125C5.90054 1.125 5.80516 1.08549 5.73484 1.01517C5.66451 0.944839 5.625 0.849456 5.625 0.75ZM9.375 2.25C9.42426 2.25004 9.47305 2.24037 9.51857 2.22155C9.56409 2.20273 9.60546 2.17513 9.64031 2.14031L10.0153 1.76531C10.0857 1.69495 10.1252 1.59951 10.1252 1.5C10.1252 1.40049 10.0857 1.30505 10.0153 1.23469C9.94495 1.16432 9.84951 1.12479 9.75 1.12479C9.65049 1.12479 9.55505 1.16432 9.48469 1.23469L9.10969 1.60969C9.05718 1.66213 9.02142 1.72898 9.00693 1.80176C8.99243 1.87454 8.99986 1.94999 9.02827 2.01855C9.05667 2.08711 9.10478 2.14569 9.16651 2.1869C9.22823 2.2281 9.30079 2.25006 9.375 2.25ZM2.35969 2.14031C2.39453 2.17515 2.43589 2.20279 2.48141 2.22165C2.52694 2.2405 2.57573 2.25021 2.625 2.25021C2.67427 2.25021 2.72306 2.2405 2.76859 2.22165C2.81411 2.20279 2.85547 2.17515 2.89031 2.14031C2.92515 2.10547 2.95279 2.06411 2.97165 2.01859C2.9905 1.97306 3.00021 1.92427 3.00021 1.875C3.00021 1.82573 2.9905 1.77694 2.97165 1.73141C2.95279 1.68589 2.92515 1.64453 2.89031 1.60969L2.51531 1.23469C2.44495 1.16432 2.34951 1.12479 2.25 1.12479C2.15049 1.12479 2.05505 1.16432 1.98469 1.23469C1.91432 1.30505 1.87479 1.40049 1.87479 1.5C1.87479 1.59951 1.91432 1.69495 1.98469 1.76531L2.35969 2.14031ZM10.875 8.25V9.375C10.875 9.57391 10.796 9.76468 10.6553 9.90533C10.5147 10.046 10.3239 10.125 10.125 10.125H1.875C1.67609 10.125 1.48532 10.046 1.34467 9.90533C1.20402 9.76468 1.125 9.57391 1.125 9.375V8.25C1.125 8.05109 1.20402 7.86032 1.34467 7.71967C1.48532 7.57902 1.67609 7.5 1.875 7.5V6C1.87498 5.45564 1.98271 4.91667 2.19197 4.41414C2.40124 3.91162 2.70789 3.45548 3.09427 3.07202C3.48064 2.68857 3.93909 2.38538 4.44319 2.17994C4.94729 1.97449 5.48707 1.87086 6.03141 1.875C8.28844 1.89188 10.125 3.76359 10.125 6.04688V7.5C10.3239 7.5 10.5147 7.57902 10.6553 7.71967C10.796 7.86032 10.875 8.05109 10.875 8.25ZM6.31312 4.11984C7.20328 4.26937 7.875 5.0775 7.875 6C7.875 6.09946 7.91451 6.19484 7.98483 6.26517C8.05516 6.33549 8.15054 6.375 8.25 6.375C8.34946 6.375 8.44484 6.33549 8.51517 6.26517C8.58549 6.19484 8.625 6.09946 8.625 6C8.625 4.71562 7.68422 3.58922 6.43688 3.38016C6.38809 3.37153 6.33809 3.37265 6.28974 3.38346C6.2414 3.39427 6.19567 3.41455 6.15521 3.44314C6.11475 3.47172 6.08035 3.50803 6.05401 3.54998C6.02766 3.59193 6.00989 3.63869 6.00171 3.68755C5.99354 3.73641 5.99512 3.7864 6.00638 3.83464C6.01764 3.88289 6.03834 3.92842 6.0673 3.96862C6.09626 4.00881 6.13289 4.04287 6.17508 4.06883C6.21727 4.09478 6.26419 4.11212 6.31312 4.11984ZM10.125 9.375V8.25H1.875V9.375H10.125Z" fill="#0E8EC5"/>
    </svg>