<svg width="14" height="14" viewBox="0 0 12 12" fill="none" xmlns="http://www.w3.org/2000/svg">
<g clip-path="url(#clip0_399_17559)">
<path d="M7.5 7.87464C7.5 8.08179 7.33219 8.24957 7.125 8.24957H4.875C4.66781 8.24957 4.5 8.08179 4.5 7.87464V6.74985H0V10.1242C0 10.7241 0.525 11.249 1.125 11.249H10.875C11.475 11.249 12 10.7241 12 10.1242V6.74985H7.5V7.87464ZM10.875 3.00055H9V1.87577C9 1.27588 8.475 0.750977 7.875 0.750977H4.125C3.525 0.750977 3 1.27588 3 1.87577V3.00055H1.125C0.525 3.00055 0 3.52546 0 4.12534V5.99999H12V4.12534C12 3.52546 11.475 3.00055 10.875 3.00055ZM7.5 3.00055H4.5V2.25069H7.5V3.00055Z" fill="#0E8EC5"/>
</g>
<defs>
<clipPath id="clip0_399_17559">
<rect width="12" height="11.9977" fill="white" transform="translate(0 0.00109863)"/>
</clipPath>
</defs>
</svg>
