<svg width="12" height="12" viewBox="0 0 12 12" fill="none" xmlns="http://www.w3.org/2000/svg">
<g clip-path="url(#clip0_399_25000)">
<path d="M11.7184 4.125H10.3152L9.92522 3.15018C9.52444 2.14794 8.56795 1.50049 7.48819 1.50049H4.51163C3.4321 1.50049 2.47538 2.14794 2.07437 3.15018L1.68437 4.125H0.281399C0.0983522 4.125 -0.0359446 4.29699 0.00858663 4.47438L0.149211 5.03678C0.180383 5.16191 0.292883 5.24978 0.422024 5.24978H0.892414C0.577649 5.52465 0.374914 5.92419 0.374914 6.37457V7.49936C0.374914 7.8771 0.519289 8.21805 0.749914 8.48191V9.74894C0.749914 10.163 1.08577 10.4988 1.49991 10.4988H2.24991C2.66405 10.4988 2.99991 10.163 2.99991 9.74894V8.99908H8.99991V9.74894C8.99991 10.163 9.33576 10.4988 9.74991 10.4988H10.4999C10.914 10.4988 11.2499 10.163 11.2499 9.74894V8.48191C11.4805 8.21829 11.6249 7.87734 11.6249 7.49936V6.37457C11.6249 5.92419 11.4222 5.52465 11.1076 5.24978H11.578C11.7072 5.24978 11.8197 5.16191 11.8508 5.03678L11.9915 4.47438C12.0358 4.29699 11.9015 4.125 11.7184 4.125ZM3.46702 3.70718C3.63788 3.28023 4.05155 3.00021 4.51163 3.00021H7.48819C7.94827 3.00021 8.36194 3.28023 8.5328 3.70718L8.99991 4.87485H2.99991L3.46702 3.70718ZM2.24991 7.49467C1.79991 7.49467 1.49991 7.19567 1.49991 6.74716C1.49991 6.29865 1.79991 5.99964 2.24991 5.99964C2.69991 5.99964 3.37491 6.67241 3.37491 7.12092C3.37491 7.56943 2.69991 7.49467 2.24991 7.49467ZM9.74991 7.49467C9.29991 7.49467 8.62491 7.56943 8.62491 7.12092C8.62491 6.67241 9.29991 5.99964 9.74991 5.99964C10.1999 5.99964 10.4999 6.29865 10.4999 6.74716C10.4999 7.19567 10.1999 7.49467 9.74991 7.49467Z" fill="#0E8EC5"/>
</g>
<defs>
<clipPath id="clip0_399_25000">
<rect width="12" height="11.9977" fill="white" transform="translate(0 0.000976562)"/>
</clipPath>
</defs>
</svg>
