<svg width="81" height="81" viewBox="0 0 81 81" fill="none" xmlns="http://www.w3.org/2000/svg">
<circle cx="40.5" cy="40.5" r="40.5" fill="#C5FFF9"/>
<circle cx="40.5001" cy="40.5" r="33.3367" fill="#10DAC4"/>
<circle cx="40.5002" cy="40.5" r="22.8673" fill="#14B8A6"/>
<g clip-path="url(#clip0_401_201)">
<path d="M40.7081 30.4011C40.4725 30.3837 40.2363 30.375 40 30.375V29C40.2702 29.0001 40.5404 29.0102 40.8099 29.0302L40.7081 30.4011ZM43.4636 31.0199C43.0229 30.8498 42.5702 30.7124 42.1093 30.6087L42.4104 29.2668C42.937 29.385 43.4554 29.5418 43.9586 29.737L43.4636 31.0199ZM45.3474 31.9961C45.1508 31.865 44.9494 31.7412 44.7437 31.6249L45.4216 30.4286C45.8917 30.695 46.3417 30.9956 46.7677 31.3279L45.9221 32.4128C45.7357 32.2673 45.544 32.1288 45.3474 31.9975V31.9961ZM47.8691 34.4574C47.5971 34.071 47.297 33.7051 46.9712 33.3629L47.9667 32.4141C48.338 32.806 48.6817 33.2254 48.9939 33.6654L47.8691 34.4574ZM48.8921 36.3164C48.8019 36.0984 48.7037 35.8837 48.5979 35.6729L49.8257 35.0541C50.0686 35.5369 50.2754 36.0369 50.4445 36.5501L49.1382 36.9805C49.0644 36.7562 48.9823 36.5347 48.8921 36.3164ZM49.6209 39.7635C49.6098 39.291 49.5638 38.8199 49.4834 38.3541L50.8377 38.1204C50.9299 38.6511 50.9835 39.1901 50.9972 39.7291L49.6222 39.7635H49.6209ZM49.4407 41.8783C49.4861 41.6445 49.5232 41.4121 49.5521 41.177L50.9175 41.3461C50.8515 41.8826 50.7458 42.4134 50.6012 42.9342L49.2757 42.5671C49.339 42.3402 49.394 42.1106 49.4407 41.8783ZM48.1317 45.1494C48.3847 44.7506 48.6075 44.3326 48.8 43.9009L50.0567 44.4577C49.8367 44.9527 49.5824 45.4285 49.2936 45.885L48.1317 45.1494ZM46.8062 46.8062C46.974 46.6385 47.1349 46.4653 47.2875 46.2865L48.3297 47.1844C48.1532 47.389 47.9693 47.5872 47.7784 47.7784L46.8062 46.8062Z" fill="white"/>
<path d="M40 30.375C38.4172 30.3751 36.8589 30.7656 35.463 31.5118C34.0672 32.258 32.8769 33.3369 31.9976 34.653C31.1183 35.969 30.5771 37.4817 30.422 39.0568C30.2669 40.632 30.5027 42.2211 31.1084 43.6834C31.7141 45.1457 32.6711 46.4361 33.8946 47.4402C35.1181 48.4443 36.5704 49.1312 38.1228 49.44C39.6751 49.7488 41.2797 49.6701 42.7944 49.2107C44.309 48.7512 45.687 47.9254 46.8062 46.8062L47.7784 47.7784C46.4993 49.0582 44.9242 50.0028 43.1928 50.5284C41.4614 51.054 39.6271 51.1444 37.8523 50.7917C36.0776 50.4389 34.4173 49.6539 33.0185 48.5061C31.6197 47.3583 30.5256 45.8832 29.8332 44.2115C29.1407 42.5398 28.8713 40.7231 29.0487 38.9224C29.2262 37.1217 29.8451 35.3925 30.8506 33.8882C31.856 32.3838 33.217 31.1507 34.813 30.298C36.4089 29.4454 38.1906 28.9995 40 29V30.375Z" fill="white"/>
<path d="M39.3125 33.125C39.4948 33.125 39.6697 33.1974 39.7986 33.3264C39.9276 33.4553 40 33.6302 40 33.8125V40.9763L44.466 43.5282C44.6197 43.621 44.7311 43.7702 44.7762 43.9439C44.8214 44.1176 44.7969 44.3022 44.7078 44.458C44.6187 44.6139 44.4722 44.7287 44.2996 44.778C44.127 44.8273 43.9419 44.8071 43.784 44.7218L38.9715 41.9718C38.8663 41.9116 38.7788 41.8248 38.718 41.72C38.6571 41.6152 38.625 41.4962 38.625 41.375V33.8125C38.625 33.6302 38.6974 33.4553 38.8264 33.3264C38.9553 33.1974 39.1302 33.125 39.3125 33.125Z" fill="white"/>
</g>
<defs>
<clipPath id="clip0_401_201">
<rect width="22" height="22" fill="white" transform="translate(29 29)"/>
</clipPath>
</defs>
</svg>
