<svg width="82" height="81" viewBox="0 0 82 81" fill="none" xmlns="http://www.w3.org/2000/svg">
<circle cx="41" cy="40.5" r="40.5" fill="#EDEBEB"/>
<circle cx="41.0001" cy="40.5001" r="33.3367" fill="#C2C2C2"/>
<circle cx="41.0002" cy="40.4999" r="22.8673" fill="#737373"/>
<path d="M44.3804 41L49.072 36.3092C49.6478 35.7336 49.6478 34.8003 49.072 34.2242L48.0293 33.1817C47.4536 32.6061 46.5201 32.6061 45.9439 33.1817L41.2523 37.8725L36.5606 33.1817C35.9849 32.6061 35.0514 32.6061 34.4752 33.1817L33.4325 34.2242C32.8568 34.7998 32.8568 35.7331 33.4325 36.3092L38.1242 41L33.4325 45.6908C32.8568 46.2664 32.8568 47.1997 33.4325 47.7758L34.4752 48.8183C35.051 49.3939 35.9849 49.3939 36.5606 48.8183L41.2523 44.1275L45.9439 48.8183C46.5197 49.3939 47.4536 49.3939 48.0293 48.8183L49.072 47.7758C49.6478 47.2002 49.6478 46.2669 49.072 45.6908L44.3804 41Z" fill="white"/>
</svg>
