<svg width="81" height="81" viewBox="0 0 81 81" fill="none" xmlns="http://www.w3.org/2000/svg">
<circle cx="40.5" cy="40.5" r="40.5" fill="#F6CACD"/>
<circle cx="40.5001" cy="40.5" r="33.3367" fill="#CB353E"/>
<circle cx="40.8673" cy="40.8674" r="22.8673" fill="#B0111A"/>
<path d="M36.3883 35.3883C36.4521 35.3242 36.528 35.2734 36.6115 35.2388C36.695 35.2041 36.7846 35.1863 36.875 35.1863C36.9654 35.1863 37.055 35.2041 37.1385 35.2388C37.222 35.2734 37.2979 35.3242 37.3618 35.3883L41 39.0279L44.6382 35.3883C44.7022 35.3243 44.7781 35.2736 44.8616 35.239C44.9451 35.2044 45.0346 35.1866 45.125 35.1866C45.2154 35.1866 45.3049 35.2044 45.3884 35.239C45.4719 35.2736 45.5478 35.3243 45.6117 35.3883C45.6757 35.4522 45.7264 35.5281 45.761 35.6116C45.7956 35.6951 45.8134 35.7846 45.8134 35.875C45.8134 35.9654 45.7956 36.0549 45.761 36.1384C45.7264 36.222 45.6757 36.2978 45.6117 36.3618L41.9721 40L45.6117 43.6383C45.6757 43.7022 45.7264 43.7781 45.761 43.8616C45.7956 43.9451 45.8134 44.0346 45.8134 44.125C45.8134 44.2154 45.7956 44.3049 45.761 44.3884C45.7264 44.472 45.6757 44.5478 45.6117 44.6118C45.5478 44.6757 45.4719 44.7264 45.3884 44.761C45.3049 44.7956 45.2154 44.8134 45.125 44.8134C45.0346 44.8134 44.9451 44.7956 44.8616 44.761C44.7781 44.7264 44.7022 44.6757 44.6382 44.6118L41 40.9721L37.3618 44.6118C37.2978 44.6757 37.2219 44.7264 37.1384 44.761C37.0549 44.7956 36.9654 44.8134 36.875 44.8134C36.7846 44.8134 36.6951 44.7956 36.6116 44.761C36.5281 44.7264 36.4522 44.6757 36.3883 44.6118C36.3243 44.5478 36.2736 44.472 36.239 44.3884C36.2044 44.3049 36.1866 44.2154 36.1866 44.125C36.1866 44.0346 36.2044 43.9451 36.239 43.8616C36.2736 43.7781 36.3243 43.7022 36.3883 43.6383L40.0279 40L36.3883 36.3618C36.3242 36.2979 36.2734 36.222 36.2388 36.1385C36.2041 36.055 36.1863 35.9654 36.1863 35.875C36.1863 35.7846 36.2041 35.695 36.2388 35.6115C36.2734 35.528 36.3242 35.4521 36.3883 35.3883Z" fill="white"/>
</svg>
