<svg width="81" height="81" viewBox="0 0 81 81" fill="none" xmlns="http://www.w3.org/2000/svg">
<circle cx="40.5" cy="40.5" r="40.5" fill="#C5FFF9"/>
<circle cx="40.5001" cy="40.5" r="33.3367" fill="#10DAC4"/>
<circle cx="40.5002" cy="40.5" r="22.8673" fill="#14B8A6"/>
<path d="M37.2796 39.416C37.2796 40.296 36.7996 40.824 35.7756 40.824H34.0796V38.04H35.7756C36.7996 38.04 37.2796 38.584 37.2796 39.416ZM31.3436 35.768V47H34.0796V42.76H34.7356L37.0716 47H40.1596L37.5676 42.552C39.2956 42.04 40.0636 40.712 40.0636 39.304C40.0636 37.352 38.6876 35.768 35.9356 35.768H31.3436ZM44.5171 39.336V38.072H41.7811V51.256H44.5171V45.752C45.0131 46.504 45.9571 47.128 47.2691 47.128C49.4611 47.128 51.2051 45.336 51.2051 42.52C51.2051 39.704 49.4611 37.944 47.2691 37.944C45.9571 37.944 45.0131 38.552 44.5171 39.336ZM48.4211 42.52C48.4211 43.944 47.4931 44.744 46.4531 44.744C45.4291 44.744 44.5011 43.96 44.5011 42.536C44.5011 41.112 45.4291 40.328 46.4531 40.328C47.4931 40.328 48.4211 41.096 48.4211 42.52Z" fill="white"/>
</svg>
