<svg width="15" height="15" viewBox="0 0 15 15" fill="none" xmlns="http://www.w3.org/2000/svg">
<g clip-path="url(#clip0_29908_90469)">
<rect x="0.333984" y="0.5" width="14.0026" height="14" rx="7" fill="#D85454"/>
<path d="M7.33526 0.71875C3.58846 0.71875 0.552734 3.75391 0.552734 7.5C0.552734 11.2461 3.58846 14.2812 7.33526 14.2812C11.0821 14.2812 14.1178 11.2461 14.1178 7.5C14.1178 3.75391 11.0821 0.71875 7.33526 0.71875ZM10.6609 9.28008C10.7894 9.40859 10.7894 9.61641 10.6609 9.74492L9.57787 10.825C9.44933 10.9535 9.24148 10.9535 9.11294 10.825L7.33526 9.03125L5.55485 10.825C5.42631 10.9535 5.21845 10.9535 5.08991 10.825L4.00963 9.74219C3.88109 9.61367 3.88109 9.40586 4.00963 9.27734L5.80372 7.5L4.00963 5.71992C3.88109 5.59141 3.88109 5.38359 4.00963 5.25508L5.09265 4.17227C5.22119 4.04375 5.42904 4.04375 5.55758 4.17227L7.33526 5.96875L9.11567 4.175C9.24421 4.04648 9.45206 4.04648 9.5806 4.175L10.6636 5.25781C10.7922 5.38633 10.7922 5.59414 10.6636 5.72266L8.8668 7.5L10.6609 9.28008Z" fill="#FFE8E8"/>
</g>
<rect x="0.833984" y="1" width="13.0026" height="13" rx="6.5" stroke="#FFE8E8"/>
<defs>
<clipPath id="clip0_29908_90469">
<rect x="0.333984" y="0.5" width="14.0026" height="14" rx="7" fill="white"/>
</clipPath>
</defs>
</svg>
