<svg width="76" height="79" viewBox="0 0 76 79" fill="none" xmlns="http://www.w3.org/2000/svg">
<path d="M46.3925 6.36309C46.5113 6.21274 46.6588 6.08738 46.8263 5.99425C46.9938 5.90112 47.1781 5.84205 47.3685 5.82044C47.559 5.79883 47.7518 5.81511 47.9359 5.86833C48.1201 5.92156 48.2918 6.01069 48.4414 6.13059L51.5801 8.6474L40.1033 23.2542H47.4968L56.1226 12.2802L63.3998 18.1101C63.5523 18.2322 63.6786 18.3838 63.7712 18.5558C63.8638 18.7278 63.9207 18.9168 63.9386 19.1113C63.9565 19.3058 63.935 19.5019 63.8754 19.6879C63.8158 19.874 63.7193 20.0461 63.5917 20.1939L60.9528 23.2542H68.5497C69.5503 21.7423 69.9494 19.9108 69.6687 18.1196C69.388 16.3284 68.4478 14.7069 67.0327 13.5735L52.0742 1.59393C51.3269 0.995644 50.4688 0.550916 49.5492 0.285302C48.6295 0.0196885 47.6664 -0.0615751 46.7153 0.0461805C45.7641 0.153936 44.8436 0.448587 44.0067 0.913202C43.1697 1.37782 42.4328 2.00324 41.8384 2.75352L25.6012 23.2542H33.015L46.3925 6.36309ZM52.3125 49.4105C51.5417 49.4105 50.8025 49.7167 50.2575 50.2617C49.7124 50.8067 49.4062 51.5459 49.4062 52.3167C49.4062 53.0875 49.7124 53.8267 50.2575 54.3717C50.8025 54.9168 51.5417 55.223 52.3125 55.223H61.0312C61.802 55.223 62.5413 54.9168 63.0863 54.3717C63.6313 53.8267 63.9375 53.0875 63.9375 52.3167C63.9375 51.5459 63.6313 50.8067 63.0863 50.2617C62.5413 49.7167 61.802 49.4105 61.0312 49.4105H52.3125ZM8.71875 14.5355C6.40639 14.5355 4.18875 15.454 2.55366 17.0891C0.91858 18.7242 0 20.9419 0 23.2542V65.3948C0 68.8634 1.37787 72.1898 3.83049 74.6425C6.28312 77.0951 9.60959 78.473 13.0781 78.473H62.4844C65.9529 78.473 69.2794 77.0951 71.732 74.6425C74.1846 72.1898 75.5625 68.8634 75.5625 65.3948V39.2386C75.5625 35.7701 74.1846 32.4436 71.732 29.991C69.2794 27.5383 65.9529 26.1605 62.4844 26.1605H8.71875C7.94796 26.1605 7.20875 25.8543 6.66372 25.3092C6.11869 24.7642 5.8125 24.025 5.8125 23.2542C5.8125 22.4834 6.11869 21.7442 6.66372 21.1992C7.20875 20.6542 7.94796 20.348 8.71875 20.348H22.0294L26.6677 14.5355H8.71875ZM5.8125 65.3948V31.4789C6.72216 31.7986 7.70156 31.973 8.71875 31.973H62.4844C64.4113 31.973 66.2594 32.7384 67.6219 34.101C68.9845 35.4636 69.75 37.3116 69.75 39.2386V65.3948C69.75 67.3218 68.9845 69.1698 67.6219 70.5324C66.2594 71.895 64.4113 72.6605 62.4844 72.6605H13.0781C11.1512 72.6605 9.30312 71.895 7.94055 70.5324C6.57798 69.1698 5.8125 67.3218 5.8125 65.3948Z" fill="white"/>
</svg>
