<svg width="81" height="81" viewBox="0 0 81 81" fill="none" xmlns="http://www.w3.org/2000/svg">
<circle cx="40.5" cy="40.5" r="40.5" fill="#C5FFF9"/>
<circle cx="40.5001" cy="40.5" r="33.3367" fill="#10DAC4"/>
<circle cx="40.5002" cy="40.5" r="22.8673" fill="#14B8A6"/>
<path d="M46.603 35.3068C46.691 35.2171 46.7959 35.1458 46.9118 35.0971C47.0276 35.0484 47.152 35.0234 47.2776 35.0234C47.4033 35.0234 47.5277 35.0484 47.6435 35.0971C47.7593 35.1458 47.8643 35.2171 47.9522 35.3068C48.3208 35.6792 48.3259 36.281 47.9651 36.6599L40.3454 45.6674C40.2589 45.7624 40.1539 45.8388 40.0369 45.8918C39.9199 45.9448 39.7932 45.9734 39.6648 45.9759C39.5363 45.9783 39.4087 45.9544 39.2898 45.9058C39.1708 45.8572 39.063 45.7849 38.973 45.6932L34.3365 40.9948C34.1577 40.8125 34.0575 40.5673 34.0575 40.3119C34.0575 40.0565 34.1577 39.8112 34.3365 39.6289C34.4245 39.5391 34.5294 39.4679 34.6453 39.4192C34.7611 39.3705 34.8855 39.3455 35.0111 39.3455C35.1368 39.3455 35.2611 39.3705 35.377 39.4192C35.4928 39.4679 35.5978 39.5391 35.6857 39.6289L39.6186 43.6146L46.5773 35.3351C46.5853 35.3252 46.5939 35.3157 46.603 35.3068Z" fill="white"/>
</svg>
