<svg width="81" height="81" viewBox="0 0 81 81" fill="none" xmlns="http://www.w3.org/2000/svg">
<circle cx="40.5" cy="40.5" r="40.5" fill="#69CDF8"/>
<circle cx="40.5008" cy="40.4998" r="33.3367" fill="#0E8EC5"/>
<circle cx="40.5002" cy="40.5002" r="22.8673" fill="#147CA8"/>
<path d="M49.3269 33.414C49.4554 33.2829 49.6087 33.1788 49.7779 33.1077C49.9472 33.0366 50.1289 33 50.3124 33C50.4959 33 50.6776 33.0366 50.8469 33.1077C51.0161 33.1788 51.1694 33.2829 51.2979 33.414C51.8363 33.9581 51.8438 34.8372 51.3167 35.3906L40.1856 48.5492C40.0592 48.688 39.9058 48.7995 39.7349 48.877C39.5639 48.9545 39.3789 48.9962 39.1913 48.9998C39.0036 49.0033 38.8172 48.9685 38.6434 48.8975C38.4697 48.8265 38.3122 48.7208 38.1807 48.5869L31.4075 41.7233C31.1463 41.4569 31 41.0987 31 40.7256C31 40.3525 31.1463 39.9943 31.4075 39.7279C31.536 39.5968 31.6893 39.4927 31.8586 39.4216C32.0278 39.3505 32.2095 39.3139 32.393 39.3139C32.5766 39.3139 32.7583 39.3505 32.9275 39.4216C33.0967 39.4927 33.25 39.5968 33.3785 39.7279L39.1238 45.5504L49.2893 33.4554C49.301 33.4409 49.3135 33.4271 49.3269 33.414Z" fill="white"/>
</svg>
