<svg width="24" height="25" viewBox="0 0 24 25" fill="none" xmlns="http://www.w3.org/2000/svg">
<g clip-path="url(#clip0_26712_18659)">
<path d="M11.5282 12.5047C11.2937 11.7547 11.2984 10.3062 11.4344 10.3062C11.8282 10.3062 11.7907 12.0359 11.5282 12.5047ZM11.4485 14.7172C11.0875 15.6641 10.6374 16.7469 10.117 17.6562C10.9749 17.3281 11.9454 16.85 13.066 16.6297C12.4705 16.1797 11.8985 15.5328 11.4485 14.7172ZM7.0367 20.5672C7.0367 20.6047 7.65556 20.3141 8.67294 18.6828C8.35882 18.9781 7.30862 19.8313 7.0367 20.5672ZM14.6272 8H21.0034V23.375C21.0034 23.9984 20.5017 24.5 19.8782 24.5H4.12521C3.50166 24.5 3 23.9984 3 23.375V1.625C3 1.00156 3.50166 0.5 4.12521 0.5H13.502V6.875C13.502 7.49375 14.0083 8 14.6272 8ZM14.2521 16.0531C13.3144 15.4812 12.6909 14.6938 12.2502 13.5312C12.4612 12.6641 12.794 11.3469 12.5409 10.5219C12.3205 9.14375 10.553 9.27969 10.2998 10.2031C10.0654 11.0609 10.2811 12.2703 10.6796 13.8125C10.1357 15.1062 9.334 16.8406 8.76671 17.8344C8.76202 17.8344 8.76202 17.8391 8.75733 17.8391C7.48678 18.4906 5.30668 19.925 6.20216 21.0266C6.46471 21.35 6.95231 21.4953 7.21017 21.4953C8.04939 21.4953 8.88392 20.6516 10.0748 18.5984C11.2844 18.2 12.6112 17.7031 13.7786 17.5109C14.796 18.0641 15.9868 18.425 16.7792 18.425C18.1482 18.425 18.2419 16.925 17.7028 16.3906C17.0511 15.7531 15.157 15.9359 14.2521 16.0531ZM20.6752 5.42188L16.0806 0.828125C15.8696 0.617188 15.5836 0.5 15.2836 0.5H15.0023V6.5H21.0034V6.21406C21.0034 5.91875 20.8862 5.63281 20.6752 5.42188ZM17.2011 17.3891C17.3933 17.2625 17.0839 16.8312 15.1945 16.9672C16.9339 17.7078 17.2011 17.3891 17.2011 17.3891Z" fill="#D85454"/>
</g>
<defs>
<clipPath id="clip0_26712_18659">
<rect width="24.0045" height="24" fill="white" transform="translate(0 0.5)"/>
</clipPath>
</defs>
</svg>
