<svg width="86" height="86" viewBox="0 0 86 86" fill="none" xmlns="http://www.w3.org/2000/svg">
<path d="M75.25 12.0938H29.5625C22.141 12.0938 16.125 18.1097 16.125 25.5312V77.9375H59.125C63.5782 77.9375 67.1875 74.3282 67.1875 69.875V20.1562C67.1875 15.7031 70.7968 12.0938 75.25 12.0938Z" fill="url(#paint0_linear_41774_5443)"/>
<path d="M75.25 12.0938C70.7968 12.0938 67.1875 15.7031 67.1875 20.1562V29.5625H79.2812C81.5078 29.5625 83.3125 27.7578 83.3125 25.5312V20.1562C83.3125 15.7031 79.7018 12.0938 75.25 12.0938Z" fill="url(#paint1_linear_41774_5443)"/>
<path d="M59.125 77.9375H16.125C11.6718 77.9375 8.0625 74.3282 8.0625 69.875V63.1562C8.0625 60.9297 9.86716 59.125 12.0938 59.125H47.0312C49.2578 59.125 51.0625 60.9297 51.0625 63.1562V69.875C51.0625 74.3282 54.6718 77.9375 59.125 77.9375Z" fill="url(#paint2_linear_41774_5443)"/>
<path d="M51.0628 69.875V63.1562C51.0628 60.9297 49.2581 59.125 47.0315 59.125H43.0271C41.3945 59.125 40.1031 60.5803 40.3759 62.264C40.5909 63.5849 41.8312 64.5 43.1709 64.5H45.0428C46.1554 64.5 47.0584 65.403 47.0584 66.5156C47.0584 67.6283 46.1554 68.5312 45.0428 68.5312H37.769C36.4307 68.5312 35.189 69.4463 34.974 70.7673C34.7013 72.451 35.9926 73.9062 37.6253 73.9062H41.0115C42.1241 73.9062 43.0271 74.8092 43.0271 75.9219C43.0271 77.0345 42.1241 77.9375 41.0115 77.9375H56.4378C56.9847 77.9375 57.3327 77.8811 57.5289 77.7776C53.8403 77.0372 51.0628 73.7813 51.0628 69.875Z" fill="url(#paint3_linear_41774_5443)"/>
<path d="M44.3438 36.2812H26.875C25.3902 36.2812 24.1875 35.0786 24.1875 33.5938C24.1875 32.1089 25.3902 30.9062 26.875 30.9062H44.3438C45.8286 30.9062 47.0312 32.1089 47.0312 33.5938C47.0312 35.0786 45.8286 36.2812 44.3438 36.2812ZM56.4375 36.2812H53.75C52.2652 36.2812 51.0625 35.0786 51.0625 33.5938C51.0625 32.1089 52.2652 30.9062 53.75 30.9062H56.4375C57.9223 30.9062 59.125 32.1089 59.125 33.5938C59.125 35.0786 57.9223 36.2812 56.4375 36.2812ZM29.5625 55.0938H26.875C25.3902 55.0938 24.1875 53.8911 24.1875 52.4062C24.1875 50.9214 25.3902 49.7188 26.875 49.7188H29.5625C31.0473 49.7188 32.25 50.9214 32.25 52.4062C32.25 53.8911 31.0473 55.0938 29.5625 55.0938ZM56.4375 55.0938H38.9688C37.4839 55.0938 36.2812 53.8911 36.2812 52.4062C36.2812 50.9214 37.4839 49.7188 38.9688 49.7188H56.4375C57.9223 49.7188 59.125 50.9214 59.125 52.4062C59.125 53.8911 57.9223 55.0938 56.4375 55.0938ZM34.9375 45.6875H26.875C25.3902 45.6875 24.1875 44.4848 24.1875 43C24.1875 41.5152 25.3902 40.3125 26.875 40.3125H34.9375C36.4223 40.3125 37.625 41.5152 37.625 43C37.625 44.4848 36.4223 45.6875 34.9375 45.6875ZM56.4375 45.6875H44.3438C42.8589 45.6875 41.6562 44.4848 41.6562 43C41.6562 41.5152 42.8589 40.3125 44.3438 40.3125H56.4375C57.9223 40.3125 59.125 41.5152 59.125 43C59.125 44.4848 57.9223 45.6875 56.4375 45.6875Z" fill="white"/>
<defs>
<linearGradient id="paint0_linear_41774_5443" x1="45.6875" y1="12.0937" x2="45.6875" y2="77.9375" gradientUnits="userSpaceOnUse">
<stop stop-color="#A4A9B2"/>
<stop offset="1" stop-color="#C8D0DD"/>
</linearGradient>
<linearGradient id="paint1_linear_41774_5443" x1="75.25" y1="12.0937" x2="75.25" y2="29.5625" gradientUnits="userSpaceOnUse">
<stop stop-color="#A4A9B2"/>
<stop offset="1" stop-color="#C8D0DD"/>
</linearGradient>
<linearGradient id="paint2_linear_41774_5443" x1="33.5938" y1="59.125" x2="33.5938" y2="77.9375" gradientUnits="userSpaceOnUse">
<stop offset="0.145526" stop-color="#A4A9B2"/>
<stop offset="1" stop-color="#C8D0DD"/>
</linearGradient>
<linearGradient id="paint3_linear_41774_5443" x1="46.2332" y1="59.125" x2="46.2332" y2="77.9375" gradientUnits="userSpaceOnUse">
<stop offset="0.145526" stop-color="#A4A9B2"/>
<stop offset="1" stop-color="#C8D0DD"/>
</linearGradient>
</defs>
</svg>
