<svg width="14" height="15" viewBox="0 0 14 15" fill="none" xmlns="http://www.w3.org/2000/svg">
<g clip-path="url(#clip0_29908_90453)">
<rect y="0.5" width="14.0026" height="14" rx="7" fill="#54B486"/>
<path d="M13.7838 7.5C13.7838 11.2452 10.7472 14.2812 7.00127 14.2812C3.25538 14.2812 0.21875 11.2452 0.21875 7.5C0.21875 3.75481 3.25538 0.71875 7.00127 0.71875C10.7472 0.71875 13.7838 3.75481 13.7838 7.5ZM6.21674 11.0906L11.2489 6.05937C11.4198 5.88852 11.4198 5.6115 11.2489 5.44066L10.6301 4.82195C10.4592 4.65108 10.1822 4.65108 10.0113 4.82195L5.90732 8.9251L3.99128 7.00943C3.82041 6.83858 3.54334 6.83858 3.37243 7.00943L2.75361 7.62813C2.58273 7.79898 2.58273 8.076 2.75361 8.24684L5.59789 11.0906C5.7688 11.2615 6.04584 11.2615 6.21674 11.0906Z" fill="#D5FEDE"/>
</g>
<rect x="0.5" y="1" width="13.0026" height="13" rx="6.5" stroke="#D5FEDE"/>
<defs>
<clipPath id="clip0_29908_90453">
<rect y="0.5" width="14.0026" height="14" rx="7" fill="white"/>
</clipPath>
</defs>
</svg>
