<svg width="58" height="21" viewBox="0 0 58 21" fill="none" xmlns="http://www.w3.org/2000/svg">
<rect width="58" height="21" rx="3" fill="#FDF4F6"/>
<path d="M13.9093 15H11.3194V7H13.9913C14.7751 7 15.4483 7.16016 16.0108 7.48047C16.5733 7.79818 17.0043 8.25521 17.3038 8.85156C17.6059 9.44531 17.7569 10.1576 17.7569 10.9883C17.7569 11.8216 17.6046 12.5378 17.2999 13.1367C16.9978 13.7357 16.5603 14.1966 15.9874 14.5195C15.4145 14.8398 14.7218 15 13.9093 15ZM12.5264 13.9453H13.8429C14.4522 13.9453 14.9587 13.8307 15.3624 13.6016C15.766 13.3698 16.0681 13.0352 16.2686 12.5977C16.4692 12.1576 16.5694 11.6211 16.5694 10.9883C16.5694 10.3607 16.4692 9.82812 16.2686 9.39062C16.0707 8.95312 15.7751 8.62109 15.3819 8.39453C14.9887 8.16797 14.5004 8.05469 13.9171 8.05469H12.5264V13.9453ZM19.2741 15V9H20.4421V15H19.2741ZM19.864 8.07422C19.6609 8.07422 19.4864 8.00651 19.3405 7.87109C19.1973 7.73307 19.1257 7.56901 19.1257 7.37891C19.1257 7.1862 19.1973 7.02214 19.3405 6.88672C19.4864 6.7487 19.6609 6.67969 19.864 6.67969C20.0671 6.67969 20.2403 6.7487 20.3835 6.88672C20.5293 7.02214 20.6023 7.1862 20.6023 7.37891C20.6023 7.56901 20.5293 7.73307 20.3835 7.87109C20.2403 8.00651 20.0671 8.07422 19.864 8.07422ZM24.9242 9V9.9375H21.6468V9H24.9242ZM22.5257 7.5625H23.6937V13.2383C23.6937 13.4648 23.7276 13.6354 23.7953 13.75C23.863 13.862 23.9502 13.9388 24.057 13.9805C24.1664 14.0195 24.2849 14.0391 24.4125 14.0391C24.5062 14.0391 24.5882 14.0326 24.6586 14.0195C24.7289 14.0065 24.7836 13.9961 24.8226 13.9883L25.0336 14.9531C24.9658 14.9792 24.8695 15.0052 24.7445 15.0313C24.6195 15.0599 24.4632 15.0755 24.2757 15.0781C23.9685 15.0833 23.682 15.0286 23.4164 14.9141C23.1507 14.7995 22.9359 14.6224 22.7718 14.3828C22.6078 14.1432 22.5257 13.8424 22.5257 13.4805V7.5625ZM28.7891 15.1211C28.2266 15.1211 27.7357 14.9922 27.3164 14.7344C26.8971 14.4766 26.5716 14.1159 26.3398 13.6523C26.1081 13.1888 25.9922 12.6471 25.9922 12.0273C25.9922 11.4049 26.1081 10.8607 26.3398 10.3945C26.5716 9.92839 26.8971 9.56641 27.3164 9.30859C27.7357 9.05078 28.2266 8.92188 28.7891 8.92188C29.3516 8.92188 29.8424 9.05078 30.2617 9.30859C30.681 9.56641 31.0065 9.92839 31.2383 10.3945C31.4701 10.8607 31.5859 11.4049 31.5859 12.0273C31.5859 12.6471 31.4701 13.1888 31.2383 13.6523C31.0065 14.1159 30.681 14.4766 30.2617 14.7344C29.8424 14.9922 29.3516 15.1211 28.7891 15.1211ZM28.793 14.1406C29.1576 14.1406 29.4596 14.0443 29.6992 13.8516C29.9388 13.6589 30.1159 13.4023 30.2305 13.082C30.3477 12.7617 30.4063 12.4089 30.4063 12.0234C30.4063 11.6406 30.3477 11.2891 30.2305 10.9687C30.1159 10.6458 29.9388 10.3867 29.6992 10.1914C29.4596 9.99609 29.1576 9.89844 28.793 9.89844C28.4258 9.89844 28.1211 9.99609 27.8789 10.1914C27.6393 10.3867 27.4609 10.6458 27.3438 10.9687C27.2292 11.2891 27.1719 11.6406 27.1719 12.0234C27.1719 12.4089 27.2292 12.7617 27.3438 13.082C27.4609 13.4023 27.6393 13.6589 27.8789 13.8516C28.1211 14.0443 28.4258 14.1406 28.793 14.1406ZM34.1676 7V15H32.9996V7H34.1676ZM37.595 15.1328C37.2148 15.1328 36.871 15.0625 36.5637 14.9219C36.2565 14.7786 36.013 14.5716 35.8333 14.3008C35.6562 14.0299 35.5677 13.6979 35.5677 13.3047C35.5677 12.9661 35.6328 12.6875 35.763 12.4687C35.8932 12.25 36.069 12.0768 36.2903 11.9492C36.5117 11.8216 36.7591 11.7253 37.0325 11.6602C37.3059 11.5951 37.5846 11.5456 37.8684 11.5117C38.2278 11.4701 38.5195 11.4362 38.7434 11.4102C38.9674 11.3815 39.1302 11.3359 39.2317 11.2734C39.3333 11.2109 39.3841 11.1094 39.3841 10.9687V10.9414C39.3841 10.6003 39.2877 10.3359 39.095 10.1484C38.9049 9.96094 38.621 9.86719 38.2434 9.86719C37.8502 9.86719 37.5403 9.95443 37.3137 10.1289C37.0898 10.3008 36.9348 10.4922 36.8489 10.7031L35.7512 10.4531C35.8815 10.0885 36.0716 9.79427 36.3216 9.57031C36.5742 9.34375 36.8645 9.17969 37.1927 9.07812C37.5208 8.97396 37.8658 8.92188 38.2278 8.92188C38.4674 8.92188 38.7213 8.95052 38.9895 9.00781C39.2604 9.0625 39.513 9.16406 39.7473 9.3125C39.9843 9.46094 40.1783 9.67318 40.3294 9.94922C40.4804 10.2227 40.5559 10.5781 40.5559 11.0156V15H39.4153V14.1797H39.3684C39.2929 14.3307 39.1796 14.4792 39.0286 14.625C38.8776 14.7708 38.6835 14.8919 38.4466 14.9883C38.2096 15.0846 37.9257 15.1328 37.595 15.1328ZM37.8489 14.1953C38.1718 14.1953 38.4479 14.1315 38.677 14.0039C38.9088 13.8763 39.0846 13.7096 39.2044 13.5039C39.3268 13.2956 39.388 13.0729 39.388 12.8359V12.0625C39.3463 12.1042 39.2656 12.1432 39.1458 12.1797C39.0286 12.2135 38.8945 12.2435 38.7434 12.2695C38.5924 12.293 38.4453 12.3151 38.302 12.3359C38.1588 12.3542 38.039 12.3698 37.9427 12.3828C37.7161 12.4115 37.5091 12.4596 37.3216 12.5273C37.1367 12.5951 36.9882 12.6927 36.8762 12.8203C36.7669 12.9453 36.7122 13.112 36.7122 13.3203C36.7122 13.6094 36.819 13.8281 37.0325 13.9766C37.246 14.1224 37.5182 14.1953 37.8489 14.1953ZM43.2958 12.9648L43.288 11.5391H43.4911L45.8818 9H47.2802L44.5536 11.8906H44.37L43.2958 12.9648ZM42.2216 15V7H43.3896V15H42.2216ZM46.0107 15L43.8622 12.1484L44.6669 11.332L47.4443 15H46.0107Z" fill="#DE486C"/>
</svg>
