<svg width="85" height="21" viewBox="0 0 85 21" fill="none" xmlns="http://www.w3.org/2000/svg">
<rect width="85" height="21" rx="3" fill="#FFF7E6"/>
<path d="M10.887 15V7H13.7386C14.361 7 14.8766 7.11328 15.2855 7.33984C15.6943 7.56641 16.0003 7.8763 16.2034 8.26953C16.4065 8.66016 16.5081 9.10026 16.5081 9.58984C16.5081 10.082 16.4052 10.5247 16.1995 10.918C15.9964 11.3086 15.6891 11.6185 15.2776 11.8477C14.8688 12.0742 14.3545 12.1875 13.7347 12.1875H11.7737V11.1641H13.6253C14.0185 11.1641 14.3375 11.0964 14.5823 10.9609C14.8271 10.8229 15.0068 10.6354 15.1214 10.3984C15.236 10.1615 15.2933 9.89193 15.2933 9.58984C15.2933 9.28776 15.236 9.01953 15.1214 8.78516C15.0068 8.55078 14.8258 8.36719 14.5784 8.23438C14.3336 8.10156 14.0107 8.03516 13.6097 8.03516H12.094V15H10.887ZM21.7402 12.5117V9H22.9121V15H21.7636V13.9609H21.7011C21.5631 14.2813 21.3417 14.5482 21.0371 14.7617C20.735 14.9727 20.3587 15.0781 19.9081 15.0781C19.5227 15.0781 19.1816 14.9935 18.8847 14.8242C18.5904 14.6523 18.3587 14.3984 18.1894 14.0625C18.0227 13.7266 17.9394 13.3112 17.9394 12.8164V9H19.1074V12.6758C19.1074 13.0846 19.2206 13.4102 19.4472 13.6523C19.6738 13.8945 19.968 14.0156 20.33 14.0156C20.5488 14.0156 20.7662 13.9609 20.9824 13.8516C21.2011 13.7422 21.3821 13.5768 21.5253 13.3555C21.6712 13.1341 21.7428 12.8529 21.7402 12.5117ZM25.7594 7V15H24.5914V7H25.7594ZM29.1867 15.1328C28.8065 15.1328 28.4628 15.0625 28.1555 14.9219C27.8482 14.7786 27.6047 14.5716 27.425 14.3008C27.2479 14.0299 27.1594 13.6979 27.1594 13.3047C27.1594 12.9661 27.2245 12.6875 27.3547 12.4687C27.4849 12.25 27.6607 12.0768 27.8821 11.9492C28.1034 11.8216 28.3508 11.7253 28.6242 11.6602C28.8977 11.5951 29.1763 11.5456 29.4602 11.5117C29.8196 11.4701 30.1112 11.4362 30.3352 11.4102C30.5591 11.3815 30.7219 11.3359 30.8235 11.2734C30.925 11.2109 30.9758 11.1094 30.9758 10.9687V10.9414C30.9758 10.6003 30.8794 10.3359 30.6867 10.1484C30.4966 9.96094 30.2128 9.86719 29.8352 9.86719C29.4419 9.86719 29.1321 9.95443 28.9055 10.1289C28.6815 10.3008 28.5266 10.4922 28.4406 10.7031L27.343 10.4531C27.4732 10.0885 27.6633 9.79427 27.9133 9.57031C28.1659 9.34375 28.4563 9.17969 28.7844 9.07812C29.1125 8.97396 29.4576 8.92188 29.8196 8.92188C30.0591 8.92188 30.313 8.95052 30.5813 9.00781C30.8521 9.0625 31.1047 9.16406 31.3391 9.3125C31.5761 9.46094 31.7701 9.67318 31.9211 9.94922C32.0722 10.2227 32.1477 10.5781 32.1477 11.0156V15H31.0071V14.1797H30.9602C30.8847 14.3307 30.7714 14.4792 30.6203 14.625C30.4693 14.7708 30.2753 14.8919 30.0383 14.9883C29.8013 15.0846 29.5175 15.1328 29.1867 15.1328ZM29.4406 14.1953C29.7636 14.1953 30.0396 14.1315 30.2688 14.0039C30.5005 13.8763 30.6763 13.7096 30.7961 13.5039C30.9185 13.2956 30.9797 13.0729 30.9797 12.8359V12.0625C30.938 12.1042 30.8573 12.1432 30.7375 12.1797C30.6203 12.2135 30.4862 12.2435 30.3352 12.2695C30.1841 12.293 30.037 12.3151 29.8938 12.3359C29.7505 12.3542 29.6307 12.3698 29.5344 12.3828C29.3078 12.4115 29.1008 12.4596 28.9133 12.5273C28.7284 12.5951 28.58 12.6927 28.468 12.8203C28.3586 12.9453 28.3039 13.112 28.3039 13.3203C28.3039 13.6094 28.4107 13.8281 28.6242 13.9766C28.8378 14.1224 29.1099 14.1953 29.4406 14.1953ZM34.9813 11.4375V15H33.8133V9H34.9344V9.97656H35.0087C35.1467 9.65885 35.3628 9.40365 35.6571 9.21094C35.954 9.01823 36.3277 8.92188 36.7782 8.92188C37.187 8.92188 37.5451 9.00781 37.8524 9.17969C38.1597 9.34896 38.398 9.60156 38.5672 9.9375C38.7365 10.2734 38.8212 10.6888 38.8212 11.1836V15H37.6532V11.3242C37.6532 10.8893 37.5399 10.5495 37.3133 10.3047C37.0868 10.0573 36.7756 9.93359 36.3797 9.93359C36.1089 9.93359 35.868 9.99219 35.6571 10.1094C35.4488 10.2266 35.2834 10.3984 35.161 10.625C35.0412 10.849 34.9813 11.1198 34.9813 11.4375ZM43.0132 17.375C42.5366 17.375 42.1265 17.3125 41.7827 17.1875C41.4416 17.0625 41.1629 16.8971 40.9468 16.6914C40.7306 16.4857 40.5692 16.2604 40.4624 16.0156L41.4663 15.6016C41.5366 15.7161 41.6304 15.8372 41.7476 15.9648C41.8674 16.0951 42.0288 16.2057 42.2319 16.2969C42.4377 16.388 42.702 16.4336 43.0249 16.4336C43.4676 16.4336 43.8335 16.3255 44.1226 16.1094C44.4116 15.8958 44.5562 15.5547 44.5562 15.0859V13.9062H44.4819C44.4116 14.0339 44.3101 14.1758 44.1772 14.332C44.047 14.4883 43.8674 14.6237 43.6382 14.7383C43.409 14.8529 43.1108 14.9102 42.7437 14.9102C42.2697 14.9102 41.8426 14.7995 41.4624 14.5781C41.0848 14.3542 40.7853 14.0247 40.564 13.5898C40.3452 13.1523 40.2358 12.6146 40.2358 11.9766C40.2358 11.3385 40.3439 10.7917 40.5601 10.3359C40.7788 9.88021 41.0783 9.53125 41.4585 9.28906C41.8387 9.04427 42.2697 8.92188 42.7515 8.92188C43.1239 8.92188 43.4246 8.98438 43.6538 9.10937C43.883 9.23177 44.0614 9.375 44.189 9.53906C44.3192 9.70312 44.4194 9.84766 44.4897 9.97266H44.5757V9H45.7202V15.1328C45.7202 15.6484 45.6004 16.0716 45.3608 16.4023C45.1213 16.7331 44.797 16.9779 44.3882 17.1367C43.9819 17.2956 43.5236 17.375 43.0132 17.375ZM43.0015 13.9414C43.3374 13.9414 43.6213 13.8633 43.853 13.707C44.0874 13.5482 44.2645 13.3216 44.3843 13.0273C44.5067 12.7305 44.5679 12.375 44.5679 11.9609C44.5679 11.5573 44.508 11.2018 44.3882 10.8945C44.2684 10.5872 44.0926 10.3477 43.8608 10.1758C43.6291 10.0013 43.3426 9.91406 43.0015 9.91406C42.6499 9.91406 42.3569 10.0052 42.1226 10.1875C41.8882 10.3672 41.7111 10.612 41.5913 10.9219C41.4741 11.2318 41.4155 11.5781 41.4155 11.9609C41.4155 12.3542 41.4754 12.6992 41.5952 12.9961C41.715 13.293 41.8921 13.5247 42.1265 13.6914C42.3634 13.8581 42.6551 13.9414 43.0015 13.9414ZM51.1873 15H49.906L52.7849 7H54.1795L57.0584 15H55.7771L53.5154 8.45312H53.4529L51.1873 15ZM51.4021 11.8672H55.5584V12.8828H51.4021V11.8672ZM58.7787 15L57.0131 9H58.2201L59.3959 13.4062H59.4545L60.6342 9H61.8412L63.0131 13.3867H63.0717L64.2397 9H65.4467L63.685 15H62.4936L61.2748 10.668H61.185L59.9662 15H58.7787ZM68.4112 15.1328C68.031 15.1328 67.6872 15.0625 67.3799 14.9219C67.0727 14.7786 66.8292 14.5716 66.6495 14.3008C66.4724 14.0299 66.3839 13.6979 66.3839 13.3047C66.3839 12.9661 66.449 12.6875 66.5792 12.4687C66.7094 12.25 66.8852 12.0768 67.1065 11.9492C67.3279 11.8216 67.5753 11.7253 67.8487 11.6602C68.1221 11.5951 68.4008 11.5456 68.6846 11.5117C69.044 11.4701 69.3357 11.4362 69.5596 11.4102C69.7836 11.3815 69.9464 11.3359 70.0479 11.2734C70.1495 11.2109 70.2003 11.1094 70.2003 10.9687V10.9414C70.2003 10.6003 70.1039 10.3359 69.9112 10.1484C69.7211 9.96094 69.4372 9.86719 69.0596 9.86719C68.6664 9.86719 68.3565 9.95443 68.1299 10.1289C67.906 10.3008 67.751 10.4922 67.6651 10.7031L66.5674 10.4531C66.6977 10.0885 66.8878 9.79427 67.1378 9.57031C67.3904 9.34375 67.6807 9.17969 68.0089 9.07812C68.337 8.97396 68.682 8.92188 69.044 8.92188C69.2836 8.92188 69.5375 8.95052 69.8057 9.00781C70.0766 9.0625 70.3292 9.16406 70.5635 9.3125C70.8005 9.46094 70.9945 9.67318 71.1456 9.94922C71.2966 10.2227 71.3721 10.5781 71.3721 11.0156V15H70.2315V14.1797H70.1846C70.1091 14.3307 69.9958 14.4792 69.8448 14.625C69.6937 14.7708 69.4997 14.8919 69.2628 14.9883C69.0258 15.0846 68.7419 15.1328 68.4112 15.1328ZM68.6651 14.1953C68.988 14.1953 69.2641 14.1315 69.4932 14.0039C69.725 13.8763 69.9008 13.7096 70.0206 13.5039C70.143 13.2956 70.2042 13.0729 70.2042 12.8359V12.0625C70.1625 12.1042 70.0818 12.1432 69.962 12.1797C69.8448 12.2135 69.7107 12.2435 69.5596 12.2695C69.4086 12.293 69.2615 12.3151 69.1182 12.3359C68.975 12.3542 68.8552 12.3698 68.7589 12.3828C68.5323 12.4115 68.3253 12.4596 68.1378 12.5273C67.9529 12.5951 67.8044 12.6927 67.6924 12.8203C67.5831 12.9453 67.5284 13.112 67.5284 13.3203C67.5284 13.6094 67.6352 13.8281 67.8487 13.9766C68.0622 14.1224 68.3344 14.1953 68.6651 14.1953ZM74.2058 7V15H73.0378V7H74.2058Z" fill="#FFAE00"/>
</svg>
