<svg width="87" height="21" viewBox="0 0 87 21" fill="none" xmlns="http://www.w3.org/2000/svg">
<rect width="87" height="21" rx="3" fill="#FFF7E6"/>
<path d="M11.1847 15V7H14.0363C14.6586 7 15.1743 7.11328 15.5831 7.33984C15.992 7.56641 16.298 7.8763 16.5011 8.26953C16.7042 8.66016 16.8058 9.10026 16.8058 9.58984C16.8058 10.082 16.7029 10.5247 16.4972 10.918C16.2941 11.3086 15.9868 11.6185 15.5753 11.8477C15.1665 12.0742 14.6521 12.1875 14.0323 12.1875H12.0714V11.1641H13.923C14.3162 11.1641 14.6352 11.0964 14.88 10.9609C15.1248 10.8229 15.3045 10.6354 15.4191 10.3984C15.5336 10.1615 15.5909 9.89193 15.5909 9.58984C15.5909 9.28776 15.5336 9.01953 15.4191 8.78516C15.3045 8.55078 15.1235 8.36719 14.8761 8.23438C14.6313 8.10156 14.3084 8.03516 13.9073 8.03516H12.3917V15H11.1847ZM20.7478 15.1211C20.1567 15.1211 19.6476 14.9948 19.2205 14.7422C18.796 14.487 18.4679 14.1289 18.2361 13.668C18.0069 13.2044 17.8923 12.6615 17.8923 12.0391C17.8923 11.4245 18.0069 10.8828 18.2361 10.4141C18.4679 9.94531 18.7908 9.57943 19.2048 9.31641C19.6215 9.05339 20.1085 8.92188 20.6658 8.92188C21.0043 8.92188 21.3324 8.97786 21.6502 9.08984C21.9679 9.20182 22.253 9.3776 22.5056 9.61719C22.7582 9.85677 22.9574 10.168 23.1033 10.5508C23.2491 10.931 23.322 11.3932 23.322 11.9375V12.3516H18.5525V11.4766H22.1775C22.1775 11.1693 22.115 10.8971 21.99 10.6602C21.865 10.4206 21.6892 10.2318 21.4627 10.0937C21.2387 9.95573 20.9757 9.88672 20.6736 9.88672C20.3455 9.88672 20.059 9.96745 19.8142 10.1289C19.572 10.2878 19.3845 10.4961 19.2517 10.7539C19.1215 11.0091 19.0564 11.2865 19.0564 11.5859V12.2695C19.0564 12.6706 19.1267 13.0117 19.2673 13.293C19.4106 13.5742 19.6098 13.7891 19.865 13.9375C20.1202 14.0833 20.4184 14.1562 20.7595 14.1562C20.9809 14.1562 21.1827 14.125 21.365 14.0625C21.5473 13.9974 21.7048 13.901 21.8377 13.7734C21.9705 13.6458 22.072 13.4883 22.1423 13.3008L23.2478 13.5C23.1593 13.8255 23.0004 14.1107 22.7713 14.3555C22.5447 14.5977 22.2595 14.7865 21.9158 14.9219C21.5746 15.0547 21.1853 15.1211 20.7478 15.1211ZM24.7279 15V9H25.849V9.97656H25.9232C26.0482 9.64583 26.2527 9.38802 26.5365 9.20313C26.8204 9.01563 27.1602 8.92188 27.5561 8.92188C27.9571 8.92188 28.293 9.01563 28.5639 9.20313C28.8373 9.39062 29.0391 9.64844 29.1693 9.97656H29.2318C29.3751 9.65625 29.6029 9.40104 29.9154 9.21094C30.2279 9.01823 30.6003 8.92188 31.0326 8.92188C31.5769 8.92188 32.0209 9.09245 32.3646 9.43359C32.711 9.77474 32.8842 10.2891 32.8842 10.9766V15H31.7162V11.0859C31.7162 10.6797 31.6055 10.3854 31.3842 10.2031C31.1628 10.0208 30.8985 9.92969 30.5912 9.92969C30.211 9.92969 29.9154 10.0469 29.7045 10.2812C29.4936 10.513 29.3881 10.8112 29.3881 11.1758V15H28.224V11.0117C28.224 10.6862 28.1225 10.4245 27.9193 10.2266C27.7162 10.0286 27.4519 9.92969 27.1264 9.92969C26.905 9.92969 26.7006 9.98828 26.5131 10.1055C26.3282 10.2201 26.1785 10.3802 26.0639 10.5859C25.9519 10.7917 25.8959 11.0299 25.8959 11.3008V15H24.7279ZM34.6534 15V7H35.8213V9.97266H35.8916C35.9593 9.84766 36.057 9.70312 36.1846 9.53906C36.3122 9.375 36.4893 9.23177 36.7159 9.10937C36.9424 8.98438 37.2419 8.92188 37.6143 8.92188C38.0987 8.92188 38.531 9.04427 38.9112 9.28906C39.2914 9.53385 39.5896 9.88672 39.8057 10.3477C40.0245 10.8086 40.1338 11.3633 40.1338 12.0117C40.1338 12.6602 40.0258 13.2161 39.8096 13.6797C39.5935 14.1406 39.2966 14.4961 38.919 14.7461C38.5414 14.9935 38.1104 15.1172 37.626 15.1172C37.2614 15.1172 36.9633 15.056 36.7315 14.9336C36.5023 14.8112 36.3226 14.668 36.1924 14.5039C36.0622 14.3398 35.962 14.194 35.8916 14.0664H35.794V15H34.6534ZM35.7979 12C35.7979 12.4219 35.8591 12.7917 35.9815 13.1094C36.1039 13.4271 36.281 13.6758 36.5127 13.8555C36.7445 14.0326 37.0284 14.1211 37.3643 14.1211C37.7133 14.1211 38.0049 14.0286 38.2393 13.8437C38.4737 13.6562 38.6508 13.4023 38.7705 13.082C38.8929 12.7617 38.9541 12.401 38.9541 12C38.9541 11.6042 38.8942 11.2487 38.7745 10.9336C38.6573 10.6185 38.4802 10.3698 38.2432 10.1875C38.0088 10.0052 37.7159 9.91406 37.3643 9.91406C37.0258 9.91406 36.7393 10.0013 36.5049 10.1758C36.2732 10.3503 36.0974 10.5937 35.9776 10.9062C35.8578 11.2187 35.7979 11.5833 35.7979 12ZM43.3014 15.1328C42.9212 15.1328 42.5775 15.0625 42.2702 14.9219C41.9629 14.7786 41.7194 14.5716 41.5397 14.3008C41.3626 14.0299 41.2741 13.6979 41.2741 13.3047C41.2741 12.9661 41.3392 12.6875 41.4694 12.4687C41.5996 12.25 41.7754 12.0768 41.9968 11.9492C42.2181 11.8216 42.4655 11.7253 42.7389 11.6602C43.0124 11.5951 43.291 11.5456 43.5749 11.5117C43.9343 11.4701 44.2259 11.4362 44.4499 11.4102C44.6738 11.3815 44.8366 11.3359 44.9382 11.2734C45.0397 11.2109 45.0905 11.1094 45.0905 10.9687V10.9414C45.0905 10.6003 44.9942 10.3359 44.8014 10.1484C44.6113 9.96094 44.3275 9.86719 43.9499 9.86719C43.5567 9.86719 43.2468 9.95443 43.0202 10.1289C42.7962 10.3008 42.6413 10.4922 42.5554 10.7031L41.4577 10.4531C41.5879 10.0885 41.778 9.79427 42.028 9.57031C42.2806 9.34375 42.571 9.17969 42.8991 9.07812C43.2272 8.97396 43.5723 8.92188 43.9343 8.92188C44.1738 8.92188 44.4277 8.95052 44.696 9.00781C44.9668 9.0625 45.2194 9.16406 45.4538 9.3125C45.6908 9.46094 45.8848 9.67318 46.0358 9.94922C46.1869 10.2227 46.2624 10.5781 46.2624 11.0156V15H45.1218V14.1797H45.0749C44.9994 14.3307 44.8861 14.4792 44.735 14.625C44.584 14.7708 44.39 14.8919 44.153 14.9883C43.916 15.0846 43.6322 15.1328 43.3014 15.1328ZM43.5554 14.1953C43.8783 14.1953 44.1543 14.1315 44.3835 14.0039C44.6152 13.8763 44.791 13.7096 44.9108 13.5039C45.0332 13.2956 45.0944 13.0729 45.0944 12.8359V12.0625C45.0527 12.1042 44.972 12.1432 44.8522 12.1797C44.735 12.2135 44.6009 12.2435 44.4499 12.2695C44.2988 12.293 44.1517 12.3151 44.0085 12.3359C43.8652 12.3542 43.7455 12.3698 43.6491 12.3828C43.4225 12.4115 43.2155 12.4596 43.028 12.5273C42.8431 12.5951 42.6947 12.6927 42.5827 12.8203C42.4733 12.9453 42.4186 13.112 42.4186 13.3203C42.4186 13.6094 42.5254 13.8281 42.7389 13.9766C42.9525 14.1224 43.2246 14.1953 43.5554 14.1953ZM48.4515 17.25C48.277 17.25 48.1182 17.2357 47.9749 17.207C47.8317 17.181 47.7249 17.1523 47.6546 17.1211L47.9359 16.1641C48.1494 16.2214 48.3395 16.2461 48.5062 16.2383C48.6728 16.2305 48.82 16.168 48.9476 16.0508C49.0778 15.9336 49.1924 15.7422 49.2913 15.4766L49.4359 15.0781L47.2405 9H48.4905L50.0101 13.6562H50.0726L51.5921 9H52.846L50.3734 15.8008C50.2588 16.1133 50.1129 16.3776 49.9359 16.5938C49.7588 16.8125 49.5478 16.9766 49.303 17.0859C49.0583 17.1953 48.7744 17.25 48.4515 17.25ZM55.6279 15.1328C55.2477 15.1328 54.9039 15.0625 54.5966 14.9219C54.2893 14.7786 54.0459 14.5716 53.8662 14.3008C53.6891 14.0299 53.6005 13.6979 53.6005 13.3047C53.6005 12.9661 53.6657 12.6875 53.7959 12.4687C53.9261 12.25 54.1018 12.0768 54.3232 11.9492C54.5446 11.8216 54.792 11.7253 55.0654 11.6602C55.3388 11.5951 55.6175 11.5456 55.9013 11.5117C56.2607 11.4701 56.5524 11.4362 56.7763 11.4102C57.0003 11.3815 57.163 11.3359 57.2646 11.2734C57.3662 11.2109 57.417 11.1094 57.417 10.9687V10.9414C57.417 10.6003 57.3206 10.3359 57.1279 10.1484C56.9378 9.96094 56.6539 9.86719 56.2763 9.86719C55.8831 9.86719 55.5732 9.95443 55.3466 10.1289C55.1227 10.3008 54.9677 10.4922 54.8818 10.7031L53.7841 10.4531C53.9143 10.0885 54.1045 9.79427 54.3545 9.57031C54.6071 9.34375 54.8974 9.17969 55.2255 9.07812C55.5537 8.97396 55.8987 8.92188 56.2607 8.92188C56.5003 8.92188 56.7542 8.95052 57.0224 9.00781C57.2933 9.0625 57.5459 9.16406 57.7802 9.3125C58.0172 9.46094 58.2112 9.67318 58.3623 9.94922C58.5133 10.2227 58.5888 10.5781 58.5888 11.0156V15H57.4482V14.1797H57.4013C57.3258 14.3307 57.2125 14.4792 57.0615 14.625C56.9104 14.7708 56.7164 14.8919 56.4795 14.9883C56.2425 15.0846 55.9586 15.1328 55.6279 15.1328ZM55.8818 14.1953C56.2047 14.1953 56.4808 14.1315 56.7099 14.0039C56.9417 13.8763 57.1175 13.7096 57.2373 13.5039C57.3597 13.2956 57.4209 13.0729 57.4209 12.8359V12.0625C57.3792 12.1042 57.2985 12.1432 57.1787 12.1797C57.0615 12.2135 56.9274 12.2435 56.7763 12.2695C56.6253 12.293 56.4782 12.3151 56.3349 12.3359C56.1917 12.3542 56.0719 12.3698 55.9755 12.3828C55.749 12.4115 55.542 12.4596 55.3545 12.5273C55.1696 12.5951 55.0211 12.6927 54.9091 12.8203C54.7998 12.9453 54.7451 13.112 54.7451 13.3203C54.7451 13.6094 54.8518 13.8281 55.0654 13.9766C55.2789 14.1224 55.5511 14.1953 55.8818 14.1953ZM60.2545 15V9H61.3834V9.95312H61.4459C61.5553 9.63021 61.748 9.3763 62.024 9.19141C62.3027 9.00391 62.6178 8.91016 62.9693 8.91016C63.0423 8.91016 63.1282 8.91276 63.2272 8.91797C63.3287 8.92318 63.4081 8.92969 63.4654 8.9375V10.0547C63.4186 10.0417 63.3352 10.0273 63.2154 10.0117C63.0956 9.99349 62.9758 9.98437 62.8561 9.98437C62.58 9.98437 62.3339 10.043 62.1178 10.1602C61.9042 10.2747 61.735 10.4349 61.61 10.6406C61.485 10.8437 61.4225 11.0755 61.4225 11.3359V15H60.2545ZM66.2786 15.1328C65.8983 15.1328 65.5546 15.0625 65.2473 14.9219C64.94 14.7786 64.6965 14.5716 64.5168 14.3008C64.3398 14.0299 64.2512 13.6979 64.2512 13.3047C64.2512 12.9661 64.3163 12.6875 64.4465 12.4687C64.5767 12.25 64.7525 12.0768 64.9739 11.9492C65.1952 11.8216 65.4426 11.7253 65.7161 11.6602C65.9895 11.5951 66.2681 11.5456 66.552 11.5117C66.9114 11.4701 67.203 11.4362 67.427 11.4102C67.651 11.3815 67.8137 11.3359 67.9153 11.2734C68.0168 11.2109 68.0676 11.1094 68.0676 10.9687V10.9414C68.0676 10.6003 67.9713 10.3359 67.7786 10.1484C67.5885 9.96094 67.3046 9.86719 66.927 9.86719C66.5338 9.86719 66.2239 9.95443 65.9973 10.1289C65.7733 10.3008 65.6184 10.4922 65.5325 10.7031L64.4348 10.4531C64.565 10.0885 64.7551 9.79427 65.0051 9.57031C65.2577 9.34375 65.5481 9.17969 65.8762 9.07812C66.2043 8.97396 66.5494 8.92188 66.9114 8.92188C67.151 8.92188 67.4049 8.95052 67.6731 9.00781C67.9439 9.0625 68.1965 9.16406 68.4309 9.3125C68.6679 9.46094 68.8619 9.67318 69.0129 9.94922C69.164 10.2227 69.2395 10.5781 69.2395 11.0156V15H68.0989V14.1797H68.052C67.9765 14.3307 67.8632 14.4792 67.7122 14.625C67.5611 14.7708 67.3671 14.8919 67.1301 14.9883C66.8931 15.0846 66.6093 15.1328 66.2786 15.1328ZM66.5325 14.1953C66.8554 14.1953 67.1314 14.1315 67.3606 14.0039C67.5924 13.8763 67.7681 13.7096 67.8879 13.5039C68.0103 13.2956 68.0715 13.0729 68.0715 12.8359V12.0625C68.0299 12.1042 67.9491 12.1432 67.8293 12.1797C67.7122 12.2135 67.578 12.2435 67.427 12.2695C67.276 12.293 67.1288 12.3151 66.9856 12.3359C66.8424 12.3542 66.7226 12.3698 66.6262 12.3828C66.3997 12.4115 66.1926 12.4596 66.0051 12.5273C65.8202 12.5951 65.6718 12.6927 65.5598 12.8203C65.4504 12.9453 65.3957 13.112 65.3957 13.3203C65.3957 13.6094 65.5025 13.8281 65.7161 13.9766C65.9296 14.1224 66.2017 14.1953 66.5325 14.1953ZM72.0731 11.4375V15H70.9052V9H72.0263V9.97656H72.1005C72.2385 9.65885 72.4546 9.40365 72.7489 9.21094C73.0458 9.01823 73.4195 8.92188 73.87 8.92188C74.2789 8.92188 74.6369 9.00781 74.9442 9.17969C75.2515 9.34896 75.4898 9.60156 75.6591 9.9375C75.8283 10.2734 75.913 10.6888 75.913 11.1836V15H74.745V11.3242C74.745 10.8893 74.6317 10.5495 74.4052 10.3047C74.1786 10.0573 73.8674 9.93359 73.4716 9.93359C73.2007 9.93359 72.9598 9.99219 72.7489 10.1094C72.5406 10.2266 72.3752 10.3984 72.2528 10.625C72.133 10.849 72.0731 11.1198 72.0731 11.4375Z" fill="#FFAE00"/>
</svg>
