<svg width="49" height="21" viewBox="0 0 49 21" fill="none" xmlns="http://www.w3.org/2000/svg">
<rect width="49" height="21" rx="3" fill="#EBF9F4"/>
<path d="M11.0222 15V7H12.2292V10.4766H16.2175V7H17.4284V15H16.2175V11.5117H12.2292V15H11.0222ZM20.9486 15.1328C20.5684 15.1328 20.2246 15.0625 19.9173 14.9219C19.6101 14.7786 19.3666 14.5716 19.1869 14.3008C19.0098 14.0299 18.9212 13.6979 18.9212 13.3047C18.9212 12.9661 18.9864 12.6875 19.1166 12.4687C19.2468 12.25 19.4226 12.0768 19.6439 11.9492C19.8653 11.8216 20.1127 11.7253 20.3861 11.6602C20.6595 11.5951 20.9382 11.5456 21.222 11.5117C21.5814 11.4701 21.8731 11.4362 22.097 11.4102C22.321 11.3815 22.4837 11.3359 22.5853 11.2734C22.6869 11.2109 22.7377 11.1094 22.7377 10.9687V10.9414C22.7377 10.6003 22.6413 10.3359 22.4486 10.1484C22.2585 9.96094 21.9746 9.86719 21.597 9.86719C21.2038 9.86719 20.8939 9.95443 20.6673 10.1289C20.4434 10.3008 20.2884 10.4922 20.2025 10.7031L19.1048 10.4531C19.2351 10.0885 19.4252 9.79427 19.6752 9.57031C19.9278 9.34375 20.2181 9.17969 20.5462 9.07812C20.8744 8.97396 21.2194 8.92188 21.5814 8.92188C21.821 8.92188 22.0749 8.95052 22.3431 9.00781C22.614 9.0625 22.8666 9.16406 23.1009 9.3125C23.3379 9.46094 23.5319 9.67318 23.683 9.94922C23.834 10.2227 23.9095 10.5781 23.9095 11.0156V15H22.7689V14.1797H22.722C22.6465 14.3307 22.5332 14.4792 22.3822 14.625C22.2311 14.7708 22.0371 14.8919 21.8002 14.9883C21.5632 15.0846 21.2793 15.1328 20.9486 15.1328ZM21.2025 14.1953C21.5254 14.1953 21.8015 14.1315 22.0306 14.0039C22.2624 13.8763 22.4382 13.7096 22.558 13.5039C22.6804 13.2956 22.7416 13.0729 22.7416 12.8359V12.0625C22.6999 12.1042 22.6192 12.1432 22.4994 12.1797C22.3822 12.2135 22.2481 12.2435 22.097 12.2695C21.946 12.293 21.7989 12.3151 21.6556 12.3359C21.5124 12.3542 21.3926 12.3698 21.2962 12.3828C21.0697 12.4115 20.8627 12.4596 20.6752 12.5273C20.4903 12.5951 20.3418 12.6927 20.2298 12.8203C20.1205 12.9453 20.0658 13.112 20.0658 13.3203C20.0658 13.6094 20.1726 13.8281 20.3861 13.9766C20.5996 14.1224 20.8718 14.1953 21.2025 14.1953ZM27.8213 15.1172C27.3369 15.1172 26.9046 14.9935 26.5244 14.7461C26.1468 14.4961 25.8499 14.1406 25.6338 13.6797C25.4202 13.2161 25.3135 12.6602 25.3135 12.0117C25.3135 11.3633 25.4215 10.8086 25.6377 10.3477C25.8564 9.88672 26.1559 9.53385 26.5361 9.28906C26.9163 9.04427 27.3473 8.92188 27.8291 8.92188C28.2015 8.92188 28.501 8.98438 28.7275 9.10937C28.9567 9.23177 29.1338 9.375 29.2588 9.53906C29.3864 9.70312 29.4854 9.84766 29.5557 9.97266H29.626V7H30.7939V15H29.6533V14.0664H29.5557C29.4854 14.194 29.3838 14.3398 29.251 14.5039C29.1208 14.668 28.9411 14.8112 28.7119 14.9336C28.4827 15.056 28.1859 15.1172 27.8213 15.1172ZM28.0791 14.1211C28.415 14.1211 28.6989 14.0326 28.9307 13.8555C29.165 13.6758 29.3421 13.4271 29.4619 13.1094C29.5843 12.7917 29.6455 12.4219 29.6455 12C29.6455 11.5833 29.5856 11.2187 29.4658 10.9062C29.346 10.5937 29.1702 10.3503 28.9385 10.1758C28.7067 10.0013 28.4202 9.91406 28.0791 9.91406C27.7275 9.91406 27.4346 10.0052 27.2002 10.1875C26.9658 10.3698 26.7887 10.6185 26.6689 10.9336C26.5518 11.2487 26.4932 11.6042 26.4932 12C26.4932 12.401 26.5531 12.7617 26.6729 13.082C26.7926 13.4023 26.9697 13.6562 27.2041 13.8437C27.4411 14.0286 27.7327 14.1211 28.0791 14.1211ZM32.5709 15V9H33.7389V15H32.5709ZM33.1608 8.07422C32.9577 8.07422 32.7832 8.00651 32.6373 7.87109C32.4941 7.73307 32.4225 7.56901 32.4225 7.37891C32.4225 7.1862 32.4941 7.02214 32.6373 6.88672C32.7832 6.7487 32.9577 6.67969 33.1608 6.67969C33.3639 6.67969 33.5371 6.7487 33.6803 6.88672C33.8261 7.02214 33.8991 7.1862 33.8991 7.37891C33.8991 7.56901 33.8261 7.73307 33.6803 7.87109C33.5371 8.00651 33.3639 8.07422 33.1608 8.07422ZM35.4202 15V9H36.5491V9.95312H36.6116C36.721 9.63021 36.9137 9.3763 37.1897 9.19141C37.4684 9.00391 37.7835 8.91016 38.135 8.91016C38.208 8.91016 38.2939 8.91276 38.3929 8.91797C38.4944 8.92318 38.5738 8.92969 38.6311 8.9375V10.0547C38.5843 10.0417 38.5009 10.0273 38.3811 10.0117C38.2613 9.99349 38.1416 9.98437 38.0218 9.98437C37.7457 9.98437 37.4996 10.043 37.2835 10.1602C37.0699 10.2747 36.9007 10.4349 36.7757 10.6406C36.6507 10.8437 36.5882 11.0755 36.5882 11.3359V15H35.4202Z" fill="#2FB182"/>
</svg>
