<svg width="66" height="21" viewBox="0 0 66 21" fill="none" xmlns="http://www.w3.org/2000/svg">
<rect width="66" height="21" rx="3" fill="#FDF4F6"/>
<path d="M17.6018 7V15H16.4924L12.426 9.13281H12.3518V15H11.1448V7H12.262L16.3323 12.875H16.4065V7H17.6018ZM21.9062 15.1211C21.3437 15.1211 20.8528 14.9922 20.4335 14.7344C20.0142 14.4766 19.6887 14.1159 19.4569 13.6523C19.2252 13.1888 19.1093 12.6471 19.1093 12.0273C19.1093 11.4049 19.2252 10.8607 19.4569 10.3945C19.6887 9.92839 20.0142 9.56641 20.4335 9.30859C20.8528 9.05078 21.3437 8.92188 21.9062 8.92188C22.4687 8.92188 22.9595 9.05078 23.3788 9.30859C23.7981 9.56641 24.1236 9.92839 24.3554 10.3945C24.5871 10.8607 24.703 11.4049 24.703 12.0273C24.703 12.6471 24.5871 13.1888 24.3554 13.6523C24.1236 14.1159 23.7981 14.4766 23.3788 14.7344C22.9595 14.9922 22.4687 15.1211 21.9062 15.1211ZM21.9101 14.1406C22.2746 14.1406 22.5767 14.0443 22.8163 13.8516C23.0559 13.6589 23.233 13.4023 23.3476 13.082C23.4647 12.7617 23.5233 12.4089 23.5233 12.0234C23.5233 11.6406 23.4647 11.2891 23.3476 10.9687C23.233 10.6458 23.0559 10.3867 22.8163 10.1914C22.5767 9.99609 22.2746 9.89844 21.9101 9.89844C21.5429 9.89844 21.2382 9.99609 20.996 10.1914C20.7564 10.3867 20.578 10.6458 20.4608 10.9687C20.3463 11.2891 20.289 11.6406 20.289 12.0234C20.289 12.4089 20.3463 12.7617 20.4608 13.082C20.578 13.4023 20.7564 13.6589 20.996 13.8516C21.2382 14.0443 21.5429 14.1406 21.9101 14.1406ZM27.2847 11.4375V15H26.1167V9H27.2378V9.97656H27.3121C27.4501 9.65885 27.6662 9.40365 27.9605 9.21094C28.2574 9.01823 28.6311 8.92188 29.0816 8.92188C29.4904 8.92188 29.8485 9.00781 30.1558 9.17969C30.4631 9.34896 30.7014 9.60156 30.8706 9.9375C31.0399 10.2734 31.1246 10.6888 31.1246 11.1836V15H29.9566V11.3242C29.9566 10.8893 29.8433 10.5495 29.6167 10.3047C29.3902 10.0573 29.079 9.93359 28.6831 9.93359C28.4123 9.93359 28.1714 9.99219 27.9605 10.1094C27.7522 10.2266 27.5868 10.3984 27.4644 10.625C27.3446 10.849 27.2847 11.1198 27.2847 11.4375ZM34.5471 15.1328C34.1668 15.1328 33.8231 15.0625 33.5158 14.9219C33.2085 14.7786 32.965 14.5716 32.7853 14.3008C32.6082 14.0299 32.5197 13.6979 32.5197 13.3047C32.5197 12.9661 32.5848 12.6875 32.715 12.4687C32.8452 12.25 33.021 12.0768 33.2424 11.9492C33.4637 11.8216 33.7111 11.7253 33.9846 11.6602C34.258 11.5951 34.5366 11.5456 34.8205 11.5117C35.1799 11.4701 35.4715 11.4362 35.6955 11.4102C35.9194 11.3815 36.0822 11.3359 36.1838 11.2734C36.2853 11.2109 36.3361 11.1094 36.3361 10.9687V10.9414C36.3361 10.6003 36.2398 10.3359 36.0471 10.1484C35.8569 9.96094 35.5731 9.86719 35.1955 9.86719C34.8023 9.86719 34.4924 9.95443 34.2658 10.1289C34.0418 10.3008 33.8869 10.4922 33.801 10.7031L32.7033 10.4531C32.8335 10.0885 33.0236 9.79427 33.2736 9.57031C33.5262 9.34375 33.8166 9.17969 34.1447 9.07812C34.4728 8.97396 34.8179 8.92188 35.1799 8.92188C35.4194 8.92188 35.6734 8.95052 35.9416 9.00781C36.2124 9.0625 36.465 9.16406 36.6994 9.3125C36.9364 9.46094 37.1304 9.67318 37.2814 9.94922C37.4325 10.2227 37.508 10.5781 37.508 11.0156V15H36.3674V14.1797H36.3205C36.245 14.3307 36.1317 14.4792 35.9806 14.625C35.8296 14.7708 35.6356 14.8919 35.3986 14.9883C35.1616 15.0846 34.8778 15.1328 34.5471 15.1328ZM34.801 14.1953C35.1239 14.1953 35.3999 14.1315 35.6291 14.0039C35.8609 13.8763 36.0366 13.7096 36.1564 13.5039C36.2788 13.2956 36.34 13.0729 36.34 12.8359V12.0625C36.2984 12.1042 36.2176 12.1432 36.0978 12.1797C35.9806 12.2135 35.8465 12.2435 35.6955 12.2695C35.5444 12.293 35.3973 12.3151 35.2541 12.3359C35.1109 12.3542 34.9911 12.3698 34.8947 12.3828C34.6681 12.4115 34.4611 12.4596 34.2736 12.5273C34.0887 12.5951 33.9403 12.6927 33.8283 12.8203C33.7189 12.9453 33.6642 13.112 33.6642 13.3203C33.6642 13.6094 33.771 13.8281 33.9846 13.9766C34.1981 14.1224 34.4702 14.1953 34.801 14.1953ZM40.2479 12.9648L40.2401 11.5391H40.4432L42.8338 9H44.2322L41.5057 11.8906H41.3221L40.2479 12.9648ZM39.1737 15V7H40.3416V15H39.1737ZM42.9627 15L40.8143 12.1484L41.619 11.332L44.3963 15H42.9627ZM48.2075 9V9.9375H44.9301V9H48.2075ZM45.809 7.5625H46.977V13.2383C46.977 13.4648 47.0109 13.6354 47.0786 13.75C47.1463 13.862 47.2335 13.9388 47.3403 13.9805C47.4497 14.0195 47.5682 14.0391 47.6958 14.0391C47.7895 14.0391 47.8715 14.0326 47.9419 14.0195C48.0122 14.0065 48.0669 13.9961 48.1059 13.9883L48.3169 14.9531C48.2491 14.9792 48.1528 15.0052 48.0278 15.0313C47.9028 15.0599 47.7465 15.0755 47.559 15.0781C47.2518 15.0833 46.9653 15.0286 46.6997 14.9141C46.434 14.7995 46.2192 14.6224 46.0551 14.3828C45.8911 14.1432 45.809 13.8424 45.809 13.4805V7.5625ZM49.6095 15V9H50.7774V15H49.6095ZM50.1993 8.07422C49.9962 8.07422 49.8217 8.00651 49.6759 7.87109C49.5327 7.73307 49.461 7.56901 49.461 7.37891C49.461 7.1862 49.5327 7.02214 49.6759 6.88672C49.8217 6.7487 49.9962 6.67969 50.1993 6.67969C50.4024 6.67969 50.5756 6.7487 50.7188 6.88672C50.8647 7.02214 50.9376 7.1862 50.9376 7.37891C50.9376 7.56901 50.8647 7.73307 50.7188 7.87109C50.5756 8.00651 50.4024 8.07422 50.1993 8.07422ZM55.3142 9V9.9375H51.9236V9H55.3142ZM52.8533 15V8.30469C52.8533 7.92969 52.9353 7.61849 53.0994 7.37109C53.2634 7.12109 53.4809 6.9349 53.7517 6.8125C54.0225 6.6875 54.3168 6.625 54.6345 6.625C54.8689 6.625 55.0694 6.64453 55.2361 6.68359C55.4027 6.72005 55.5264 6.75391 55.6072 6.78516L55.3337 7.73047C55.279 7.71484 55.2087 7.69661 55.1228 7.67578C55.0369 7.65234 54.9327 7.64062 54.8103 7.64062C54.5264 7.64062 54.3233 7.71094 54.2009 7.85156C54.0811 7.99219 54.0212 8.19531 54.0212 8.46094V15H52.8533Z" fill="#DE486C"/>
</svg>
