<svg width="77" height="21" viewBox="0 0 77 21" fill="none" xmlns="http://www.w3.org/2000/svg">
<rect width="77" height="21" rx="3" fill="#FFF7E6"/>
<path d="M10.9246 7H12.3894L14.9363 13.2187H15.03L17.5769 7H19.0418V15H17.8933V9.21094H17.8191L15.4597 14.9883H14.5066L12.1472 9.20703H12.073V15H10.9246V7ZM23.3988 15.1211C22.8077 15.1211 22.2986 14.9948 21.8715 14.7422C21.447 14.487 21.1189 14.1289 20.8871 13.668C20.6579 13.2044 20.5434 12.6615 20.5434 12.0391C20.5434 11.4245 20.6579 10.8828 20.8871 10.4141C21.1189 9.94531 21.4418 9.57943 21.8559 9.31641C22.2725 9.05339 22.7595 8.92188 23.3168 8.92188C23.6553 8.92188 23.9835 8.97786 24.3012 9.08984C24.6189 9.20182 24.904 9.3776 25.1566 9.61719C25.4092 9.85677 25.6085 10.168 25.7543 10.5508C25.9001 10.931 25.973 11.3932 25.973 11.9375V12.3516H21.2035V11.4766H24.8285C24.8285 11.1693 24.766 10.8971 24.641 10.6602C24.516 10.4206 24.3402 10.2318 24.1137 10.0937C23.8897 9.95573 23.6267 9.88672 23.3246 9.88672C22.9965 9.88672 22.71 9.96745 22.4652 10.1289C22.223 10.2878 22.0355 10.4961 21.9027 10.7539C21.7725 11.0091 21.7074 11.2865 21.7074 11.5859V12.2695C21.7074 12.6706 21.7777 13.0117 21.9184 13.293C22.0616 13.5742 22.2608 13.7891 22.516 13.9375C22.7712 14.0833 23.0694 14.1562 23.4105 14.1562C23.6319 14.1562 23.8337 14.125 24.016 14.0625C24.1983 13.9974 24.3559 13.901 24.4887 13.7734C24.6215 13.6458 24.723 13.4883 24.7934 13.3008L25.8988 13.5C25.8103 13.8255 25.6514 14.1107 25.4223 14.3555C25.1957 14.5977 24.9105 14.7865 24.5668 14.9219C24.2257 15.0547 23.8363 15.1211 23.3988 15.1211ZM28.5469 11.4375V15H27.3789V9H28.5V9.97656H28.5743C28.7123 9.65885 28.9284 9.40365 29.2227 9.21094C29.5196 9.01823 29.8933 8.92188 30.3438 8.92188C30.7526 8.92188 31.1107 9.00781 31.418 9.17969C31.7253 9.34896 31.9636 9.60156 32.1329 9.9375C32.3021 10.2734 32.3868 10.6888 32.3868 11.1836V15H31.2188V11.3242C31.2188 10.8893 31.1055 10.5495 30.8789 10.3047C30.6524 10.0573 30.3412 9.93359 29.9454 9.93359C29.6745 9.93359 29.4336 9.99219 29.2227 10.1094C29.0144 10.2266 28.849 10.3984 28.7266 10.625C28.6068 10.849 28.5469 11.1198 28.5469 11.4375ZM37.8639 12.5117V9H39.0358V15H37.8874V13.9609H37.8249C37.6869 14.2813 37.4655 14.5482 37.1608 14.7617C36.8587 14.9727 36.4824 15.0781 36.0319 15.0781C35.6465 15.0781 35.3054 14.9935 35.0085 14.8242C34.7142 14.6523 34.4824 14.3984 34.3132 14.0625C34.1465 13.7266 34.0632 13.3112 34.0632 12.8164V9H35.2311V12.6758C35.2311 13.0846 35.3444 13.4102 35.571 13.6523C35.7975 13.8945 36.0918 14.0156 36.4538 14.0156C36.6725 14.0156 36.89 13.9609 37.1061 13.8516C37.3249 13.7422 37.5059 13.5768 37.6491 13.3555C37.7949 13.1341 37.8665 12.8529 37.8639 12.5117ZM41.8831 11.4375V15H40.7152V9H41.8363V9.97656H41.9105C42.0485 9.65885 42.2646 9.40365 42.5589 9.21094C42.8558 9.01823 43.2295 8.92188 43.68 8.92188C44.0889 8.92188 44.4469 9.00781 44.7542 9.17969C45.0615 9.34896 45.2998 9.60156 45.4691 9.9375C45.6383 10.2734 45.723 10.6888 45.723 11.1836V15H44.555V11.3242C44.555 10.8893 44.4417 10.5495 44.2152 10.3047C43.9886 10.0573 43.6774 9.93359 43.2816 9.93359C43.0107 9.93359 42.7698 9.99219 42.5589 10.1094C42.3506 10.2266 42.1852 10.3984 42.0628 10.625C41.943 10.849 41.8831 11.1198 41.8831 11.4375ZM49.915 17.375C49.4384 17.375 49.0283 17.3125 48.6845 17.1875C48.3434 17.0625 48.0647 16.8971 47.8486 16.6914C47.6324 16.4857 47.471 16.2604 47.3642 16.0156L48.3681 15.6016C48.4384 15.7161 48.5322 15.8372 48.6494 15.9648C48.7692 16.0951 48.9306 16.2057 49.1338 16.2969C49.3395 16.388 49.6038 16.4336 49.9267 16.4336C50.3694 16.4336 50.7353 16.3255 51.0244 16.1094C51.3134 15.8958 51.458 15.5547 51.458 15.0859V13.9062H51.3838C51.3134 14.0339 51.2119 14.1758 51.0791 14.332C50.9489 14.4883 50.7692 14.6237 50.54 14.7383C50.3108 14.8529 50.0127 14.9102 49.6455 14.9102C49.1715 14.9102 48.7444 14.7995 48.3642 14.5781C47.9866 14.3542 47.6871 14.0247 47.4658 13.5898C47.247 13.1523 47.1377 12.6146 47.1377 11.9766C47.1377 11.3385 47.2457 10.7917 47.4619 10.3359C47.6806 9.88021 47.9801 9.53125 48.3603 9.28906C48.7405 9.04427 49.1715 8.92188 49.6533 8.92188C50.0257 8.92188 50.3265 8.98438 50.5556 9.10937C50.7848 9.23177 50.9632 9.375 51.0908 9.53906C51.221 9.70312 51.3213 9.84766 51.3916 9.97266H51.4775V9H52.622V15.1328C52.622 15.6484 52.5022 16.0716 52.2627 16.4023C52.0231 16.7331 51.6989 16.9779 51.29 17.1367C50.8838 17.2956 50.4254 17.375 49.915 17.375ZM49.9033 13.9414C50.2392 13.9414 50.5231 13.8633 50.7548 13.707C50.9892 13.5482 51.1663 13.3216 51.2861 13.0273C51.4085 12.7305 51.4697 12.375 51.4697 11.9609C51.4697 11.5573 51.4098 11.2018 51.29 10.8945C51.1702 10.5872 50.9944 10.3477 50.7627 10.1758C50.5309 10.0013 50.2444 9.91406 49.9033 9.91406C49.5517 9.91406 49.2588 10.0052 49.0244 10.1875C48.79 10.3672 48.6129 10.612 48.4931 10.9219C48.3759 11.2318 48.3173 11.5781 48.3173 11.9609C48.3173 12.3542 48.3772 12.6992 48.497 12.9961C48.6168 13.293 48.7939 13.5247 49.0283 13.6914C49.2653 13.8581 49.5569 13.9414 49.9033 13.9414ZM56.8141 17.375C56.3375 17.375 55.9273 17.3125 55.5836 17.1875C55.2424 17.0625 54.9638 16.8971 54.7477 16.6914C54.5315 16.4857 54.3701 16.2604 54.2633 16.0156L55.2672 15.6016C55.3375 15.7161 55.4313 15.8372 55.5484 15.9648C55.6682 16.0951 55.8297 16.2057 56.0328 16.2969C56.2385 16.388 56.5029 16.4336 56.8258 16.4336C57.2685 16.4336 57.6344 16.3255 57.9234 16.1094C58.2125 15.8958 58.357 15.5547 58.357 15.0859V13.9062H58.2828C58.2125 14.0339 58.1109 14.1758 57.9781 14.332C57.8479 14.4883 57.6682 14.6237 57.4391 14.7383C57.2099 14.8529 56.9117 14.9102 56.5445 14.9102C56.0706 14.9102 55.6435 14.7995 55.2633 14.5781C54.8857 14.3542 54.5862 14.0247 54.3648 13.5898C54.1461 13.1523 54.0367 12.6146 54.0367 11.9766C54.0367 11.3385 54.1448 10.7917 54.3609 10.3359C54.5797 9.88021 54.8792 9.53125 55.2594 9.28906C55.6396 9.04427 56.0706 8.92188 56.5523 8.92188C56.9247 8.92188 57.2255 8.98438 57.4547 9.10937C57.6839 9.23177 57.8622 9.375 57.9898 9.53906C58.1201 9.70312 58.2203 9.84766 58.2906 9.97266H58.3766V9H59.5211V15.1328C59.5211 15.6484 59.4013 16.0716 59.1617 16.4023C58.9221 16.7331 58.5979 16.9779 58.1891 17.1367C57.7828 17.2956 57.3245 17.375 56.8141 17.375ZM56.8023 13.9414C57.1383 13.9414 57.4221 13.8633 57.6539 13.707C57.8883 13.5482 58.0654 13.3216 58.1852 13.0273C58.3076 12.7305 58.3688 12.375 58.3688 11.9609C58.3688 11.5573 58.3089 11.2018 58.1891 10.8945C58.0693 10.5872 57.8935 10.3477 57.6617 10.1758C57.4299 10.0013 57.1435 9.91406 56.8023 9.91406C56.4508 9.91406 56.1578 10.0052 55.9234 10.1875C55.6891 10.3672 55.512 10.612 55.3922 10.9219C55.275 11.2318 55.2164 11.5781 55.2164 11.9609C55.2164 12.3542 55.2763 12.6992 55.3961 12.9961C55.5159 13.293 55.693 13.5247 55.9273 13.6914C56.1643 13.8581 56.456 13.9414 56.8023 13.9414ZM64.9983 12.5117V9H66.1702V15H65.0217V13.9609H64.9592C64.8212 14.2813 64.5998 14.5482 64.2952 14.7617C63.9931 14.9727 63.6168 15.0781 63.1663 15.0781C62.7808 15.0781 62.4397 14.9935 62.1428 14.8242C61.8485 14.6523 61.6168 14.3984 61.4475 14.0625C61.2808 13.7266 61.1975 13.3112 61.1975 12.8164V9H62.3655V12.6758C62.3655 13.0846 62.4788 13.4102 62.7053 13.6523C62.9319 13.8945 63.2261 14.0156 63.5881 14.0156C63.8069 14.0156 64.0243 13.9609 64.2405 13.8516C64.4592 13.7422 64.6402 13.5768 64.7834 13.3555C64.9293 13.1341 65.0009 12.8529 64.9983 12.5117Z" fill="#FFAE00"/>
</svg>
