<svg width="81" height="21" viewBox="0 0 81 21" fill="none" xmlns="http://www.w3.org/2000/svg">
<rect width="81" height="21" rx="3" fill="#EBF9F4"/>
<path d="M13.9166 15H11.3268V7H13.9987C14.7825 7 15.4557 7.16016 16.0182 7.48047C16.5807 7.79818 17.0117 8.25521 17.3112 8.85156C17.6132 9.44531 17.7643 10.1576 17.7643 10.9883C17.7643 11.8216 17.6119 12.5378 17.3072 13.1367C17.0052 13.7357 16.5677 14.1966 15.9947 14.5195C15.4218 14.8398 14.7291 15 13.9166 15ZM12.5338 13.9453H13.8502C14.4596 13.9453 14.9661 13.8307 15.3697 13.6016C15.7734 13.3698 16.0755 13.0352 16.276 12.5977C16.4765 12.1576 16.5768 11.6211 16.5768 10.9883C16.5768 10.3607 16.4765 9.82812 16.276 9.39062C16.0781 8.95312 15.7825 8.62109 15.3893 8.39453C14.996 8.16797 14.5078 8.05469 13.9244 8.05469H12.5338V13.9453ZM19.2815 15V9H20.4495V15H19.2815ZM19.8713 8.07422C19.6682 8.07422 19.4937 8.00651 19.3479 7.87109C19.2047 7.73307 19.1331 7.56901 19.1331 7.37891C19.1331 7.1862 19.2047 7.02214 19.3479 6.88672C19.4937 6.7487 19.6682 6.67969 19.8713 6.67969C20.0745 6.67969 20.2476 6.7487 20.3909 6.88672C20.5367 7.02214 20.6096 7.1862 20.6096 7.37891C20.6096 7.56901 20.5367 7.73307 20.3909 7.87109C20.2476 8.00651 20.0745 8.07422 19.8713 8.07422ZM22.2245 15V7H23.3925V9.97266H23.4628C23.5305 9.84766 23.6282 9.70312 23.7558 9.53906C23.8834 9.375 24.0604 9.23177 24.287 9.10937C24.5136 8.98438 24.8131 8.92188 25.1854 8.92188C25.6698 8.92188 26.1021 9.04427 26.4823 9.28906C26.8625 9.53385 27.1607 9.88672 27.3769 10.3477C27.5956 10.8086 27.705 11.3633 27.705 12.0117C27.705 12.6602 27.5969 13.2161 27.3808 13.6797C27.1646 14.1406 26.8677 14.4961 26.4901 14.7461C26.1125 14.9935 25.6815 15.1172 25.1972 15.1172C24.8326 15.1172 24.5344 15.056 24.3026 14.9336C24.0735 14.8112 23.8938 14.668 23.7636 14.5039C23.6334 14.3398 23.5331 14.194 23.4628 14.0664H23.3651V15H22.2245ZM23.369 12C23.369 12.4219 23.4302 12.7917 23.5526 13.1094C23.675 13.4271 23.8521 13.6758 24.0839 13.8555C24.3157 14.0326 24.5995 14.1211 24.9354 14.1211C25.2844 14.1211 25.5761 14.0286 25.8104 13.8437C26.0448 13.6562 26.2219 13.4023 26.3417 13.082C26.4641 12.7617 26.5253 12.401 26.5253 12C26.5253 11.6042 26.4654 11.2487 26.3456 10.9336C26.2284 10.6185 26.0513 10.3698 25.8144 10.1875C25.58 10.0052 25.287 9.91406 24.9354 9.91406C24.5969 9.91406 24.3104 10.0013 24.0761 10.1758C23.8443 10.3503 23.6685 10.5937 23.5487 10.9062C23.4289 11.2187 23.369 11.5833 23.369 12ZM30.8726 15.1328C30.4924 15.1328 30.1486 15.0625 29.8413 14.9219C29.5341 14.7786 29.2906 14.5716 29.1109 14.3008C28.9338 14.0299 28.8453 13.6979 28.8453 13.3047C28.8453 12.9661 28.9104 12.6875 29.0406 12.4687C29.1708 12.25 29.3466 12.0768 29.5679 11.9492C29.7893 11.8216 30.0367 11.7253 30.3101 11.6602C30.5835 11.5951 30.8622 11.5456 31.146 11.5117C31.5054 11.4701 31.7971 11.4362 32.021 11.4102C32.245 11.3815 32.4078 11.3359 32.5093 11.2734C32.6109 11.2109 32.6617 11.1094 32.6617 10.9687V10.9414C32.6617 10.6003 32.5653 10.3359 32.3726 10.1484C32.1825 9.96094 31.8986 9.86719 31.521 9.86719C31.1278 9.86719 30.8179 9.95443 30.5913 10.1289C30.3674 10.3008 30.2124 10.4922 30.1265 10.7031L29.0288 10.4531C29.1591 10.0885 29.3492 9.79427 29.5992 9.57031C29.8518 9.34375 30.1421 9.17969 30.4703 9.07812C30.7984 8.97396 31.1434 8.92188 31.5054 8.92188C31.745 8.92188 31.9989 8.95052 32.2671 9.00781C32.538 9.0625 32.7906 9.16406 33.0249 9.3125C33.2619 9.46094 33.4559 9.67318 33.607 9.94922C33.758 10.2227 33.8335 10.5781 33.8335 11.0156V15H32.6929V14.1797H32.646C32.5705 14.3307 32.4572 14.4792 32.3062 14.625C32.1551 14.7708 31.9611 14.8919 31.7242 14.9883C31.4872 15.0846 31.2033 15.1328 30.8726 15.1328ZM31.1265 14.1953C31.4494 14.1953 31.7255 14.1315 31.9546 14.0039C32.1864 13.8763 32.3622 13.7096 32.482 13.5039C32.6044 13.2956 32.6656 13.0729 32.6656 12.8359V12.0625C32.6239 12.1042 32.5432 12.1432 32.4234 12.1797C32.3062 12.2135 32.1721 12.2435 32.021 12.2695C31.87 12.293 31.7229 12.3151 31.5796 12.3359C31.4364 12.3542 31.3166 12.3698 31.2203 12.3828C30.9937 12.4115 30.7867 12.4596 30.5992 12.5273C30.4143 12.5951 30.2658 12.6927 30.1538 12.8203C30.0445 12.9453 29.9898 13.112 29.9898 13.3203C29.9898 13.6094 30.0966 13.8281 30.3101 13.9766C30.5236 14.1224 30.7958 14.1953 31.1265 14.1953ZM36.0226 17.25C35.8482 17.25 35.6893 17.2357 35.5461 17.207C35.4028 17.181 35.2961 17.1523 35.2258 17.1211L35.507 16.1641C35.7206 16.2214 35.9107 16.2461 36.0773 16.2383C36.244 16.2305 36.3911 16.168 36.5187 16.0508C36.6489 15.9336 36.7635 15.7422 36.8625 15.4766L37.007 15.0781L34.8117 9H36.0617L37.5812 13.6562H37.6437L39.1633 9H40.4172L37.9445 15.8008C37.8299 16.1133 37.6841 16.3776 37.507 16.5938C37.3299 16.8125 37.119 16.9766 36.8742 17.0859C36.6294 17.1953 36.3456 17.25 36.0226 17.25ZM43.199 15.1328C42.8188 15.1328 42.4751 15.0625 42.1678 14.9219C41.8605 14.7786 41.617 14.5716 41.4373 14.3008C41.2602 14.0299 41.1717 13.6979 41.1717 13.3047C41.1717 12.9661 41.2368 12.6875 41.367 12.4687C41.4972 12.25 41.673 12.0768 41.8944 11.9492C42.1157 11.8216 42.3631 11.7253 42.6365 11.6602C42.91 11.5951 43.1886 11.5456 43.4725 11.5117C43.8319 11.4701 44.1235 11.4362 44.3475 11.4102C44.5714 11.3815 44.7342 11.3359 44.8358 11.2734C44.9373 11.2109 44.9881 11.1094 44.9881 10.9687V10.9414C44.9881 10.6003 44.8917 10.3359 44.699 10.1484C44.5089 9.96094 44.2251 9.86719 43.8475 9.86719C43.4542 9.86719 43.1444 9.95443 42.9178 10.1289C42.6938 10.3008 42.5389 10.4922 42.4529 10.7031L41.3553 10.4531C41.4855 10.0885 41.6756 9.79427 41.9256 9.57031C42.1782 9.34375 42.4686 9.17969 42.7967 9.07812C43.1248 8.97396 43.4699 8.92188 43.8319 8.92188C44.0714 8.92188 44.3253 8.95052 44.5936 9.00781C44.8644 9.0625 45.117 9.16406 45.3514 9.3125C45.5884 9.46094 45.7824 9.67318 45.9334 9.94922C46.0845 10.2227 46.16 10.5781 46.16 11.0156V15H45.0194V14.1797H44.9725C44.897 14.3307 44.7837 14.4792 44.6326 14.625C44.4816 14.7708 44.2876 14.8919 44.0506 14.9883C43.8136 15.0846 43.5298 15.1328 43.199 15.1328ZM43.4529 14.1953C43.7759 14.1953 44.0519 14.1315 44.2811 14.0039C44.5128 13.8763 44.6886 13.7096 44.8084 13.5039C44.9308 13.2956 44.992 13.0729 44.992 12.8359V12.0625C44.9503 12.1042 44.8696 12.1432 44.7498 12.1797C44.6326 12.2135 44.4985 12.2435 44.3475 12.2695C44.1964 12.293 44.0493 12.3151 43.9061 12.3359C43.7628 12.3542 43.6431 12.3698 43.5467 12.3828C43.3201 12.4115 43.1131 12.4596 42.9256 12.5273C42.7407 12.5951 42.5923 12.6927 42.4803 12.8203C42.3709 12.9453 42.3162 13.112 42.3162 13.3203C42.3162 13.6094 42.423 13.8281 42.6365 13.9766C42.8501 14.1224 43.1222 14.1953 43.4529 14.1953ZM47.8256 15V9H48.9546V9.95312H49.0171C49.1264 9.63021 49.3191 9.3763 49.5952 9.19141C49.8738 9.00391 50.1889 8.91016 50.5405 8.91016C50.6134 8.91016 50.6993 8.91276 50.7983 8.91797C50.8999 8.92318 50.9793 8.92969 51.0366 8.9375V10.0547C50.9897 10.0417 50.9064 10.0273 50.7866 10.0117C50.6668 9.99349 50.547 9.98437 50.4272 9.98437C50.1512 9.98437 49.9051 10.043 49.6889 10.1602C49.4754 10.2747 49.3061 10.4349 49.1811 10.6406C49.0561 10.8437 48.9936 11.0755 48.9936 11.3359V15H47.8256ZM53.2315 12.9648L53.2237 11.5391H53.4269L55.8175 9H57.2159L54.4894 11.8906H54.3058L53.2315 12.9648ZM52.1573 15V7H53.3253V15H52.1573ZM55.9464 15L53.798 12.1484L54.6026 11.332L57.38 15H55.9464ZM60.1365 15.1328C59.7563 15.1328 59.4125 15.0625 59.1052 14.9219C58.7979 14.7786 58.5544 14.5716 58.3747 14.3008C58.1977 14.0299 58.1091 13.6979 58.1091 13.3047C58.1091 12.9661 58.1742 12.6875 58.3044 12.4687C58.4346 12.25 58.6104 12.0768 58.8318 11.9492C59.0531 11.8216 59.3005 11.7253 59.574 11.6602C59.8474 11.5951 60.1261 11.5456 60.4099 11.5117C60.7693 11.4701 61.0609 11.4362 61.2849 11.4102C61.5089 11.3815 61.6716 11.3359 61.7732 11.2734C61.8747 11.2109 61.9255 11.1094 61.9255 10.9687V10.9414C61.9255 10.6003 61.8292 10.3359 61.6365 10.1484C61.4464 9.96094 61.1625 9.86719 60.7849 9.86719C60.3917 9.86719 60.0818 9.95443 59.8552 10.1289C59.6313 10.3008 59.4763 10.4922 59.3904 10.7031L58.2927 10.4531C58.4229 10.0885 58.613 9.79427 58.863 9.57031C59.1156 9.34375 59.406 9.17969 59.7341 9.07812C60.0622 8.97396 60.4073 8.92188 60.7693 8.92188C61.0089 8.92188 61.2628 8.95052 61.531 9.00781C61.8018 9.0625 62.0544 9.16406 62.2888 9.3125C62.5258 9.46094 62.7198 9.67318 62.8708 9.94922C63.0219 10.2227 63.0974 10.5781 63.0974 11.0156V15H61.9568V14.1797H61.9099C61.8344 14.3307 61.7211 14.4792 61.5701 14.625C61.419 14.7708 61.225 14.8919 60.988 14.9883C60.7511 15.0846 60.4672 15.1328 60.1365 15.1328ZM60.3904 14.1953C60.7133 14.1953 60.9893 14.1315 61.2185 14.0039C61.4503 13.8763 61.6261 13.7096 61.7458 13.5039C61.8682 13.2956 61.9294 13.0729 61.9294 12.8359V12.0625C61.8878 12.1042 61.807 12.1432 61.6872 12.1797C61.5701 12.2135 61.4359 12.2435 61.2849 12.2695C61.1339 12.293 60.9867 12.3151 60.8435 12.3359C60.7003 12.3542 60.5805 12.3698 60.4841 12.3828C60.2576 12.4115 60.0505 12.4596 59.863 12.5273C59.6781 12.5951 59.5297 12.6927 59.4177 12.8203C59.3083 12.9453 59.2537 13.112 59.2537 13.3203C59.2537 13.6094 59.3604 13.8281 59.574 13.9766C59.7875 14.1224 60.0596 14.1953 60.3904 14.1953ZM65.931 11.4375V15H64.7631V9H65.8842V9.97656H65.9584C66.0964 9.65885 66.3125 9.40365 66.6068 9.21094C66.9037 9.01823 67.2774 8.92188 67.7279 8.92188C68.1368 8.92188 68.4948 9.00781 68.8021 9.17969C69.1094 9.34896 69.3477 9.60156 69.517 9.9375C69.6862 10.2734 69.7709 10.6888 69.7709 11.1836V15H68.6029V11.3242C68.6029 10.8893 68.4896 10.5495 68.2631 10.3047C68.0365 10.0573 67.7253 9.93359 67.3295 9.93359C67.0586 9.93359 66.8178 9.99219 66.6068 10.1094C66.3985 10.2266 66.2331 10.3984 66.1107 10.625C65.9909 10.849 65.931 11.1198 65.931 11.4375Z" fill="#2FB182"/>
</svg>
