<svg width="57" height="21" viewBox="0 0 57 21" fill="none" xmlns="http://www.w3.org/2000/svg">
<rect width="57" height="21" rx="3" fill="#FFF7E6"/>
<path d="M11.143 15V7H13.9945C14.6169 7 15.1326 7.11328 15.5414 7.33984C15.9503 7.56641 16.2563 7.8763 16.4594 8.26953C16.6625 8.66016 16.7641 9.10026 16.7641 9.58984C16.7641 10.082 16.6612 10.5247 16.4555 10.918C16.2523 11.3086 15.9451 11.6185 15.5336 11.8477C15.1247 12.0742 14.6104 12.1875 13.9906 12.1875H12.0297V11.1641H13.8813C14.2745 11.1641 14.5935 11.0964 14.8383 10.9609C15.0831 10.8229 15.2628 10.6354 15.3773 10.3984C15.4919 10.1615 15.5492 9.89193 15.5492 9.58984C15.5492 9.28776 15.4919 9.01953 15.3773 8.78516C15.2628 8.55078 15.0818 8.36719 14.8344 8.23438C14.5896 8.10156 14.2667 8.03516 13.8656 8.03516H12.35V15H11.143ZM18.1954 15V9H19.3243V9.95312H19.3868C19.4961 9.63021 19.6888 9.3763 19.9649 9.19141C20.2435 9.00391 20.5586 8.91016 20.9102 8.91016C20.9831 8.91016 21.0691 8.91276 21.168 8.91797C21.2696 8.92318 21.349 8.92969 21.4063 8.9375V10.0547C21.3594 10.0417 21.2761 10.0273 21.1563 10.0117C21.0365 9.99349 20.9167 9.98437 20.7969 9.98437C20.5209 9.98437 20.2748 10.043 20.0586 10.1602C19.8451 10.2747 19.6758 10.4349 19.5508 10.6406C19.4258 10.8437 19.3633 11.0755 19.3633 11.3359V15H18.1954ZM24.8395 15.1211C24.277 15.1211 23.7861 14.9922 23.3669 14.7344C22.9476 14.4766 22.6221 14.1159 22.3903 13.6523C22.1585 13.1888 22.0427 12.6471 22.0427 12.0273C22.0427 11.4049 22.1585 10.8607 22.3903 10.3945C22.6221 9.92839 22.9476 9.56641 23.3669 9.30859C23.7861 9.05078 24.277 8.92188 24.8395 8.92188C25.402 8.92188 25.8929 9.05078 26.3122 9.30859C26.7315 9.56641 27.057 9.92839 27.2888 10.3945C27.5205 10.8607 27.6364 11.4049 27.6364 12.0273C27.6364 12.6471 27.5205 13.1888 27.2888 13.6523C27.057 14.1159 26.7315 14.4766 26.3122 14.7344C25.8929 14.9922 25.402 15.1211 24.8395 15.1211ZM24.8434 14.1406C25.208 14.1406 25.5101 14.0443 25.7497 13.8516C25.9893 13.6589 26.1664 13.4023 26.2809 13.082C26.3981 12.7617 26.4567 12.4089 26.4567 12.0234C26.4567 11.6406 26.3981 11.2891 26.2809 10.9687C26.1664 10.6458 25.9893 10.3867 25.7497 10.1914C25.5101 9.99609 25.208 9.89844 24.8434 9.89844C24.4763 9.89844 24.1716 9.99609 23.9294 10.1914C23.6898 10.3867 23.5114 10.6458 23.3942 10.9687C23.2796 11.2891 23.2223 11.6406 23.2223 12.0234C23.2223 12.4089 23.2796 12.7617 23.3942 13.082C23.5114 13.4023 23.6898 13.6589 23.9294 13.8516C24.1716 14.0443 24.4763 14.1406 24.8434 14.1406ZM33.5462 10.4648L32.4876 10.6523C32.4433 10.5169 32.373 10.388 32.2767 10.2656C32.1829 10.1432 32.0553 10.043 31.8939 9.96484C31.7324 9.88672 31.5306 9.84766 31.2884 9.84766C30.9577 9.84766 30.6816 9.92187 30.4603 10.0703C30.2389 10.2161 30.1282 10.4049 30.1282 10.6367C30.1282 10.8372 30.2025 10.9987 30.3509 11.1211C30.4993 11.2435 30.7389 11.3437 31.0696 11.4219L32.0228 11.6406C32.5749 11.7682 32.9863 11.9648 33.2571 12.2305C33.528 12.4961 33.6634 12.8411 33.6634 13.2656C33.6634 13.625 33.5592 13.9453 33.3509 14.2266C33.1452 14.5052 32.8574 14.724 32.4876 14.8828C32.1204 15.0417 31.6946 15.1211 31.2103 15.1211C30.5384 15.1211 29.9902 14.9779 29.5657 14.6914C29.1413 14.4023 28.8808 13.9922 28.7845 13.4609L29.9134 13.2891C29.9837 13.5833 30.1282 13.806 30.347 13.957C30.5657 14.1055 30.8509 14.1797 31.2025 14.1797C31.5853 14.1797 31.8913 14.1003 32.1204 13.9414C32.3496 13.7799 32.4642 13.5833 32.4642 13.3516C32.4642 13.1641 32.3939 13.0065 32.2532 12.8789C32.1152 12.7513 31.903 12.6549 31.6165 12.5898L30.6009 12.3672C30.041 12.2396 29.6269 12.0365 29.3587 11.7578C29.0931 11.4792 28.9603 11.1263 28.9603 10.6992C28.9603 10.3451 29.0592 10.0352 29.2571 9.76953C29.4551 9.50391 29.7285 9.29687 30.0775 9.14844C30.4264 8.9974 30.8262 8.92188 31.2767 8.92188C31.9251 8.92188 32.4355 9.0625 32.8079 9.34375C33.1803 9.6224 33.4264 9.99609 33.5462 10.4648ZM37.6435 15.1211C37.0524 15.1211 36.5433 14.9948 36.1162 14.7422C35.6917 14.487 35.3636 14.1289 35.1318 13.668C34.9026 13.2044 34.788 12.6615 34.788 12.0391C34.788 11.4245 34.9026 10.8828 35.1318 10.4141C35.3636 9.94531 35.6865 9.57943 36.1005 9.31641C36.5172 9.05339 37.0042 8.92188 37.5615 8.92188C37.9 8.92188 38.2282 8.97786 38.5459 9.08984C38.8636 9.20182 39.1487 9.3776 39.4013 9.61719C39.6539 9.85677 39.8532 10.168 39.999 10.5508C40.1448 10.931 40.2177 11.3932 40.2177 11.9375V12.3516H35.4482V11.4766H39.0732C39.0732 11.1693 39.0107 10.8971 38.8857 10.6602C38.7607 10.4206 38.5849 10.2318 38.3584 10.0937C38.1344 9.95573 37.8714 9.88672 37.5693 9.88672C37.2412 9.88672 36.9547 9.96745 36.7099 10.1289C36.4677 10.2878 36.2802 10.4961 36.1474 10.7539C36.0172 11.0091 35.9521 11.2865 35.9521 11.5859V12.2695C35.9521 12.6706 36.0224 13.0117 36.163 13.293C36.3063 13.5742 36.5055 13.7891 36.7607 13.9375C37.0159 14.0833 37.3141 14.1562 37.6552 14.1562C37.8766 14.1562 38.0784 14.125 38.2607 14.0625C38.443 13.9974 38.6005 13.901 38.7334 13.7734C38.8662 13.6458 38.9677 13.4883 39.038 13.3008L40.1435 13.5C40.055 13.8255 39.8961 14.1107 39.667 14.3555C39.4404 14.5977 39.1552 14.7865 38.8115 14.9219C38.4703 15.0547 38.081 15.1211 37.6435 15.1211ZM46.1197 10.4648L45.0611 10.6523C45.0169 10.5169 44.9465 10.388 44.8502 10.2656C44.7564 10.1432 44.6288 10.043 44.4674 9.96484C44.3059 9.88672 44.1041 9.84766 43.8619 9.84766C43.5312 9.84766 43.2551 9.92187 43.0338 10.0703C42.8124 10.2161 42.7018 10.4049 42.7018 10.6367C42.7018 10.8372 42.776 10.9987 42.9244 11.1211C43.0729 11.2435 43.3124 11.3437 43.6432 11.4219L44.5963 11.6406C45.1484 11.7682 45.5598 11.9648 45.8307 12.2305C46.1015 12.4961 46.2369 12.8411 46.2369 13.2656C46.2369 13.625 46.1327 13.9453 45.9244 14.2266C45.7187 14.5052 45.4309 14.724 45.0611 14.8828C44.6939 15.0417 44.2682 15.1211 43.7838 15.1211C43.1119 15.1211 42.5637 14.9779 42.1393 14.6914C41.7148 14.4023 41.4544 13.9922 41.358 13.4609L42.4869 13.2891C42.5572 13.5833 42.7018 13.806 42.9205 13.957C43.1393 14.1055 43.4244 14.1797 43.776 14.1797C44.1588 14.1797 44.4648 14.1003 44.6939 13.9414C44.9231 13.7799 45.0377 13.5833 45.0377 13.3516C45.0377 13.1641 44.9674 13.0065 44.8268 12.8789C44.6887 12.7513 44.4765 12.6549 44.19 12.5898L43.1744 12.3672C42.6145 12.2396 42.2005 12.0365 41.9322 11.7578C41.6666 11.4792 41.5338 11.1263 41.5338 10.6992C41.5338 10.3451 41.6327 10.0352 41.8307 9.76953C42.0286 9.50391 42.302 9.29687 42.651 9.14844C42.9999 8.9974 43.3997 8.92188 43.8502 8.92188C44.4986 8.92188 45.009 9.0625 45.3814 9.34375C45.7538 9.6224 45.9999 9.99609 46.1197 10.4648Z" fill="#FFAE00"/>
</svg>
