<svg width="67" height="21" viewBox="0 0 67 21" fill="none" xmlns="http://www.w3.org/2000/svg">
<rect width="67" height="21" rx="3" fill="#EBF9F4"/>
<path d="M13.6855 15H11.0956V7H13.7675C14.5514 7 15.2246 7.16016 15.7871 7.48047C16.3496 7.79818 16.7805 8.25521 17.08 8.85156C17.3821 9.44531 17.5331 10.1576 17.5331 10.9883C17.5331 11.8216 17.3808 12.5378 17.0761 13.1367C16.774 13.7357 16.3365 14.1966 15.7636 14.5195C15.1907 14.8398 14.498 15 13.6855 15ZM12.3027 13.9453H13.6191C14.2285 13.9453 14.735 13.8307 15.1386 13.6016C15.5423 13.3698 15.8443 13.0352 16.0449 12.5977C16.2454 12.1576 16.3456 11.6211 16.3456 10.9883C16.3456 10.3607 16.2454 9.82812 16.0449 9.39062C15.8469 8.95312 15.5514 8.62109 15.1581 8.39453C14.7649 8.16797 14.2766 8.05469 13.6933 8.05469H12.3027V13.9453ZM19.0504 15V9H20.2183V15H19.0504ZM19.6402 8.07422C19.4371 8.07422 19.2626 8.00651 19.1168 7.87109C18.9735 7.73307 18.9019 7.56901 18.9019 7.37891C18.9019 7.1862 18.9735 7.02214 19.1168 6.88672C19.2626 6.7487 19.4371 6.67969 19.6402 6.67969C19.8433 6.67969 20.0165 6.7487 20.1597 6.88672C20.3056 7.02214 20.3785 7.1862 20.3785 7.37891C20.3785 7.56901 20.3056 7.73307 20.1597 7.87109C20.0165 8.00651 19.8433 8.07422 19.6402 8.07422ZM26.3957 10.4648L25.3371 10.6523C25.2929 10.5169 25.2225 10.388 25.1262 10.2656C25.0324 10.1432 24.9048 10.043 24.7434 9.96484C24.5819 9.88672 24.3801 9.84766 24.1379 9.84766C23.8072 9.84766 23.5311 9.92187 23.3098 10.0703C23.0884 10.2161 22.9778 10.4049 22.9778 10.6367C22.9778 10.8372 23.052 10.9987 23.2004 11.1211C23.3488 11.2435 23.5884 11.3437 23.9192 11.4219L24.8723 11.6406C25.4244 11.7682 25.8358 11.9648 26.1067 12.2305C26.3775 12.4961 26.5129 12.8411 26.5129 13.2656C26.5129 13.625 26.4087 13.9453 26.2004 14.2266C25.9947 14.5052 25.7069 14.724 25.3371 14.8828C24.9699 15.0417 24.5442 15.1211 24.0598 15.1211C23.3879 15.1211 22.8397 14.9779 22.4153 14.6914C21.9908 14.4023 21.7304 13.9922 21.634 13.4609L22.7629 13.2891C22.8332 13.5833 22.9778 13.806 23.1965 13.957C23.4153 14.1055 23.7004 14.1797 24.052 14.1797C24.4348 14.1797 24.7408 14.1003 24.9699 13.9414C25.1991 13.7799 25.3137 13.5833 25.3137 13.3516C25.3137 13.1641 25.2434 13.0065 25.1028 12.8789C24.9647 12.7513 24.7525 12.6549 24.466 12.5898L23.4504 12.3672C22.8905 12.2396 22.4765 12.0365 22.2082 11.7578C21.9426 11.4792 21.8098 11.1263 21.8098 10.6992C21.8098 10.3451 21.9087 10.0352 22.1067 9.76953C22.3046 9.50391 22.578 9.29687 22.927 9.14844C23.2759 8.9974 23.6757 8.92188 24.1262 8.92188C24.7746 8.92188 25.285 9.0625 25.6574 9.34375C26.0298 9.6224 26.2759 9.99609 26.3957 10.4648ZM30.493 15.1211C29.9019 15.1211 29.3928 14.9948 28.9657 14.7422C28.5412 14.487 28.2131 14.1289 27.9813 13.668C27.7521 13.2044 27.6376 12.6615 27.6376 12.0391C27.6376 11.4245 27.7521 10.8828 27.9813 10.4141C28.2131 9.94531 28.536 9.57943 28.9501 9.31641C29.3667 9.05339 29.8537 8.92188 30.411 8.92188C30.7495 8.92188 31.0777 8.97786 31.3954 9.08984C31.7131 9.20182 31.9982 9.3776 32.2508 9.61719C32.5034 9.85677 32.7027 10.168 32.8485 10.5508C32.9943 10.931 33.0672 11.3932 33.0672 11.9375V12.3516H28.2977V11.4766H31.9227C31.9227 11.1693 31.8602 10.8971 31.7352 10.6602C31.6102 10.4206 31.4344 10.2318 31.2079 10.0937C30.9839 9.95573 30.7209 9.88672 30.4188 9.88672C30.0907 9.88672 29.8042 9.96745 29.5594 10.1289C29.3172 10.2878 29.1297 10.4961 28.9969 10.7539C28.8667 11.0091 28.8016 11.2865 28.8016 11.5859V12.2695C28.8016 12.6706 28.8719 13.0117 29.0126 13.293C29.1558 13.5742 29.355 13.7891 29.6102 13.9375C29.8654 14.0833 30.1636 14.1562 30.5047 14.1562C30.7261 14.1562 30.9279 14.125 31.1102 14.0625C31.2925 13.9974 31.4501 13.901 31.5829 13.7734C31.7157 13.6458 31.8172 13.4883 31.8876 13.3008L32.993 13.5C32.9045 13.8255 32.7456 14.1107 32.5165 14.3555C32.2899 14.5977 32.0047 14.7865 31.661 14.9219C31.3198 15.0547 30.9305 15.1211 30.493 15.1211ZM37.2739 9V9.9375H33.9966V9H37.2739ZM34.8755 7.5625H36.0435V13.2383C36.0435 13.4648 36.0773 13.6354 36.145 13.75C36.2127 13.862 36.3 13.9388 36.4067 13.9805C36.5161 14.0195 36.6346 14.0391 36.7622 14.0391C36.856 14.0391 36.938 14.0326 37.0083 14.0195C37.0786 14.0065 37.1333 13.9961 37.1724 13.9883L37.3833 14.9531C37.3156 14.9792 37.2192 15.0052 37.0942 15.0313C36.9692 15.0599 36.813 15.0755 36.6255 15.0781C36.3182 15.0833 36.0317 15.0286 35.7661 14.9141C35.5005 14.7995 35.2856 14.6224 35.1216 14.3828C34.9575 14.1432 34.8755 13.8424 34.8755 13.4805V7.5625ZM42.4767 12.5117V9H43.6486V15H42.5001V13.9609H42.4376C42.2996 14.2813 42.0783 14.5482 41.7736 14.7617C41.4715 14.9727 41.0952 15.0781 40.6447 15.0781C40.2593 15.0781 39.9181 14.9935 39.6212 14.8242C39.327 14.6523 39.0952 14.3984 38.9259 14.0625C38.7593 13.7266 38.6759 13.3112 38.6759 12.8164V9H39.8439V12.6758C39.8439 13.0846 39.9572 13.4102 40.1837 13.6523C40.4103 13.8945 40.7046 14.0156 41.0665 14.0156C41.2853 14.0156 41.5027 13.9609 41.7189 13.8516C41.9376 13.7422 42.1186 13.5768 42.2619 13.3555C42.4077 13.1341 42.4793 12.8529 42.4767 12.5117ZM45.3279 9H46.4959V15.3906C46.4959 15.7917 46.423 16.1302 46.2771 16.4062C46.1339 16.6823 45.9204 16.8919 45.6365 17.0352C45.3553 17.1784 45.0076 17.25 44.5935 17.25C44.5519 17.25 44.5128 17.25 44.4763 17.25C44.4373 17.25 44.3969 17.2487 44.3553 17.2461V16.2422C44.3917 16.2422 44.4243 16.2422 44.4529 16.2422C44.479 16.2422 44.5089 16.2422 44.5428 16.2422C44.8188 16.2422 45.018 16.168 45.1404 16.0195C45.2654 15.8737 45.3279 15.6615 45.3279 15.3828V9ZM45.906 8.07422C45.7029 8.07422 45.5284 8.00651 45.3826 7.87109C45.2394 7.73307 45.1678 7.56901 45.1678 7.37891C45.1678 7.1862 45.2394 7.02214 45.3826 6.88672C45.5284 6.7487 45.7029 6.67969 45.906 6.67969C46.1092 6.67969 46.2823 6.7487 46.4256 6.88672C46.5714 7.02214 46.6443 7.1862 46.6443 7.37891C46.6443 7.56901 46.5714 7.73307 46.4256 7.87109C46.2823 8.00651 46.1092 8.07422 45.906 8.07422ZM51.978 12.5117V9H53.1498V15H52.0014V13.9609H51.9389C51.8009 14.2813 51.5795 14.5482 51.2748 14.7617C50.9727 14.9727 50.5964 15.0781 50.1459 15.0781C49.7605 15.0781 49.4194 14.9935 49.1225 14.8242C48.8282 14.6523 48.5964 14.3984 48.4272 14.0625C48.2605 13.7266 48.1772 13.3112 48.1772 12.8164V9H49.3451V12.6758C49.3451 13.0846 49.4584 13.4102 49.685 13.6523C49.9115 13.8945 50.2058 14.0156 50.5678 14.0156C50.7865 14.0156 51.004 13.9609 51.2201 13.8516C51.4389 13.7422 51.6199 13.5768 51.7631 13.3555C51.9089 13.1341 51.9806 12.8529 51.978 12.5117ZM54.8292 15V9H55.9971V15H54.8292ZM55.419 8.07422C55.2159 8.07422 55.0414 8.00651 54.8956 7.87109C54.7523 7.73307 54.6807 7.56901 54.6807 7.37891C54.6807 7.1862 54.7523 7.02214 54.8956 6.88672C55.0414 6.7487 55.2159 6.67969 55.419 6.67969C55.6221 6.67969 55.7953 6.7487 55.9385 6.88672C56.0844 7.02214 56.1573 7.1862 56.1573 7.37891C56.1573 7.56901 56.0844 7.73307 55.9385 7.87109C55.7953 8.00651 55.6221 8.07422 55.419 8.07422Z" fill="#2FB182"/>
</svg>
