<svg width="74" height="21" viewBox="0 0 74 21" fill="none" xmlns="http://www.w3.org/2000/svg">
<rect width="74" height="21" rx="3" fill="#FFF7E6"/>
<path d="M10.5756 8.03906V7H16.767V8.03906H14.2709V15H13.0678V8.03906H10.5756ZM19.8673 15.1211C19.2761 15.1211 18.767 14.9948 18.3399 14.7422C17.9154 14.487 17.5873 14.1289 17.3555 13.668C17.1264 13.2044 17.0118 12.6615 17.0118 12.0391C17.0118 11.4245 17.1264 10.8828 17.3555 10.4141C17.5873 9.94531 17.9102 9.57943 18.3243 9.31641C18.741 9.05339 19.2279 8.92188 19.7852 8.92188C20.1238 8.92188 20.4519 8.97786 20.7696 9.08984C21.0873 9.20182 21.3725 9.3776 21.6251 9.61719C21.8777 9.85677 22.0769 10.168 22.2227 10.5508C22.3686 10.931 22.4415 11.3932 22.4415 11.9375V12.3516H17.672V11.4766H21.297C21.297 11.1693 21.2345 10.8971 21.1095 10.6602C20.9845 10.4206 20.8087 10.2318 20.5821 10.0937C20.3582 9.95573 20.0951 9.88672 19.793 9.88672C19.4649 9.88672 19.1785 9.96745 18.9337 10.1289C18.6915 10.2878 18.504 10.4961 18.3712 10.7539C18.241 11.0091 18.1759 11.2865 18.1759 11.5859V12.2695C18.1759 12.6706 18.2462 13.0117 18.3868 13.293C18.53 13.5742 18.7292 13.7891 18.9845 13.9375C19.2397 14.0833 19.5378 14.1562 19.879 14.1562C20.1003 14.1562 20.3022 14.125 20.4845 14.0625C20.6667 13.9974 20.8243 13.901 20.9571 13.7734C21.0899 13.6458 21.1915 13.4883 21.2618 13.3008L22.3673 13.5C22.2787 13.8255 22.1199 14.1107 21.8907 14.3555C21.6641 14.5977 21.379 14.7865 21.0352 14.9219C20.6941 15.0547 20.3048 15.1211 19.8673 15.1211ZM23.8474 15V9H24.9763V9.95312H25.0388C25.1482 9.63021 25.3409 9.3763 25.6169 9.19141C25.8956 9.00391 26.2107 8.91016 26.5622 8.91016C26.6351 8.91016 26.7211 8.91276 26.82 8.91797C26.9216 8.92318 27.001 8.92969 27.0583 8.9375V10.0547C27.0114 10.0417 26.9281 10.0273 26.8083 10.0117C26.6885 9.99349 26.5687 9.98437 26.4489 9.98437C26.1729 9.98437 25.9268 10.043 25.7107 10.1602C25.4971 10.2747 25.3279 10.4349 25.2029 10.6406C25.0779 10.8437 25.0154 11.0755 25.0154 11.3359V15H23.8474ZM29.347 7V15H28.1791V7H29.347ZM32.7744 15.1328C32.3942 15.1328 32.0505 15.0625 31.7432 14.9219C31.4359 14.7786 31.1924 14.5716 31.0127 14.3008C30.8356 14.0299 30.7471 13.6979 30.7471 13.3047C30.7471 12.9661 30.8122 12.6875 30.9424 12.4687C31.0726 12.25 31.2484 12.0768 31.4697 11.9492C31.6911 11.8216 31.9385 11.7253 32.2119 11.6602C32.4854 11.5951 32.764 11.5456 33.0479 11.5117C33.4072 11.4701 33.6989 11.4362 33.9229 11.4102C34.1468 11.3815 34.3096 11.3359 34.4111 11.2734C34.5127 11.2109 34.5635 11.1094 34.5635 10.9687V10.9414C34.5635 10.6003 34.4671 10.3359 34.2744 10.1484C34.0843 9.96094 33.8005 9.86719 33.4229 9.86719C33.0296 9.86719 32.7197 9.95443 32.4932 10.1289C32.2692 10.3008 32.1143 10.4922 32.0283 10.7031L30.9307 10.4531C31.0609 10.0885 31.251 9.79427 31.501 9.57031C31.7536 9.34375 32.0439 9.17969 32.3721 9.07812C32.7002 8.97396 33.0452 8.92188 33.4072 8.92188C33.6468 8.92188 33.9007 8.95052 34.1689 9.00781C34.4398 9.0625 34.6924 9.16406 34.9268 9.3125C35.1637 9.46094 35.3577 9.67318 35.5088 9.94922C35.6598 10.2227 35.7354 10.5781 35.7354 11.0156V15H34.5947V14.1797H34.5479C34.4723 14.3307 34.359 14.4792 34.208 14.625C34.057 14.7708 33.863 14.8919 33.626 14.9883C33.389 15.0846 33.1051 15.1328 32.7744 15.1328ZM33.0283 14.1953C33.3512 14.1953 33.6273 14.1315 33.8564 14.0039C34.0882 13.8763 34.264 13.7096 34.3838 13.5039C34.5062 13.2956 34.5674 13.0729 34.5674 12.8359V12.0625C34.5257 12.1042 34.445 12.1432 34.3252 12.1797C34.208 12.2135 34.0739 12.2435 33.9229 12.2695C33.7718 12.293 33.6247 12.3151 33.4814 12.3359C33.3382 12.3542 33.2184 12.3698 33.1221 12.3828C32.8955 12.4115 32.6885 12.4596 32.501 12.5273C32.3161 12.5951 32.1676 12.6927 32.0557 12.8203C31.9463 12.9453 31.8916 13.112 31.8916 13.3203C31.8916 13.6094 31.9984 13.8281 32.2119 13.9766C32.4255 14.1224 32.6976 14.1953 33.0283 14.1953ZM37.401 15V9H38.5221V9.97656H38.5963C38.7213 9.64583 38.9258 9.38802 39.2096 9.20313C39.4935 9.01563 39.8333 8.92188 40.2291 8.92188C40.6302 8.92188 40.9661 9.01563 41.237 9.20313C41.5104 9.39062 41.7122 9.64844 41.8424 9.97656H41.9049C42.0481 9.65625 42.276 9.40104 42.5885 9.21094C42.901 9.01823 43.2734 8.92188 43.7057 8.92188C44.25 8.92188 44.694 9.09245 45.0377 9.43359C45.3841 9.77474 45.5573 10.2891 45.5573 10.9766V15H44.3893V11.0859C44.3893 10.6797 44.2786 10.3854 44.0573 10.2031C43.8359 10.0208 43.5716 9.92969 43.2643 9.92969C42.8841 9.92969 42.5885 10.0469 42.3776 10.2812C42.1666 10.513 42.0612 10.8112 42.0612 11.1758V15H40.8971V11.0117C40.8971 10.6862 40.7955 10.4245 40.5924 10.2266C40.3893 10.0286 40.125 9.92969 39.7995 9.92969C39.5781 9.92969 39.3737 9.98828 39.1862 10.1055C39.0013 10.2201 38.8515 10.3802 38.737 10.5859C38.625 10.7917 38.569 11.0299 38.569 11.3008V15H37.401ZM47.3264 15V7H48.4944V9.97266H48.5647C48.6324 9.84766 48.7301 9.70312 48.8577 9.53906C48.9853 9.375 49.1624 9.23177 49.3889 9.10937C49.6155 8.98438 49.915 8.92188 50.2874 8.92188C50.7718 8.92188 51.2041 9.04427 51.5843 9.28906C51.9645 9.53385 52.2626 9.88672 52.4788 10.3477C52.6975 10.8086 52.8069 11.3633 52.8069 12.0117C52.8069 12.6602 52.6988 13.2161 52.4827 13.6797C52.2666 14.1406 51.9697 14.4961 51.5921 14.7461C51.2145 14.9935 50.7835 15.1172 50.2991 15.1172C49.9345 15.1172 49.6363 15.056 49.4046 14.9336C49.1754 14.8112 48.9957 14.668 48.8655 14.5039C48.7353 14.3398 48.635 14.194 48.5647 14.0664H48.4671V15H47.3264ZM48.471 12C48.471 12.4219 48.5322 12.7917 48.6546 13.1094C48.777 13.4271 48.9541 13.6758 49.1858 13.8555C49.4176 14.0326 49.7014 14.1211 50.0374 14.1211C50.3863 14.1211 50.678 14.0286 50.9124 13.8437C51.1468 13.6562 51.3238 13.4023 51.4436 13.082C51.566 12.7617 51.6272 12.401 51.6272 12C51.6272 11.6042 51.5673 11.2487 51.4475 10.9336C51.3304 10.6185 51.1533 10.3698 50.9163 10.1875C50.6819 10.0052 50.3889 9.91406 50.0374 9.91406C49.6988 9.91406 49.4124 10.0013 49.178 10.1758C48.9462 10.3503 48.7705 10.5937 48.6507 10.9062C48.5309 11.2187 48.471 11.5833 48.471 12ZM55.9745 15.1328C55.5943 15.1328 55.2506 15.0625 54.9433 14.9219C54.636 14.7786 54.3925 14.5716 54.2128 14.3008C54.0357 14.0299 53.9472 13.6979 53.9472 13.3047C53.9472 12.9661 54.0123 12.6875 54.1425 12.4687C54.2727 12.25 54.4485 12.0768 54.6698 11.9492C54.8912 11.8216 55.1386 11.7253 55.412 11.6602C55.6855 11.5951 55.9641 11.5456 56.248 11.5117C56.6073 11.4701 56.899 11.4362 57.123 11.4102C57.3469 11.3815 57.5097 11.3359 57.6113 11.2734C57.7128 11.2109 57.7636 11.1094 57.7636 10.9687V10.9414C57.7636 10.6003 57.6672 10.3359 57.4745 10.1484C57.2844 9.96094 57.0006 9.86719 56.623 9.86719C56.2297 9.86719 55.9198 9.95443 55.6933 10.1289C55.4693 10.3008 55.3144 10.4922 55.2284 10.7031L54.1308 10.4531C54.261 10.0885 54.4511 9.79427 54.7011 9.57031C54.9537 9.34375 55.2441 9.17969 55.5722 9.07812C55.9003 8.97396 56.2454 8.92188 56.6073 8.92188C56.8469 8.92188 57.1008 8.95052 57.3691 9.00781C57.6399 9.0625 57.8925 9.16406 58.1269 9.3125C58.3639 9.46094 58.5579 9.67318 58.7089 9.94922C58.8599 10.2227 58.9355 10.5781 58.9355 11.0156V15H57.7948V14.1797H57.748C57.6724 14.3307 57.5592 14.4792 57.4081 14.625C57.2571 14.7708 57.0631 14.8919 56.8261 14.9883C56.5891 15.0846 56.3053 15.1328 55.9745 15.1328ZM56.2284 14.1953C56.5514 14.1953 56.8274 14.1315 57.0566 14.0039C57.2883 13.8763 57.4641 13.7096 57.5839 13.5039C57.7063 13.2956 57.7675 13.0729 57.7675 12.8359V12.0625C57.7258 12.1042 57.6451 12.1432 57.5253 12.1797C57.4081 12.2135 57.274 12.2435 57.123 12.2695C56.9719 12.293 56.8248 12.3151 56.6816 12.3359C56.5383 12.3542 56.4185 12.3698 56.3222 12.3828C56.0956 12.4115 55.8886 12.4596 55.7011 12.5273C55.5162 12.5951 55.3678 12.6927 55.2558 12.8203C55.1464 12.9453 55.0917 13.112 55.0917 13.3203C55.0917 13.6094 55.1985 13.8281 55.412 13.9766C55.6256 14.1224 55.8977 14.1953 56.2284 14.1953ZM63.4019 9V9.9375H60.1246V9H63.4019ZM61.0035 7.5625H62.1714V13.2383C62.1714 13.4648 62.2053 13.6354 62.273 13.75C62.3407 13.862 62.428 13.9388 62.5347 13.9805C62.6441 14.0195 62.7626 14.0391 62.8902 14.0391C62.9839 14.0391 63.066 14.0326 63.1363 14.0195C63.2066 14.0065 63.2613 13.9961 63.3004 13.9883L63.5113 14.9531C63.4436 14.9792 63.3472 15.0052 63.2222 15.0313C63.0972 15.0599 62.941 15.0755 62.7535 15.0781C62.4462 15.0833 62.1597 15.0286 61.8941 14.9141C61.6285 14.7995 61.4136 14.6224 61.2496 14.3828C61.0855 14.1432 61.0035 13.8424 61.0035 13.4805V7.5625Z" fill="#FFAE00"/>
</svg>
