<svg width="46" height="21" viewBox="0 0 46 21" fill="none" xmlns="http://www.w3.org/2000/svg">
<rect width="46" height="21" rx="3" fill="#EBF9F4"/>
<path d="M11.9758 15H10.6946L13.5735 7H14.968L17.8469 15H16.5656L14.3039 8.45312H14.2414L11.9758 15ZM12.1906 11.8672H16.3469V12.8828H12.1906V11.8672ZM20.0926 12.9648L20.0848 11.5391H20.2879L22.6786 9H24.077L21.3504 11.8906H21.1669L20.0926 12.9648ZM19.0184 15V7H20.1864V15H19.0184ZM22.8075 15L20.659 12.1484L21.4637 11.332L24.2411 15H22.8075ZM28.0522 9V9.9375H24.7749V9H28.0522ZM25.6538 7.5625H26.8218V13.2383C26.8218 13.4648 26.8556 13.6354 26.9233 13.75C26.991 13.862 27.0783 13.9388 27.1851 13.9805C27.2944 14.0195 27.4129 14.0391 27.5405 14.0391C27.6343 14.0391 27.7163 14.0326 27.7866 14.0195C27.8569 14.0065 27.9116 13.9961 27.9507 13.9883L28.1616 14.9531C28.0939 14.9792 27.9976 15.0052 27.8726 15.0313C27.7476 15.0599 27.5913 15.0755 27.4038 15.0781C27.0965 15.0833 26.8101 15.0286 26.5444 14.9141C26.2788 14.7995 26.064 14.6224 25.8999 14.3828C25.7358 14.1432 25.6538 13.8424 25.6538 13.4805V7.5625ZM29.4542 15V9H30.6222V15H29.4542ZM30.0441 8.07422C29.841 8.07422 29.6665 8.00651 29.5206 7.87109C29.3774 7.73307 29.3058 7.56901 29.3058 7.37891C29.3058 7.1862 29.3774 7.02214 29.5206 6.88672C29.6665 6.7487 29.841 6.67969 30.0441 6.67969C30.2472 6.67969 30.4204 6.7487 30.5636 6.88672C30.7094 7.02214 30.7824 7.1862 30.7824 7.37891C30.7824 7.56901 30.7094 7.73307 30.5636 7.87109C30.4204 8.00651 30.2472 8.07422 30.0441 8.07422ZM35.159 9V9.9375H31.7683V9H35.159ZM32.698 15V8.30469C32.698 7.92969 32.7801 7.61849 32.9441 7.37109C33.1082 7.12109 33.3256 6.9349 33.5965 6.8125C33.8673 6.6875 34.1616 6.625 34.4793 6.625C34.7137 6.625 34.9142 6.64453 35.0808 6.68359C35.2475 6.72005 35.3712 6.75391 35.4519 6.78516L35.1785 7.73047C35.1238 7.71484 35.0535 7.69661 34.9676 7.67578C34.8816 7.65234 34.7775 7.64062 34.6551 7.64062C34.3712 7.64062 34.1681 7.71094 34.0457 7.85156C33.9259 7.99219 33.866 8.19531 33.866 8.46094V15H32.698Z" fill="#2FB182"/>
</svg>
