<svg width="59" height="21" viewBox="0 0 59 21" fill="none" xmlns="http://www.w3.org/2000/svg">
<rect width="59" height="21" rx="3" fill="#EBF9F4"/>
<path d="M15.5972 9.10156C15.5556 8.73177 15.3837 8.44531 15.0816 8.24219C14.7795 8.03646 14.3993 7.93359 13.941 7.93359C13.6129 7.93359 13.329 7.98568 13.0894 8.08984C12.8499 8.19141 12.6637 8.33203 12.5308 8.51172C12.4006 8.6888 12.3355 8.89062 12.3355 9.11719C12.3355 9.30729 12.3798 9.47135 12.4683 9.60937C12.5595 9.7474 12.678 9.86328 12.8238 9.95703C12.9722 10.0482 13.1311 10.125 13.3004 10.1875C13.4696 10.2474 13.6324 10.2969 13.7887 10.3359L14.5699 10.5391C14.8251 10.6016 15.0868 10.6862 15.3551 10.793C15.6233 10.8997 15.872 11.0404 16.1012 11.2148C16.3303 11.3893 16.5152 11.6055 16.6558 11.8633C16.7991 12.1211 16.8707 12.4297 16.8707 12.7891C16.8707 13.2422 16.7535 13.6445 16.5191 13.9961C16.2874 14.3477 15.9501 14.625 15.5074 14.8281C15.0673 15.0313 14.5347 15.1328 13.9097 15.1328C13.3108 15.1328 12.7926 15.0378 12.3551 14.8477C11.9176 14.6576 11.5751 14.388 11.3277 14.0391C11.0803 13.6875 10.9436 13.2708 10.9176 12.7891H12.1285C12.1519 13.0781 12.2457 13.319 12.4097 13.5117C12.5764 13.7018 12.7887 13.8437 13.0465 13.9375C13.3069 14.0286 13.592 14.0742 13.9019 14.0742C14.2431 14.0742 14.5465 14.0208 14.8121 13.9141C15.0803 13.8047 15.2913 13.6536 15.4449 13.4609C15.5985 13.2656 15.6754 13.0378 15.6754 12.7773C15.6754 12.5404 15.6077 12.3464 15.4722 12.1953C15.3394 12.0443 15.1584 11.9193 14.9293 11.8203C14.7027 11.7214 14.4462 11.6341 14.1597 11.5586L13.2144 11.3008C12.5738 11.1263 12.066 10.8698 11.691 10.5312C11.3186 10.1927 11.1324 9.74479 11.1324 9.1875C11.1324 8.72656 11.2574 8.32422 11.5074 7.98047C11.7574 7.63672 12.0959 7.36979 12.523 7.17969C12.9501 6.98698 13.4319 6.89062 13.9683 6.89062C14.51 6.89062 14.9879 6.98568 15.4019 7.17578C15.8186 7.36589 16.1467 7.6276 16.3863 7.96094C16.6259 8.29167 16.7509 8.67187 16.7613 9.10156H15.5972ZM20.9153 15.1211C20.3241 15.1211 19.815 14.9948 19.3879 14.7422C18.9634 14.487 18.6353 14.1289 18.4035 13.668C18.1744 13.2044 18.0598 12.6615 18.0598 12.0391C18.0598 11.4245 18.1744 10.8828 18.4035 10.4141C18.6353 9.94531 18.9582 9.57943 19.3723 9.31641C19.789 9.05339 20.2759 8.92188 20.8332 8.92188C21.1718 8.92188 21.4999 8.97786 21.8176 9.08984C22.1353 9.20182 22.4205 9.3776 22.6731 9.61719C22.9257 9.85677 23.1249 10.168 23.2707 10.5508C23.4166 10.931 23.4895 11.3932 23.4895 11.9375V12.3516H18.7199V11.4766H22.3449C22.3449 11.1693 22.2824 10.8971 22.1574 10.6602C22.0324 10.4206 21.8567 10.2318 21.6301 10.0937C21.4061 9.95573 21.1431 9.88672 20.841 9.88672C20.5129 9.88672 20.2265 9.96745 19.9817 10.1289C19.7395 10.2878 19.552 10.4961 19.4192 10.7539C19.289 11.0091 19.2238 11.2865 19.2238 11.5859V12.2695C19.2238 12.6706 19.2942 13.0117 19.4348 13.293C19.578 13.5742 19.7772 13.7891 20.0324 13.9375C20.2877 14.0833 20.5858 14.1562 20.927 14.1562C21.1483 14.1562 21.3502 14.125 21.5324 14.0625C21.7147 13.9974 21.8723 13.901 22.0051 13.7734C22.1379 13.6458 22.2395 13.4883 22.3098 13.3008L23.4153 13.5C23.3267 13.8255 23.1679 14.1107 22.9387 14.3555C22.7121 14.5977 22.427 14.7865 22.0832 14.9219C21.7421 15.0547 21.3528 15.1211 20.9153 15.1211ZM26.0633 7V15H24.8954V7H26.0633ZM30.3306 15.1211C29.7394 15.1211 29.2303 14.9948 28.8032 14.7422C28.3787 14.487 28.0506 14.1289 27.8188 13.668C27.5897 13.2044 27.4751 12.6615 27.4751 12.0391C27.4751 11.4245 27.5897 10.8828 27.8188 10.4141C28.0506 9.94531 28.3735 9.57943 28.7876 9.31641C29.2043 9.05339 29.6912 8.92188 30.2485 8.92188C30.5871 8.92188 30.9152 8.97786 31.2329 9.08984C31.5506 9.20182 31.8358 9.3776 32.0884 9.61719C32.341 9.85677 32.5402 10.168 32.686 10.5508C32.8319 10.931 32.9048 11.3932 32.9048 11.9375V12.3516H28.1353V11.4766H31.7603C31.7603 11.1693 31.6978 10.8971 31.5728 10.6602C31.4478 10.4206 31.272 10.2318 31.0454 10.0937C30.8215 9.95573 30.5584 9.88672 30.2563 9.88672C29.9282 9.88672 29.6418 9.96745 29.397 10.1289C29.1548 10.2878 28.9673 10.4961 28.8345 10.7539C28.7043 11.0091 28.6392 11.2865 28.6392 11.5859V12.2695C28.6392 12.6706 28.7095 13.0117 28.8501 13.293C28.9933 13.5742 29.1925 13.7891 29.4478 13.9375C29.703 14.0833 30.0011 14.1562 30.3423 14.1562C30.5636 14.1562 30.7655 14.125 30.9478 14.0625C31.13 13.9974 31.2876 13.901 31.4204 13.7734C31.5532 13.6458 31.6548 13.4883 31.7251 13.3008L32.8306 13.5C32.742 13.8255 32.5832 14.1107 32.354 14.3555C32.1274 14.5977 31.8423 14.7865 31.4985 14.9219C31.1574 15.0547 30.7681 15.1211 30.3306 15.1211ZM38.8068 10.4648L37.7482 10.6523C37.7039 10.5169 37.6336 10.388 37.5372 10.2656C37.4435 10.1432 37.3159 10.043 37.1544 9.96484C36.993 9.88672 36.7912 9.84766 36.549 9.84766C36.2182 9.84766 35.9422 9.92187 35.7208 10.0703C35.4995 10.2161 35.3888 10.4049 35.3888 10.6367C35.3888 10.8372 35.463 10.9987 35.6115 11.1211C35.7599 11.2435 35.9995 11.3437 36.3302 11.4219L37.2833 11.6406C37.8354 11.7682 38.2469 11.9648 38.5177 12.2305C38.7885 12.4961 38.924 12.8411 38.924 13.2656C38.924 13.625 38.8198 13.9453 38.6115 14.2266C38.4057 14.5052 38.118 14.724 37.7482 14.8828C37.381 15.0417 36.9552 15.1211 36.4708 15.1211C35.799 15.1211 35.2508 14.9779 34.8263 14.6914C34.4018 14.4023 34.1414 13.9922 34.0451 13.4609L35.174 13.2891C35.2443 13.5833 35.3888 13.806 35.6076 13.957C35.8263 14.1055 36.1115 14.1797 36.463 14.1797C36.8458 14.1797 37.1518 14.1003 37.381 13.9414C37.6102 13.7799 37.7247 13.5833 37.7247 13.3516C37.7247 13.1641 37.6544 13.0065 37.5138 12.8789C37.3758 12.7513 37.1635 12.6549 36.8771 12.5898L35.8615 12.3672C35.3016 12.2396 34.8875 12.0365 34.6193 11.7578C34.3537 11.4792 34.2208 11.1263 34.2208 10.6992C34.2208 10.3451 34.3198 10.0352 34.5177 9.76953C34.7156 9.50391 34.9891 9.29687 35.338 9.14844C35.687 8.9974 36.0867 8.92188 36.5372 8.92188C37.1857 8.92188 37.6961 9.0625 38.0685 9.34375C38.4409 9.6224 38.687 9.99609 38.8068 10.4648ZM42.0642 15.1328C41.684 15.1328 41.3403 15.0625 41.033 14.9219C40.7257 14.7786 40.4822 14.5716 40.3025 14.3008C40.1254 14.0299 40.0369 13.6979 40.0369 13.3047C40.0369 12.9661 40.102 12.6875 40.2322 12.4687C40.3624 12.25 40.5382 12.0768 40.7596 11.9492C40.9809 11.8216 41.2283 11.7253 41.5017 11.6602C41.7752 11.5951 42.0538 11.5456 42.3377 11.5117C42.6971 11.4701 42.9887 11.4362 43.2127 11.4102C43.4366 11.3815 43.5994 11.3359 43.701 11.2734C43.8025 11.2109 43.8533 11.1094 43.8533 10.9687V10.9414C43.8533 10.6003 43.7569 10.3359 43.5642 10.1484C43.3741 9.96094 43.0903 9.86719 42.7127 9.86719C42.3194 9.86719 42.0096 9.95443 41.783 10.1289C41.559 10.3008 41.4041 10.4922 41.3181 10.7031L40.2205 10.4531C40.3507 10.0885 40.5408 9.79427 40.7908 9.57031C41.0434 9.34375 41.3338 9.17969 41.6619 9.07812C41.99 8.97396 42.3351 8.92188 42.6971 8.92188C42.9366 8.92188 43.1905 8.95052 43.4588 9.00781C43.7296 9.0625 43.9822 9.16406 44.2166 9.3125C44.4536 9.46094 44.6476 9.67318 44.7986 9.94922C44.9497 10.2227 45.0252 10.5781 45.0252 11.0156V15H43.8846V14.1797H43.8377C43.7622 14.3307 43.6489 14.4792 43.4978 14.625C43.3468 14.7708 43.1528 14.8919 42.9158 14.9883C42.6788 15.0846 42.395 15.1328 42.0642 15.1328ZM42.3181 14.1953C42.6411 14.1953 42.9171 14.1315 43.1463 14.0039C43.378 13.8763 43.5538 13.7096 43.6736 13.5039C43.796 13.2956 43.8572 13.0729 43.8572 12.8359V12.0625C43.8155 12.1042 43.7348 12.1432 43.615 12.1797C43.4978 12.2135 43.3637 12.2435 43.2127 12.2695C43.0616 12.293 42.9145 12.3151 42.7713 12.3359C42.628 12.3542 42.5082 12.3698 42.4119 12.3828C42.1853 12.4115 41.9783 12.4596 41.7908 12.5273C41.6059 12.5951 41.4575 12.6927 41.3455 12.8203C41.2361 12.9453 41.1814 13.112 41.1814 13.3203C41.1814 13.6094 41.2882 13.8281 41.5017 13.9766C41.7153 14.1224 41.9874 14.1953 42.3181 14.1953ZM46.6908 15V9H47.8588V15H46.6908ZM47.2807 8.07422C47.0776 8.07422 46.9031 8.00651 46.7572 7.87109C46.614 7.73307 46.5424 7.56901 46.5424 7.37891C46.5424 7.1862 46.614 7.02214 46.7572 6.88672C46.9031 6.7487 47.0776 6.67969 47.2807 6.67969C47.4838 6.67969 47.657 6.7487 47.8002 6.88672C47.9461 7.02214 48.019 7.1862 48.019 7.37891C48.019 7.56901 47.9461 7.73307 47.8002 7.87109C47.657 8.00651 47.4838 8.07422 47.2807 8.07422Z" fill="#2FB182"/>
</svg>
