<svg width="82" height="21" viewBox="0 0 82 21" fill="none" xmlns="http://www.w3.org/2000/svg">
<rect width="82" height="21" rx="3" fill="#FDF4F6"/>
<path d="M10.7542 8.03906V7H16.9456V8.03906H14.4495V15H13.2464V8.03906H10.7542ZM18.33 15V9H19.498V15H18.33ZM18.9199 8.07422C18.7167 8.07422 18.5423 8.00651 18.3964 7.87109C18.2532 7.73307 18.1816 7.56901 18.1816 7.37891C18.1816 7.1862 18.2532 7.02214 18.3964 6.88672C18.5423 6.7487 18.7167 6.67969 18.9199 6.67969C19.123 6.67969 19.2962 6.7487 19.4394 6.88672C19.5852 7.02214 19.6581 7.1862 19.6581 7.37891C19.6581 7.56901 19.5852 7.73307 19.4394 7.87109C19.2962 8.00651 19.123 8.07422 18.9199 8.07422ZM23.4254 15.1172C22.941 15.1172 22.5087 14.9935 22.1285 14.7461C21.7509 14.4961 21.454 14.1406 21.2379 13.6797C21.0243 13.2161 20.9176 12.6602 20.9176 12.0117C20.9176 11.3633 21.0256 10.8086 21.2418 10.3477C21.4605 9.88672 21.76 9.53385 22.1402 9.28906C22.5204 9.04427 22.9514 8.92188 23.4332 8.92188C23.8056 8.92188 24.1051 8.98438 24.3316 9.10937C24.5608 9.23177 24.7379 9.375 24.8629 9.53906C24.9905 9.70312 25.0894 9.84766 25.1597 9.97266H25.2301V7H26.398V15H25.2574V14.0664H25.1597C25.0894 14.194 24.9879 14.3398 24.8551 14.5039C24.7249 14.668 24.5452 14.8112 24.316 14.9336C24.0868 15.056 23.79 15.1172 23.4254 15.1172ZM23.6832 14.1211C24.0191 14.1211 24.303 14.0326 24.5347 13.8555C24.7691 13.6758 24.9462 13.4271 25.066 13.1094C25.1884 12.7917 25.2496 12.4219 25.2496 12C25.2496 11.5833 25.1897 11.2187 25.0699 10.9062C24.9501 10.5937 24.7743 10.3503 24.5426 10.1758C24.3108 10.0013 24.0243 9.91406 23.6832 9.91406C23.3316 9.91406 23.0387 10.0052 22.8043 10.1875C22.5699 10.3698 22.3928 10.6185 22.273 10.9336C22.1558 11.2487 22.0972 11.6042 22.0972 12C22.0972 12.401 22.1571 12.7617 22.2769 13.082C22.3967 13.4023 22.5738 13.6562 22.8082 13.8437C23.0452 14.0286 23.3368 14.1211 23.6832 14.1211ZM29.9211 15.1328C29.5409 15.1328 29.1972 15.0625 28.8899 14.9219C28.5826 14.7786 28.3391 14.5716 28.1594 14.3008C27.9823 14.0299 27.8938 13.6979 27.8938 13.3047C27.8938 12.9661 27.9589 12.6875 28.0891 12.4687C28.2193 12.25 28.3951 12.0768 28.6164 11.9492C28.8378 11.8216 29.0852 11.7253 29.3586 11.6602C29.6321 11.5951 29.9107 11.5456 30.1946 11.5117C30.5539 11.4701 30.8456 11.4362 31.0696 11.4102C31.2935 11.3815 31.4563 11.3359 31.5578 11.2734C31.6594 11.2109 31.7102 11.1094 31.7102 10.9687V10.9414C31.7102 10.6003 31.6138 10.3359 31.4211 10.1484C31.231 9.96094 30.9472 9.86719 30.5696 9.86719C30.1763 9.86719 29.8664 9.95443 29.6399 10.1289C29.4159 10.3008 29.261 10.4922 29.175 10.7031L28.0774 10.4531C28.2076 10.0885 28.3977 9.79427 28.6477 9.57031C28.9003 9.34375 29.1906 9.17969 29.5188 9.07812C29.8469 8.97396 30.1919 8.92188 30.5539 8.92188C30.7935 8.92188 31.0474 8.95052 31.3156 9.00781C31.5865 9.0625 31.8391 9.16406 32.0735 9.3125C32.3104 9.46094 32.5044 9.67318 32.6555 9.94922C32.8065 10.2227 32.8821 10.5781 32.8821 11.0156V15H31.7414V14.1797H31.6946C31.619 14.3307 31.5057 14.4792 31.3547 14.625C31.2037 14.7708 31.0097 14.8919 30.7727 14.9883C30.5357 15.0846 30.2518 15.1328 29.9211 15.1328ZM30.175 14.1953C30.4979 14.1953 30.774 14.1315 31.0031 14.0039C31.2349 13.8763 31.4107 13.7096 31.5305 13.5039C31.6529 13.2956 31.7141 13.0729 31.7141 12.8359V12.0625C31.6724 12.1042 31.5917 12.1432 31.4719 12.1797C31.3547 12.2135 31.2206 12.2435 31.0696 12.2695C30.9185 12.293 30.7714 12.3151 30.6281 12.3359C30.4849 12.3542 30.3651 12.3698 30.2688 12.3828C30.0422 12.4115 29.8352 12.4596 29.6477 12.5273C29.4628 12.5951 29.3143 12.6927 29.2024 12.8203C29.093 12.9453 29.0383 13.112 29.0383 13.3203C29.0383 13.6094 29.1451 13.8281 29.3586 13.9766C29.5722 14.1224 29.8443 14.1953 30.175 14.1953ZM35.6219 12.9648L35.6141 11.5391H35.8172L38.2079 9H39.6063L36.8797 11.8906H36.6962L35.6219 12.9648ZM34.5477 15V7H35.7157V15H34.5477ZM38.3368 15L36.1883 12.1484L36.993 11.332L39.7704 15H38.3368ZM43.8956 15V7H45.1027V10.4766H49.091V7H50.3019V15H49.091V11.5117H45.1027V15H43.8956ZM53.8221 15.1328C53.4418 15.1328 53.0981 15.0625 52.7908 14.9219C52.4835 14.7786 52.24 14.5716 52.0603 14.3008C51.8832 14.0299 51.7947 13.6979 51.7947 13.3047C51.7947 12.9661 51.8598 12.6875 51.99 12.4687C52.1202 12.25 52.296 12.0768 52.5174 11.9492C52.7387 11.8216 52.9861 11.7253 53.2596 11.6602C53.533 11.5951 53.8116 11.5456 54.0955 11.5117C54.4549 11.4701 54.7465 11.4362 54.9705 11.4102C55.1944 11.3815 55.3572 11.3359 55.4588 11.2734C55.5603 11.2109 55.6111 11.1094 55.6111 10.9687V10.9414C55.6111 10.6003 55.5148 10.3359 55.3221 10.1484C55.1319 9.96094 54.8481 9.86719 54.4705 9.86719C54.0773 9.86719 53.7674 9.95443 53.5408 10.1289C53.3168 10.3008 53.1619 10.4922 53.076 10.7031L51.9783 10.4531C52.1085 10.0885 52.2986 9.79427 52.5486 9.57031C52.8012 9.34375 53.0916 9.17969 53.4197 9.07812C53.7478 8.97396 54.0929 8.92188 54.4549 8.92188C54.6944 8.92188 54.9484 8.95052 55.2166 9.00781C55.4874 9.0625 55.74 9.16406 55.9744 9.3125C56.2114 9.46094 56.4054 9.67318 56.5564 9.94922C56.7075 10.2227 56.783 10.5781 56.783 11.0156V15H55.6424V14.1797H55.5955C55.52 14.3307 55.4067 14.4792 55.2556 14.625C55.1046 14.7708 54.9106 14.8919 54.6736 14.9883C54.4366 15.0846 54.1528 15.1328 53.8221 15.1328ZM54.076 14.1953C54.3989 14.1953 54.6749 14.1315 54.9041 14.0039C55.1359 13.8763 55.3116 13.7096 55.4314 13.5039C55.5538 13.2956 55.615 13.0729 55.615 12.8359V12.0625C55.5734 12.1042 55.4926 12.1432 55.3728 12.1797C55.2556 12.2135 55.1215 12.2435 54.9705 12.2695C54.8194 12.293 54.6723 12.3151 54.5291 12.3359C54.3859 12.3542 54.2661 12.3698 54.1697 12.3828C53.9431 12.4115 53.7361 12.4596 53.5486 12.5273C53.3637 12.5951 53.2153 12.6927 53.1033 12.8203C52.9939 12.9453 52.9392 13.112 52.9392 13.3203C52.9392 13.6094 53.046 13.8281 53.2596 13.9766C53.4731 14.1224 53.7452 14.1953 54.076 14.1953ZM60.6947 15.1172C60.2104 15.1172 59.7781 14.9935 59.3979 14.7461C59.0203 14.4961 58.7234 14.1406 58.5072 13.6797C58.2937 13.2161 58.1869 12.6602 58.1869 12.0117C58.1869 11.3633 58.295 10.8086 58.5112 10.3477C58.7299 9.88672 59.0294 9.53385 59.4096 9.28906C59.7898 9.04427 60.2208 8.92188 60.7026 8.92188C61.075 8.92188 61.3744 8.98438 61.601 9.10937C61.8302 9.23177 62.0072 9.375 62.1322 9.53906C62.2599 9.70312 62.3588 9.84766 62.4291 9.97266H62.4994V7H63.6674V15H62.5268V14.0664H62.4291C62.3588 14.194 62.2572 14.3398 62.1244 14.5039C61.9942 14.668 61.8145 14.8112 61.5854 14.9336C61.3562 15.056 61.0593 15.1172 60.6947 15.1172ZM60.9526 14.1211C61.2885 14.1211 61.5724 14.0326 61.8041 13.8555C62.0385 13.6758 62.2156 13.4271 62.3354 13.1094C62.4578 12.7917 62.519 12.4219 62.519 12C62.519 11.5833 62.4591 11.2187 62.3393 10.9062C62.2195 10.5937 62.0437 10.3503 61.8119 10.1758C61.5802 10.0013 61.2937 9.91406 60.9526 9.91406C60.601 9.91406 60.308 10.0052 60.0737 10.1875C59.8393 10.3698 59.6622 10.6185 59.5424 10.9336C59.4252 11.2487 59.3666 11.6042 59.3666 12C59.3666 12.401 59.4265 12.7617 59.5463 13.082C59.6661 13.4023 59.8432 13.6562 60.0776 13.8437C60.3145 14.0286 60.6062 14.1211 60.9526 14.1211ZM65.4444 15V9H66.6124V15H65.4444ZM66.0342 8.07422C65.8311 8.07422 65.6566 8.00651 65.5108 7.87109C65.3676 7.73307 65.296 7.56901 65.296 7.37891C65.296 7.1862 65.3676 7.02214 65.5108 6.88672C65.6566 6.7487 65.8311 6.67969 66.0342 6.67969C66.2374 6.67969 66.4105 6.7487 66.5538 6.88672C66.6996 7.02214 66.7725 7.1862 66.7725 7.37891C66.7725 7.56901 66.6996 7.73307 66.5538 7.87109C66.4105 8.00651 66.2374 8.07422 66.0342 8.07422ZM68.2937 15V9H69.4226V9.95312H69.4851C69.5944 9.63021 69.7871 9.3763 70.0632 9.19141C70.3418 9.00391 70.6569 8.91016 71.0085 8.91016C71.0814 8.91016 71.1673 8.91276 71.2663 8.91797C71.3679 8.92318 71.4473 8.92969 71.5046 8.9375V10.0547C71.4577 10.0417 71.3744 10.0273 71.2546 10.0117C71.1348 9.99349 71.015 9.98437 70.8952 9.98437C70.6192 9.98437 70.3731 10.043 70.1569 10.1602C69.9434 10.2747 69.7741 10.4349 69.6491 10.6406C69.5241 10.8437 69.4616 11.0755 69.4616 11.3359V15H68.2937Z" fill="#DE486C"/>
</svg>
