<svg width="80" height="16" viewBox="0 0 80 16" fill="none" xmlns="http://www.w3.org/2000/svg">
<g clip-path="url(#clip0_12644_1211)">
<mask id="mask0_12644_1211" style="mask-type:luminance" maskUnits="userSpaceOnUse" x="0" y="0" width="80" height="16">
<path d="M80 0H0V16H80V0Z" fill="white"/>
</mask>
<g mask="url(#mask0_12644_1211)">
<path d="M1.38816 15.7846C0.946797 15.7846 0.605098 15.6626 0.363058 15.4185C0.121019 15.1601 0 14.8084 0 14.3634V1.93806C0 1.47866 0.113901 1.13411 0.341702 0.90441C0.583739 0.660357 0.925441 0.53833 1.36681 0.53833C1.80817 0.53833 2.14275 0.660357 2.37056 0.90441C2.61259 1.13411 2.73361 1.47866 2.73361 1.93806V13.4374H8.92694C9.31137 13.4374 9.60324 13.5379 9.80258 13.7389C10.0161 13.9399 10.1229 14.227 10.1229 14.6002C10.1229 14.9735 10.0161 15.2678 9.80258 15.4831C9.60324 15.6841 9.31137 15.7846 8.92694 15.7846H1.38816Z" fill="white"/>
<path d="M13.0608 15.9353C12.6337 15.9353 12.3063 15.8061 12.0785 15.5477C11.8507 15.2893 11.7367 14.9304 11.7367 14.471V6.56785C11.7367 6.09409 11.8507 5.73519 12.0785 5.49116C12.3063 5.23272 12.6337 5.10352 13.0608 5.10352C13.488 5.10352 13.8154 5.23272 14.0432 5.49116C14.2853 5.73519 14.4063 6.09409 14.4063 6.56785V14.471C14.4063 14.9304 14.2924 15.2893 14.0646 15.5477C13.8368 15.8061 13.5022 15.9353 13.0608 15.9353ZM13.0608 3.10083C12.5625 3.10083 12.171 2.9788 11.8863 2.73475C11.6157 2.47634 11.4805 2.12461 11.4805 1.67956C11.4805 1.22016 11.6157 0.868438 11.8863 0.624381C12.171 0.380328 12.5625 0.258301 13.0608 0.258301C13.5734 0.258301 13.9649 0.380328 14.2354 0.624381C14.506 0.868438 14.6412 1.22016 14.6412 1.67956C14.6412 2.12461 14.506 2.47634 14.2354 2.73475C13.9649 2.9788 13.5734 3.10083 13.0608 3.10083Z" fill="white"/>
<path d="M18.5038 15.957C18.0766 15.957 17.7492 15.8421 17.5214 15.6124C17.2936 15.3684 17.1797 15.0238 17.1797 14.5788V6.4388C17.1797 5.99376 17.2936 5.65636 17.5214 5.42666C17.7492 5.19696 18.0695 5.08213 18.4824 5.08213C18.8953 5.08213 19.2157 5.19696 19.4435 5.42666C19.6713 5.65636 19.7852 5.99376 19.7852 6.4388V7.90313L19.5503 7.36476C19.8635 6.6039 20.3476 6.02963 21.0025 5.64203C21.6717 5.24006 22.4262 5.03906 23.2663 5.03906C24.1063 5.03906 24.7968 5.19696 25.3378 5.51283C25.8789 5.82866 26.2846 6.3096 26.5551 6.95563C26.8256 7.5873 26.9609 8.39123 26.9609 9.36746V14.5788C26.9609 15.0238 26.847 15.3684 26.6192 15.6124C26.3914 15.8421 26.064 15.957 25.6368 15.957C25.2097 15.957 24.8751 15.8421 24.6331 15.6124C24.4053 15.3684 24.2914 15.0238 24.2914 14.5788V9.49666C24.2914 8.67836 24.1348 8.08256 23.8215 7.70933C23.5225 7.33606 23.0527 7.14943 22.412 7.14943C21.6289 7.14943 21.0025 7.40066 20.5326 7.90313C20.077 8.39123 19.8492 9.04443 19.8492 9.86276V14.5788C19.8492 15.4976 19.4007 15.957 18.5038 15.957Z" fill="white"/>
<path d="M34.4349 16C33.3526 16 32.413 15.7775 31.6157 15.3325C30.8184 14.8874 30.1991 14.2558 29.7578 13.4374C29.3164 12.6048 29.0957 11.6286 29.0957 10.5088C29.0957 9.66176 29.2167 8.90806 29.4587 8.24766C29.715 7.57293 30.0781 6.9987 30.5479 6.52493C31.0178 6.03683 31.5801 5.67073 32.2351 5.42666C32.89 5.16826 33.6233 5.03906 34.4349 5.03906C35.5169 5.03906 36.4564 5.2616 37.2538 5.70663C38.0511 6.15166 38.6706 6.78333 39.1119 7.60163C39.5533 8.41996 39.7738 9.389 39.7738 10.5088C39.7738 11.3558 39.6458 12.1167 39.3896 12.7914C39.1473 13.4662 38.7916 14.0476 38.3215 14.5357C37.8518 15.0095 37.2895 15.3755 36.6346 15.6339C35.9797 15.878 35.2465 16 34.4349 16ZM34.4349 13.9543C34.9615 13.9543 35.4243 13.8251 35.823 13.5667C36.2217 13.3082 36.5278 12.9278 36.7414 12.4253C36.9691 11.9085 37.0828 11.2697 37.0828 10.5088C37.0828 9.3603 36.8409 8.5061 36.3569 7.9462C35.8729 7.37193 35.2323 7.08483 34.4349 7.08483C33.908 7.08483 33.4452 7.21403 33.0466 7.47243C32.648 7.7165 32.3347 8.09693 32.1069 8.61376C31.8934 9.11623 31.7866 9.7479 31.7866 10.5088C31.7866 11.6429 32.0286 12.5043 32.5127 13.0929C32.9968 13.6671 33.6376 13.9543 34.4349 13.9543Z" fill="white"/>
<path d="M45.9966 15.9569C45.6406 15.9569 45.3275 15.8635 45.0571 15.6769C44.8006 15.4903 44.5871 15.2032 44.4165 14.8155L41.0208 6.86936C40.8925 6.55353 40.8426 6.25923 40.871 5.98646C40.914 5.7137 41.0419 5.49836 41.2555 5.34043C41.4832 5.16816 41.7894 5.08203 42.1738 5.08203C42.5014 5.08203 42.7649 5.161 42.9642 5.3189C43.1632 5.46246 43.3414 5.74243 43.4981 6.15873L46.3811 13.4158H45.7404L48.709 6.1372C48.8654 5.73523 49.0436 5.46246 49.2429 5.3189C49.4565 5.161 49.7411 5.08203 50.0971 5.08203C50.4102 5.08203 50.6594 5.16816 50.8446 5.34043C51.0297 5.49836 51.1434 5.7137 51.1864 5.98646C51.229 6.2449 51.1791 6.532 51.0366 6.84783L47.5771 14.8155C47.4204 15.2032 47.2069 15.4903 46.9365 15.6769C46.6799 15.8635 46.3669 15.9569 45.9966 15.9569Z" fill="white"/>
<path d="M62.1705 0.581427C62.2842 0.366083 62.4766 0.215343 62.747 0.129206C63.0174 0.0430687 63.3592 0 63.7721 0C64.185 0 64.5126 0.0358903 64.7546 0.107671C64.9966 0.179452 65.1817 0.26559 65.3096 0.366083C65.4379 0.466577 65.5377 0.61014 65.6088 0.79677C65.6799 1.04083 65.7156 1.41409 65.7156 1.91655V13.8681C65.7156 14.1983 65.7014 14.4495 65.673 14.6218C65.6587 14.7797 65.5946 14.9664 65.4806 15.1817C65.2812 15.5693 64.7262 15.7631 63.8148 15.7631C62.8181 15.7631 62.2346 15.4975 62.0637 14.9664C61.9781 14.7223 61.9354 14.349 61.9354 13.8466V9.4751H56.2759V13.8681C56.2759 14.1983 56.2617 14.4495 56.2333 14.6218C56.2191 14.7797 56.1549 14.9664 56.0412 15.1817C55.8419 15.5693 55.2865 15.7631 54.3754 15.7631C53.3787 15.7631 52.7949 15.4975 52.624 14.9664C52.5387 14.7223 52.4961 14.349 52.4961 13.8466V1.89502C52.4961 1.56483 52.503 1.32077 52.5172 1.16285C52.5457 0.99058 52.6171 0.79677 52.7308 0.581427C52.9301 0.193809 53.4855 0 54.3966 0C55.3933 0 55.984 0.26559 56.1691 0.79677C56.2406 1.04083 56.2759 1.41409 56.2759 1.91655V6.30957H61.9354V1.89502C61.9354 1.56483 61.9427 1.32077 61.9569 1.16285C61.9854 0.99058 62.0564 0.79677 62.1705 0.581427Z" fill="white"/>
<path d="M79.4108 13.1144C79.6244 13.6312 79.7312 14.0045 79.7312 14.2342C79.7312 14.7797 79.2895 15.2391 78.4069 15.6124C77.9513 15.8134 77.5811 15.9139 77.2965 15.9139C77.0261 15.9139 76.798 15.8493 76.6132 15.7201C76.4422 15.5765 76.314 15.4329 76.2287 15.2894C76.0862 15.0166 75.5308 13.7174 74.5629 11.3917L73.9008 11.4347H71.2099V13.8681C71.2099 14.1983 71.1956 14.4495 71.1672 14.6218C71.153 14.7797 71.0889 14.9664 70.9748 15.1817C70.7755 15.5693 70.2204 15.7631 69.309 15.7631C68.3127 15.7631 67.7289 15.4975 67.5579 14.9664C67.4723 14.7223 67.4297 14.349 67.4297 13.8466V1.89502C67.4297 1.56483 67.437 1.32077 67.4512 1.16285C67.4796 0.99058 67.5507 0.79677 67.6647 0.581427C67.8641 0.193809 68.4194 0 69.3305 0H73.9434C75.1963 0 76.4138 0.4594 77.5953 1.3782C78.1649 1.82324 78.6346 2.4262 79.0049 3.18708C79.3751 3.94797 79.5603 4.79497 79.5603 5.72813C79.5603 7.35037 79.0264 8.6855 77.9586 9.7335C78.2717 10.4944 78.7556 11.6214 79.4108 13.1144ZM71.2099 7.62317H73.9434C74.3563 7.62317 74.7692 7.46523 75.1821 7.1494C75.595 6.83357 75.8016 6.3598 75.8016 5.72813C75.8016 5.09647 75.595 4.6227 75.1821 4.30687C74.7692 3.97667 74.3421 3.81157 73.9008 3.81157H71.2099V7.62317Z" fill="white"/>
</g>
</g>
<defs>
<clipPath id="clip0_12644_1211">
<rect width="80" height="16" fill="white"/>
</clipPath>
</defs>
</svg>
