<svg id="Layer_1" data-name="Layer 1" xmlns="http://www.w3.org/2000/svg" viewBox="0 0 368.49 73.28"><defs><style>.cls-1{fill:#fff;}</style></defs><title>LinovHR</title><path class="cls-1" d="M1.58,70.91A5.88,5.88,0,0,1,0,66.56V8.6A6.21,6.21,0,0,1,1.73,4a6.2,6.2,0,0,1,4.6-1.74A6.34,6.34,0,0,1,11,4,6.21,6.21,0,0,1,12.76,8.6V62H40.55q5.93,0,5.93,5.24c0,3.5-2,5.24-5.93,5.24H6A6,6,0,0,1,1.58,70.91Z"/><path class="cls-1" d="M54.59,12.51a6.23,6.23,0,0,1-2-4.8,6.06,6.06,0,0,1,2-4.74,7.67,7.67,0,0,1,5.34-1.78A7.7,7.7,0,0,1,65.22,3a6,6,0,0,1,2,4.74,6.23,6.23,0,0,1-2,4.8,7.56,7.56,0,0,1-5.34,1.83A7.56,7.56,0,0,1,54.59,12.51Zm.94,59a5.58,5.58,0,0,1-1.73-4.4V29a5.41,5.41,0,0,1,1.73-4.35,6.51,6.51,0,0,1,4.4-1.49,6.72,6.72,0,0,1,4.45,1.49A5.32,5.32,0,0,1,66.16,29V67.15a5.48,5.48,0,0,1-1.78,4.4,6.6,6.6,0,0,1-4.45,1.54A6.4,6.4,0,0,1,55.53,71.55Z"/><path class="cls-1" d="M120,27.89q4.25,5,4.25,14.93V67.15a5.75,5.75,0,0,1-1.63,4.35,6.18,6.18,0,0,1-4.5,1.59,6.35,6.35,0,0,1-4.55-1.59,5.67,5.67,0,0,1-1.68-4.35V43.52q0-5.64-2.12-8.21c-1.42-1.72-3.65-2.57-6.68-2.57A11.27,11.27,0,0,0,94.5,36.1a12.45,12.45,0,0,0-3.22,9V67.15A5.67,5.67,0,0,1,89.6,71.5a6.35,6.35,0,0,1-4.55,1.59,6.18,6.18,0,0,1-4.5-1.59,5.75,5.75,0,0,1-1.63-4.35V28.88a5.47,5.47,0,0,1,1.68-4.16,6.39,6.39,0,0,1,4.55-1.58,5.9,5.9,0,0,1,4.2,1.53,5.25,5.25,0,0,1,1.63,4v2.67a16.76,16.76,0,0,1,6.63-6.23,20,20,0,0,1,9.4-2.18Q115.71,22.94,120,27.89Z"/><path class="cls-1" d="M145.82,70.22a21.27,21.27,0,0,1-8.65-8.8,27.88,27.88,0,0,1-3.07-13.36,27.55,27.55,0,0,1,3.07-13.3A21.26,21.26,0,0,1,145.82,26a29.08,29.08,0,0,1,26,0,21,21,0,0,1,8.61,8.75,28,28,0,0,1,3,13.3,28.33,28.33,0,0,1-3,13.36,21,21,0,0,1-8.61,8.8,29.17,29.17,0,0,1-26,0Zm22.11-10.49q3.16-3.94,3.16-11.67t-3.16-11.62q-3.17-4-9.1-4t-9.15,4q-3.21,4-3.22,11.62t3.17,11.67q3.17,4,9.1,4T167.93,59.73Z"/><path class="cls-1" d="M228.7,24a5.17,5.17,0,0,1,2.92-.89,6.24,6.24,0,0,1,4.1,1.53,4.8,4.8,0,0,1,1.83,3.81,5.36,5.36,0,0,1-.59,2.38l-18.3,38.27A6.5,6.5,0,0,1,216.14,72a6.83,6.83,0,0,1-3.61,1,7.17,7.17,0,0,1-3.61-1,6.3,6.3,0,0,1-2.62-2.87L187.9,30.86a5,5,0,0,1-.49-2.28,4.83,4.83,0,0,1,1.93-3.86,6.75,6.75,0,0,1,4.4-1.58A5.53,5.53,0,0,1,199,26.6l13.85,30.56L226.57,26.7A6.15,6.15,0,0,1,228.7,24Z"/><path class="cls-1" d="M287.2,2.67A4.31,4.31,0,0,1,289.87.59,16.17,16.17,0,0,1,294.61,0a16.68,16.68,0,0,1,4.55.5,7.82,7.82,0,0,1,2.57,1.18,4.4,4.4,0,0,1,1.39,2,19.7,19.7,0,0,1,.49,5.14V63.69a28.36,28.36,0,0,1-.15,3.41,7.67,7.67,0,0,1-.94,2.62q-1.38,2.67-7.71,2.67-6.93,0-8.11-3.66a16.39,16.39,0,0,1-.59-5.14V43.52H259.9V63.69a28.36,28.36,0,0,1-.15,3.41,7.88,7.88,0,0,1-.94,2.62q-1.38,2.67-7.71,2.67-6.93,0-8.11-3.66a16.33,16.33,0,0,1-.6-5.14V8.7a28.47,28.47,0,0,1,.15-3.41,7.88,7.88,0,0,1,.94-2.62Q244.88,0,251.2,0q6.92,0,8.21,3.66a20.16,20.16,0,0,1,.49,5.14V29h26.21V8.7a28.47,28.47,0,0,1,.15-3.41A7.67,7.67,0,0,1,287.2,2.67Z"/><path class="cls-1" d="M367,60.23a15.72,15.72,0,0,1,1.49,5.14q0,3.76-6.13,6.33a13.69,13.69,0,0,1-5.1,1.39,5.11,5.11,0,0,1-3.16-.94,7.11,7.11,0,0,1-1.83-1.93q-1-1.87-7.72-17.9l-3.06.19H329V63.69a28.36,28.36,0,0,1-.15,3.41,7.88,7.88,0,0,1-.94,2.62q-1.38,2.67-7.71,2.67-6.93,0-8.11-3.66a16.33,16.33,0,0,1-.6-5.14V8.7a28.47,28.47,0,0,1,.15-3.41,7.88,7.88,0,0,1,.94-2.62C313.53.89,316.11,0,320.33,0h21.36q8.7,0,16.91,6.33a23.28,23.28,0,0,1,6.53,8.31,26.17,26.17,0,0,1,2.57,11.67q0,11.18-7.42,18.39Q362.46,50,367,60.23ZM329,35h12.66a9.4,9.4,0,0,0,5.73-2.18,7.67,7.67,0,0,0,2.87-6.52,7.82,7.82,0,0,0-2.87-6.58,9.6,9.6,0,0,0-5.93-2.23H329Z"/></svg>