<svg width="30" height="40" viewBox="0 0 30 40" fill="none" xmlns="http://www.w3.org/2000/svg">
<g clip-path="url(#clip0_17763_65559)">
<path d="M28.8984 7.64844L22.3438 1.09375C21.6406 0.390625 20.6875 -0.0078125 19.6953 -0.0078125H3.75C1.67969 0 0 1.67969 0 3.75V36.25C0 38.3203 1.67969 40 3.75 40H26.25C28.3203 40 30 38.3203 30 36.25V10.3047C30 9.3125 29.6016 8.35156 28.8984 7.64844ZM25.9453 10H20V4.05469L25.9453 10ZM3.75 36.25V3.75H16.25V11.875C16.25 12.9141 17.0859 13.75 18.125 13.75H26.25V36.25H3.75ZM6.25 32.5H23.75V22.5L21.9141 20.6641C21.5469 20.2969 20.9531 20.2969 20.5859 20.6641L13.75 27.5L10.6641 24.4141C10.2969 24.0469 9.70312 24.0469 9.33594 24.4141L6.25 27.5V32.5ZM10 13.75C7.92969 13.75 6.25 15.4297 6.25 17.5C6.25 19.5703 7.92969 21.25 10 21.25C12.0703 21.25 13.75 19.5703 13.75 17.5C13.75 15.4297 12.0703 13.75 10 13.75Z" fill="#E1E1E1"/>
</g>
<defs>
<clipPath id="clip0_17763_65559">
<rect width="30" height="40" fill="white"/>
</clipPath>
</defs>
</svg>
