<svg width="11" height="11" viewBox="0 0 11 11" fill="none" xmlns="http://www.w3.org/2000/svg">
<path fill-rule="evenodd" clip-rule="evenodd" d="M0.5 5.5C0.5 2.75 2.75 0.5 5.5 0.5C8.25 0.5 10.5 2.75 10.5 5.5C10.5 6.19594 10.3559 6.85985 10.0961 7.46338C9.68941 6.88099 9.0142 6.5 8.25 6.5C7.00736 6.5 6 7.50736 6 8.75C6 9.38058 6.2594 9.95056 6.67731 10.3591C6.29946 10.4512 5.90516 10.5 5.5 10.5C2.75 10.5 0.5 8.25 0.5 5.5ZM5.5 6C5.8 6 6 5.8 6 5.5V3C6 2.7 5.8 2.5 5.5 2.5C5.2 2.5 5 2.7 5 3V5H4C3.7 5 3.5 5.2 3.5 5.5C3.5 5.8 3.7 6 4 6H5.5Z" fill="#0E8EC5"/>
<rect x="7.83594" y="7.5" width="0.833333" height="2.5" rx="0.416667" fill="#0E8EC5"/>
<rect x="7" y="9.16699" width="0.833333" height="2.5" rx="0.416667" transform="rotate(-90 7 9.16699)" fill="#0E8EC5"/>
</svg>
