<svg width="11" height="10" viewBox="0 0 11 10" fill="none" xmlns="http://www.w3.org/2000/svg">
<path d="M1.90156 1.9998C1.90156 1.68154 2.02799 1.37632 2.25303 1.15128C2.47808 0.926233 2.7833 0.799805 3.10156 0.799805H7.30156C7.61982 0.799805 7.92505 0.926233 8.15009 1.15128C8.37513 1.37632 8.50156 1.68154 8.50156 1.9998V6.1998H10.3016V7.39981C10.3016 7.87719 10.1119 8.33503 9.77435 8.6726C9.43679 9.01016 8.97895 9.19981 8.50156 9.19981H6.07156C6.09136 9.1026 6.10156 9.00241 6.10156 8.89981V7.0998C6.10156 6.70198 5.94353 6.32045 5.66222 6.03914C5.38092 5.75784 4.99939 5.5998 4.60156 5.5998H1.90156V1.9998ZM8.50156 8.5998C8.81982 8.5998 9.12505 8.47338 9.35009 8.24833C9.57513 8.02329 9.70156 7.71806 9.70156 7.39981V6.7998H8.50156V8.5998ZM4.00156 2.5998C3.922 2.5998 3.84569 2.63141 3.78943 2.68767C3.73317 2.74393 3.70156 2.82024 3.70156 2.8998C3.70156 2.97937 3.73317 3.05568 3.78943 3.11194C3.84569 3.1682 3.922 3.1998 4.00156 3.1998H6.40156C6.48113 3.1998 6.55743 3.1682 6.6137 3.11194C6.66996 3.05568 6.70156 2.97937 6.70156 2.8998C6.70156 2.82024 6.66996 2.74393 6.6137 2.68767C6.55743 2.63141 6.48113 2.5998 6.40156 2.5998H4.00156ZM4.00156 4.3998C3.922 4.3998 3.84569 4.43141 3.78943 4.48767C3.73317 4.54393 3.70156 4.62024 3.70156 4.6998C3.70156 4.77937 3.73317 4.85568 3.78943 4.91194C3.84569 4.9682 3.922 4.9998 4.00156 4.9998H6.40156C6.48113 4.9998 6.55743 4.9682 6.6137 4.91194C6.66996 4.85568 6.70156 4.77937 6.70156 4.6998C6.70156 4.62024 6.66996 4.54393 6.6137 4.48767C6.55743 4.43141 6.48113 4.3998 6.40156 4.3998H4.00156ZM5.50156 7.0998C5.50156 6.86111 5.40674 6.63219 5.23796 6.46341C5.06918 6.29463 4.84026 6.1998 4.60156 6.1998H1.00156C0.762868 6.1998 0.533949 6.29463 0.365166 6.46341C0.196384 6.63219 0.101563 6.86111 0.101562 7.0998V8.89981C0.101563 9.1385 0.196384 9.36742 0.365166 9.5362C0.533949 9.70498 0.762868 9.7998 1.00156 9.7998H4.60156C4.84026 9.7998 5.06918 9.70498 5.23796 9.5362C5.40674 9.36742 5.50156 9.1385 5.50156 8.89981V7.0998ZM4.90156 8.29981V8.89981C4.822 8.89981 4.74569 8.93141 4.68943 8.98767C4.63317 9.04393 4.60156 9.12024 4.60156 9.19981H4.00156C4.00156 8.96111 4.09638 8.73219 4.26517 8.56341C4.43395 8.39463 4.66287 8.29981 4.90156 8.29981ZM4.60156 6.7998C4.60156 6.87937 4.63317 6.95568 4.68943 7.01194C4.74569 7.0682 4.822 7.0998 4.90156 7.0998V7.6998C4.66287 7.6998 4.43395 7.60498 4.26517 7.4362C4.09638 7.26742 4.00156 7.0385 4.00156 6.7998H4.60156ZM0.701563 7.0998C0.781127 7.0998 0.857434 7.0682 0.913695 7.01194C0.969955 6.95568 1.00156 6.87937 1.00156 6.7998H1.60156C1.60156 7.0385 1.50674 7.26742 1.33796 7.4362C1.16918 7.60498 0.940257 7.6998 0.701563 7.6998V7.0998ZM1.00156 9.19981C1.00156 9.12024 0.969955 9.04393 0.913695 8.98767C0.857434 8.93141 0.781127 8.89981 0.701563 8.89981V8.29981C0.940257 8.29981 1.16918 8.39463 1.33796 8.56341C1.50674 8.73219 1.60156 8.96111 1.60156 9.19981H1.00156ZM1.90156 7.9998C1.90156 7.88162 1.92484 7.76458 1.97007 7.65539C2.0153 7.5462 2.08159 7.44698 2.16517 7.36341C2.24874 7.27984 2.34795 7.21354 2.45715 7.16831C2.56634 7.12308 2.68337 7.0998 2.80156 7.0998C2.91975 7.0998 3.03678 7.12308 3.14598 7.16831C3.25517 7.21354 3.35439 7.27984 3.43796 7.36341C3.52153 7.44698 3.58783 7.5462 3.63305 7.65539C3.67828 7.76458 3.70156 7.88162 3.70156 7.9998C3.70156 8.2385 3.60674 8.46742 3.43796 8.6362C3.26918 8.80498 3.04026 8.89981 2.80156 8.89981C2.56287 8.89981 2.33395 8.80498 2.16517 8.6362C1.99638 8.46742 1.90156 8.2385 1.90156 7.9998Z" fill="#0E8EC5"/>
</svg>
